<?xml version="1.0" standalone="no"?>
<!DOCTYPE svg PUBLIC "-//W3C//DTD SVG 1.1//EN" "http://www.w3.org/Graphics/SVG/1.1/DTD/svg11.dtd" >
<svg xmlns="http://www.w3.org/2000/svg" xmlns:xlink="http://www.w3.org/1999/xlink" version="1.1">
<metadata>
Created by FontForge 20170731 at Sat Aug  5 07:28:20 2023
 By Aleksey,,,
Copyright (c) 2015 by Kostas Bartsokas. All rights reserved.
</metadata>
<defs>
<font id="AvertaDemoPE-ExtraboldItalic" horiz-adv-x="1120" >
  <font-face 
    font-family="Averta Demo PE Extrabold"
    font-weight="800"
    font-style="italic"
    font-stretch="normal"
    units-per-em="2048"
    panose-1="0 0 9 0 0 0 0 0 0 0"
    ascent="1638"
    descent="-410"
    x-height="1001"
    cap-height="1454"
    bbox="-1530 -797 2839 2175"
    underline-thickness="118"
    underline-position="-317"
    slope="-7"
    unicode-range="U+000D-2E18"
  />
<missing-glyph horiz-adv-x="811" 
 />
    <glyph glyph-name=".notdef" horiz-adv-x="811" 
 />
    <glyph glyph-name=".null" horiz-adv-x="0" 
 />
    <glyph glyph-name="nonmarkingreturn" horiz-adv-x="682" 
 />
    <glyph glyph-name="CR" unicode="&#xd;" horiz-adv-x="0" 
 />
    <glyph glyph-name="space" unicode=" " horiz-adv-x="364" 
 />
    <glyph glyph-name="exclam" unicode="!" horiz-adv-x="598" 
d="M209 496l72 1011h325l-178 -1011h-219zM276 -23q-80 0 -128 50.5t-48 128.5q0 79 50.5 129.5t132.5 50.5t130 -48.5t48 -125.5q0 -81 -50.5 -133t-134.5 -52z" />
    <glyph glyph-name="quotedbl" unicode="&#x22;" horiz-adv-x="868" 
d="M111 907l120 547h306l-197 -547h-229zM514 907l121 547h307l-199 -547h-229z" />
    <glyph glyph-name="numbersign" unicode="#" horiz-adv-x="1208" 
d="M109 -96l98 372h-176l28 224h209l70 268h-197l27 225h231l88 350h209l-90 -350h217l90 350h207l-90 -350h187l-29 -225h-219l-68 -268h205l-31 -224h-237l-97 -372h-206l96 372h-215l-99 -372h-208zM475 500h219l66 268h-215z" />
    <glyph glyph-name="dollar" unicode="$" horiz-adv-x="1075" 
d="M627 834q26 -16 71.5 -42.5t70 -40.5t61 -38.5t56 -43t44 -45.5t36.5 -54t20.5 -62t8.5 -74q0 -191 -111.5 -307t-301.5 -137l-31 -230h-201l31 238q-232 47 -348 231l225 199q45 -76 112.5 -116t137.5 -40q72 0 115 32.5t43 80.5q0 36 -28.5 61t-116.5 76q-21 12 -32 19
q-133 78 -178 113q-132 103 -150 244q-3 24 -3 50q0 168 107 280.5t274 137.5l28 236h203l-31 -242q90 -21 168 -72t131 -127l-223 -188q-88 114 -205 114q-53 0 -88 -29.5t-35 -74.5q2 -37 32 -69.5t108 -79.5z" />
    <glyph glyph-name="percent" unicode="%" horiz-adv-x="2025" 
d="M768 -51l-219 100l760 1442l219 -100zM506 653q-163 0 -270 107t-107 276q0 183 122.5 307.5t299.5 124.5q163 0 271 -106.5t108 -274.5q0 -185 -124 -309.5t-300 -124.5zM514 862q77 0 131.5 62t54.5 157q0 79 -44.5 127.5t-114.5 48.5q-75 0 -129 -62.5t-54 -154.5
q0 -81 44 -129.5t112 -48.5zM1528 -18q-163 0 -270 107t-107 276q0 183 122.5 307.5t299.5 124.5q164 0 271.5 -106t107.5 -275q0 -122 -57 -222t-154 -156t-213 -56zM1536 190q77 0 131.5 62.5t54.5 157.5q0 79 -44.5 127.5t-114.5 48.5q-74 0 -128.5 -62.5t-54.5 -154.5
q0 -82 44 -130.5t112 -48.5z" />
    <glyph glyph-name="ampersand" unicode="&#x26;" horiz-adv-x="1472" 
d="M442 -18q-174 0 -285.5 107t-111.5 284q0 138 75 260.5t208 183.5q-90 90 -90 219q0 189 129 313t323 124q85 0 152 -19.5t109 -49t73.5 -73.5t47 -85t26.5 -91l-254 -80q-8 61 -42 99.5t-97 39.5q-72 0 -117 -48.5t-45 -123.5q0 -47 31.5 -76.5t82.5 -29.5h832l-33 -274
h-291q-49 -316 -233.5 -498t-489.5 -182zM494 256q75 0 142 34.5t115.5 92t82.5 129t51 150.5h-267q-115 0 -191.5 -81t-76.5 -178q0 -69 40.5 -108t103.5 -39z" />
    <glyph glyph-name="quotesingle" unicode="'" horiz-adv-x="464" 
d="M111 907l120 547h306l-197 -547h-229z" />
    <glyph glyph-name="parenleft" unicode="(" horiz-adv-x="616" 
d="M223 -334q-133 278 -133 656q0 328 96 650.5t275 559.5l203 -90q-142 -229 -220.5 -515t-78.5 -567q0 -312 98 -583z" />
    <glyph glyph-name="parenright" unicode=")" horiz-adv-x="616" 
d="M184 -324l-204 88q143 235 219.5 518.5t76.5 565.5q0 322 -96 584l238 108q135 -261 135 -653q0 -329 -94.5 -647.5t-274.5 -563.5z" />
    <glyph glyph-name="asterisk" unicode="*" horiz-adv-x="749" 
d="M319 778l35 199l-149 -107l-76 156l158 88l-137 92l108 156l129 -107l16 199h177l-33 -199l151 105l74 -154l-160 -90l140 -90l-109 -156l-125 107l-20 -199h-179z" />
    <glyph glyph-name="plus" unicode="+" horiz-adv-x="1087" 
d="M360 82l43 356h-309l33 258h309l45 361h262l-45 -361h312l-33 -258h-311l-43 -356h-263z" />
    <glyph glyph-name="comma" unicode="," horiz-adv-x="487" 
d="M-55 -272l121 546h303l-207 -546h-217z" />
    <glyph glyph-name="hyphen" unicode="-" horiz-adv-x="735" 
d="M82 492l35 280h567l-35 -280h-567z" />
    <glyph glyph-name="period" unicode="." horiz-adv-x="546" 
d="M227 -23q-80 0 -128 50.5t-48 128.5q0 79 50 129.5t132 50.5t130.5 -49t48.5 -125q0 -81 -50.5 -133t-134.5 -52z" />
    <glyph glyph-name="slash" unicode="/" horiz-adv-x="808" 
d="M53 -227l-209 100l916 1749l203 -102z" />
    <glyph glyph-name="zero" unicode="0" horiz-adv-x="1179" 
d="M537 -18q-211 0 -325 141.5t-114 413.5q0 137 23.5 265t72 241t118 197.5t168.5 133.5t216 49q210 0 323.5 -143.5t113.5 -411.5q0 -137 -23.5 -265.5t-73 -241.5t-119 -197t-167.5 -133t-213 -49zM553 281q67 0 118 59.5t79 154t41.5 194t13.5 196.5q0 241 -129 241
q-66 0 -117 -60.5t-79 -156.5t-42 -197t-14 -198q0 -111 33 -172t96 -61z" />
    <glyph glyph-name="one" unicode="1" horiz-adv-x="819" 
d="M524 1407h256l-172 -1407h-321l123 997l-193 -143l-131 244z" />
    <glyph glyph-name="two" unicode="2" horiz-adv-x="993" 
d="M8 0l19 207l417 455q43 46 73 82t63.5 84.5t51 97.5t17.5 96q0 51 -25 79.5t-73 28.5q-50 0 -107 -37t-98 -102l-213 172q71 116 194.5 189t274.5 73q157 0 265 -97.5t108 -262.5q0 -149 -68.5 -274.5t-204.5 -266.5l-225 -231v-4h414l-37 -289h-846z" />
    <glyph glyph-name="three" unicode="3" horiz-adv-x="1001" 
d="M426 -18q-174 0 -286.5 91.5t-143.5 235.5l291 103q15 -148 135 -148q77 0 124.5 60t47.5 151q0 54 -31.5 86.5t-95.5 32.5h-94l28 252h82q78 0 123 56.5t45 131.5q0 48 -28 77.5t-70 29.5q-102 0 -164 -121l-242 145q58 120 177 189t260 69q172 0 273 -83.5t101 -239.5
q0 -120 -52.5 -217t-145.5 -156v-2q158 -84 158 -285q0 -138 -65.5 -243.5t-177 -160t-249.5 -54.5z" />
    <glyph glyph-name="four" unicode="4" horiz-adv-x="1056" 
d="M840 489h164l-35 -266h-160l-29 -223h-309l27 223h-500l22 193l682 991h250zM358 459h201l55 426z" />
    <glyph glyph-name="five" unicode="5" horiz-adv-x="1015" 
d="M948 1118h-440l-39 -227q73 20 139 20q151 0 240.5 -99t89.5 -277q0 -246 -147.5 -399.5t-378.5 -153.5q-287 0 -422 229l243 176q26 -57 69.5 -88t96.5 -31q101 0 159 72t58 176q0 72 -33.5 109t-90.5 37q-97 0 -191 -74l-164 65l133 754h713z" />
    <glyph glyph-name="six" unicode="6" horiz-adv-x="1091" 
d="M492 -18q-183 0 -296.5 119.5t-113.5 334.5q0 177 56 343.5t157 302t250.5 233t328.5 135.5l52 -256q-333 -129 -457 -358l2 -2q117 71 236 71q133 0 222 -92.5t89 -265.5q0 -163 -62.5 -290.5t-182.5 -201t-281 -73.5zM516 262q81 0 138 72.5t57 173.5q0 145 -138 145
q-46 0 -98 -27t-92 -71q-6 -43 -6 -84q0 -92 36.5 -150.5t102.5 -58.5z" />
    <glyph glyph-name="seven" unicode="7" horiz-adv-x="888" 
d="M145 1407h793l-25 -207l-546 -1233l-316 58l500 1095h-440z" />
    <glyph glyph-name="eight" unicode="8" horiz-adv-x="1060" 
d="M455 -18q-184 0 -298 91.5t-114 248.5q0 139 72 257.5t194 176.5v4q-49 27 -82.5 87.5t-33.5 143.5q0 188 129.5 310t334.5 122q96 0 172 -32.5t124 -102.5t48 -168q0 -110 -51.5 -209.5t-136.5 -142.5v-2q81 -34 129.5 -110t48.5 -187q0 -229 -147.5 -358t-388.5 -129z
M580 883q56 0 94.5 52t38.5 120q0 55 -26 85.5t-75 30.5q-56 0 -93.5 -50.5t-37.5 -116.5q0 -54 27 -87.5t72 -33.5zM492 248q73 0 125.5 63.5t52.5 151.5q0 67 -32.5 110t-94.5 43q-75 0 -126.5 -66.5t-51.5 -148.5q0 -71 33.5 -112t93.5 -41z" />
    <glyph glyph-name="nine" unicode="9" horiz-adv-x="1087" 
d="M250 -51l-51 248q320 98 456 358l-2 2q-100 -59 -215 -59q-140 0 -231.5 91.5t-91.5 262.5q0 248 153 409.5t385 161.5q181 0 290.5 -121.5t109.5 -336.5q0 -187 -59.5 -362.5t-163.5 -312t-255 -228t-325 -113.5zM567 750q98 0 178 94q7 58 7 102q0 98 -36.5 147.5
t-97.5 49.5q-85 0 -140.5 -68t-55.5 -172q0 -153 145 -153z" />
    <glyph glyph-name="colon" unicode=":" horiz-adv-x="559" 
d="M319 662q-80 0 -128 50t-48 128q0 79 50.5 129.5t132.5 50.5t130 -48.5t48 -125.5q0 -81 -50.5 -132.5t-134.5 -51.5zM233 -23q-80 0 -128 50.5t-48 128.5q0 79 50.5 129.5t132.5 50.5t130 -48.5t48 -125.5q0 -81 -50.5 -133t-134.5 -52z" />
    <glyph glyph-name="semicolon" unicode=";" horiz-adv-x="512" 
d="M287 662q-80 0 -128 50t-48 128q0 79 50 129.5t132 50.5t130 -48.5t48 -125.5q0 -81 -50 -132.5t-134 -51.5zM-49 -272l121 546h303l-207 -546h-217z" />
    <glyph glyph-name="less" unicode="&#x3c;" horiz-adv-x="1091" 
d="M918 43l-824 406l23 215l925 415l-32 -286l-523 -234l461 -237z" />
    <glyph glyph-name="equal" unicode="=" 
d="M168 674l33 258h880l-30 -258h-883zM102 203l33 258h881l-31 -258h-883z" />
    <glyph glyph-name="greater" unicode="&#x3e;" horiz-adv-x="1093" 
d="M66 43l32 279l523 237l-463 234l32 286l826 -415l-25 -215z" />
    <glyph glyph-name="question" unicode="?" horiz-adv-x="884" 
d="M231 489l11 89q5 51 31.5 101.5t59.5 90.5t99 109q66 68 100.5 123.5t34.5 121.5q0 56 -26.5 86.5t-75.5 30.5q-83 0 -164 -94l-186 186q65 87 179.5 140t242.5 53q158 0 261 -87.5t103 -246.5q0 -119 -58.5 -218t-158.5 -190q-77 -69 -114 -112.5t-48 -91.5l-18 -91
h-273zM348 -23q-80 0 -128 50.5t-48 128.5q0 79 50 129.5t132 50.5t130 -48.5t48 -125.5q0 -81 -50.5 -133t-133.5 -52z" />
    <glyph glyph-name="at" unicode="@" horiz-adv-x="1818" 
d="M846 -309q-161 0 -300.5 54t-241.5 152t-160 242.5t-58 317.5q0 78 14.5 160.5t47.5 171.5t82 170t123.5 154t166 126.5t214.5 85t265 31.5q177 0 321 -57t239 -158t146.5 -238t51.5 -297q0 -51 -8.5 -104.5t-27.5 -115t-55.5 -114.5t-86.5 -97t-126 -69.5t-169 -25.5
q-121 0 -188 53q-61 38 -78 119h-4q-107 -154 -269 -154q-119 0 -197.5 90.5t-78.5 255.5q0 231 120 381t292 150q137 0 202 -76l7 2l8 57h282l-69 -559q-4 -32 -4 -51q0 -80 75 -80q47 0 86 37.5t61 92.5t34 110t12 98q0 121 -37.5 224.5t-108 182t-181 123t-249.5 44.5
q-155 0 -282 -48t-207.5 -123t-135.5 -173t-77.5 -192.5t-22.5 -186.5q0 -134 45.5 -245t123.5 -185t182 -115t221 -41q220 0 422 117l92 -140q-110 -75 -244 -116t-270 -41zM852 354q77 0 138.5 78t80.5 199l6 41q-60 47 -137 47q-81 0 -133.5 -75t-52.5 -169
q0 -56 29 -88.5t69 -32.5z" />
    <glyph glyph-name="A" unicode="A" horiz-adv-x="1300" 
d="M-47 0l655 1454h316l299 -1454h-340l-45 268h-437l-104 -268h-344zM506 545h289l-86 510h-4z" />
    <glyph glyph-name="B" unicode="B" horiz-adv-x="1208" 
d="M78 0l178 1454h512q385 0 385 -301q0 -109 -59 -213.5t-164 -157.5v-4q97 -38 151 -114.5t54 -190.5q0 -227 -137 -350t-425 -123h-495zM504 868h127q85 0 137.5 53.5t52.5 139.5q0 55 -33 79.5t-102 24.5h-143zM434 285h156q108 0 160.5 57t52.5 154q0 118 -156 118
h-172z" />
    <glyph glyph-name="C" unicode="C" horiz-adv-x="1343" 
d="M696 -18q-128 0 -235.5 39t-188 114t-125.5 192.5t-45 266.5q0 144 35 276.5t102.5 241.5t160.5 190t215 126t259 45q143 0 276 -72.5t228 -231.5l-260 -196q-102 186 -262 186q-91 0 -169 -48t-129.5 -126.5t-80 -177t-28.5 -201.5q0 -148 71.5 -228.5t198.5 -80.5
q82 0 161.5 39t137.5 108l229 -213q-102 -119 -244 -184t-307 -65z" />
    <glyph glyph-name="D" unicode="D" horiz-adv-x="1363" 
d="M78 0l178 1454h459q295 0 447.5 -160t152.5 -444q0 -252 -93.5 -443.5t-272.5 -299t-421 -107.5h-450zM434 293h131q130 0 224.5 75t140 198t45.5 278q0 154 -73.5 235.5t-223.5 81.5h-137z" />
    <glyph glyph-name="E" unicode="E" 
d="M76 0l178 1454h864l-37 -293h-542l-37 -297h428l-33 -282h-428l-37 -289h582l-37 -293h-901z" />
    <glyph glyph-name="F" unicode="F" horiz-adv-x="1097" 
d="M78 0l178 1454h893l-37 -293h-569l-43 -342h469l-33 -289h-473l-64 -530h-321z" />
    <glyph glyph-name="G" unicode="G" horiz-adv-x="1392" 
d="M698 -18q-127 0 -234.5 37.5t-188.5 111t-127 191t-46 268.5q0 181 56 343t154.5 281.5t243 189t312.5 69.5q156 0 289 -68t209 -195l-254 -192q-43 66 -110 106.5t-152 40.5q-117 0 -211 -79.5t-143.5 -206.5t-49.5 -271q0 -157 72.5 -240t202.5 -83q117 0 225 69
l27 181h-242l35 274h555l-76 -651q-101 -79 -248 -127.5t-299 -48.5z" />
    <glyph glyph-name="H" unicode="H" horiz-adv-x="1372" 
d="M78 0l178 1454h330l-74 -608h432l74 608h332l-181 -1454h-329l67 553h-432l-67 -553h-330z" />
    <glyph glyph-name="I" unicode="I" horiz-adv-x="630" 
d="M88 0l178 1454h332l-178 -1454h-332z" />
    <glyph glyph-name="J" unicode="J" horiz-adv-x="950" 
d="M346 -18q-110 0 -206.5 51t-151.5 147l217 221q22 -47 57.5 -76.5t79.5 -29.5q61 0 102 54.5t58 197.5l112 907h328l-113 -922q-34 -285 -147.5 -417.5t-335.5 -132.5z" />
    <glyph glyph-name="K" unicode="K" horiz-adv-x="1265" 
d="M1362 1454l-524 -653l360 -801h-373l-235 569l-137 -161l-50 -408h-325l178 1454h326l-72 -594l6 -2l453 596h393z" />
    <glyph glyph-name="L" unicode="L" horiz-adv-x="1067" 
d="M78 0l178 1454h330l-144 -1161h537l-35 -293h-866z" />
    <glyph glyph-name="M" unicode="M" horiz-adv-x="1634" 
d="M78 0l178 1454h322l268 -790h6l438 790h322l-178 -1454h-322l96 795l-4 2l-307 -527h-199l-194 545l-4 -2l-101 -813h-321z" />
    <glyph glyph-name="N" unicode="N" horiz-adv-x="1404" 
d="M78 0l178 1454h307l385 -901l6 2l111 899h319l-180 -1454h-317l-375 879h-6l-111 -879h-317z" />
    <glyph glyph-name="O" unicode="O" horiz-adv-x="1513" 
d="M694 -18q-271 0 -431.5 163t-160.5 453q0 138 34.5 268.5t102 240t159.5 191.5t214.5 128.5t259.5 46.5q269 0 431.5 -163.5t162.5 -449.5q0 -144 -33 -275t-98.5 -241t-157 -191t-215.5 -126t-268 -45zM719 289q117 0 210.5 74.5t144 200.5t50.5 278q0 162 -76.5 243.5
t-205.5 81.5q-111 0 -203.5 -78t-143.5 -204t-51 -267q0 -162 75.5 -245.5t199.5 -83.5z" />
    <glyph glyph-name="P" unicode="P" horiz-adv-x="1167" 
d="M78 0l178 1454h508q209 0 309.5 -108t100.5 -293q0 -263 -152.5 -420.5t-427.5 -157.5h-137l-58 -475h-321zM494 764h116q102 0 163 69.5t61 182.5q0 74 -43 111.5t-111 37.5h-137z" />
    <glyph glyph-name="Q" unicode="Q" horiz-adv-x="1529" 
d="M1466 860q0 -330 -159 -565l118 -129l-190 -213l-129 143q-179 -114 -412 -114q-271 0 -431.5 163t-160.5 453q0 138 35 268.5t102.5 240t160 191.5t215 128.5t259.5 46.5q268 0 430 -163.5t162 -449.5zM719 289q95 0 174 49l-98 108l186 203l88 -96q55 132 55 289
q0 162 -76.5 243.5t-205.5 81.5q-110 0 -202.5 -78t-144 -204t-51.5 -267q0 -162 75.5 -245.5t199.5 -83.5z" />
    <glyph glyph-name="R" unicode="R" horiz-adv-x="1239" 
d="M78 0l178 1454h518q209 0 310.5 -108.5t101.5 -292.5q0 -182 -75.5 -315.5t-219.5 -202.5l244 -535h-355l-198 475h-125l-58 -475h-321zM494 764h127q101 0 163 71t62 181q0 74 -44 111.5t-110 37.5h-149z" />
    <glyph glyph-name="S" unicode="S" horiz-adv-x="1116" 
d="M518 -18q-150 0 -286 65t-220 195l234 204q49 -83 123.5 -127.5t148.5 -44.5q84 0 133 40t49 98q0 31 -21 57.5t-45.5 43t-97.5 58.5q-21 12 -32 19q-140 81 -188 117q-145 109 -167 255q-4 29 -4 60q0 202 143 326.5t355 124.5q133 0 254 -57.5t193 -166.5l-234 -194
q-97 129 -225 129q-64 0 -105 -36t-39 -89q2 -43 36 -80.5t122 -89.5q28 -17 77 -44.5t75.5 -43t66 -41t61 -45t48 -49t39.5 -58.5t22.5 -66.5t9.5 -80.5q0 -225 -145.5 -352t-380.5 -127z" />
    <glyph glyph-name="T" unicode="T" horiz-adv-x="1103" 
d="M326 0l143 1161h-340l37 293h1005l-36 -293h-338l-144 -1161h-327z" />
    <glyph glyph-name="U" unicode="U" horiz-adv-x="1337" 
d="M612 -18q-144 0 -246 47t-156.5 134t-73.5 210.5t3 277.5l101 803h327l-102 -829q-42 -336 174 -336q108 0 174.5 73t87.5 246l105 846h327l-104 -854q-40 -330 -191.5 -474t-425.5 -144z" />
    <glyph glyph-name="V" unicode="V" horiz-adv-x="1290" 
d="M442 0l-301 1454h351l149 -962h4l383 962h361l-656 -1454h-291z" />
    <glyph glyph-name="W" unicode="W" horiz-adv-x="1908" 
d="M381 0l-229 1454h340l106 -915h6l307 915h332l80 -891h6l316 891h350l-588 -1454h-299l-98 940h-4l-334 -940h-291z" />
    <glyph glyph-name="X" unicode="X" horiz-adv-x="1288" 
d="M-53 0l508 737l-310 717h353l194 -475h10l297 475h379l-495 -725l329 -729h-360l-207 483h-8l-324 -483h-366z" />
    <glyph glyph-name="Y" unicode="Y" horiz-adv-x="1189" 
d="M367 0l79 635l-325 819h360l162 -512h6l283 512h375l-531 -819l-78 -635h-331z" />
    <glyph glyph-name="Z" unicode="Z" horiz-adv-x="1167" 
d="M27 0l30 256l686 899l-4 6h-551l35 293h971l-29 -250l-700 -903l4 -8h582l-35 -293h-989z" />
    <glyph glyph-name="bracketleft" unicode="[" horiz-adv-x="700" 
d="M27 -305l223 1810h491l-26 -225h-234l-168 -1360h234l-27 -225h-493z" />
    <glyph glyph-name="backslash" unicode="\" horiz-adv-x="817" 
d="M582 -227l-484 1747l226 102l485 -1751z" />
    <glyph glyph-name="bracketright" unicode="]" horiz-adv-x="700" 
d="M-16 -305l26 225h234l168 1360h-234l27 225h493l-221 -1810h-493z" />
    <glyph glyph-name="asciicircum" unicode="^" horiz-adv-x="876" 
d="M150 1024l296 430h209l195 -430h-236l-79 244l-152 -244h-233z" />
    <glyph glyph-name="underscore" unicode="_" horiz-adv-x="970" 
d="M-106 -260l24 205h1000l-25 -205h-999z" />
    <glyph glyph-name="grave" unicode="`" horiz-adv-x="901" 
d="M457 1092l-191 307l307 -2l164 -305h-280z" />
    <glyph glyph-name="a" unicode="a" horiz-adv-x="1132" 
d="M381 -18q-156 0 -241 114.5t-85 294.5q0 175 63.5 319.5t172 227t237.5 82.5q151 0 236 -88h6l8 69h309l-122 -1001h-310l19 147l-6 3q-117 -168 -287 -168zM479 254q85 0 162 105.5t102 285.5l5 29q-68 71 -166 71q-64 0 -115 -52t-76.5 -127t-25.5 -152q0 -72 31 -116
t83 -44z" />
    <glyph glyph-name="b" unicode="b" horiz-adv-x="1142" 
d="M500 -20q-245 0 -439 104l177 1423h307l-78 -649l4 -2q120 164 291 164q154 0 239.5 -117t85.5 -299q0 -138 -37 -251.5t-108.5 -197t-184.5 -129.5t-257 -46zM494 254q132 0 207 96.5t75 237.5q0 69 -31 113t-83 44q-91 0 -168.5 -110t-102.5 -301l-8 -66
q57 -14 111 -14z" />
    <glyph glyph-name="c" unicode="c" horiz-adv-x="983" 
d="M481 -18q-198 0 -311 112.5t-113 323.5q0 93 22 180.5t66.5 164t107 134t149.5 90.5t188 33q258 0 385 -184l-236 -177q-47 89 -141 89q-100 0 -165.5 -94t-65.5 -224q0 -81 37 -127.5t100 -46.5q95 0 174 96l237 -151q-159 -219 -434 -219z" />
    <glyph glyph-name="d" unicode="d" horiz-adv-x="1122" 
d="M383 -18q-157 0 -242.5 114t-85.5 295q0 175 63.5 319.5t172 227t237.5 82.5q149 0 240 -88h6l70 575h309l-186 -1507h-308l19 147l-6 3q-120 -168 -289 -168zM479 254q87 0 165 105.5t104 285.5l4 29q-65 71 -170 71q-64 0 -115 -52t-76.5 -127t-25.5 -152
q0 -72 31 -116t83 -44z" />
    <glyph glyph-name="e" unicode="e" horiz-adv-x="974" 
d="M948 743q-1 -74 -35.5 -134t-89.5 -101t-133 -71.5t-159 -47.5t-175 -27q13 -63 54 -94.5t90 -31.5q108 0 182 100l229 -135q-81 -111 -186 -165t-250 -54q-191 0 -305 113t-113 306q0 127 38.5 240t108.5 197t174 133t228 49q63 0 122.5 -17.5t109.5 -50t80.5 -87
t29.5 -122.5zM653 700q1 30 -18 47t-55 17q-68 0 -128 -58t-85 -159q283 30 286 153z" />
    <glyph glyph-name="f" unicode="f" horiz-adv-x="669" 
d="M68 0l92 754h-84l30 247h84l21 168q44 357 344 357q140 0 238 -76l-76 -225q-52 37 -105 37q-44 0 -66.5 -32t-33.5 -126l-12 -103h159l-30 -247h-162l-90 -754h-309z" />
    <glyph glyph-name="g" unicode="g" horiz-adv-x="1128" 
d="M774 1001h307l-106 -872q-16 -130 -56 -228.5t-94 -159t-126.5 -98.5t-146 -52.5t-159.5 -14.5q-205 0 -364 98l96 240q128 -78 256 -78q63 0 106.5 13t83 48.5t64.5 105t39 175.5l-6 2q-120 -168 -285 -168q-105 0 -180 54.5t-110.5 141t-35.5 193.5q0 170 62.5 312.5
t171 224.5t237.5 82q153 0 234 -84l6 2zM739 645l4 33q-67 67 -161 67q-48 0 -90 -30.5t-68.5 -77.5t-41.5 -101t-15 -104q0 -71 29.5 -109t82.5 -38q83 0 159 100t101 260z" />
    <glyph glyph-name="h" unicode="h" 
d="M51 0l187 1507h305l-80 -645l4 -2q138 160 334 160q144 0 201.5 -99.5t29.5 -308.5l-80 -612h-307l74 543q15 104 1.5 153t-61.5 49q-79 0 -157.5 -104t-100.5 -281l-43 -360h-307z" />
    <glyph glyph-name="i" unicode="i" horiz-adv-x="548" 
d="M373 1130q-81 0 -133 50.5t-52 126.5q0 78 53.5 129t137.5 51q82 0 133 -49t51 -125q0 -79 -53 -131t-137 -52zM59 0l123 1001h307l-122 -1001h-308z" />
    <glyph glyph-name="j" unicode="j" horiz-adv-x="514" 
d="M348 1130q-81 0 -132.5 50.5t-51.5 126.5q0 79 53 129.5t137 50.5q82 0 133.5 -49t51.5 -125q0 -79 -53.5 -131t-137.5 -52zM-6 -422q-122 0 -211 47l76 236q31 -25 78 -25q45 0 65 38.5t31 133.5l123 993h309l-129 -1036q-24 -205 -111.5 -296t-230.5 -91z" />
    <glyph glyph-name="k" unicode="k" horiz-adv-x="1052" 
d="M897 -14q-40 -4 -90 -4q-109 0 -174 73t-111 213l-18 62q-60 -38 -121 -64l-31 -266h-301l187 1507h305l-115 -932l4 -2q216 152 285 428h317q-56 -290 -284 -505l28 -86q32 -101 73.5 -135t115.5 -39z" />
    <glyph glyph-name="l" unicode="l" horiz-adv-x="548" 
d="M61 0l185 1507h309l-186 -1507h-308z" />
    <glyph glyph-name="m" unicode="m" horiz-adv-x="1665" 
d="M53 0l123 1001h307l-16 -124l8 -3q130 146 305 146t217 -152h11q131 152 335 152q149 0 205.5 -101.5t28.5 -318.5l-80 -600h-305l72 543q15 104 2.5 153t-58.5 49q-63 0 -136.5 -101.5t-96.5 -274.5l-49 -369h-305l71 543q16 104 5.5 153t-60.5 49q-61 0 -135 -97.5
t-94 -256.5l-48 -391h-307z" />
    <glyph glyph-name="n" unicode="n" 
d="M51 0l125 1001h305l-16 -139l4 -2q138 160 332 160q144 0 201.5 -99.5t29.5 -308.5l-80 -612h-305l72 543q15 104 1.5 153t-61.5 49q-78 0 -155.5 -100t-100.5 -274l-45 -371h-307z" />
    <glyph glyph-name="o" unicode="o" horiz-adv-x="1095" 
d="M481 -18q-193 0 -308.5 113.5t-115.5 316.5q0 122 37.5 231t106.5 193.5t175 134t234 49.5q196 0 312 -113.5t116 -314.5q0 -99 -21 -188.5t-65.5 -167t-109 -134t-157 -88.5t-204.5 -32zM504 256q98 0 160.5 93.5t62.5 221.5q0 51 -14 87t-36.5 54t-45 25.5t-45.5 7.5
q-96 0 -156.5 -97t-60.5 -220q0 -83 40 -127.5t95 -44.5z" />
    <glyph glyph-name="p" unicode="p" horiz-adv-x="1142" 
d="M2 -406l174 1407h307l-18 -149l2 -4q120 172 301 172q151 0 234 -116t83 -294q0 -175 -63.5 -319.5t-173.5 -226.5t-242 -82q-146 0 -233 67l-8 -2l-56 -453h-307zM524 254q118 0 186 96.5t68 229.5q0 74 -30.5 121t-81.5 47q-90 0 -169 -109t-106 -297l-2 -27
q46 -61 135 -61z" />
    <glyph glyph-name="q" unicode="q" horiz-adv-x="1134" 
d="M606 -406l70 553l-6 5q-56 -81 -130.5 -125.5t-158.5 -44.5q-156 0 -241 114.5t-85 294.5q0 175 63.5 319.5t172 227t237.5 82.5q153 0 238 -88l4 2l8 67h309l-172 -1407h-309zM479 254q84 0 161.5 105.5t102.5 281.5l5 33q-71 74 -166 74q-64 0 -115 -53t-76.5 -128.5
t-25.5 -152.5q0 -72 31 -116t83 -44z" />
    <glyph glyph-name="r" unicode="r" horiz-adv-x="722" 
d="M53 0l123 1001h307l-18 -137h4q119 156 287 156l-43 -340q-111 40 -195.5 -39t-111.5 -256l-46 -385h-307z" />
    <glyph glyph-name="s" unicode="s" horiz-adv-x="860" 
d="M385 -18q-111 0 -219 45.5t-172 126.5l172 178q44 -54 106 -86.5t121 -32.5q41 0 66.5 14.5t25.5 40.5q0 24 -25 42t-102 57l-28 14q-123 62 -183.5 131.5t-60.5 173.5q0 148 106.5 241t264.5 93q105 0 200 -40.5t160 -119.5l-186 -176q-38 52 -84 76t-88 26
q-33 0 -56.5 -16.5t-23.5 -44.5q0 -24 34 -49.5t107 -61.5q66 -33 108 -59.5t80.5 -63t56 -82t17.5 -102.5q0 -148 -107.5 -236.5t-289.5 -88.5z" />
    <glyph glyph-name="t" unicode="t" horiz-adv-x="700" 
d="M348 -18q-126 0 -193 77.5t-46 241.5l53 453h-99l31 247h99l38 293l314 62l-43 -355h207l-31 -247h-207l-49 -412q-6 -41 6.5 -62.5t38.5 -21.5q36 0 100 33l49 -240q-126 -69 -268 -69z" />
    <glyph glyph-name="u" unicode="u" horiz-adv-x="1103" 
d="M342 -18q-149 0 -218 92.5t-38 304.5l86 622h305l-76 -530q-17 -121 -2.5 -168t68.5 -47q66 0 139 89.5t86 197.5l56 458h307l-123 -1001h-301l12 147h-4q-122 -165 -297 -165z" />
    <glyph glyph-name="v" unicode="v" horiz-adv-x="1030" 
d="M391 -18q-95 0 -163 32t-103.5 89.5t-49 138t0.5 178.5l74 581h303l-64 -518q-16 -109 -4.5 -168t59.5 -59q29 0 61 19.5t66.5 61t64 123.5t44.5 191q24 160 -2 350h307q34 -190 2 -411q-19 -133 -61.5 -237.5t-99 -173.5t-128.5 -114t-147.5 -64t-159.5 -19z" />
    <glyph glyph-name="w" unicode="w" horiz-adv-x="1554" 
d="M338 -18q-156 0 -223.5 112.5t-42.5 300.5l86 606h303l-74 -534q-15 -103 -0.5 -157t62.5 -54q24 0 51 16t56.5 50t53.5 100t35 153l53 426h297l-67 -546q-13 -108 0.5 -153.5t56.5 -45.5q21 0 44 11t49 39.5t49 71.5t43 113.5t32 159.5q22 167 0 350h309q35 -198 0 -411
q-23 -165 -79.5 -286t-136 -189.5t-169.5 -100.5t-192 -32q-115 0 -183.5 49t-91.5 133h-4q-52 -86 -139 -134t-178 -48z" />
    <glyph glyph-name="x" unicode="x" horiz-adv-x="976" 
d="M-43 0l365 520l-234 481h340l92 -241h2l150 241h348l-363 -497l242 -504h-328l-106 252h-4l-172 -252h-332z" />
    <glyph glyph-name="y" unicode="y" horiz-adv-x="1093" 
d="M743 1001h306l-107 -866q-65 -559 -565 -559q-204 0 -363 98l97 232q119 -78 249 -78q56 0 96.5 12t78.5 44.5t63.5 96t38.5 160.5v2l-6 2q-121 -163 -297 -163q-73 0 -125.5 20.5t-89.5 67t-46 122.5t5 187l86 622h305l-74 -530q-18 -121 -3.5 -168t69.5 -47
q67 0 140 92t85 197z" />
    <glyph glyph-name="z" unicode="z" horiz-adv-x="915" 
d="M752 -57q-108 26 -246.5 39t-239 15.5t-264.5 2.5l23 205l444 547v6h-338l29 243h747l-22 -204l-455 -547v-4q225 -10 393 -62z" />
    <glyph glyph-name="braceleft" unicode="{" horiz-adv-x="686" 
d="M362 -301q-96 0 -154.5 77t-43.5 197l45 359q3 22 3.5 28.5t1.5 25t-0.5 24.5l-5 20t-10 19.5t-16.5 14.5t-24.5 12.5t-34.5 6.5t-45 4l16 224q55 1 91.5 16t53.5 42t23.5 49.5t9.5 55.5l47 365q14 114 85 190t169 76h170l-24 -198h-37q-30 0 -53 -14.5t-35.5 -38
t-19 -44t-9.5 -41.5l-45 -350q-12 -94 -39.5 -144.5t-81.5 -76.5v-4q19 -11 29.5 -19.5t22.5 -25.5t16.5 -39t4.5 -58t-7 -85l-41 -338q-5 -43 -3.5 -72.5t20 -45t59.5 -15.5h47l-27 -197h-158z" />
    <glyph glyph-name="bar" unicode="|" horiz-adv-x="657" 
d="M117 -236l213 1745h245l-213 -1745h-245z" />
    <glyph glyph-name="braceright" unicode="}" horiz-adv-x="688" 
d="M-31 -301l25 197h35q61 0 87 36t34 107l40 340q7 62 16.5 100.5t26 62t32 35t46.5 25.5v4q-84 54 -65 223l43 353q3 17 1.5 38.5t-6 41t-23 32.5t-48.5 13h-45l22 198h158q101 0 158 -81.5t43 -196.5l-45 -361q-4 -30 -5 -44.5t3 -39t17.5 -37t42.5 -23t73 -11.5
l-19 -224q-55 -1 -90.5 -14t-53.5 -39t-24.5 -49.5t-11.5 -62.5l-43 -359q-15 -121 -87.5 -192.5t-168.5 -71.5h-168z" />
    <glyph glyph-name="asciitilde" unicode="~" horiz-adv-x="1081" 
d="M707 391q-24 0 -45 2.5t-39.5 9t-29 10.5t-29 13.5t-23.5 11.5q-77 41 -119 41q-73 0 -133 -96l-201 94q53 123 131.5 197t173.5 74q26 0 54 -6.5t45 -13t41.5 -18t31.5 -14.5q62 -34 109 -34q76 0 137 92l199 -78q-50 -127 -129.5 -206t-173.5 -79z" />
    <glyph glyph-name="uni00A0" unicode="&#xa0;" horiz-adv-x="364" 
 />
    <glyph glyph-name="exclamdown" unicode="&#xa1;" horiz-adv-x="587" 
d="M328 1024q80 0 128 -50t48 -128q0 -79 -50 -129.5t-132 -50.5t-130.5 49t-48.5 125q0 81 50.5 132.5t134.5 51.5zM395 506l-71 -1012h-326l178 1012h219z" />
    <glyph glyph-name="cent" unicode="&#xa2;" horiz-adv-x="999" 
d="M518 365q98 0 178 98l238 -152q-130 -180 -334 -213l-25 -194h-194l22 194q-153 27 -240 137.5t-87 288.5q0 144 53.5 270t157 213.5t239.5 112.5l21 191h196l-22 -189q178 -27 270 -164l-235 -174q-47 74 -142 74q-97 -1 -163 -96.5t-66 -226.5q0 -88 41.5 -129
t91.5 -41z" />
    <glyph glyph-name="sterling" unicode="&#xa3;" horiz-adv-x="1058" 
d="M23 0l34 291h107l41 334h-92l26 221h90l13 90q16 133 59.5 230t105.5 151.5t132.5 80t152.5 25.5q114 0 211.5 -53.5t157.5 -148.5l-178 -197q-32 52 -76.5 81.5t-81.5 29.5q-133 0 -158 -226l-8 -63h258l-24 -221h-258l-41 -334h487l-35 -291h-923z" />
    <glyph glyph-name="currency" unicode="&#xa4;" horiz-adv-x="954" 
d="M858 844q0 -131 -70 -240l127 -164l-147 -137l-131 162q-77 -41 -174 -41q-92 0 -162 39l-156 -158l-125 137l162 160q-22 58 -22 125q0 147 76 262l-130 158l152 137l127 -158q74 41 168 41q93 0 166 -45l162 164l123 -137l-168 -168q22 -64 22 -137zM489 631
q69 0 116.5 54.5t47.5 129.5q0 67 -35.5 107.5t-89.5 40.5q-69 0 -116 -58t-47 -139q0 -61 33 -98t91 -37z" />
    <glyph glyph-name="yen" unicode="&#xa5;" horiz-adv-x="1140" 
d="M1253 1407l-405 -662h168l-21 -163h-247l-15 -105h248l-18 -164h-250l-39 -313h-334l39 313h-258l20 164h258l15 105h-260l20 163h180l-239 662h370l131 -502h5l247 502h385z" />
    <glyph glyph-name="brokenbar" unicode="&#xa6;" horiz-adv-x="657" 
d="M242 786l88 723h245l-88 -723h-245zM117 -233l88 718h246l-89 -718h-245z" />
    <glyph glyph-name="section" unicode="&#xa7;" horiz-adv-x="1034" 
d="M670 901q134 -65 179 -99q100 -74 108 -188q1 -12 1 -24q0 -199 -170 -301q72 -72 72 -191q0 -188 -121.5 -300.5t-314.5 -112.5q-127 0 -233 52t-177 152l191 197q47 -65 107.5 -97t117.5 -32q56 0 85.5 29t29.5 71q0 36 -39.5 69t-138.5 81q-47 24 -78.5 42t-70 48
t-61 60.5t-38 75t-15.5 95.5q0 99 42.5 174t119.5 119q-73 79 -73 199q0 177 116.5 283t300.5 106q118 0 226 -47.5t168 -122.5l-185 -203q-107 97 -205 97q-51 0 -77.5 -25t-26.5 -66q0 -33 33 -63t127 -78zM395 578q0 -39 29.5 -71t107.5 -67q4 -2 46 -20q42 14 63 45.5
t21 66.5q0 41 -30.5 70t-123.5 72q-7 2 -18.5 7.5t-14.5 6.5q-39 -10 -59.5 -40.5t-20.5 -69.5z" />
    <glyph glyph-name="dieresis" unicode="&#xa8;" horiz-adv-x="987" 
d="M362 1081q-81 0 -132.5 50t-51.5 126q0 79 53.5 130t137.5 51q82 0 133 -49t51 -125q0 -79 -53.5 -131t-137.5 -52zM807 1081q-81 0 -132.5 50t-51.5 126q0 79 53.5 130t138.5 51q79 0 130.5 -49.5t51.5 -124.5q0 -79 -53 -131t-137 -52z" />
    <glyph glyph-name="copyright" unicode="&#xa9;" horiz-adv-x="1482" 
d="M739 -12q-182 0 -334.5 90.5t-239.5 243t-87 331.5q0 134 51.5 257t139.5 213t211.5 144t260.5 54q183 0 335.5 -90.5t239.5 -244t87 -333.5q0 -133 -52 -255.5t-140 -212.5t-211.5 -143.5t-260.5 -53.5zM739 182q196 0 330.5 138t134.5 333q0 129 -60 237t-166.5 171
t-236.5 63q-199 0 -333 -138t-134 -335q0 -196 133.5 -332.5t331.5 -136.5zM754 315q-93 0 -169 36.5t-123.5 113.5t-47.5 184q0 144 90 239t250 95q161 0 266 -127l-125 -106q-25 28 -62.5 48.5t-78.5 20.5q-67 0 -112.5 -45.5t-45.5 -124.5q0 -73 43 -121.5t115 -48.5
q39 0 77.5 19.5t63.5 50.5l125 -111q-103 -123 -266 -123z" />
    <glyph glyph-name="ordfeminine" unicode="&#xaa;" horiz-adv-x="712" 
d="M303 793q-82 0 -139.5 64.5t-57.5 182.5q0 162 89.5 270.5t212.5 108.5q77 0 124 -51h3l6 39h207l-74 -602h-209l10 82h-4q-73 -94 -168 -94zM379 981q43 0 83.5 52t53.5 141l4 22q-29 31 -80 31q-49 0 -83.5 -51.5t-34.5 -118.5q0 -36 15 -56t42 -20z" />
    <glyph glyph-name="guillemotleft" unicode="&#xab;" horiz-adv-x="1013" 
d="M225 94l-157 412l264 420h280l-262 -420l158 -412h-283zM649 94l-160 412l267 420h280l-264 -420l158 -412h-281z" />
    <glyph glyph-name="logicalnot" unicode="&#xac;" horiz-adv-x="1028" 
d="M651 287l41 336h-588l31 256h848l-72 -592h-260z" />
    <glyph glyph-name="registered" unicode="&#xae;" horiz-adv-x="1482" 
d="M741 1321q183 0 335.5 -90.5t239.5 -244t87 -333.5q0 -133 -52 -255.5t-140 -212.5t-211.5 -143.5t-260.5 -53.5q-182 0 -334.5 90.5t-239.5 243t-87 331.5q0 134 51.5 257t139.5 213t211.5 144t260.5 54zM739 182q196 0 330.5 138t134.5 333q0 129 -60 237t-166.5 171
t-236.5 63q-199 0 -333 -138t-134 -335q0 -196 133.5 -332.5t331.5 -136.5zM1001 756q0 -147 -114 -199l147 -231h-196l-125 204h-45v-204h-168v663h264q118 0 177.5 -63.5t59.5 -169.5zM668 836v-154h57q45 0 71.5 21t26.5 57q0 33 -25.5 54.5t-72.5 21.5h-57z" />
    <glyph glyph-name="macron" unicode="&#xaf;" horiz-adv-x="804" 
d="M188 1143l31 235h584l-29 -235h-586z" />
    <glyph glyph-name="degree" unicode="&#xb0;" horiz-adv-x="737" 
d="M416 901q-113 0 -176.5 64.5t-63.5 169.5q0 142 87 238.5t222 96.5q109 0 176.5 -66.5t67.5 -180.5q0 -131 -87.5 -226.5t-225.5 -95.5zM436 1075q47 0 80 38t33 91q0 41 -22.5 67.5t-59.5 26.5q-48 0 -80.5 -39t-32.5 -100q0 -37 22 -60.5t60 -23.5z" />
    <glyph glyph-name="plusminus" unicode="&#xb1;" horiz-adv-x="1112" 
d="M414 375l43 356h-310l33 258h309l46 361h262l-45 -361h311l-33 -258h-311l-43 -356h-262zM57 0l33 258h881l-31 -258h-883z" />
    <glyph glyph-name="uni00B2" unicode="&#xb2;" horiz-adv-x="624" 
d="M86 891l14 153l250 261q38 40 58.5 64.5t39.5 59t19 62.5q0 21 -12 33t-31 12q-53 0 -107 -72l-159 129q48 69 124.5 112.5t172.5 43.5q110 0 177.5 -60.5t67.5 -162.5q0 -95 -38 -165.5t-121 -156.5l-101 -102l2 -4h215l-24 -207h-547z" />
    <glyph glyph-name="uni00B3" unicode="&#xb3;" horiz-adv-x="636" 
d="M373 874q-113 0 -190 61t-97 152l209 70q5 -82 63 -82q37 0 60.5 31.5t23.5 75.5q0 53 -65 53h-49l20 168h53q32 0 55 30t23 68q0 22 -11 34.5t-30 12.5q-25 0 -46.5 -19t-33.5 -54l-182 110q35 71 111.5 117.5t165.5 46.5q111 0 178 -54.5t67 -154.5q0 -139 -116 -215
v-2q96 -57 96 -170q0 -126 -86.5 -202.5t-218.5 -76.5z" />
    <glyph glyph-name="acute" unicode="&#xb4;" horiz-adv-x="897" 
d="M303 1092l240 305l311 2l-264 -307h-287z" />
    <glyph glyph-name="uni00B5" unicode="&#xb5;" horiz-adv-x="1165" 
d="M1069 246l37 -209q-78 -55 -195 -55q-195 0 -221 172h-4q-98 -172 -237 -172q-82 0 -125 53l-7 -2q24 -146 9 -264l-21 -175h-303l172 1407h305l-69 -555q-24 -190 84 -190q64 0 118 63.5t70 190.5l59 491h308l-82 -663q-6 -57 3.5 -77.5t43.5 -20.5q28 0 55 6z" />
    <glyph glyph-name="paragraph" unicode="&#xb6;" horiz-adv-x="997" 
d="M623 1393h344l-170 -1393h-379l71 578q-179 5 -284.5 97.5t-98.5 258.5q6 195 146 327t371 132z" />
    <glyph glyph-name="periodcentered" unicode="&#xb7;" horiz-adv-x="569" 
d="M309 315q-80 0 -128 50.5t-48 128.5q0 79 50 129.5t132 50.5t130.5 -49t48.5 -125q0 -81 -50.5 -133t-134.5 -52z" />
    <glyph glyph-name="cedilla" unicode="&#xb8;" horiz-adv-x="585" 
d="M121 -393q-67 0 -111 12l4 125q35 -12 80 -12q50 0 79.5 17.5t29.5 49.5q0 51 -133 51l2 78l53 84h158l-54 -73l2 -2q74 -3 114 -37t40 -99q0 -97 -70 -145.5t-194 -48.5z" />
    <glyph glyph-name="uni00B9" unicode="&#xb9;" horiz-adv-x="552" 
d="M424 1735h178l-104 -844h-228l70 547l-104 -70l-95 174z" />
    <glyph glyph-name="ordmasculine" unicode="&#xba;" horiz-adv-x="667" 
d="M367 795q-116 0 -185 68t-69 192q0 98 37 179t116 133t187 52q113 0 181 -67t68 -191q0 -73 -20 -137t-59.5 -116t-105.5 -82.5t-150 -30.5zM385 985q46 0 78.5 46.5t32.5 109.5q0 50 -20 69t-46 19q-48 0 -79.5 -48.5t-31.5 -109.5q0 -42 20 -64t46 -22z" />
    <glyph glyph-name="guillemotright" unicode="&#xbb;" horiz-adv-x="1017" 
d="M-20 94l262 412l-162 420h285l159 -420l-258 -412h-286zM410 94l262 412l-162 420h283l161 -420l-260 -412h-284z" />
    <glyph glyph-name="onequarter" unicode="&#xbc;" horiz-adv-x="1544" 
d="M1067 1491l217 -100l-762 -1442l-215 100zM473 610h-227l69 547l-104 -70l-94 175l282 192h179zM1411 322h94l-24 -197h-95l-14 -125h-229l14 125h-283l15 137l405 582h181zM1102 299h115l30 231z" />
    <glyph glyph-name="onehalf" unicode="&#xbd;" horiz-adv-x="1619" 
d="M1067 1491l217 -100l-762 -1442l-215 100zM473 610h-227l69 547l-104 -70l-94 175l282 192h179zM1335 211l2 -4h215l-24 -207h-547l14 154l250 260q38 40 58.5 64.5t39.5 59t19 62.5q0 21 -12 33t-31 12q-53 0 -107 -72l-159 129q48 69 124.5 112.5t172.5 43.5
q110 0 177.5 -60.5t67.5 -162.5q0 -95 -38 -165.5t-121 -156.5z" />
    <glyph glyph-name="threequarters" unicode="&#xbe;" horiz-adv-x="1589" 
d="M1106 1491l217 -100l-762 -1442l-215 100zM655 872q0 -126 -86.5 -202t-218.5 -76q-113 0 -190 61t-97 152l209 70q5 -82 64 -82q37 0 60.5 31t23.5 75q0 53 -66 53h-49l21 168h53q32 0 55 30.5t23 68.5q0 22 -11 34.5t-30 12.5q-24 0 -46 -19.5t-34 -54.5l-182 111
q35 71 111 117t165 46q111 0 178.5 -54t67.5 -154q0 -140 -117 -216v-2q96 -57 96 -170zM1456 322h94l-24 -197h-94l-15 -125h-229l14 125h-282l14 137l405 582h181zM1147 299h115l30 231z" />
    <glyph glyph-name="questiondown" unicode="&#xbf;" horiz-adv-x="849" 
d="M547 1022q80 0 128 -50t48 -128q0 -79 -50 -129.5t-132 -50.5t-130.5 49t-48.5 125q0 81 50.5 132.5t134.5 51.5zM664 510l-11 -88q-5 -51 -31.5 -101.5t-59.5 -90.5t-99 -109q-66 -68 -100.5 -123.5t-34.5 -122.5q0 -56 26.5 -86.5t75.5 -30.5q82 0 164 95l186 -187
q-65 -87 -179.5 -139.5t-242.5 -52.5q-158 0 -261 87t-103 246q0 119 58.5 218t158.5 190q76 69 113.5 113t48.5 92l18 90h273z" />
    <glyph glyph-name="Agrave" unicode="&#xc0;" horiz-adv-x="1300" 
d="M647 1559l-192 286l307 -2l166 -284h-281zM-47 0l655 1454h316l299 -1454h-340l-45 268h-437l-104 -268h-344zM506 545h289l-86 510h-4z" />
    <glyph glyph-name="Aacute" unicode="&#xc1;" horiz-adv-x="1300" 
d="M645 1559l236 284l309 2l-268 -286h-277zM-47 0l655 1454h316l299 -1454h-340l-45 268h-437l-104 -268h-344zM506 545h289l-86 510h-4z" />
    <glyph glyph-name="Acircumflex" unicode="&#xc2;" horiz-adv-x="1300" 
d="M451 1559l221 286h307l149 -286h-258l-65 131h-2l-98 -131h-254zM-47 0l655 1454h316l299 -1454h-340l-45 268h-437l-104 -268h-344zM506 545h289l-86 510h-4z" />
    <glyph glyph-name="Atilde" unicode="&#xc3;" horiz-adv-x="1300" 
d="M961 1561q-11 0 -21.5 1t-19.5 2.5t-19 5t-16.5 5.5t-16.5 7t-14.5 7.5t-14.5 8.5t-12.5 8t-12.5 8.5t-11 7.5q-53 37 -90 37q-65 0 -117 -103l-172 84q48 101 115 163.5t147 62.5q36 0 68 -9.5t47 -18t41 -26.5q3 -2 12.5 -8.5t13.5 -8.5t12 -7t13 -7t12 -4.5t13.5 -3.5
t13.5 -1q69 0 119 98l172 -66q-48 -109 -115 -176t-147 -67zM-47 0l655 1454h316l299 -1454h-340l-45 268h-437l-104 -268h-344zM506 545h289l-86 510h-4z" />
    <glyph glyph-name="Adieresis" unicode="&#xc4;" horiz-adv-x="1300" 
d="M582 1550q-81 0 -133 50t-52 126q0 79 53.5 130t137.5 51q82 0 133 -49t51 -125q0 -79 -53 -131t-137 -52zM1026 1550q-81 0 -132.5 50t-51.5 126q0 79 53.5 130t138.5 51q79 0 131 -49.5t52 -124.5q0 -79 -53.5 -131t-137.5 -52zM-47 0l655 1454h316l299 -1454h-340
l-45 268h-437l-104 -268h-344zM506 545h289l-86 510h-4z" />
    <glyph glyph-name="Aring" unicode="&#xc5;" horiz-adv-x="1300" 
d="M797 1530q-92 0 -153.5 62t-61.5 153q0 93 63 155t158 62q92 0 152.5 -60.5t60.5 -150.5q0 -94 -62.5 -157.5t-156.5 -63.5zM801 1673q31 0 52 21.5t21 54.5q0 29 -21 50.5t-50 21.5q-33 0 -55.5 -21.5t-22.5 -52.5q0 -32 21 -53t55 -21zM-47 0l655 1454h316l299 -1454
h-340l-45 268h-437l-104 -268h-344zM506 545h289l-86 510h-4z" />
    <glyph glyph-name="AE" unicode="&#xc6;" horiz-adv-x="1773" 
d="M-61 0l798 1454h1035l-37 -293h-547l-37 -297h440l-37 -284h-438l-35 -287h586l-37 -293h-903l35 268h-332l-141 -268h-350zM573 547h224l65 540h-4z" />
    <glyph glyph-name="Ccedilla" unicode="&#xc7;" horiz-adv-x="1343" 
d="M719 297q82 0 161.5 39t137.5 108l229 -213q-96 -113 -228.5 -177.5t-287.5 -71.5l-31 -43l2 -2q74 -3 114 -37t40 -99q0 -97 -70 -145.5t-194 -48.5q-68 0 -111 12l4 125q35 -12 80 -12q50 0 79.5 17.5t29.5 49.5q0 51 -133 51l2 78l39 62q-218 34 -349 189t-131 415
q0 144 35 276.5t102.5 241.5t160.5 190t215 126t259 45q143 0 276 -72.5t228 -231.5l-260 -196q-102 186 -262 186q-91 0 -169 -48t-129.5 -126.5t-80 -177t-28.5 -201.5q0 -148 71.5 -228.5t198.5 -80.5z" />
    <glyph glyph-name="Egrave" unicode="&#xc8;" 
d="M641 1556l-192 287l307 -2l166 -285h-281zM76 0l178 1454h864l-37 -293h-542l-37 -297h428l-33 -282h-428l-37 -289h582l-37 -293h-901z" />
    <glyph glyph-name="Eacute" unicode="&#xc9;" 
d="M487 1556l236 285l309 2l-268 -287h-277zM76 0l178 1454h864l-37 -293h-542l-37 -297h428l-33 -282h-428l-37 -289h582l-37 -293h-901z" />
    <glyph glyph-name="Ecircumflex" unicode="&#xca;" 
d="M371 1556l221 287h307l150 -287h-258l-66 132h-2l-98 -132h-254zM76 0l178 1454h864l-37 -293h-542l-37 -297h428l-33 -282h-428l-37 -289h582l-37 -293h-901z" />
    <glyph glyph-name="Edieresis" unicode="&#xcb;" 
d="M502 1548q-81 0 -133 50t-52 126q0 79 53.5 130t137.5 51q82 0 133 -49t51 -125q0 -79 -53 -131t-137 -52zM946 1548q-81 0 -132.5 50t-51.5 126q0 79 53.5 130t138.5 51q79 0 131 -49.5t52 -124.5q0 -79 -53.5 -131t-137.5 -52zM76 0l178 1454h864l-37 -293h-542
l-37 -297h428l-33 -282h-428l-37 -289h582l-37 -293h-901z" />
    <glyph glyph-name="Igrave" unicode="&#xcc;" horiz-adv-x="630" 
d="M313 1554l-192 287l307 -2l166 -285h-281zM88 0l178 1454h332l-178 -1454h-332z" />
    <glyph glyph-name="Iacute" unicode="&#xcd;" horiz-adv-x="630" 
d="M301 1559l236 284l309 2l-268 -286h-277zM88 0l178 1454h332l-178 -1454h-332z" />
    <glyph glyph-name="Icircumflex" unicode="&#xce;" horiz-adv-x="630" 
d="M102 1556l222 287h307l149 -287h-258l-65 132h-2l-99 -132h-254zM88 0l178 1454h332l-178 -1454h-332z" />
    <glyph glyph-name="Idieresis" unicode="&#xcf;" horiz-adv-x="630" 
d="M233 1548q-81 0 -132.5 50t-51.5 126q0 79 53.5 130t137.5 51q82 0 133 -49t51 -125q0 -79 -53.5 -131t-137.5 -52zM678 1548q-81 0 -132.5 50t-51.5 126q0 79 53.5 130t138.5 51q79 0 130.5 -49.5t51.5 -124.5q0 -79 -53 -131t-137 -52zM88 0l178 1454h332l-178 -1454
h-332z" />
    <glyph glyph-name="Eth" unicode="&#xd0;" horiz-adv-x="1368" 
d="M717 1454q295 0 447.5 -160t152.5 -444q0 -252 -93.5 -443.5t-272.5 -299t-421 -107.5h-450l70 575h-95l39 277h90l74 602h459zM567 293q130 0 224.5 75t140 198t45.5 278q0 154 -73.5 235.5t-223.5 81.5h-137l-39 -309h231l-39 -277h-225l-35 -282h131z" />
    <glyph glyph-name="Ntilde" unicode="&#xd1;" horiz-adv-x="1404" 
d="M1018 1561q-11 0 -21.5 1t-19.5 2.5t-19 5t-16.5 5.5t-16.5 7t-14.5 7.5t-14.5 8.5t-12.5 8t-12.5 8.5t-11 7.5q-53 37 -90 37q-65 0 -117 -103l-172 84q48 101 115 163.5t147 62.5q36 0 68 -9.5t47 -18t41 -26.5q3 -2 12.5 -8.5t13.5 -8.5t12 -7t13 -7t12 -4.5
t13.5 -3.5t13.5 -1q69 0 119 98l172 -66q-48 -109 -115 -176t-147 -67zM78 0l178 1454h307l385 -901l6 2l111 899h319l-180 -1454h-317l-375 879h-6l-111 -879h-317z" />
    <glyph glyph-name="Ograve" unicode="&#xd2;" horiz-adv-x="1513" 
d="M793 1559l-193 286l307 -2l166 -284h-280zM694 -18q-271 0 -431.5 163t-160.5 453q0 138 34.5 268.5t102 240t159.5 191.5t214.5 128.5t259.5 46.5q269 0 431.5 -163.5t162.5 -449.5q0 -144 -33 -275t-98.5 -241t-157 -191t-215.5 -126t-268 -45zM719 289
q117 0 210.5 74.5t144 200.5t50.5 278q0 162 -76.5 243.5t-205.5 81.5q-111 0 -203.5 -78t-143.5 -204t-51 -267q0 -162 75.5 -245.5t199.5 -83.5z" />
    <glyph glyph-name="Oacute" unicode="&#xd3;" horiz-adv-x="1513" 
d="M756 1559l235 284l309 2l-268 -286h-276zM694 -18q-271 0 -431.5 163t-160.5 453q0 138 34.5 268.5t102 240t159.5 191.5t214.5 128.5t259.5 46.5q269 0 431.5 -163.5t162.5 -449.5q0 -144 -33 -275t-98.5 -241t-157 -191t-215.5 -126t-268 -45zM719 289
q117 0 210.5 74.5t144 200.5t50.5 278q0 162 -76.5 243.5t-205.5 81.5q-111 0 -203.5 -78t-143.5 -204t-51 -267q0 -162 75.5 -245.5t199.5 -83.5z" />
    <glyph glyph-name="Ocircumflex" unicode="&#xd4;" horiz-adv-x="1513" 
d="M604 1559l221 286h308l149 -286h-258l-66 131h-2l-98 -131h-254zM694 -18q-271 0 -431.5 163t-160.5 453q0 138 34.5 268.5t102 240t159.5 191.5t214.5 128.5t259.5 46.5q269 0 431.5 -163.5t162.5 -449.5q0 -144 -33 -275t-98.5 -241t-157 -191t-215.5 -126t-268 -45z
M719 289q117 0 210.5 74.5t144 200.5t50.5 278q0 162 -76.5 243.5t-205.5 81.5q-111 0 -203.5 -78t-143.5 -204t-51 -267q0 -162 75.5 -245.5t199.5 -83.5z" />
    <glyph glyph-name="Otilde" unicode="&#xd5;" horiz-adv-x="1513" 
d="M1114 1561q-11 0 -21.5 1t-19.5 2.5t-19 5t-16.5 5.5t-16.5 7t-14.5 7.5t-14.5 8.5t-12.5 8t-12.5 8.5t-11 7.5q-53 37 -90 37q-64 0 -116 -103l-172 84q48 101 115 163.5t147 62.5q36 0 68 -9.5t46 -18t41 -26.5q3 -2 12.5 -8.5t13.5 -8.5t12 -7t13 -7t12 -4.5
t13.5 -3.5t13.5 -1q69 0 119 98l172 -66q-48 -109 -115 -176t-147 -67zM694 -18q-271 0 -431.5 163t-160.5 453q0 138 34.5 268.5t102 240t159.5 191.5t214.5 128.5t259.5 46.5q269 0 431.5 -163.5t162.5 -449.5q0 -144 -33 -275t-98.5 -241t-157 -191t-215.5 -126t-268 -45
zM719 289q117 0 210.5 74.5t144 200.5t50.5 278q0 162 -76.5 243.5t-205.5 81.5q-111 0 -203.5 -78t-143.5 -204t-51 -267q0 -162 75.5 -245.5t199.5 -83.5z" />
    <glyph glyph-name="Odieresis" unicode="&#xd6;" horiz-adv-x="1513" 
d="M735 1550q-81 0 -132.5 50t-51.5 126q0 79 53 130t137 51q82 0 133.5 -49t51.5 -125q0 -79 -53.5 -131t-137.5 -52zM1180 1550q-81 0 -133 50t-52 126q0 79 53.5 130t139.5 51q79 0 130.5 -49.5t51.5 -124.5q0 -79 -53 -131t-137 -52zM694 -18q-271 0 -431.5 163
t-160.5 453q0 138 34.5 268.5t102 240t159.5 191.5t214.5 128.5t259.5 46.5q269 0 431.5 -163.5t162.5 -449.5q0 -144 -33 -275t-98.5 -241t-157 -191t-215.5 -126t-268 -45zM719 289q117 0 210.5 74.5t144 200.5t50.5 278q0 162 -76.5 243.5t-205.5 81.5q-111 0 -203.5 -78
t-143.5 -204t-51 -267q0 -162 75.5 -245.5t199.5 -83.5z" />
    <glyph glyph-name="multiply" unicode="&#xd7;" horiz-adv-x="1005" 
d="M223 115l-166 182l271 272l-203 271l203 182l200 -270l271 272l168 -184l-273 -273l203 -272l-201 -182l-204 272z" />
    <glyph glyph-name="Oslash" unicode="&#xd8;" horiz-adv-x="1517" 
d="M1528 1391l-154 -164q96 -151 96 -367q0 -144 -33 -275t-98.5 -241t-157 -191t-215.5 -126t-268 -45q-235 0 -385 120l-161 -172l-127 127l170 181q-89 150 -89 360q0 138 34.5 268.5t102 240t160 191.5t215 128.5t259.5 46.5q228 0 376 -115l148 155zM449 618
q0 -50 10 -102l563 596q-70 55 -176 55q-111 0 -203.5 -78t-143 -204t-50.5 -267zM1128 842q0 62 -12 112l-569 -604q70 -61 176 -61q117 0 210.5 74.5t144 200.5t50.5 278z" />
    <glyph glyph-name="Ugrave" unicode="&#xd9;" horiz-adv-x="1337" 
d="M668 1559l-193 286l307 -2l166 -284h-280zM612 -18q-144 0 -246 47t-156.5 134t-73.5 210.5t3 277.5l101 803h327l-102 -829q-42 -336 174 -336q108 0 174.5 73t87.5 246l105 846h327l-104 -854q-40 -330 -191.5 -474t-425.5 -144z" />
    <glyph glyph-name="Uacute" unicode="&#xda;" horiz-adv-x="1337" 
d="M641 1559l236 284l309 2l-268 -286h-277zM612 -18q-144 0 -246 47t-156.5 134t-73.5 210.5t3 277.5l101 803h327l-102 -829q-42 -336 174 -336q108 0 174.5 73t87.5 246l105 846h327l-104 -854q-40 -330 -191.5 -474t-425.5 -144z" />
    <glyph glyph-name="Ucircumflex" unicode="&#xdb;" horiz-adv-x="1337" 
d="M465 1559l221 286h307l150 -286h-258l-66 131h-2l-98 -131h-254zM612 -18q-144 0 -246 47t-156.5 134t-73.5 210.5t3 277.5l101 803h327l-102 -829q-42 -336 174 -336q108 0 174.5 73t87.5 246l105 846h327l-104 -854q-40 -330 -191.5 -474t-425.5 -144z" />
    <glyph glyph-name="Udieresis" unicode="&#xdc;" horiz-adv-x="1337" 
d="M596 1550q-81 0 -132.5 50t-51.5 126q0 79 53 130t137 51q82 0 133 -49t51 -125q0 -79 -53 -131t-137 -52zM1040 1550q-81 0 -132.5 50t-51.5 126q0 79 53.5 130t139.5 51q79 0 130.5 -49.5t51.5 -124.5q0 -79 -53.5 -131t-137.5 -52zM612 -18q-144 0 -246 47t-156.5 134
t-73.5 210.5t3 277.5l101 803h327l-102 -829q-42 -336 174 -336q108 0 174.5 73t87.5 246l105 846h327l-104 -854q-40 -330 -191.5 -474t-425.5 -144z" />
    <glyph glyph-name="Yacute" unicode="&#xdd;" horiz-adv-x="1189" 
d="M578 1559l235 284l309 2l-268 -286h-276zM367 0l79 635l-325 819h360l162 -512h6l283 512h375l-531 -819l-78 -635h-331z" />
    <glyph glyph-name="Thorn" unicode="&#xde;" horiz-adv-x="1214" 
d="M78 0l178 1454h322l-29 -240h221q208 0 311 -109.5t103 -293.5q0 -260 -153.5 -417.5t-426.5 -157.5h-176l-29 -236h-321zM465 524h156q100 0 161.5 70t61.5 180q0 74 -44 112t-110 38h-176z" />
    <glyph glyph-name="germandbls" unicode="&#xdf;" horiz-adv-x="1298" 
d="M872 -18q-109 0 -211 45.5t-167 126.5l174 176q100 -115 198 -115q38 0 64 17t26 47q0 26 -25.5 46t-111.5 68q-106 57 -168.5 125.5t-62.5 165.5q0 31 8 60.5t17.5 50.5t31 49.5t33 41.5t40.5 43.5t38 39.5q91 98 96 184q3 54 -40 83.5t-116 29.5q-83 0 -138.5 -53.5
t-68.5 -159.5l-129 -1053h-307l131 1079q15 120 59.5 208t112.5 139t149.5 75.5t180.5 24.5q220 0 347.5 -92t123.5 -267q-3 -86 -38 -149t-97 -123q-12 -12 -37.5 -35t-37 -34.5t-27 -29t-21.5 -32t-6 -29.5q0 -26 20.5 -51t79.5 -61q126 -74 166 -108q85 -72 91 -178
q1 -11 1 -22q0 -161 -105 -247t-274 -86z" />
    <glyph glyph-name="agrave" unicode="&#xe0;" horiz-adv-x="1132" 
d="M559 1141l-190 307l307 -2l164 -305h-281zM381 -18q-156 0 -241 114.5t-85 294.5q0 175 63.5 319.5t172 227t237.5 82.5q151 0 236 -88h6l8 69h309l-122 -1001h-310l19 147l-6 3q-117 -168 -287 -168zM479 254q85 0 162 105.5t102 285.5l5 29q-68 71 -166 71
q-64 0 -115 -52t-76.5 -127t-25.5 -152q0 -72 31 -116t83 -44z" />
    <glyph glyph-name="aacute" unicode="&#xe1;" horiz-adv-x="1132" 
d="M487 1139l240 305l311 2l-264 -307h-287zM381 -18q-156 0 -241 114.5t-85 294.5q0 175 63.5 319.5t172 227t237.5 82.5q151 0 236 -88h6l8 69h309l-122 -1001h-310l19 147l-6 3q-117 -168 -287 -168zM479 254q85 0 162 105.5t102 285.5l5 29q-68 71 -166 71
q-64 0 -115 -52t-76.5 -127t-25.5 -152q0 -72 31 -116t83 -44z" />
    <glyph glyph-name="acircumflex" unicode="&#xe2;" horiz-adv-x="1132" 
d="M315 1137l236 311h268l172 -311h-266l-49 151h-2l-86 -151h-273zM381 -18q-156 0 -241 114.5t-85 294.5q0 175 63.5 319.5t172 227t237.5 82.5q151 0 236 -88h6l8 69h309l-122 -1001h-310l19 147l-6 3q-117 -168 -287 -168zM479 254q85 0 162 105.5t102 285.5l5 29
q-68 71 -166 71q-64 0 -115 -52t-76.5 -127t-25.5 -152q0 -72 31 -116t83 -44z" />
    <glyph glyph-name="atilde" unicode="&#xe3;" horiz-adv-x="1132" 
d="M825 1128q-14 0 -27.5 2t-23.5 4t-23 7.5t-18.5 8t-18.5 10.5t-15.5 9.5t-15.5 10.5l-13 10q-49 37 -90 37q-67 0 -119 -105l-172 86q47 113 114 179.5t150 66.5q20 0 38.5 -3t30.5 -6.5t27.5 -11t21.5 -11t20.5 -13t15.5 -10.5q55 -39 86 -39q71 0 122 100l172 -69
q-46 -121 -113.5 -192t-148.5 -71zM381 -18q-156 0 -241 114.5t-85 294.5q0 175 63.5 319.5t172 227t237.5 82.5q151 0 236 -88h6l8 69h309l-122 -1001h-310l19 147l-6 3q-117 -168 -287 -168zM479 254q85 0 162 105.5t102 285.5l5 29q-68 71 -166 71q-64 0 -115 -52
t-76.5 -127t-25.5 -152q0 -72 31 -116t83 -44z" />
    <glyph glyph-name="adieresis" unicode="&#xe4;" horiz-adv-x="1132" 
d="M453 1130q-81 0 -133 50.5t-52 126.5q0 78 53.5 129t137.5 51q82 0 133 -49t51 -125q0 -79 -53 -131t-137 -52zM897 1130q-81 0 -132.5 50.5t-51.5 126.5q0 79 53 129.5t139 50.5q79 0 130.5 -49.5t51.5 -124.5q0 -79 -53 -131t-137 -52zM381 -18q-156 0 -241 114.5
t-85 294.5q0 175 63.5 319.5t172 227t237.5 82.5q151 0 236 -88h6l8 69h309l-122 -1001h-310l19 147l-6 3q-117 -168 -287 -168zM479 254q85 0 162 105.5t102 285.5l5 29q-68 71 -166 71q-64 0 -115 -52t-76.5 -127t-25.5 -152q0 -72 31 -116t83 -44z" />
    <glyph glyph-name="aring" unicode="&#xe5;" horiz-adv-x="1132" 
d="M680 1102q-92 0 -153.5 62t-61.5 153q0 93 63 155t158 62q92 0 152.5 -60.5t60.5 -150.5q0 -94 -62.5 -157.5t-156.5 -63.5zM684 1245q31 0 52.5 21.5t21.5 54.5q0 29 -21.5 50.5t-50.5 21.5q-33 0 -55.5 -21.5t-22.5 -52.5q0 -32 21 -53t55 -21zM381 -18
q-156 0 -241 114.5t-85 294.5q0 175 63.5 319.5t172 227t237.5 82.5q151 0 236 -88h6l8 69h309l-122 -1001h-310l19 147l-6 3q-117 -168 -287 -168zM479 254q85 0 162 105.5t102 285.5l5 29q-68 71 -166 71q-64 0 -115 -52t-76.5 -127t-25.5 -152q0 -72 31 -116t83 -44z" />
    <glyph glyph-name="ae" unicode="&#xe6;" horiz-adv-x="1409" 
d="M973 236q92 0 162 98l227 -135q-150 -217 -404 -217q-245 0 -327 178q-105 -180 -287 -180q-142 0 -229 101t-86 275q1 183 65 329t190 233.5t294 87.5q140 0 241 -52q113 66 250 66q87 0 160.5 -28.5t123.5 -93t50 -155.5q0 -107 -81 -191t-209 -131t-290 -63
q13 -61 56 -91.5t94 -30.5zM1042 764q-63 0 -122 -61t-86 -160q274 43 274 170q0 22 -17 36.5t-49 14.5zM408 242q99 0 172 331q23 106 63 183h-20q-125 0 -206 -112t-81 -275q0 -60 20.5 -93.5t51.5 -33.5z" />
    <glyph glyph-name="ccedilla" unicode="&#xe7;" horiz-adv-x="983" 
d="M504 256q95 0 174 96l237 -151q-149 -205 -399 -219l-31 -43l2 -2q74 -3 114 -37t40 -99q0 -97 -70 -145.5t-194 -48.5q-67 0 -111 12l4 125q34 -12 80 -12q50 0 79.5 17.5t29.5 49.5q0 51 -133 51l2 78l41 64q-149 30 -230.5 138.5t-81.5 287.5q0 93 22 180.5t66.5 164
t107 134t149.5 90.5t188 33q258 0 385 -184l-236 -177q-47 89 -141 89q-100 0 -165.5 -94t-65.5 -224q0 -81 37 -127.5t100 -46.5z" />
    <glyph glyph-name="egrave" unicode="&#xe8;" horiz-adv-x="974" 
d="M786 1141h-280l-191 307l308 -2zM948 743q-1 -74 -35.5 -134t-89.5 -101t-133 -71.5t-159 -47.5t-175 -27q13 -63 54 -94.5t90 -31.5q108 0 182 100l229 -135q-81 -111 -186 -165t-250 -54q-191 0 -305 113t-113 306q0 127 38.5 240t108.5 197t174 133t228 49
q63 0 122.5 -17.5t109.5 -50t80.5 -87t29.5 -122.5zM653 700q1 30 -18 47t-55 17q-68 0 -128 -58t-85 -159q283 30 286 153z" />
    <glyph glyph-name="eacute" unicode="&#xe9;" horiz-adv-x="974" 
d="M1010 1446l-265 -307h-286l239 305zM606 1020q63 0 122.5 -17.5t109.5 -50t80.5 -87t29.5 -122.5q-1 -74 -35.5 -134t-89.5 -101t-133 -71.5t-159 -47.5t-175 -27q13 -63 54 -94.5t90 -31.5q108 0 182 100l229 -135q-81 -111 -186 -165t-250 -54q-191 0 -305 113
t-113 306q0 127 38.5 240t108.5 197t174 133t228 49zM653 700q1 30 -18 47t-55 17q-68 0 -128 -58t-85 -159q283 30 286 153z" />
    <glyph glyph-name="ecircumflex" unicode="&#xea;" horiz-adv-x="974" 
d="M616 1288l-86 -151h-272l236 311h268l172 -311h-266l-50 151h-2zM948 743q-1 -74 -35.5 -134t-89.5 -101t-133 -71.5t-159 -47.5t-175 -27q13 -63 54 -94.5t90 -31.5q108 0 182 100l229 -135q-81 -111 -186 -165t-250 -54q-191 0 -305 113t-113 306q0 127 38.5 240
t108.5 197t174 133t228 49q63 0 122.5 -17.5t109.5 -50t80.5 -87t29.5 -122.5zM653 700q1 30 -18 47t-55 17q-68 0 -128 -58t-85 -159q283 30 286 153z" />
    <glyph glyph-name="edieresis" unicode="&#xeb;" horiz-adv-x="974" 
d="M395 1130q-81 0 -132.5 50.5t-51.5 126.5q0 79 53 129.5t137 50.5q82 0 133.5 -49t51.5 -125q0 -79 -53.5 -131t-137.5 -52zM848 1487q79 0 130.5 -49.5t51.5 -124.5q0 -79 -53 -131t-137 -52q-81 0 -133 50.5t-52 126.5q0 79 53.5 129.5t139.5 50.5zM606 1020
q63 0 122.5 -17.5t109.5 -50t80.5 -87t29.5 -122.5q-1 -74 -35.5 -134t-89.5 -101t-133 -71.5t-159 -47.5t-175 -27q13 -63 54 -94.5t90 -31.5q108 0 182 100l229 -135q-81 -111 -186 -165t-250 -54q-191 0 -305 113t-113 306q0 127 38.5 240t108.5 197t174 133t228 49z
M653 700q1 30 -18 47t-55 17q-68 0 -128 -58t-85 -159q283 30 286 153z" />
    <glyph glyph-name="igrave" unicode="&#xec;" horiz-adv-x="548" 
d="M201 1147l-115 307l309 -2l88 -305h-282zM57 0l123 1001h307l-122 -1001h-308z" />
    <glyph glyph-name="iacute" unicode="&#xed;" horiz-adv-x="548" 
d="M213 1139l240 305l311 2l-264 -307h-287zM59 0l123 1001h307l-122 -1001h-308z" />
    <glyph glyph-name="icircumflex" unicode="&#xee;" horiz-adv-x="548" 
d="M16 1137l236 311h268l172 -311h-266l-49 151h-2l-86 -151h-273zM59 0l123 1001h307l-122 -1001h-308z" />
    <glyph glyph-name="idieresis" unicode="&#xef;" horiz-adv-x="548" 
d="M457 1487q71 0 118.5 -49.5t47.5 -124.5q0 -76 -50 -128t-122 -52q-35 0 -72 16q-32 -16 -72 -16q-72 0 -120 50t-48 124q0 76 50 128t124 52q35 0 70 -14q40 14 74 14zM59 0l123 1001h307l-122 -1001h-308z" />
    <glyph glyph-name="eth" unicode="&#xf0;" horiz-adv-x="1089" 
d="M928 1112q113 -197 110 -459q-2 -141 -34 -259.5t-95.5 -212t-170 -146.5t-246.5 -53q-203 0 -318 118t-115 316q0 115 38.5 219.5t102.5 178.5t150.5 117.5t179.5 43.5q94 0 162 -39q-11 33 -20 51q-22 45 -54.5 85.5t-60 68t-79.5 64t-79 53.5t-92 57l127 211
q149 -66 268 -156l164 201l164 -148l-174 -204q47 -61 72 -107zM504 254q75 0 127.5 56t77 147.5t24.5 208.5q-60 49 -137 49q-97 0 -163 -89t-66 -196q0 -88 41.5 -132t95.5 -44z" />
    <glyph glyph-name="ntilde" unicode="&#xf1;" 
d="M838 1128q-11 0 -22 1t-20 2.5t-19 5t-16.5 6t-16 7.5t-14 7.5t-14 8.5t-12 8t-11.5 8.5t-11 7.5q-49 37 -90 37q-67 0 -119 -105l-172 86q47 113 114 179.5t150 66.5q20 0 38.5 -3t30.5 -6.5t27.5 -11t21.5 -11t20.5 -13t15.5 -10.5q55 -39 86 -39q72 0 123 100l172 -69
q-46 -121 -113.5 -192t-148.5 -71zM51 0l125 1001h305l-16 -139l4 -2q138 160 332 160q144 0 201.5 -99.5t29.5 -308.5l-80 -612h-305l72 543q15 104 1.5 153t-61.5 49q-78 0 -155.5 -100t-100.5 -274l-45 -371h-307z" />
    <glyph glyph-name="ograve" unicode="&#xf2;" horiz-adv-x="1095" 
d="M508 1141l-191 307l308 -2l163 -305h-280zM481 -18q-193 0 -308.5 113.5t-115.5 316.5q0 122 37.5 231t106.5 193.5t175 134t234 49.5q196 0 312 -113.5t116 -314.5q0 -99 -21 -188.5t-65.5 -167t-109 -134t-157 -88.5t-204.5 -32zM504 256q98 0 160.5 93.5t62.5 221.5
q0 51 -14 87t-36.5 54t-45 25.5t-45.5 7.5q-96 0 -156.5 -97t-60.5 -220q0 -83 40 -127.5t95 -44.5z" />
    <glyph glyph-name="oacute" unicode="&#xf3;" horiz-adv-x="1095" 
d="M496 1139l239 305l312 2l-265 -307h-286zM481 -18q-193 0 -308.5 113.5t-115.5 316.5q0 122 37.5 231t106.5 193.5t175 134t234 49.5q196 0 312 -113.5t116 -314.5q0 -99 -21 -188.5t-65.5 -167t-109 -134t-157 -88.5t-204.5 -32zM504 256q98 0 160.5 93.5t62.5 221.5
q0 51 -14 87t-36.5 54t-45 25.5t-45.5 7.5q-96 0 -156.5 -97t-60.5 -220q0 -83 40 -127.5t95 -44.5z" />
    <glyph glyph-name="ocircumflex" unicode="&#xf4;" horiz-adv-x="1095" 
d="M301 1137l236 311h268l172 -311h-266l-49 151h-3l-86 -151h-272zM481 -18q-193 0 -308.5 113.5t-115.5 316.5q0 122 37.5 231t106.5 193.5t175 134t234 49.5q196 0 312 -113.5t116 -314.5q0 -99 -21 -188.5t-65.5 -167t-109 -134t-157 -88.5t-204.5 -32zM504 256
q98 0 160.5 93.5t62.5 221.5q0 51 -14 87t-36.5 54t-45 25.5t-45.5 7.5q-96 0 -156.5 -97t-60.5 -220q0 -83 40 -127.5t95 -44.5z" />
    <glyph glyph-name="otilde" unicode="&#xf5;" horiz-adv-x="1095" 
d="M811 1128q-11 0 -22 1t-20 2.5t-19 5t-16.5 6t-16 7.5t-14 7.5t-14 8.5t-12 8t-11.5 8.5t-11 7.5q-49 37 -90 37q-67 0 -119 -105l-172 86q47 113 114.5 179.5t150.5 66.5q20 0 38.5 -3t30.5 -6.5t27 -11t21 -11t20 -12.5t16 -11q55 -39 86 -39q72 0 123 100l172 -69
q-46 -121 -113.5 -192t-148.5 -71zM481 -18q-193 0 -308.5 113.5t-115.5 316.5q0 122 37.5 231t106.5 193.5t175 134t234 49.5q196 0 312 -113.5t116 -314.5q0 -99 -21 -188.5t-65.5 -167t-109 -134t-157 -88.5t-204.5 -32zM504 256q98 0 160.5 93.5t62.5 221.5q0 51 -14 87
t-36.5 54t-45 25.5t-45.5 7.5q-96 0 -156.5 -97t-60.5 -220q0 -83 40 -127.5t95 -44.5z" />
    <glyph glyph-name="odieresis" unicode="&#xf6;" horiz-adv-x="1095" 
d="M438 1130q-81 0 -132.5 50.5t-51.5 126.5q0 79 53 129.5t137 50.5q82 0 133.5 -49t51.5 -125q0 -79 -53.5 -131t-137.5 -52zM883 1130q-81 0 -133 50.5t-52 126.5q0 79 53.5 129.5t139.5 50.5q79 0 130.5 -49.5t51.5 -124.5q0 -79 -53 -131t-137 -52zM481 -18
q-193 0 -308.5 113.5t-115.5 316.5q0 122 37.5 231t106.5 193.5t175 134t234 49.5q196 0 312 -113.5t116 -314.5q0 -99 -21 -188.5t-65.5 -167t-109 -134t-157 -88.5t-204.5 -32zM504 256q98 0 160.5 93.5t62.5 221.5q0 51 -14 87t-36.5 54t-45 25.5t-45.5 7.5
q-96 0 -156.5 -97t-60.5 -220q0 -83 40 -127.5t95 -44.5z" />
    <glyph glyph-name="divide" unicode="&#xf7;" horiz-adv-x="1064" 
d="M598 811q-76 0 -125 46.5t-49 117.5q0 74 50.5 122t129.5 48q76 0 124 -46.5t48 -117.5q0 -74 -50 -122t-128 -48zM106 438l33 258h881l-31 -258h-883zM508 -16q-76 0 -125 46t-49 117q0 74 50.5 122t129.5 48q76 0 124 -46t48 -117q0 -74 -50 -122t-128 -48z" />
    <glyph glyph-name="oslash" unicode="&#xf8;" horiz-adv-x="1097" 
d="M1075 950l-102 -106q65 -103 65 -252q0 -99 -21 -188.5t-65.5 -167t-109 -134t-157 -88.5t-204.5 -32q-152 0 -258 71l-98 -102l-94 94l98 102q-72 107 -72 265q0 122 37.5 231t106.5 193.5t175 134t234 49.5q167 0 273 -80l98 102zM369 428q0 -19 2 -27l301 316
q-35 28 -86 28q-96 0 -156.5 -97t-60.5 -220zM727 571v13l-293 -308q33 -20 70 -20q98 0 160.5 93.5t62.5 221.5z" />
    <glyph glyph-name="ugrave" unicode="&#xf9;" horiz-adv-x="1103" 
d="M492 1141l-191 307l307 -2l164 -305h-280zM342 -18q-149 0 -218 92.5t-38 304.5l86 622h305l-76 -530q-17 -121 -2.5 -168t68.5 -47q66 0 139 89.5t86 197.5l56 458h307l-123 -1001h-301l12 147h-4q-122 -165 -297 -165z" />
    <glyph glyph-name="uacute" unicode="&#xfa;" horiz-adv-x="1103" 
d="M496 1139l239 305l312 2l-265 -307h-286zM342 -18q-149 0 -218 92.5t-38 304.5l86 622h305l-76 -530q-17 -121 -2.5 -168t68.5 -47q66 0 139 89.5t86 197.5l56 458h307l-123 -1001h-301l12 147h-4q-122 -165 -297 -165z" />
    <glyph glyph-name="ucircumflex" unicode="&#xfb;" horiz-adv-x="1103" 
d="M295 1137l235 311h269l172 -311h-266l-50 151h-2l-86 -151h-272zM342 -18q-149 0 -218 92.5t-38 304.5l86 622h305l-76 -530q-17 -121 -2.5 -168t68.5 -47q66 0 139 89.5t86 197.5l56 458h307l-123 -1001h-301l12 147h-4q-122 -165 -297 -165z" />
    <glyph glyph-name="udieresis" unicode="&#xfc;" horiz-adv-x="1103" 
d="M432 1130q-81 0 -132.5 50.5t-51.5 126.5q0 79 53 129.5t137 50.5q82 0 133.5 -49t51.5 -125q0 -79 -53.5 -131t-137.5 -52zM877 1130q-81 0 -133 50.5t-52 126.5q0 79 53.5 129.5t139.5 50.5q79 0 130.5 -49.5t51.5 -124.5q0 -79 -53 -131t-137 -52zM342 -18
q-149 0 -218 92.5t-38 304.5l86 622h305l-76 -530q-17 -121 -2.5 -168t68.5 -47q66 0 139 89.5t86 197.5l56 458h307l-123 -1001h-301l12 147h-4q-122 -165 -297 -165z" />
    <glyph glyph-name="yacute" unicode="&#xfd;" horiz-adv-x="1093" 
d="M1016 1446l-264 -307h-287l240 305zM743 1001h306l-107 -866q-65 -559 -565 -559q-204 0 -363 98l97 232q119 -78 249 -78q56 0 96.5 12t78.5 44.5t63.5 96t38.5 160.5v2l-6 2q-121 -163 -297 -163q-73 0 -125.5 20.5t-89.5 67t-46 122.5t5 187l86 622h305l-74 -530
q-18 -121 -3.5 -168t69.5 -47q67 0 140 92t85 197z" />
    <glyph glyph-name="thorn" unicode="&#xfe;" horiz-adv-x="1142" 
d="M2 -406l236 1913h307l-80 -655l2 -4q120 172 301 172q151 0 234 -116t83 -294q0 -175 -63.5 -319.5t-173.5 -226.5t-242 -82q-146 0 -233 67l-8 -2l-56 -453h-307zM524 254q118 0 186 96.5t68 229.5q0 74 -30.5 121t-81.5 47q-90 0 -169 -109t-106 -297l-2 -27
q46 -61 135 -61z" />
    <glyph glyph-name="ydieresis" unicode="&#xff;" horiz-adv-x="1093" 
d="M414 1130q-81 0 -133 50.5t-52 126.5q0 78 53.5 129t137.5 51q82 0 133 -49t51 -125q0 -79 -53 -131t-137 -52zM858 1130q-81 0 -132.5 50.5t-51.5 126.5q0 79 53 129.5t139 50.5q79 0 131 -49.5t52 -124.5q0 -79 -53.5 -131t-137.5 -52zM686 545l57 456h306l-107 -866
q-65 -559 -565 -559q-204 0 -363 98l97 232q119 -78 249 -78q56 0 96.5 12t78.5 44.5t63.5 96t38.5 160.5v2l-6 2q-121 -163 -297 -163q-73 0 -125.5 20.5t-89.5 67t-46 122.5t5 187l86 622h305l-74 -530q-18 -121 -3.5 -168t69.5 -47q67 0 140 92t85 197z" />
    <glyph glyph-name="Amacron" unicode="&#x100;" horiz-adv-x="1300" 
d="M502 1606l30 225h584l-29 -225h-585zM-47 0l655 1454h316l299 -1454h-340l-45 268h-437l-104 -268h-344zM506 545h289l-86 510h-4z" />
    <glyph glyph-name="amacron" unicode="&#x101;" horiz-adv-x="1132" 
d="M373 1192l30 235h584l-29 -235h-585zM381 -18q-156 0 -241 114.5t-85 294.5q0 175 63.5 319.5t172 227t237.5 82.5q151 0 236 -88h6l8 69h309l-122 -1001h-310l19 147l-6 3q-117 -168 -287 -168zM479 254q85 0 162 105.5t102 285.5l5 29q-68 71 -166 71q-64 0 -115 -52
t-76.5 -127t-25.5 -152q0 -72 31 -116t83 -44z" />
    <glyph glyph-name="Abreve" unicode="&#x102;" horiz-adv-x="1300" 
d="M786 1544q-148 0 -219.5 80t-60.5 221h219q-5 -38 16 -65t64 -27q47 0 81.5 27.5t45.5 64.5h223q-28 -135 -120.5 -218t-248.5 -83zM-47 0l655 1454h316l299 -1454h-340l-45 268h-437l-104 -268h-344zM506 545h289l-86 510h-4z" />
    <glyph glyph-name="abreve" unicode="&#x103;" horiz-adv-x="1132" 
d="M649 1106q-141 0 -215 83.5t-65 235.5h221q-5 -42 15.5 -70t64.5 -28q45 0 80.5 29t46.5 69h221q-27 -145 -122.5 -232t-246.5 -87zM381 -18q-156 0 -241 114.5t-85 294.5q0 175 63.5 319.5t172 227t237.5 82.5q151 0 236 -88h6l8 69h309l-122 -1001h-310l19 147l-6 3
q-117 -168 -287 -168zM479 254q85 0 162 105.5t102 285.5l5 29q-68 71 -166 71q-64 0 -115 -52t-76.5 -127t-25.5 -152q0 -72 31 -116t83 -44z" />
    <glyph glyph-name="Aogonek" unicode="&#x104;" horiz-adv-x="1300" 
d="M1178 0q-80 -6 -139.5 -60.5t-59.5 -115.5q0 -49 51 -49q44 0 68 14l4 -158q-56 -22 -152 -22q-98 0 -148 41.5t-50 120.5q0 63 36 124t95 107l-45 266h-437l-104 -268h-344l655 1454h316l299 -1454h-45zM506 545h289l-86 510h-4z" />
    <glyph glyph-name="aogonek" unicode="&#x105;" horiz-adv-x="1132" 
d="M778 1001h309l-122 -1001h-25q-80 -6 -139.5 -60.5t-59.5 -115.5q0 -49 52 -49q43 0 67 14l4 -158q-56 -22 -151 -22q-98 0 -148.5 42t-50.5 120q0 66 39.5 130.5t103.5 108.5l17 137l-6 3q-117 -168 -287 -168q-156 0 -241 114.5t-85 294.5q0 175 63.5 319.5t172 227
t237.5 82.5q151 0 236 -88h6zM479 254q85 0 162 105.5t102 285.5l5 29q-68 71 -166 71q-64 0 -115 -52t-76.5 -127t-25.5 -152q0 -72 31 -116t83 -44z" />
    <glyph glyph-name="Cacute" unicode="&#x106;" horiz-adv-x="1343" 
d="M721 1559l235 284l310 2l-269 -286h-276zM696 -18q-128 0 -235.5 39t-188 114t-125.5 192.5t-45 266.5q0 144 35 276.5t102.5 241.5t160.5 190t215 126t259 45q143 0 276 -72.5t228 -231.5l-260 -196q-102 186 -262 186q-91 0 -169 -48t-129.5 -126.5t-80 -177
t-28.5 -201.5q0 -148 71.5 -228.5t198.5 -80.5q82 0 161.5 39t137.5 108l229 -213q-102 -119 -244 -184t-307 -65z" />
    <glyph glyph-name="cacute" unicode="&#x107;" horiz-adv-x="983" 
d="M473 1139l240 305l311 2l-264 -307h-287zM481 -18q-198 0 -311 112.5t-113 323.5q0 93 22 180.5t66.5 164t107 134t149.5 90.5t188 33q258 0 385 -184l-236 -177q-47 89 -141 89q-100 0 -165.5 -94t-65.5 -224q0 -81 37 -127.5t100 -46.5q95 0 174 96l237 -151
q-159 -219 -434 -219z" />
    <glyph glyph-name="Ccircumflex" unicode="&#x108;" horiz-adv-x="1343" 
d="M582 1559l221 286h307l150 -286h-259l-65 131h-2l-98 -131h-254zM696 -18q-128 0 -235.5 39t-188 114t-125.5 192.5t-45 266.5q0 144 35 276.5t102.5 241.5t160.5 190t215 126t259 45q143 0 276 -72.5t228 -231.5l-260 -196q-102 186 -262 186q-91 0 -169 -48
t-129.5 -126.5t-80 -177t-28.5 -201.5q0 -148 71.5 -228.5t198.5 -80.5q82 0 161.5 39t137.5 108l229 -213q-102 -119 -244 -184t-307 -65z" />
    <glyph glyph-name="ccircumflex" unicode="&#x109;" horiz-adv-x="983" 
d="M295 1137l235 311h269l172 -311h-266l-50 151h-2l-86 -151h-272zM481 -18q-198 0 -311 112.5t-113 323.5q0 93 22 180.5t66.5 164t107 134t149.5 90.5t188 33q258 0 385 -184l-236 -177q-47 89 -141 89q-100 0 -165.5 -94t-65.5 -224q0 -81 37 -127.5t100 -46.5
q95 0 174 96l237 -151q-159 -219 -434 -219z" />
    <glyph glyph-name="Cdotaccent" unicode="&#x10a;" horiz-adv-x="1343" 
d="M934 1550q-81 0 -132.5 50t-51.5 126q0 79 53 130t137 51q82 0 133 -49t51 -125q0 -79 -53 -131t-137 -52zM696 -18q-128 0 -235.5 39t-188 114t-125.5 192.5t-45 266.5q0 144 35 276.5t102.5 241.5t160.5 190t215 126t259 45q143 0 276 -72.5t228 -231.5l-260 -196
q-102 186 -262 186q-91 0 -169 -48t-129.5 -126.5t-80 -177t-28.5 -201.5q0 -148 71.5 -228.5t198.5 -80.5q82 0 161.5 39t137.5 108l229 -213q-102 -119 -244 -184t-307 -65z" />
    <glyph glyph-name="cdotaccent" unicode="&#x10b;" horiz-adv-x="983" 
d="M651 1130q-81 0 -132.5 50.5t-51.5 126.5q0 79 53 129.5t137 50.5q82 0 133.5 -49t51.5 -125q0 -79 -53.5 -131t-137.5 -52zM481 -18q-198 0 -311 112.5t-113 323.5q0 93 22 180.5t66.5 164t107 134t149.5 90.5t188 33q258 0 385 -184l-236 -177q-47 89 -141 89
q-100 0 -165.5 -94t-65.5 -224q0 -81 37 -127.5t100 -46.5q95 0 174 96l237 -151q-159 -219 -434 -219z" />
    <glyph glyph-name="Ccaron" unicode="&#x10c;" horiz-adv-x="1343" 
d="M768 1559l-152 286h261l63 -129h4l96 129h254l-219 -286h-307zM696 -18q-128 0 -235.5 39t-188 114t-125.5 192.5t-45 266.5q0 144 35 276.5t102.5 241.5t160.5 190t215 126t259 45q143 0 276 -72.5t228 -231.5l-260 -196q-102 186 -262 186q-91 0 -169 -48
t-129.5 -126.5t-80 -177t-28.5 -201.5q0 -148 71.5 -228.5t198.5 -80.5q82 0 161.5 39t137.5 108l229 -213q-102 -119 -244 -184t-307 -65z" />
    <glyph glyph-name="ccaron" unicode="&#x10d;" horiz-adv-x="983" 
d="M485 1120l-145 305h258l59 -145h5l94 145h256l-219 -305h-308zM481 -18q-198 0 -311 112.5t-113 323.5q0 93 22 180.5t66.5 164t107 134t149.5 90.5t188 33q258 0 385 -184l-236 -177q-47 89 -141 89q-100 0 -165.5 -94t-65.5 -224q0 -81 37 -127.5t100 -46.5
q95 0 174 96l237 -151q-159 -219 -434 -219z" />
    <glyph glyph-name="Dcaron" unicode="&#x10e;" horiz-adv-x="1363" 
d="M641 1556l-152 287h261l63 -129h4l96 129h254l-219 -287h-307zM78 0l178 1454h459q295 0 447.5 -160t152.5 -444q0 -252 -93.5 -443.5t-272.5 -299t-421 -107.5h-450zM434 293h131q130 0 224.5 75t140 198t45.5 278q0 154 -73.5 235.5t-223.5 81.5h-137z" />
    <glyph glyph-name="dcaron" unicode="&#x10f;" horiz-adv-x="1239" 
d="M1208 1182l117 440h291l-193 -440h-215zM383 -18q-157 0 -242.5 114t-85.5 295q0 175 63.5 319.5t172 227t237.5 82.5q149 0 240 -88h6l70 575h309l-186 -1507h-308l19 147l-6 3q-120 -168 -289 -168zM479 254q87 0 165 105.5t104 285.5l4 29q-65 71 -170 71
q-64 0 -115 -52t-76.5 -127t-25.5 -152q0 -72 31 -116t83 -44z" />
    <glyph glyph-name="Dcroat" unicode="&#x110;" horiz-adv-x="1368" 
d="M717 1454q295 0 447.5 -160t152.5 -444q0 -252 -93.5 -443.5t-272.5 -299t-421 -107.5h-450l70 575h-95l39 277h90l74 602h459zM567 293q130 0 224.5 75t140 198t45.5 278q0 154 -73.5 235.5t-223.5 81.5h-137l-39 -309h231l-39 -277h-225l-35 -282h131z" />
    <glyph glyph-name="dcroat" unicode="&#x111;" horiz-adv-x="1103" 
d="M1212 1305l-22 -185h-84l-139 -1120h-308l19 147l-6 3q-120 -168 -289 -168q-157 0 -242.5 114t-85.5 295q0 175 63.5 319.5t172 227t237.5 82.5q149 0 240 -88h6l23 188h-324l23 185h323l25 202h309l-25 -202h84zM748 645l4 29q-65 71 -170 71q-64 0 -115 -52
t-76.5 -127t-25.5 -152q0 -72 31 -116t83 -44q87 0 165 105.5t104 285.5z" />
    <glyph glyph-name="Emacron" unicode="&#x112;" 
d="M422 1604l31 225h583l-28 -225h-586zM76 0l178 1454h864l-37 -293h-542l-37 -297h428l-33 -282h-428l-37 -289h582l-37 -293h-901z" />
    <glyph glyph-name="emacron" unicode="&#x113;" horiz-adv-x="974" 
d="M930 1427l-29 -235h-586l31 235h584zM948 743q-1 -74 -35.5 -134t-89.5 -101t-133 -71.5t-159 -47.5t-175 -27q13 -63 54 -94.5t90 -31.5q108 0 182 100l229 -135q-81 -111 -186 -165t-250 -54q-191 0 -305 113t-113 306q0 127 38.5 240t108.5 197t174 133t228 49
q63 0 122.5 -17.5t109.5 -50t80.5 -87t29.5 -122.5zM653 700q1 30 -18 47t-55 17q-68 0 -128 -58t-85 -159q283 30 286 153z" />
    <glyph glyph-name="Ebreve" unicode="&#x114;" 
d="M707 1542q-148 0 -220 80t-61 221h219q-5 -38 16 -65t64 -27q47 0 81.5 27.5t45.5 64.5h223q-28 -135 -120 -218t-248 -83zM76 0l178 1454h864l-37 -293h-542l-37 -297h428l-33 -282h-428l-37 -289h582l-37 -293h-901z" />
    <glyph glyph-name="ebreve" unicode="&#x115;" horiz-adv-x="974" 
d="M592 1106q-142 0 -216 83.5t-65 235.5h221q-5 -42 15.5 -70t64.5 -28q45 0 80.5 29t46.5 69h222q-27 -145 -122.5 -232t-246.5 -87zM606 1020q63 0 122.5 -17.5t109.5 -50t80.5 -87t29.5 -122.5q-1 -74 -35.5 -134t-89.5 -101t-133 -71.5t-159 -47.5t-175 -27
q13 -63 54 -94.5t90 -31.5q108 0 182 100l229 -135q-81 -111 -186 -165t-250 -54q-191 0 -305 113t-113 306q0 127 38.5 240t108.5 197t174 133t228 49zM653 700q1 30 -18 47t-55 17q-68 0 -128 -58t-85 -159q283 30 286 153z" />
    <glyph glyph-name="Edotaccent" unicode="&#x116;" 
d="M723 1548q-81 0 -132.5 50t-51.5 126q0 79 53 130t137 51q82 0 133 -49t51 -125q0 -79 -53 -131t-137 -52zM76 0l178 1454h864l-37 -293h-542l-37 -297h428l-33 -282h-428l-37 -289h582l-37 -293h-901z" />
    <glyph glyph-name="edotaccent" unicode="&#x117;" horiz-adv-x="974" 
d="M614 1130q-81 0 -132.5 50.5t-51.5 126.5q0 78 53.5 129t137.5 51q82 0 133 -49t51 -125q0 -79 -53.5 -131t-137.5 -52zM948 743q-1 -74 -35.5 -134t-89.5 -101t-133 -71.5t-159 -47.5t-175 -27q13 -63 54 -94.5t90 -31.5q108 0 182 100l229 -135q-81 -111 -186 -165
t-250 -54q-191 0 -305 113t-113 306q0 127 38.5 240t108.5 197t174 133t228 49q63 0 122.5 -17.5t109.5 -50t80.5 -87t29.5 -122.5zM653 700q1 30 -18 47t-55 17q-68 0 -128 -58t-85 -159q283 30 286 153z" />
    <glyph glyph-name="Eogonek" unicode="&#x118;" 
d="M1081 1161h-542l-37 -297h428l-33 -282h-428l-37 -289h582l-37 -293h-4q-80 -6 -139.5 -60.5t-59.5 -115.5q0 -49 51 -49q43 0 68 14l4 -158q-56 -22 -152 -22q-98 0 -148 41.5t-50 120.5q0 62 35 123t94 106h-600l178 1454h864z" />
    <glyph glyph-name="eogonek" unicode="&#x119;" horiz-adv-x="974" 
d="M948 743q-1 -74 -35.5 -134t-89.5 -101t-133 -71.5t-159 -47.5t-175 -27q13 -63 54 -94.5t90 -31.5q108 0 182 100l229 -135q-111 -151 -264 -197q-78 -28 -132 -77t-54 -103q0 -49 55 -49q36 0 64 14l4 -158q-56 -22 -150 -22q-98 0 -149.5 42t-51.5 120q0 59 31.5 117
t83.5 102v6q-137 36 -214.5 141.5t-76.5 263.5q0 127 38.5 240t108.5 197t174 133t228 49q63 0 122.5 -17.5t109.5 -50t80.5 -87t29.5 -122.5zM653 700q1 30 -18 47t-55 17q-68 0 -128 -58t-85 -159q283 30 286 153z" />
    <glyph glyph-name="Ecaron" unicode="&#x11a;" 
d="M557 1556l-151 287h260l63 -129h4l96 129h254l-219 -287h-307zM76 0l178 1454h864l-37 -293h-542l-37 -297h428l-33 -282h-428l-37 -289h582l-37 -293h-901z" />
    <glyph glyph-name="ecaron" unicode="&#x11b;" horiz-adv-x="974" 
d="M756 1120h-307l-146 305h258l60 -145h4l94 145h256zM606 1020q63 0 122.5 -17.5t109.5 -50t80.5 -87t29.5 -122.5q-1 -74 -35.5 -134t-89.5 -101t-133 -71.5t-159 -47.5t-175 -27q13 -63 54 -94.5t90 -31.5q108 0 182 100l229 -135q-81 -111 -186 -165t-250 -54
q-191 0 -305 113t-113 306q0 127 38.5 240t108.5 197t174 133t228 49zM653 700q1 30 -18 47t-55 17q-68 0 -128 -58t-85 -159q283 30 286 153z" />
    <glyph glyph-name="Gcircumflex" unicode="&#x11c;" horiz-adv-x="1392" 
d="M549 1556l221 287h307l150 -287h-258l-66 132h-2l-98 -132h-254zM698 -18q-127 0 -234.5 37.5t-188.5 111t-127 191t-46 268.5q0 181 56 343t154.5 281.5t243 189t312.5 69.5q156 0 289 -68t209 -195l-254 -192q-43 66 -110 106.5t-152 40.5q-117 0 -211 -79.5
t-143.5 -206.5t-49.5 -271q0 -157 72.5 -240t202.5 -83q117 0 225 69l27 181h-242l35 274h555l-76 -651q-101 -79 -248 -127.5t-299 -48.5z" />
    <glyph glyph-name="gcircumflex" unicode="&#x11d;" horiz-adv-x="1128" 
d="M676 1288l-86 -151h-273l236 311h268l172 -311h-266l-49 151h-2zM774 1001h307l-106 -872q-16 -130 -56 -228.5t-94 -159t-126.5 -98.5t-146 -52.5t-159.5 -14.5q-205 0 -364 98l96 240q128 -78 256 -78q63 0 106.5 13t83 48.5t64.5 105t39 175.5l-6 2
q-120 -168 -285 -168q-105 0 -180 54.5t-110.5 141t-35.5 193.5q0 170 62.5 312.5t171 224.5t237.5 82q153 0 234 -84l6 2zM739 645l4 33q-67 67 -161 67q-48 0 -90 -30.5t-68.5 -77.5t-41.5 -101t-15 -104q0 -71 29.5 -109t82.5 -38q83 0 159 100t101 260z" />
    <glyph glyph-name="Gbreve" unicode="&#x11e;" horiz-adv-x="1392" 
d="M885 1542q-148 0 -220 80t-61 221h219q-5 -38 16 -65t64 -27q47 0 81.5 27.5t45.5 64.5h223q-28 -135 -120 -218t-248 -83zM698 -18q-127 0 -234.5 37.5t-188.5 111t-127 191t-46 268.5q0 181 56 343t154.5 281.5t243 189t312.5 69.5q156 0 289 -68t209 -195l-254 -192
q-43 66 -110 106.5t-152 40.5q-117 0 -211 -79.5t-143.5 -206.5t-49.5 -271q0 -157 72.5 -240t202.5 -83q117 0 225 69l27 181h-242l35 274h555l-76 -651q-101 -79 -248 -127.5t-299 -48.5z" />
    <glyph glyph-name="gbreve" unicode="&#x11f;" horiz-adv-x="1128" 
d="M651 1106q-141 0 -215 83.5t-65 235.5h221q-5 -42 15.5 -70t64.5 -28q45 0 80.5 29t46.5 69h221q-27 -145 -122.5 -232t-246.5 -87zM774 1001h307l-106 -872q-16 -130 -56 -228.5t-94 -159t-126.5 -98.5t-146 -52.5t-159.5 -14.5q-205 0 -364 98l96 240q128 -78 256 -78
q63 0 106.5 13t83 48.5t64.5 105t39 175.5l-6 2q-120 -168 -285 -168q-105 0 -180 54.5t-110.5 141t-35.5 193.5q0 170 62.5 312.5t171 224.5t237.5 82q153 0 234 -84l6 2zM739 645l4 33q-67 67 -161 67q-48 0 -90 -30.5t-68.5 -77.5t-41.5 -101t-15 -104q0 -71 29.5 -109
t82.5 -38q83 0 159 100t101 260z" />
    <glyph glyph-name="Gdotaccent" unicode="&#x120;" horiz-adv-x="1392" 
d="M901 1548q-81 0 -132.5 50t-51.5 126q0 79 53 130t137 51q82 0 133.5 -49t51.5 -125q0 -79 -53.5 -131t-137.5 -52zM698 -18q-127 0 -234.5 37.5t-188.5 111t-127 191t-46 268.5q0 181 56 343t154.5 281.5t243 189t312.5 69.5q156 0 289 -68t209 -195l-254 -192
q-43 66 -110 106.5t-152 40.5q-117 0 -211 -79.5t-143.5 -206.5t-49.5 -271q0 -157 72.5 -240t202.5 -83q117 0 225 69l27 181h-242l35 274h555l-76 -651q-101 -79 -248 -127.5t-299 -48.5z" />
    <glyph glyph-name="gdotaccent" unicode="&#x121;" horiz-adv-x="1128" 
d="M674 1130q-81 0 -133 50.5t-52 126.5q0 78 53.5 129t137.5 51q82 0 133 -49t51 -125q0 -79 -53 -131t-137 -52zM774 1001h307l-106 -872q-16 -130 -56 -228.5t-94 -159t-126.5 -98.5t-146 -52.5t-159.5 -14.5q-205 0 -364 98l96 240q128 -78 256 -78q63 0 106.5 13
t83 48.5t64.5 105t39 175.5l-6 2q-120 -168 -285 -168q-105 0 -180 54.5t-110.5 141t-35.5 193.5q0 170 62.5 312.5t171 224.5t237.5 82q153 0 234 -84l6 2zM739 645l4 33q-67 67 -161 67q-48 0 -90 -30.5t-68.5 -77.5t-41.5 -101t-15 -104q0 -71 29.5 -109t82.5 -38
q83 0 159 100t101 260z" />
    <glyph glyph-name="Gcommaaccent" unicode="&#x122;" horiz-adv-x="1392" 
d="M698 -18q-127 0 -234.5 37.5t-188.5 111t-127 191t-46 268.5q0 181 56 343t154.5 281.5t243 189t312.5 69.5q156 0 289 -68t209 -195l-254 -192q-43 66 -110 106.5t-152 40.5q-117 0 -211 -79.5t-143.5 -206.5t-49.5 -271q0 -157 72.5 -240t202.5 -83q117 0 225 69
l27 181h-242l35 274h555l-76 -651q-101 -79 -248 -127.5t-299 -48.5zM475 -453l-31 174q63 14 89 40t26 79q0 11 -4 51h246q4 -28 4 -47q0 -138 -87.5 -215t-242.5 -82z" />
    <glyph glyph-name="gcommaaccent" unicode="&#x123;" horiz-adv-x="1128" 
d="M797 1159h-246q-4 28 -4 47q0 138 87.5 215t242.5 82l30 -174q-63 -14 -88.5 -40t-25.5 -79q0 -11 4 -51zM774 1001h307l-106 -872q-16 -130 -56 -228.5t-94 -159t-126.5 -98.5t-146 -52.5t-159.5 -14.5q-205 0 -364 98l96 240q128 -78 256 -78q63 0 106.5 13t83 48.5
t64.5 105t39 175.5l-6 2q-120 -168 -285 -168q-105 0 -180 54.5t-110.5 141t-35.5 193.5q0 170 62.5 312.5t171 224.5t237.5 82q153 0 234 -84l6 2zM739 645l4 33q-67 67 -161 67q-48 0 -90 -30.5t-68.5 -77.5t-41.5 -101t-15 -104q0 -71 29.5 -109t82.5 -38q83 0 159 100
t101 260z" />
    <glyph glyph-name="Hcircumflex" unicode="&#x124;" horiz-adv-x="1372" 
d="M477 1559l221 286h308l149 -286h-258l-66 131h-2l-98 -131h-254zM78 0l178 1454h330l-74 -608h432l74 608h332l-181 -1454h-329l67 553h-432l-67 -553h-330z" />
    <glyph glyph-name="hcircumflex" unicode="&#x125;" 
d="M360 1583l222 287h307l149 -287h-258l-65 131h-2l-99 -131h-254zM51 0l187 1507h305l-80 -645l4 -2q138 160 334 160q144 0 201.5 -99.5t29.5 -308.5l-80 -612h-307l74 543q15 104 1.5 153t-61.5 49q-79 0 -157.5 -104t-100.5 -281l-43 -360h-307z" />
    <glyph glyph-name="Hbar" unicode="&#x126;" horiz-adv-x="1376" 
d="M1411 1264l-27 -211h-81l-132 -1053h-329l67 553h-432l-67 -553h-330l129 1053h-82l27 211h82l22 190h330l-23 -190h432l23 190h332l-25 -190h84zM946 846l25 207h-432l-25 -207h432z" />
    <glyph glyph-name="hbar" unicode="&#x127;" 
d="M801 1020q144 0 201.5 -99.5t29.5 -308.5l-80 -612h-307l74 543q15 104 1.5 153t-61.5 49q-79 0 -157.5 -104t-100.5 -281l-43 -360h-307l139 1120h-96l21 185h98l25 202h305l-25 -202h316l-21 -185h-317l-33 -258l4 -2q138 160 334 160z" />
    <glyph glyph-name="Itilde" unicode="&#x128;" horiz-adv-x="630" 
d="M612 1559q-12 0 -23.5 1t-22.5 4t-19 5t-19 7.5t-16.5 8t-16 9t-14 8.5t-14 9.5t-12.5 8.5q-53 37 -90 37q-65 0 -117 -103l-172 84q48 101 115 163.5t147 62.5q36 0 68 -9.5t47 -18t41 -26.5q4 -3 14.5 -10t15.5 -10t14 -8t15 -7t14.5 -4t16.5 -2q68 0 118 99l172 -66
q-48 -109 -115 -176t-147 -67zM88 0l178 1454h332l-178 -1454h-332z" />
    <glyph glyph-name="itilde" unicode="&#x129;" horiz-adv-x="548" 
d="M512 1112q-19 0 -35 3.5t-31.5 12t-23.5 13.5t-24 17.5t-19 15.5q-49 36 -82 36q-60 0 -113 -100l-161 82q45 98 108.5 159.5t140.5 61.5q33 0 61.5 -8t43 -16t37.5 -23q8 -6 24 -17t24.5 -16.5t20.5 -10.5t23 -5q59 0 108 104l162 -69q-44 -106 -113 -173t-151 -67z
M59 0l123 1001h307l-122 -1001h-308z" />
    <glyph glyph-name="Imacron" unicode="&#x12a;" horiz-adv-x="630" 
d="M154 1604l30 225h584l-29 -225h-585zM88 0l178 1454h332l-178 -1454h-332z" />
    <glyph glyph-name="imacron" unicode="&#x12b;" horiz-adv-x="548" 
d="M74 1192l30 235h584l-29 -235h-585zM59 0l123 1001h307l-122 -1001h-308z" />
    <glyph glyph-name="Ibreve" unicode="&#x12c;" horiz-adv-x="630" 
d="M438 1542q-148 0 -219.5 80t-60.5 221h219q-5 -38 16 -65t64 -27q47 0 81.5 27.5t45.5 64.5h223q-28 -135 -120.5 -218t-248.5 -83zM88 0l178 1454h332l-178 -1454h-332z" />
    <glyph glyph-name="ibreve" unicode="&#x12d;" horiz-adv-x="548" 
d="M371 1126q-121 0 -194 85.5t-66 232.5h202q-5 -55 12.5 -87t55.5 -32t66 33t34 86h203q-24 -141 -106.5 -229.5t-206.5 -88.5zM59 0l123 1001h307l-122 -1001h-308z" />
    <glyph glyph-name="Iogonek" unicode="&#x12e;" horiz-adv-x="630" 
d="M266 1454h332l-178 -1454h-37q-80 -6 -139.5 -60.5t-59.5 -115.5q0 -49 52 -49q42 0 67 14l4 -158q-56 -22 -151 -22q-98 0 -148.5 42t-50.5 120q0 63 36 125t95 106z" />
    <glyph glyph-name="iogonek" unicode="&#x12f;" horiz-adv-x="548" 
d="M379 1487q82 0 133 -49t51 -125q0 -79 -53 -131t-137 -52q-81 0 -133 50.5t-52 126.5q0 78 53.5 129t137.5 51zM61 10l121 991h307l-122 -1001h-21q-80 -6 -139.5 -60.5t-59.5 -115.5q0 -49 52 -49q43 0 67 14l4 -158q-56 -22 -151 -22q-98 0 -148.5 42t-50.5 120
q0 65 39 129.5t102 109.5z" />
    <glyph glyph-name="Idotaccent" unicode="&#x130;" horiz-adv-x="630" 
d="M455 1548q-81 0 -133 50t-52 126q0 79 53.5 130t137.5 51q82 0 133 -49t51 -125q0 -79 -53 -131t-137 -52zM88 0l178 1454h332l-178 -1454h-332z" />
    <glyph glyph-name="dotlessi" unicode="&#x131;" horiz-adv-x="548" 
d="M59 0l123 1001h307l-122 -1001h-308z" />
    <glyph glyph-name="IJ" unicode="&#x132;" horiz-adv-x="1581" 
d="M88 0l178 1454h332l-178 -1454h-332zM977 -18q-110 0 -207 51t-152 147l218 221q22 -47 57.5 -76.5t79.5 -29.5q61 0 102 54.5t58 197.5l112 907h328l-113 -922q-34 -285 -147.5 -417.5t-335.5 -132.5z" />
    <glyph glyph-name="ij" unicode="&#x133;" horiz-adv-x="1062" 
d="M373 1130q-81 0 -133 50.5t-52 126.5q0 78 53.5 129t137.5 51q82 0 133 -49t51 -125q0 -79 -53 -131t-137 -52zM897 1130q-81 0 -132.5 50.5t-51.5 126.5q0 79 53 129.5t137 50.5q82 0 133 -49t51 -125q0 -79 -53 -131t-137 -52zM59 0l123 1001h307l-122 -1001h-308z
M543 -422q-122 0 -211 47l76 236q31 -25 77 -25q45 0 65.5 38.5t31.5 133.5l123 993h309l-129 -1036q-24 -205 -111.5 -296t-230.5 -91z" />
    <glyph glyph-name="Jcircumflex" unicode="&#x134;" horiz-adv-x="950" 
d="M449 1559l221 286h307l149 -286h-258l-65 131h-2l-99 -131h-253zM346 -18q-110 0 -206.5 51t-151.5 147l217 221q22 -47 57.5 -76.5t79.5 -29.5q61 0 102 54.5t58 197.5l112 907h328l-113 -922q-34 -285 -147.5 -417.5t-335.5 -132.5z" />
    <glyph glyph-name="jcircumflex" unicode="&#x135;" horiz-adv-x="514" 
d="M-8 1137l235 311h269l172 -311h-267l-49 151h-2l-86 -151h-272zM-6 -422q-122 0 -211 47l76 236q31 -25 78 -25q45 0 65 38.5t31 133.5l123 993h309l-129 -1036q-24 -205 -111.5 -296t-230.5 -91z" />
    <glyph glyph-name="Kcommaaccent" unicode="&#x136;" horiz-adv-x="1265" 
d="M1362 1454l-524 -653l360 -801h-373l-235 569l-137 -161l-50 -408h-325l178 1454h326l-72 -594l6 -2l453 596h393zM449 -109h245q4 -28 4 -47q0 -138 -87 -215t-242 -82l-31 174q63 14 89 40t26 79q0 11 -4 51z" />
    <glyph glyph-name="kcommaaccent" unicode="&#x137;" horiz-adv-x="1052" 
d="M897 -14q-40 -4 -90 -4q-109 0 -174 73t-111 213l-18 62q-60 -38 -121 -64l-31 -266h-301l187 1507h305l-115 -932l4 -2q216 152 285 428h317q-56 -290 -284 -505l28 -86q32 -101 73.5 -135t115.5 -39zM258 -453l-31 174q63 14 89 40t26 79q0 11 -4 51h246q4 -28 4 -47
q0 -138 -87.5 -215t-242.5 -82z" />
    <glyph glyph-name="kgreenlandic" unicode="&#x138;" horiz-adv-x="1048" 
d="M893 -14q-40 -4 -90 -4q-109 0 -174 73t-111 213l-14 51q-53 -33 -117 -61l-29 -258h-307l125 1001h305l-49 -399l8 -4q112 78 176 177t97 226h317q-54 -286 -285 -507l29 -84q33 -101 74.5 -135t114.5 -39z" />
    <glyph glyph-name="Lacute" unicode="&#x139;" horiz-adv-x="1067" 
d="M520 1559l236 284l309 2l-268 -286h-277zM78 0l178 1454h330l-144 -1161h537l-35 -293h-866z" />
    <glyph glyph-name="lacute" unicode="&#x13a;" horiz-adv-x="548" 
d="M276 1585l236 285l309 2l-268 -287h-277zM61 0l185 1507h309l-186 -1507h-308z" />
    <glyph glyph-name="Lcommaaccent" unicode="&#x13b;" horiz-adv-x="1067" 
d="M78 0l178 1454h330l-144 -1161h537l-35 -293h-866zM289 -453l-31 174q63 14 89 40t26 79q0 11 -4 51h245q4 -28 4 -47q0 -138 -87 -215t-242 -82z" />
    <glyph glyph-name="lcommaaccent" unicode="&#x13c;" horiz-adv-x="548" 
d="M61 0l185 1507h309l-186 -1507h-308zM-4 -453l-31 174q63 14 89 40t26 79q0 11 -4 51h246q4 -28 4 -47q0 -138 -87.5 -215t-242.5 -82z" />
    <glyph glyph-name="Lcaron" unicode="&#x13d;" horiz-adv-x="1087" 
d="M723 1182l115 440h290l-190 -440h-215zM78 0l178 1454h330l-144 -1161h537l-35 -293h-866z" />
    <glyph glyph-name="lcaron" unicode="&#x13e;" horiz-adv-x="653" 
d="M625 1182l114 440h291l-192 -440h-213zM61 0l185 1507h309l-186 -1507h-308z" />
    <glyph glyph-name="Ldot" unicode="&#x13f;" horiz-adv-x="1069" 
d="M78 0l178 1454h330l-144 -1161h537l-35 -293h-866zM854 518q-80 0 -128 50t-48 128q0 79 50 130t132 51t130 -49t48 -126q0 -81 -50 -132.5t-134 -51.5z" />
    <glyph glyph-name="ldot" unicode="&#x140;" horiz-adv-x="929" 
d="M61 0l185 1507h309l-186 -1507h-308zM735 365q-80 0 -128 50t-48 128q0 79 50 129.5t132 50.5t130.5 -49t48.5 -125q0 -81 -50.5 -132.5t-134.5 -51.5z" />
    <glyph glyph-name="Lslash" unicode="&#x141;" horiz-adv-x="1069" 
d="M444 293h537l-35 -293h-866l65 526l-137 -59l31 248l135 59l84 680h330l-66 -526l199 88l-31 -250l-198 -86z" />
    <glyph glyph-name="lslash" unicode="&#x142;" horiz-adv-x="628" 
d="M643 911l-27 -217l-129 -57l-77 -637h-308l60 487l-127 -57l26 215l127 57l99 805h309l-82 -655z" />
    <glyph glyph-name="Nacute" unicode="&#x143;" horiz-adv-x="1404" 
d="M625 1559l235 284l309 2l-268 -286h-276zM78 0l178 1454h307l385 -901l6 2l111 899h319l-180 -1454h-317l-375 879h-6l-111 -879h-317z" />
    <glyph glyph-name="nacute" unicode="&#x144;" 
d="M455 1139l239 305l312 2l-265 -307h-286zM51 0l125 1001h305l-16 -139l4 -2q138 160 332 160q144 0 201.5 -99.5t29.5 -308.5l-80 -612h-305l72 543q15 104 1.5 153t-61.5 49q-78 0 -155.5 -100t-100.5 -274l-45 -371h-307z" />
    <glyph glyph-name="Ncommaaccent" unicode="&#x145;" horiz-adv-x="1404" 
d="M78 0l178 1454h307l385 -901l6 2l111 899h319l-180 -1454h-317l-375 879h-6l-111 -879h-317zM436 -453l-30 174q63 14 88.5 40t25.5 79q0 11 -4 51h246q4 -28 4 -47q0 -138 -87.5 -215t-242.5 -82z" />
    <glyph glyph-name="ncommaaccent" unicode="&#x146;" 
d="M51 0l125 1001h305l-16 -139l4 -2q138 160 332 160q144 0 201.5 -99.5t29.5 -308.5l-80 -612h-305l72 543q15 104 1.5 153t-61.5 49q-78 0 -155.5 -100t-100.5 -274l-45 -371h-307zM285 -453l-31 174q63 14 89 40t26 79q0 11 -4 51h245q4 -28 4 -47q0 -138 -87 -215
t-242 -82z" />
    <glyph glyph-name="Ncaron" unicode="&#x147;" horiz-adv-x="1404" 
d="M694 1559l-151 286h260l63 -129h4l97 129h254l-220 -286h-307zM78 0l178 1454h307l385 -901l6 2l111 899h319l-180 -1454h-317l-375 879h-6l-111 -879h-317z" />
    <glyph glyph-name="ncaron" unicode="&#x148;" 
d="M518 1120l-145 305h258l59 -145h4l94 145h256l-219 -305h-307zM51 0l125 1001h305l-16 -139l4 -2q138 160 332 160q144 0 201.5 -99.5t29.5 -308.5l-80 -612h-305l72 543q15 104 1.5 153t-61.5 49q-78 0 -155.5 -100t-100.5 -274l-45 -371h-307z" />
    <glyph glyph-name="napostrophe" unicode="&#x149;" horiz-adv-x="1374" 
d="M2 995l115 459h293l-193 -459h-215zM307 0l125 1001h305l-16 -139l4 -2q138 160 332 160q144 0 201.5 -99.5t29.5 -308.5l-80 -612h-305l72 543q15 104 1.5 153t-61.5 49q-78 0 -155.5 -100t-100.5 -274l-45 -371h-307z" />
    <glyph glyph-name="Eng" unicode="&#x14a;" horiz-adv-x="1404" 
d="M1065 1454h319l-180 -1454q-28 -227 -147.5 -322.5t-329.5 -95.5q-82 0 -133 12l43 250q37 -6 65 -6q79 0 123 38.5t56 123.5l2 14l-371 865h-6l-111 -879h-317l178 1454h307l385 -901l6 2z" />
    <glyph glyph-name="eng" unicode="&#x14b;" horiz-adv-x="1110" 
d="M508 -420q-76 0 -148 17l54 233q30 -6 55 -6q141 0 174 229l66 490q15 104 1.5 153t-61.5 49q-76 0 -149.5 -99.5t-96.5 -274.5l-45 -371h-307l125 1001h305l-16 -139l4 -2q123 160 322 160q144 0 201.5 -99.5t29.5 -308.5l-78 -612q-27 -205 -142.5 -312.5
t-293.5 -107.5z" />
    <glyph glyph-name="Omacron" unicode="&#x14c;" horiz-adv-x="1513" 
d="M655 1606l31 225h584l-29 -225h-586zM694 -18q-271 0 -431.5 163t-160.5 453q0 138 34.5 268.5t102 240t159.5 191.5t214.5 128.5t259.5 46.5q269 0 431.5 -163.5t162.5 -449.5q0 -144 -33 -275t-98.5 -241t-157 -191t-215.5 -126t-268 -45zM719 289q117 0 210.5 74.5
t144 200.5t50.5 278q0 162 -76.5 243.5t-205.5 81.5q-111 0 -203.5 -78t-143.5 -204t-51 -267q0 -162 75.5 -245.5t199.5 -83.5z" />
    <glyph glyph-name="omacron" unicode="&#x14d;" horiz-adv-x="1095" 
d="M358 1192l31 235h584l-29 -235h-586zM481 -18q-193 0 -308.5 113.5t-115.5 316.5q0 122 37.5 231t106.5 193.5t175 134t234 49.5q196 0 312 -113.5t116 -314.5q0 -99 -21 -188.5t-65.5 -167t-109 -134t-157 -88.5t-204.5 -32zM504 256q98 0 160.5 93.5t62.5 221.5
q0 51 -14 87t-36.5 54t-45 25.5t-45.5 7.5q-96 0 -156.5 -97t-60.5 -220q0 -83 40 -127.5t95 -44.5z" />
    <glyph glyph-name="Obreve" unicode="&#x14e;" horiz-adv-x="1513" 
d="M940 1544q-148 0 -220 80t-61 221h220q-5 -38 15.5 -65t63.5 -27q47 0 81.5 27.5t45.5 64.5h224q-28 -135 -120.5 -218t-248.5 -83zM694 -18q-271 0 -431.5 163t-160.5 453q0 138 34.5 268.5t102 240t159.5 191.5t214.5 128.5t259.5 46.5q269 0 431.5 -163.5
t162.5 -449.5q0 -144 -33 -275t-98.5 -241t-157 -191t-215.5 -126t-268 -45zM719 289q117 0 210.5 74.5t144 200.5t50.5 278q0 162 -76.5 243.5t-205.5 81.5q-111 0 -203.5 -78t-143.5 -204t-51 -267q0 -162 75.5 -245.5t199.5 -83.5z" />
    <glyph glyph-name="obreve" unicode="&#x14f;" horiz-adv-x="1095" 
d="M635 1106q-142 0 -216 83.5t-65 235.5h221q-5 -42 15.5 -70t64.5 -28q45 0 80.5 29t46.5 69h222q-27 -145 -122.5 -232t-246.5 -87zM481 -18q-193 0 -308.5 113.5t-115.5 316.5q0 122 37.5 231t106.5 193.5t175 134t234 49.5q196 0 312 -113.5t116 -314.5
q0 -99 -21 -188.5t-65.5 -167t-109 -134t-157 -88.5t-204.5 -32zM504 256q98 0 160.5 93.5t62.5 221.5q0 51 -14 87t-36.5 54t-45 25.5t-45.5 7.5q-96 0 -156.5 -97t-60.5 -220q0 -83 40 -127.5t95 -44.5z" />
    <glyph glyph-name="Ohungarumlaut" unicode="&#x150;" horiz-adv-x="1513" 
d="M567 1554l240 306l303 2l-266 -308h-277zM991 1554l238 306l303 2l-264 -308h-277zM694 -18q-271 0 -431.5 163t-160.5 453q0 138 34.5 268.5t102 240t159.5 191.5t214.5 128.5t259.5 46.5q269 0 431.5 -163.5t162.5 -449.5q0 -144 -33 -275t-98.5 -241t-157 -191
t-215.5 -126t-268 -45zM719 289q117 0 210.5 74.5t144 200.5t50.5 278q0 162 -76.5 243.5t-205.5 81.5q-111 0 -203.5 -78t-143.5 -204t-51 -267q0 -162 75.5 -245.5t199.5 -83.5z" />
    <glyph glyph-name="ohungarumlaut" unicode="&#x151;" horiz-adv-x="1095" 
d="M299 1141l240 305l303 2l-267 -307h-276zM723 1141l238 305l303 2l-265 -307h-276zM481 -18q-193 0 -308.5 113.5t-115.5 316.5q0 122 37.5 231t106.5 193.5t175 134t234 49.5q196 0 312 -113.5t116 -314.5q0 -99 -21 -188.5t-65.5 -167t-109 -134t-157 -88.5t-204.5 -32
zM504 256q98 0 160.5 93.5t62.5 221.5q0 51 -14 87t-36.5 54t-45 25.5t-45.5 7.5q-96 0 -156.5 -97t-60.5 -220q0 -83 40 -127.5t95 -44.5z" />
    <glyph glyph-name="OE" unicode="&#x152;" horiz-adv-x="1779" 
d="M1743 1161h-535l-37 -297h418l-35 -286h-417l-35 -285h571l-37 -293h-944q-269 0 -429.5 160t-160.5 436q0 177 55.5 333.5t154 273t244.5 184t318 67.5h904zM719 305h61l107 844h-41q-113 0 -206 -73t-144.5 -193.5t-51.5 -261.5q0 -153 76 -234.5t199 -81.5z" />
    <glyph glyph-name="oe" unicode="&#x153;" horiz-adv-x="1497" 
d="M1063 236q97 0 164 98l227 -135q-151 -217 -416 -217q-200 0 -305 139h-8q-123 -139 -313 -139q-170 0 -272.5 114.5t-102.5 309.5q0 170 62 309.5t178 222t264 82.5q187 0 276 -137h10q134 137 334 137q64 0 122.5 -16t106.5 -47.5t76.5 -84.5t28.5 -122
q0 -291 -563 -420q19 -48 55.5 -71t75.5 -23zM1133 764q-62 0 -121 -67t-82 -173q129 35 199.5 80.5t70.5 108.5q0 22 -17.5 36.5t-49.5 14.5zM446 256q75 0 134 93.5t59 234.5q0 84 -31 124t-78 40q-78 0 -133 -97.5t-55 -228.5q0 -89 31 -127.5t73 -38.5z" />
    <glyph glyph-name="Racute" unicode="&#x154;" horiz-adv-x="1239" 
d="M518 1559l236 284l309 2l-268 -286h-277zM78 0l178 1454h518q209 0 310.5 -108.5t101.5 -292.5q0 -182 -75.5 -315.5t-219.5 -202.5l244 -535h-355l-198 475h-125l-58 -475h-321zM494 764h127q101 0 163 71t62 181q0 74 -44 111.5t-110 37.5h-149z" />
    <glyph glyph-name="racute" unicode="&#x155;" horiz-adv-x="722" 
d="M242 1139l239 305l312 2l-265 -307h-286zM53 0l123 1001h307l-18 -137h4q119 156 287 156l-43 -340q-111 40 -195.5 -39t-111.5 -256l-46 -385h-307z" />
    <glyph glyph-name="Rcommaaccent" unicode="&#x156;" horiz-adv-x="1239" 
d="M78 0l178 1454h518q209 0 310.5 -108.5t101.5 -292.5q0 -182 -75.5 -315.5t-219.5 -202.5l244 -535h-355l-198 475h-125l-58 -475h-321zM494 764h127q101 0 163 71t62 181q0 74 -44 111.5t-110 37.5h-149zM354 -453l-30 174q63 14 88.5 40t25.5 79q0 11 -4 51h246
q4 -28 4 -47q0 -138 -87.5 -215t-242.5 -82z" />
    <glyph glyph-name="rcommaaccent" unicode="&#x157;" horiz-adv-x="722" 
d="M53 0l123 1001h307l-18 -137h4q119 156 287 156l-43 -340q-111 40 -195.5 -39t-111.5 -256l-46 -385h-307zM-16 -453l-31 174q63 14 89 40t26 79q0 1 -5 51h246q4 -28 4 -47q0 -138 -87 -215t-242 -82z" />
    <glyph glyph-name="Rcaron" unicode="&#x158;" horiz-adv-x="1239" 
d="M588 1559l-152 286h260l64 -129h4l96 129h254l-219 -286h-307zM78 0l178 1454h518q209 0 310.5 -108.5t101.5 -292.5q0 -182 -75.5 -315.5t-219.5 -202.5l244 -535h-355l-198 475h-125l-58 -475h-321zM494 764h127q101 0 163 71t62 181q0 74 -44 111.5t-110 37.5h-149z
" />
    <glyph glyph-name="rcaron" unicode="&#x159;" horiz-adv-x="722" 
d="M371 1120l-146 305h258l60 -145h4l94 145h256l-219 -305h-307zM53 0l123 1001h307l-18 -137h4q119 156 287 156l-43 -340q-111 40 -195.5 -39t-111.5 -256l-46 -385h-307z" />
    <glyph glyph-name="Sacute" unicode="&#x15a;" horiz-adv-x="1116" 
d="M520 1559l236 284l309 2l-268 -286h-277zM518 -18q-150 0 -286 65t-220 195l234 204q49 -83 123.5 -127.5t148.5 -44.5q84 0 133 40t49 98q0 31 -21 57.5t-45.5 43t-97.5 58.5q-21 12 -32 19q-140 81 -188 117q-145 109 -167 255q-4 29 -4 60q0 202 143 326.5t355 124.5
q133 0 254 -57.5t193 -166.5l-234 -194q-97 129 -225 129q-64 0 -105 -36t-39 -89q2 -43 36 -80.5t122 -89.5q28 -17 77 -44.5t75.5 -43t66 -41t61 -45t48 -49t39.5 -58.5t22.5 -66.5t9.5 -80.5q0 -225 -145.5 -352t-380.5 -127z" />
    <glyph glyph-name="sacute" unicode="&#x15b;" horiz-adv-x="860" 
d="M313 1139l240 305l311 2l-264 -307h-287zM385 -18q-111 0 -219 45.5t-172 126.5l172 178q44 -54 106 -86.5t121 -32.5q41 0 66.5 14.5t25.5 40.5q0 24 -25 42t-102 57l-28 14q-123 62 -183.5 131.5t-60.5 173.5q0 148 106.5 241t264.5 93q105 0 200 -40.5t160 -119.5
l-186 -176q-38 52 -84 76t-88 26q-33 0 -56.5 -16.5t-23.5 -44.5q0 -24 34 -49.5t107 -61.5q66 -33 108 -59.5t80.5 -63t56 -82t17.5 -102.5q0 -148 -107.5 -236.5t-289.5 -88.5z" />
    <glyph glyph-name="Scircumflex" unicode="&#x15c;" horiz-adv-x="1116" 
d="M338 1559l221 286h307l150 -286h-258l-66 131h-2l-98 -131h-254zM518 -18q-150 0 -286 65t-220 195l234 204q49 -83 123.5 -127.5t148.5 -44.5q84 0 133 40t49 98q0 31 -21 57.5t-45.5 43t-97.5 58.5q-21 12 -32 19q-140 81 -188 117q-145 109 -167 255q-4 29 -4 60
q0 202 143 326.5t355 124.5q133 0 254 -57.5t193 -166.5l-234 -194q-97 129 -225 129q-64 0 -105 -36t-39 -89q2 -43 36 -80.5t122 -89.5q28 -17 77 -44.5t75.5 -43t66 -41t61 -45t48 -49t39.5 -58.5t22.5 -66.5t9.5 -80.5q0 -225 -145.5 -352t-380.5 -127z" />
    <glyph glyph-name="scircumflex" unicode="&#x15d;" horiz-adv-x="860" 
d="M160 1137l235 311h269l172 -311h-267l-49 151h-2l-86 -151h-272zM385 -18q-111 0 -219 45.5t-172 126.5l172 178q44 -54 106 -86.5t121 -32.5q41 0 66.5 14.5t25.5 40.5q0 24 -25 42t-102 57l-28 14q-123 62 -183.5 131.5t-60.5 173.5q0 148 106.5 241t264.5 93
q105 0 200 -40.5t160 -119.5l-186 -176q-38 52 -84 76t-88 26q-33 0 -56.5 -16.5t-23.5 -44.5q0 -24 34 -49.5t107 -61.5q66 -33 108 -59.5t80.5 -63t56 -82t17.5 -102.5q0 -148 -107.5 -236.5t-289.5 -88.5z" />
    <glyph glyph-name="Scedilla" unicode="&#x15e;" horiz-adv-x="1116" 
d="M645 889q28 -17 77 -44.5t75.5 -43t66 -41t61 -45t48 -49t39.5 -58.5t22.5 -66.5t9.5 -80.5q0 -222 -142.5 -349t-373.5 -130l-30 -43l2 -2q73 -3 113 -37t40 -99q0 -97 -70 -145.5t-194 -48.5q-67 0 -110 12l4 125q35 -12 79 -12q50 0 79.5 17.5t29.5 49.5q0 51 -133 51
l2 78l43 68q-113 23 -210.5 84.5t-160.5 161.5l234 204q49 -83 123.5 -127.5t148.5 -44.5q84 0 133 40t49 98q0 31 -21 57.5t-45.5 43t-97.5 58.5q-21 12 -32 19q-140 81 -188 117q-145 109 -167 255q-4 29 -4 60q0 202 143 326.5t355 124.5q133 0 254 -57.5t193 -166.5
l-234 -194q-97 129 -225 129q-64 0 -105 -36t-39 -89q2 -43 36 -80.5t122 -89.5z" />
    <glyph glyph-name="scedilla" unicode="&#x15f;" horiz-adv-x="860" 
d="M520 614q66 -33 108 -59.5t80.5 -63t56 -82t17.5 -102.5q0 -148 -107.5 -236.5t-289.5 -88.5h-4l-31 -43l2 -2q74 -3 114 -37t40 -99q0 -97 -70 -145.5t-194 -48.5q-68 0 -111 12l4 125q35 -12 80 -12q50 0 79.5 17.5t29.5 49.5q0 51 -134 51l3 78l47 74
q-161 45 -246 152l172 178q44 -54 106 -86.5t121 -32.5q41 0 66.5 14.5t25.5 40.5q0 24 -25 42t-102 57l-28 14q-123 62 -183.5 131.5t-60.5 173.5q0 148 106.5 241t264.5 93q105 0 200 -40.5t160 -119.5l-186 -176q-38 52 -84 76t-88 26q-33 0 -56.5 -16.5t-23.5 -44.5
q0 -24 34 -49.5t107 -61.5z" />
    <glyph glyph-name="Scaron" unicode="&#x160;" horiz-adv-x="1116" 
d="M524 1559l-151 286h260l63 -129h4l97 129h254l-220 -286h-307zM518 -18q-150 0 -286 65t-220 195l234 204q49 -83 123.5 -127.5t148.5 -44.5q84 0 133 40t49 98q0 31 -21 57.5t-45.5 43t-97.5 58.5q-21 12 -32 19q-140 81 -188 117q-145 109 -167 255q-4 29 -4 60
q0 202 143 326.5t355 124.5q133 0 254 -57.5t193 -166.5l-234 -194q-97 129 -225 129q-64 0 -105 -36t-39 -89q2 -43 36 -80.5t122 -89.5q28 -17 77 -44.5t75.5 -43t66 -41t61 -45t48 -49t39.5 -58.5t22.5 -66.5t9.5 -80.5q0 -225 -145.5 -352t-380.5 -127z" />
    <glyph glyph-name="scaron" unicode="&#x161;" horiz-adv-x="860" 
d="M350 1120l-145 305h258l59 -145h4l95 145h256l-220 -305h-307zM385 -18q-111 0 -219 45.5t-172 126.5l172 178q44 -54 106 -86.5t121 -32.5q41 0 66.5 14.5t25.5 40.5q0 24 -25 42t-102 57l-28 14q-123 62 -183.5 131.5t-60.5 173.5q0 148 106.5 241t264.5 93
q105 0 200 -40.5t160 -119.5l-186 -176q-38 52 -84 76t-88 26q-33 0 -56.5 -16.5t-23.5 -44.5q0 -24 34 -49.5t107 -61.5q66 -33 108 -59.5t80.5 -63t56 -82t17.5 -102.5q0 -148 -107.5 -236.5t-289.5 -88.5z" />
    <glyph glyph-name="uni0162" unicode="&#x162;" horiz-adv-x="1103" 
d="M166 1454h1005l-36 -293h-338l-144 -1161h-131l-45 -61l2 -2q74 -3 114 -37t40 -99q0 -97 -70 -145.5t-194 -48.5q-67 0 -111 12l4 125q34 -12 80 -12q50 0 79.5 17.5t29.5 49.5q0 51 -134 51l2 78l46 72h-39l143 1161h-340z" />
    <glyph glyph-name="uni0163" unicode="&#x163;" horiz-adv-x="700" 
d="M471 754l-49 -412q-6 -41 6.5 -62.5t38.5 -21.5q36 0 100 33l49 -240q-117 -66 -251 -69l-31 -43l2 -2q73 -3 113 -37t40 -99q0 -97 -70 -145.5t-194 -48.5q-67 0 -110 12l4 125q35 -12 80 -12q50 0 79 17.5t29 49.5q0 51 -133 51l2 78l49 78q-144 65 -116 295l53 453
h-99l31 247h99l38 293l314 62l-43 -355h207l-31 -247h-207z" />
    <glyph glyph-name="Tcaron" unicode="&#x164;" horiz-adv-x="1103" 
d="M522 1559l-151 286h260l63 -129h4l97 129h254l-220 -286h-307zM326 0l143 1161h-340l37 293h1005l-36 -293h-338l-144 -1161h-327z" />
    <glyph glyph-name="tcaron" unicode="&#x165;" horiz-adv-x="743" 
d="M618 1182l117 440h287l-188 -440h-216zM348 -18q-126 0 -193 77.5t-46 241.5l53 453h-99l31 247h99l38 293l314 62l-43 -355h207l-31 -247h-207l-49 -412q-6 -41 6.5 -62.5t38.5 -21.5q36 0 100 33l49 -240q-126 -69 -268 -69z" />
    <glyph glyph-name="Tbar" unicode="&#x166;" horiz-adv-x="1103" 
d="M1135 1161h-338l-47 -375h206l-26 -229h-207l-70 -557h-327l69 557h-200l30 229h197l47 375h-340l37 293h1005z" />
    <glyph glyph-name="tbar" unicode="&#x167;" horiz-adv-x="700" 
d="M678 754h-207l-16 -129h161l-22 -185h-160l-12 -98q-6 -41 6.5 -62.5t38.5 -21.5q36 0 100 33l49 -240q-126 -69 -268 -69q-126 0 -193 77.5t-46 241.5l16 139h-84l22 185h84l15 129h-99l31 247h99l38 293l314 62l-43 -355h207z" />
    <glyph glyph-name="Utilde" unicode="&#x168;" horiz-adv-x="1337" 
d="M975 1561q-11 0 -21.5 1t-19.5 2.5t-19 5t-16.5 5.5t-16.5 7t-14.5 7.5t-14.5 8.5t-12.5 8t-12.5 8.5t-11 7.5q-53 37 -90 37q-65 0 -117 -103l-172 84q48 101 115 163.5t147 62.5q36 0 68 -9.5t47 -18t41 -26.5q3 -2 12.5 -8.5t13.5 -8.5t12 -7t13 -7t12 -4.5t13.5 -3.5
t13.5 -1q69 0 119 98l172 -66q-48 -109 -115 -176t-147 -67zM612 -18q-144 0 -246 47t-156.5 134t-73.5 210.5t3 277.5l101 803h327l-102 -829q-42 -336 174 -336q108 0 174.5 73t87.5 246l105 846h327l-104 -854q-40 -330 -191.5 -474t-425.5 -144z" />
    <glyph glyph-name="utilde" unicode="&#x169;" horiz-adv-x="1103" 
d="M805 1128q-11 0 -22 1t-20 2.5t-19 5t-16.5 6t-16 7.5t-14 7.5t-14 8.5t-12 8t-11.5 8.5t-11 7.5q-49 37 -90 37q-67 0 -119 -105l-172 86q47 113 114 179.5t150 66.5q20 0 38.5 -3t30.5 -6.5t27.5 -11t21.5 -11t20.5 -13t15.5 -10.5q55 -39 86 -39q72 0 123 100l172 -69
q-46 -121 -113.5 -192t-148.5 -71zM342 -18q-149 0 -218 92.5t-38 304.5l86 622h305l-76 -530q-17 -121 -2.5 -168t68.5 -47q66 0 139 89.5t86 197.5l56 458h307l-123 -1001h-301l12 147h-4q-122 -165 -297 -165z" />
    <glyph glyph-name="Umacron" unicode="&#x16a;" horiz-adv-x="1337" 
d="M516 1606l31 225h583l-28 -225h-586zM612 -18q-144 0 -246 47t-156.5 134t-73.5 210.5t3 277.5l101 803h327l-102 -829q-42 -336 174 -336q108 0 174.5 73t87.5 246l105 846h327l-104 -854q-40 -330 -191.5 -474t-425.5 -144z" />
    <glyph glyph-name="umacron" unicode="&#x16b;" horiz-adv-x="1103" 
d="M352 1192l31 235h584l-29 -235h-586zM342 -18q-149 0 -218 92.5t-38 304.5l86 622h305l-76 -530q-17 -121 -2.5 -168t68.5 -47q66 0 139 89.5t86 197.5l56 458h307l-123 -1001h-301l12 147h-4q-122 -165 -297 -165z" />
    <glyph glyph-name="Ubreve" unicode="&#x16c;" horiz-adv-x="1337" 
d="M801 1544q-148 0 -220 80t-61 221h219q-5 -38 16 -65t64 -27q47 0 81.5 27.5t45.5 64.5h223q-28 -135 -120 -218t-248 -83zM612 -18q-144 0 -246 47t-156.5 134t-73.5 210.5t3 277.5l101 803h327l-102 -829q-42 -336 174 -336q108 0 174.5 73t87.5 246l105 846h327
l-104 -854q-40 -330 -191.5 -474t-425.5 -144z" />
    <glyph glyph-name="ubreve" unicode="&#x16d;" horiz-adv-x="1103" 
d="M629 1106q-142 0 -216 83.5t-65 235.5h221q-5 -42 15.5 -70t64.5 -28q45 0 80.5 29t46.5 69h221q-27 -145 -122.5 -232t-245.5 -87zM342 -18q-149 0 -218 92.5t-38 304.5l86 622h305l-76 -530q-17 -121 -2.5 -168t68.5 -47q66 0 139 89.5t86 197.5l56 458h307l-123 -1001
h-301l12 147h-4q-122 -165 -297 -165z" />
    <glyph glyph-name="Uring" unicode="&#x16e;" horiz-adv-x="1337" 
d="M811 1530q-92 0 -153.5 62t-61.5 153q0 93 63 155t158 62q92 0 152.5 -60.5t60.5 -150.5q0 -94 -62.5 -157.5t-156.5 -63.5zM815 1673q31 0 52.5 21.5t21.5 54.5q0 29 -21.5 50.5t-50.5 21.5q-33 0 -55.5 -21.5t-22.5 -52.5q0 -32 21 -53t55 -21zM612 -18q-144 0 -246 47
t-156.5 134t-73.5 210.5t3 277.5l101 803h327l-102 -829q-42 -336 174 -336q108 0 174.5 73t87.5 246l105 846h327l-104 -854q-40 -330 -191.5 -474t-425.5 -144z" />
    <glyph glyph-name="uring" unicode="&#x16f;" horiz-adv-x="1103" 
d="M659 1102q-92 0 -153.5 62t-61.5 153q0 92 63.5 154.5t158.5 62.5q92 0 152.5 -60.5t60.5 -150.5q0 -94 -63 -157.5t-157 -63.5zM664 1245q31 0 52 21.5t21 54.5q0 29 -21 50.5t-50 21.5q-33 0 -55.5 -21.5t-22.5 -52.5q0 -32 21 -53t55 -21zM342 -18q-149 0 -218 92.5
t-38 304.5l86 622h305l-76 -530q-17 -121 -2.5 -168t68.5 -47q66 0 139 89.5t86 197.5l56 458h307l-123 -1001h-301l12 147h-4q-122 -165 -297 -165z" />
    <glyph glyph-name="Uhungarumlaut" unicode="&#x170;" horiz-adv-x="1337" 
d="M428 1554l240 306l303 2l-266 -308h-277zM852 1554l238 306l303 2l-265 -308h-276zM612 -18q-144 0 -246 47t-156.5 134t-73.5 210.5t3 277.5l101 803h327l-102 -829q-42 -336 174 -336q108 0 174.5 73t87.5 246l105 846h327l-104 -854q-40 -330 -191.5 -474t-425.5 -144
z" />
    <glyph glyph-name="uhungarumlaut" unicode="&#x171;" horiz-adv-x="1103" 
d="M293 1141l239 305l304 2l-267 -307h-276zM717 1141l237 305l303 2l-264 -307h-276zM342 -18q-149 0 -218 92.5t-38 304.5l86 622h305l-76 -530q-17 -121 -2.5 -168t68.5 -47q66 0 139 89.5t86 197.5l56 458h307l-123 -1001h-301l12 147h-4q-122 -165 -297 -165z" />
    <glyph glyph-name="Uogonek" unicode="&#x172;" horiz-adv-x="1337" 
d="M1006 1454h327l-104 -854q-30 -252 -126.5 -395t-260.5 -193h2q-89 -26 -150 -78t-61 -110q0 -22 13 -35.5t36 -13.5q35 0 70 14l4 -158q-59 -22 -152 -22q-98 0 -149.5 42t-51.5 120q0 55 31.5 110.5t83.5 98.5l-2 8q-231 30 -322 201t-55 462l101 803h327l-102 -829
q-42 -336 174 -336q108 0 174.5 73t87.5 246z" />
    <glyph glyph-name="uogonek" unicode="&#x173;" horiz-adv-x="1103" 
d="M748 1001h307l-123 -1001h-21q-80 -6 -139 -60t-59 -116q0 -49 51 -49q42 0 67 14l5 -158q-56 -22 -152 -22q-98 0 -148.5 42t-50.5 120q0 66 41 132t107 111l10 133h-4q-122 -165 -297 -165q-149 0 -218 92.5t-38 304.5l86 622h305l-76 -530q-17 -121 -2.5 -168
t68.5 -47q66 0 139 89.5t86 197.5z" />
    <glyph glyph-name="Wcircumflex" unicode="&#x174;" horiz-adv-x="1908" 
d="M737 1559l221 286h308l149 -286h-258l-65 131h-2l-99 -131h-254zM381 0l-229 1454h340l106 -915h6l307 915h332l80 -891h6l316 891h350l-588 -1454h-299l-98 940h-4l-334 -940h-291z" />
    <glyph glyph-name="wcircumflex" unicode="&#x175;" horiz-adv-x="1554" 
d="M520 1137l236 311h268l172 -311h-266l-49 151h-2l-86 -151h-273zM338 -18q-156 0 -223.5 112.5t-42.5 300.5l86 606h303l-74 -534q-15 -103 -0.5 -157t62.5 -54q24 0 51 16t56.5 50t53.5 100t35 153l53 426h297l-67 -546q-13 -108 0.5 -153.5t56.5 -45.5q21 0 44 11
t49 39.5t49 71.5t43 113.5t32 159.5q22 167 0 350h309q35 -198 0 -411q-23 -165 -79.5 -286t-136 -189.5t-169.5 -100.5t-192 -32q-115 0 -183.5 49t-91.5 133h-4q-52 -86 -139 -134t-178 -48z" />
    <glyph glyph-name="Ycircumflex" unicode="&#x176;" horiz-adv-x="1189" 
d="M385 1559l221 286h307l150 -286h-258l-66 131h-2l-98 -131h-254zM367 0l79 635l-325 819h360l162 -512h6l283 512h375l-531 -819l-78 -635h-331z" />
    <glyph glyph-name="ycircumflex" unicode="&#x177;" horiz-adv-x="1093" 
d="M635 1288l-86 -151h-273l236 311h268l172 -311h-266l-49 151h-2zM743 1001h306l-107 -866q-65 -559 -565 -559q-204 0 -363 98l97 232q119 -78 249 -78q56 0 96.5 12t78.5 44.5t63.5 96t38.5 160.5v2l-6 2q-121 -163 -297 -163q-73 0 -125.5 20.5t-89.5 67t-46 122.5
t5 187l86 622h305l-74 -530q-18 -121 -3.5 -168t69.5 -47q67 0 140 92t85 197z" />
    <glyph glyph-name="Ydieresis" unicode="&#x178;" horiz-adv-x="1189" 
d="M516 1550q-81 0 -132.5 50t-51.5 126q0 79 53 130t137 51q82 0 133.5 -49t51.5 -125q0 -79 -53.5 -131t-137.5 -52zM961 1550q-81 0 -133 50t-52 126q0 79 53.5 130t139.5 51q79 0 130.5 -49.5t51.5 -124.5q0 -79 -53 -131t-137 -52zM367 0l79 635l-325 819h360l162 -512
h6l283 512h375l-531 -819l-78 -635h-331z" />
    <glyph glyph-name="Zacute" unicode="&#x179;" horiz-adv-x="1167" 
d="M502 1559l235 284l310 2l-269 -286h-276zM27 0l30 256l686 899l-4 6h-551l35 293h971l-29 -250l-700 -903l4 -8h582l-35 -293h-989z" />
    <glyph glyph-name="zacute" unicode="&#x17a;" horiz-adv-x="915" 
d="M326 1141l239 305l312 2l-265 -307h-286zM752 -57q-108 26 -246.5 39t-239 15.5t-264.5 2.5l23 205l444 547v6h-338l29 243h747l-22 -204l-455 -547v-4q225 -10 393 -62z" />
    <glyph glyph-name="Zdotaccent" unicode="&#x17b;" horiz-adv-x="1167" 
d="M737 1550q-81 0 -132.5 50t-51.5 126q0 79 53 130t137 51q82 0 133.5 -49t51.5 -125q0 -79 -53.5 -131t-137.5 -52zM27 0l30 256l686 899l-4 6h-551l35 293h971l-29 -250l-700 -903l4 -8h582l-35 -293h-989z" />
    <glyph glyph-name="zdotaccent" unicode="&#x17c;" horiz-adv-x="915" 
d="M559 1130q-81 0 -132.5 50.5t-51.5 126.5q0 79 53 129.5t137 50.5q82 0 133.5 -49t51.5 -125q0 -79 -53.5 -131t-137.5 -52zM752 -57q-108 26 -246.5 39t-239 15.5t-264.5 2.5l23 205l444 547v6h-338l29 243h747l-22 -204l-455 -547v-4q225 -10 393 -62z" />
    <glyph glyph-name="Zcaron" unicode="&#x17d;" horiz-adv-x="1167" 
d="M571 1559l-151 286h260l63 -129h5l96 129h254l-219 -286h-308zM27 0l30 256l686 899l-4 6h-551l35 293h971l-29 -250l-700 -903l4 -8h582l-35 -293h-989z" />
    <glyph glyph-name="zcaron" unicode="&#x17e;" horiz-adv-x="915" 
d="M393 1120l-145 305h258l59 -145h4l95 145h256l-220 -305h-307zM752 -57q-108 26 -246.5 39t-239 15.5t-264.5 2.5l23 205l444 547v6h-338l29 243h747l-22 -204l-455 -547v-4q225 -10 393 -62z" />
    <glyph glyph-name="longs" unicode="&#x17f;" horiz-adv-x="667" 
d="M68 0l92 754h-84l30 247h84l21 168q44 357 344 357q140 0 238 -76l-76 -225q-52 37 -105 37q-44 0 -66.5 -32t-33.5 -126l-135 -1104h-309z" />
    <glyph glyph-name="uni018F" unicode="&#x18f;" horiz-adv-x="1441" 
d="M801 1473q273 0 434.5 -163t161.5 -450q0 -180 -51.5 -339.5t-144.5 -279t-233.5 -189.5t-308.5 -70q-268 0 -423.5 161.5t-155.5 448.5q0 97 35 229h948v21q0 157 -79.5 242t-207.5 85q-160 0 -289 -120l-194 243q101 83 237 132t271 49zM676 274q117 0 202.5 69
t131.5 200h-609q3 -128 81 -198.5t194 -70.5z" />
    <glyph glyph-name="florin" unicode="&#x192;" horiz-adv-x="993" 
d="M82 -338q-118 0 -191 30t-96 64l121 197q67 -25 117 -25q63 0 102 40.5t60 133.5l143 609h-141l65 252h141l50 208q83 355 393 355q116 0 190 -30.5t99 -61.5l-123 -199q-67 25 -119 25q-108 0 -148 -175l-24 -122h221l-68 -252h-223l-162 -695q-43 -179 -141.5 -266.5
t-265.5 -87.5z" />
    <glyph glyph-name="uni019D" unicode="&#x19d;" horiz-adv-x="1398" 
d="M2 -420q-85 0 -145 14l45 250q35 -6 57 -6q59 0 84 38.5t37 137.5l176 1440h307l373 -901l6 2l117 899h319l-186 -1454h-318l-362 879h-6l-113 -899q-15 -121 -48.5 -202t-86.5 -123t-113 -58.5t-143 -16.5z" />
    <glyph glyph-name="Ohorn" unicode="&#x1a0;" horiz-adv-x="1630" 
d="M1475 1585h249l-20 -176q-21 -161 -88.5 -251t-169.5 -109q20 -95 20 -189q0 -144 -33 -275t-98.5 -241t-157 -191t-215.5 -126t-268 -45q-271 0 -431.5 163t-160.5 453q0 138 34.5 268.5t102 240t159.5 191.5t214.5 128.5t259.5 46.5q174 0 307 -71.5t207 -203.5
q29 24 43 78t25 149zM719 289q117 0 210.5 74.5t144 200.5t50.5 278q0 162 -76.5 243.5t-205.5 81.5q-111 0 -203.5 -78t-143.5 -204t-51 -267q0 -162 75.5 -245.5t199.5 -83.5z" />
    <glyph glyph-name="ohorn" unicode="&#x1a1;" horiz-adv-x="1296" 
d="M1102 1157h250l-21 -176q-23 -175 -99.5 -266.5t-193.5 -100.5v-22q0 -99 -21 -188.5t-65.5 -167t-109 -134t-157 -88.5t-204.5 -32q-193 0 -308.5 113.5t-115.5 316.5q0 122 37.5 231t106.5 193.5t175 134t234 49.5q148 0 252.5 -65.5t147.5 -186.5q31 21 45.5 76.5
t25.5 152.5zM504 256q98 0 160.5 93.5t62.5 221.5q0 51 -14 87t-36.5 54t-45 25.5t-45.5 7.5q-96 0 -156.5 -97t-60.5 -220q0 -83 40 -127.5t95 -44.5z" />
    <glyph glyph-name="Uhorn" unicode="&#x1af;" horiz-adv-x="1576" 
d="M1458 1585h250l-20 -176q-24 -184 -108.5 -275.5t-211.5 -91.5q-34 0 -84 11l-55 -453q-40 -330 -191.5 -474t-425.5 -144q-144 0 -246 47t-156.5 134t-73.5 210.5t3 277.5l101 803h327l-102 -829q-42 -336 174 -336q108 0 174.5 73t87.5 246l105 846h327l-33 -266
q20 -4 27 -4q28 0 47.5 17t31.5 54.5t18.5 73t13.5 96.5z" />
    <glyph glyph-name="uhorn" unicode="&#x1b0;" horiz-adv-x="1353" 
d="M1176 1157h249l-20 -176q-24 -184 -108.5 -275.5t-211.5 -91.5q-37 0 -77 9l-76 -623h-301l12 147h-4q-122 -165 -297 -165q-149 0 -218 92.5t-38 304.5l86 622h305l-76 -530q-17 -121 -2.5 -168t68.5 -47q66 0 139 89.5t86 197.5l56 458h307l-31 -243q8 -2 20 -2
q28 0 47.5 17t31.5 54.5t18.5 73t13.5 96.5z" />
    <glyph glyph-name="uni01CD" unicode="&#x1cd;" horiz-adv-x="1300" 
d="M637 1559l-152 286h260l64 -129h4l96 129h254l-219 -286h-307zM-47 0l655 1454h316l299 -1454h-340l-45 268h-437l-104 -268h-344zM506 545h289l-86 510h-4z" />
    <glyph glyph-name="uni01CE" unicode="&#x1ce;" horiz-adv-x="1132" 
d="M506 1120l-146 305h258l60 -145h4l94 145h256l-219 -305h-307zM381 -18q-156 0 -241 114.5t-85 294.5q0 175 63.5 319.5t172 227t237.5 82.5q151 0 236 -88h6l8 69h309l-122 -1001h-310l19 147l-6 3q-117 -168 -287 -168zM479 254q85 0 162 105.5t102 285.5l5 29
q-68 71 -166 71q-64 0 -115 -52t-76.5 -127t-25.5 -152q0 -72 31 -116t83 -44z" />
    <glyph glyph-name="uni01CF" unicode="&#x1cf;" horiz-adv-x="630" 
d="M289 1556l-152 287h260l64 -129h4l96 129h254l-219 -287h-307zM88 0l178 1454h332l-178 -1454h-332z" />
    <glyph glyph-name="uni01D0" unicode="&#x1d0;" horiz-adv-x="548" 
d="M207 1120l-146 305h258l60 -145h4l94 145h256l-219 -305h-307zM59 0l123 1001h307l-122 -1001h-308z" />
    <glyph glyph-name="uni01D1" unicode="&#x1d1;" horiz-adv-x="1513" 
d="M791 1559l-152 286h260l64 -129h4l96 129h254l-219 -286h-307zM694 -18q-271 0 -431.5 163t-160.5 453q0 138 34.5 268.5t102 240t159.5 191.5t214.5 128.5t259.5 46.5q269 0 431.5 -163.5t162.5 -449.5q0 -144 -33 -275t-98.5 -241t-157 -191t-215.5 -126t-268 -45z
M719 289q117 0 210.5 74.5t144 200.5t50.5 278q0 162 -76.5 243.5t-205.5 81.5q-111 0 -203.5 -78t-143.5 -204t-51 -267q0 -162 75.5 -245.5t199.5 -83.5z" />
    <glyph glyph-name="uni01D2" unicode="&#x1d2;" horiz-adv-x="1095" 
d="M492 1120l-146 305h258l60 -145h4l94 145h256l-219 -305h-307zM481 -18q-193 0 -308.5 113.5t-115.5 316.5q0 122 37.5 231t106.5 193.5t175 134t234 49.5q196 0 312 -113.5t116 -314.5q0 -99 -21 -188.5t-65.5 -167t-109 -134t-157 -88.5t-204.5 -32zM504 256
q98 0 160.5 93.5t62.5 221.5q0 51 -14 87t-36.5 54t-45 25.5t-45.5 7.5q-96 0 -156.5 -97t-60.5 -220q0 -83 40 -127.5t95 -44.5z" />
    <glyph glyph-name="uni01D3" unicode="&#x1d3;" horiz-adv-x="1337" 
d="M651 1559l-151 286h260l63 -129h4l97 129h254l-220 -286h-307zM612 -18q-144 0 -246 47t-156.5 134t-73.5 210.5t3 277.5l101 803h327l-102 -829q-42 -336 174 -336q108 0 174.5 73t87.5 246l105 846h327l-104 -854q-40 -330 -191.5 -474t-425.5 -144z" />
    <glyph glyph-name="uni01D4" unicode="&#x1d4;" horiz-adv-x="1103" 
d="M485 1120l-145 305h258l59 -145h5l94 145h256l-219 -305h-308zM342 -18q-149 0 -218 92.5t-38 304.5l86 622h305l-76 -530q-17 -121 -2.5 -168t68.5 -47q66 0 139 89.5t86 197.5l56 458h307l-123 -1001h-301l12 147h-4q-122 -165 -297 -165z" />
    <glyph glyph-name="uni01D5" unicode="&#x1d5;" horiz-adv-x="1337" 
d="M543 1909l20 164h584l-21 -164h-583zM594 1550q-67 0 -110.5 41t-43.5 103q0 65 45 107t115 42q68 0 111 -40.5t43 -102.5q0 -65 -45 -107.5t-115 -42.5zM1028 1550q-67 0 -110.5 41t-43.5 103q0 65 45 107t115 42q68 0 111 -40.5t43 -102.5q0 -65 -45 -107.5t-115 -42.5
zM612 -18q-144 0 -246 47t-156.5 134t-73.5 210.5t3 277.5l101 803h327l-102 -829q-42 -336 174 -336q108 0 174.5 73t87.5 246l105 846h327l-104 -854q-40 -330 -191.5 -474t-425.5 -144z" />
    <glyph glyph-name="uni01D6" unicode="&#x1d6;" horiz-adv-x="1103" 
d="M375 1524l22 176h584l-23 -176h-583zM438 1120q-72 0 -120 46.5t-48 115.5t48.5 115.5t121.5 46.5t121.5 -45.5t48.5 -114.5q0 -71 -48.5 -117.5t-123.5 -46.5zM846 1120q-73 0 -120.5 46.5t-47.5 115.5t48.5 115.5t121.5 46.5t121.5 -45.5t48.5 -114.5q0 -70 -49 -117
t-123 -47zM342 -18q-149 0 -218 92.5t-38 304.5l86 622h305l-76 -530q-17 -121 -2.5 -168t68.5 -47q66 0 139 89.5t86 197.5l56 458h307l-123 -1001h-301l12 147h-4q-122 -165 -297 -165z" />
    <glyph glyph-name="uni01D7" unicode="&#x1d7;" horiz-adv-x="1337" 
d="M723 1862l207 272l293 2l-310 -274h-190zM594 1550q-67 0 -110.5 41t-43.5 103q0 65 45 107t115 42q68 0 111 -40.5t43 -102.5q0 -65 -45 -107.5t-115 -42.5zM1028 1550q-67 0 -110.5 41t-43.5 103q0 65 45 107t115 42q68 0 111 -40.5t43 -102.5q0 -65 -45 -107.5
t-115 -42.5zM612 -18q-144 0 -246 47t-156.5 134t-73.5 210.5t3 277.5l101 803h327l-102 -829q-42 -336 174 -336q108 0 174.5 73t87.5 246l105 846h327l-104 -854q-40 -330 -191.5 -474t-425.5 -144z" />
    <glyph glyph-name="uni01D8" unicode="&#x1d8;" horiz-adv-x="1103" 
d="M547 1481l227 280l295 2l-295 -282h-227zM438 1120q-72 0 -120 46.5t-48 115.5t48.5 115.5t121.5 46.5t121.5 -45.5t48.5 -114.5q0 -71 -48.5 -117.5t-123.5 -46.5zM846 1120q-73 0 -120.5 46.5t-47.5 115.5t48.5 115.5t121.5 46.5t121.5 -45.5t48.5 -114.5
q0 -70 -49 -117t-123 -47zM342 -18q-149 0 -218 92.5t-38 304.5l86 622h305l-76 -530q-17 -121 -2.5 -168t68.5 -47q66 0 139 89.5t86 197.5l56 458h307l-123 -1001h-301l12 147h-4q-122 -165 -297 -165z" />
    <glyph glyph-name="uni01D9" unicode="&#x1d9;" horiz-adv-x="1337" 
d="M668 1876l-152 258h260l64 -117h4l96 117h254l-219 -258h-307zM594 1550q-67 0 -110.5 41t-43.5 103q0 65 45 107t115 42q68 0 111 -40.5t43 -102.5q0 -65 -45 -107.5t-115 -42.5zM1028 1550q-67 0 -110.5 41t-43.5 103q0 65 45 107t115 42q68 0 111 -40.5t43 -102.5
q0 -65 -45 -107.5t-115 -42.5zM612 -18q-144 0 -246 47t-156.5 134t-73.5 210.5t3 277.5l101 803h327l-102 -829q-42 -336 174 -336q108 0 174.5 73t87.5 246l105 846h327l-104 -854q-40 -330 -191.5 -474t-425.5 -144z" />
    <glyph glyph-name="uni01DA" unicode="&#x1da;" horiz-adv-x="1103" 
d="M510 1473l-145 284h258l59 -135h4l94 135h256l-219 -284h-307zM438 1120q-72 0 -120 46.5t-48 115.5t48.5 115.5t121.5 46.5t121.5 -45.5t48.5 -114.5q0 -71 -48.5 -117.5t-123.5 -46.5zM846 1120q-73 0 -120.5 46.5t-47.5 115.5t48.5 115.5t121.5 46.5t121.5 -45.5
t48.5 -114.5q0 -70 -49 -117t-123 -47zM342 -18q-149 0 -218 92.5t-38 304.5l86 622h305l-76 -530q-17 -121 -2.5 -168t68.5 -47q66 0 139 89.5t86 197.5l56 458h307l-123 -1001h-301l12 147h-4q-122 -165 -297 -165z" />
    <glyph glyph-name="uni01DB" unicode="&#x1db;" horiz-adv-x="1337" 
d="M727 1862l-238 270h244l158 -270h-164zM594 1550q-67 0 -110.5 41t-43.5 103q0 65 45 107t115 42q68 0 111 -40.5t43 -102.5q0 -65 -45 -107.5t-115 -42.5zM1028 1550q-67 0 -110.5 41t-43.5 103q0 65 45 107t115 42q68 0 111 -40.5t43 -102.5q0 -65 -45 -107.5
t-115 -42.5zM612 -18q-144 0 -246 47t-156.5 134t-73.5 210.5t3 277.5l101 803h327l-102 -829q-42 -336 174 -336q108 0 174.5 73t87.5 246l105 846h327l-104 -854q-40 -330 -191.5 -474t-425.5 -144z" />
    <glyph glyph-name="uni01DC" unicode="&#x1dc;" horiz-adv-x="1103" 
d="M543 1483l-203 280l283 -2l137 -278h-217zM438 1120q-72 0 -120 46.5t-48 115.5t48.5 115.5t121.5 46.5t121.5 -45.5t48.5 -114.5q0 -71 -48.5 -117.5t-123.5 -46.5zM846 1120q-73 0 -120.5 46.5t-47.5 115.5t48.5 115.5t121.5 46.5t121.5 -45.5t48.5 -114.5
q0 -70 -49 -117t-123 -47zM342 -18q-149 0 -218 92.5t-38 304.5l86 622h305l-76 -530q-17 -121 -2.5 -168t68.5 -47q66 0 139 89.5t86 197.5l56 458h307l-123 -1001h-301l12 147h-4q-122 -165 -297 -165z" />
    <glyph glyph-name="Gcaron" unicode="&#x1e6;" horiz-adv-x="1392" 
d="M735 1556l-151 287h260l63 -129h4l97 129h254l-220 -287h-307zM698 -18q-127 0 -234.5 37.5t-188.5 111t-127 191t-46 268.5q0 181 56 343t154.5 281.5t243 189t312.5 69.5q156 0 289 -68t209 -195l-254 -192q-43 66 -110 106.5t-152 40.5q-117 0 -211 -79.5
t-143.5 -206.5t-49.5 -271q0 -157 72.5 -240t202.5 -83q117 0 225 69l27 181h-242l35 274h555l-76 -651q-101 -79 -248 -127.5t-299 -48.5z" />
    <glyph glyph-name="gcaron" unicode="&#x1e7;" horiz-adv-x="1128" 
d="M815 1120h-307l-146 305h259l59 -145h4l94 145h256zM774 1001h307l-106 -872q-16 -130 -56 -228.5t-94 -159t-126.5 -98.5t-146 -52.5t-159.5 -14.5q-205 0 -364 98l96 240q128 -78 256 -78q63 0 106.5 13t83 48.5t64.5 105t39 175.5l-6 2q-120 -168 -285 -168
q-105 0 -180 54.5t-110.5 141t-35.5 193.5q0 170 62.5 312.5t171 224.5t237.5 82q153 0 234 -84l6 2zM739 645l4 33q-67 67 -161 67q-48 0 -90 -30.5t-68.5 -77.5t-41.5 -101t-15 -104q0 -71 29.5 -109t82.5 -38q83 0 159 100t101 260z" />
    <glyph glyph-name="uni01EA" unicode="&#x1ea;" horiz-adv-x="1513" 
d="M805 -12q-61 -20 -102 -67t-41 -97q0 -49 51 -49q43 0 67 14l4 -158q-56 -22 -151 -22q-98 0 -148.5 42t-50.5 120q0 58 31 115.5t84 103.5l-2 6q-207 42 -326 198.5t-119 403.5q0 138 34.5 268.5t102 240t159.5 191.5t214.5 128.5t259.5 46.5q269 0 431.5 -163.5
t162.5 -449.5q0 -223 -76 -409t-227.5 -310.5t-357.5 -152.5zM444 618q0 -162 75.5 -245.5t199.5 -83.5q117 0 210.5 74.5t144 200.5t50.5 278q0 162 -76.5 243.5t-205.5 81.5q-111 0 -203.5 -78t-143.5 -204t-51 -267z" />
    <glyph glyph-name="uni01EB" unicode="&#x1eb;" horiz-adv-x="1095" 
d="M573 -12q-60 -22 -99.5 -68.5t-39.5 -95.5t51 -49q43 0 68 14l4 -158q-56 -22 -151 -22q-98 0 -148.5 42t-50.5 120q0 60 34 120.5t91 104.5l-2 6q-128 39 -200.5 145t-72.5 265q0 122 37.5 231t106.5 193.5t175 134t234 49.5q196 0 312 -113.5t116 -314.5
q0 -114 -28.5 -215t-84 -183t-146 -136t-206.5 -70zM586 745q-96 0 -156.5 -97t-60.5 -220q0 -83 40 -127.5t95 -44.5q98 0 160.5 93.5t62.5 221.5q0 51 -14 87t-36.5 54t-45 25.5t-45.5 7.5z" />
    <glyph glyph-name="Aringacute" unicode="&#x1fa;" horiz-adv-x="1300" 
d="M797 1530q-92 0 -153.5 62t-61.5 153q0 93 63 155t158 62q83 0 141 -49l125 96h299l-352 -266q-3 -91 -65 -152t-154 -61zM803 1821q-33 0 -55.5 -21.5t-22.5 -52.5q0 -32 21 -53t55 -21q31 0 52 21.5t21 54.5q0 29 -21 50.5t-50 21.5zM608 1454h316l299 -1454h-340
l-45 268h-437l-104 -268h-344zM506 545h289l-86 510h-4z" />
    <glyph glyph-name="aringacute" unicode="&#x1fb;" horiz-adv-x="1132" 
d="M680 1102q-92 0 -153.5 62t-61.5 153q0 93 63 155t158 62q81 0 139 -49l123 94h312l-361 -276q-8 -87 -70 -144t-149 -57zM686 1393q-33 0 -55.5 -21.5t-22.5 -52.5q0 -32 21 -53t55 -21q31 0 52.5 21.5t21.5 54.5q0 29 -21.5 50.5t-50.5 21.5zM770 932l8 69h309
l-122 -1001h-310l19 147l-6 3q-117 -168 -287 -168q-156 0 -241 114.5t-85 294.5q0 175 63.5 319.5t172 227t237.5 82.5q151 0 236 -88h6zM743 645l5 29q-68 71 -166 71q-64 0 -115 -52t-76.5 -127t-25.5 -152q0 -72 31 -116t83 -44q85 0 162 105.5t102 285.5z" />
    <glyph glyph-name="AEacute" unicode="&#x1fc;" horiz-adv-x="1773" 
d="M811 1559l236 284l309 2l-269 -286h-276zM-61 0l798 1454h1035l-37 -293h-547l-37 -297h440l-37 -284h-438l-35 -287h586l-37 -293h-903l35 268h-332l-141 -268h-350zM573 547h224l65 540h-4z" />
    <glyph glyph-name="aeacute" unicode="&#x1fd;" horiz-adv-x="1409" 
d="M1241 1448l-264 -307h-287l240 305zM973 236q92 0 162 98l227 -135q-150 -217 -404 -217q-245 0 -327 178q-105 -180 -287 -180q-142 0 -229 101t-86 275q1 183 65 329t190 233.5t294 87.5q140 0 241 -52q113 66 250 66q87 0 160.5 -28.5t123.5 -93t50 -155.5
q0 -107 -81 -191t-209 -131t-290 -63q13 -61 56 -91.5t94 -30.5zM1042 764q-63 0 -122 -61t-86 -160q274 43 274 170q0 22 -17 36.5t-49 14.5zM408 242q99 0 172 331q23 106 63 183h-20q-125 0 -206 -112t-81 -275q0 -60 20.5 -93.5t51.5 -33.5z" />
    <glyph glyph-name="Oslashacute" unicode="&#x1fe;" horiz-adv-x="1517" 
d="M1284 1843l-268 -287h-277l236 285zM1528 1391l-154 -164q96 -151 96 -367q0 -144 -33 -275t-98.5 -241t-157 -191t-215.5 -126t-268 -45q-235 0 -385 120l-161 -172l-127 127l170 181q-89 150 -89 360q0 138 34.5 268.5t102 240t160 191.5t215 128.5t259.5 46.5
q228 0 376 -115l148 155zM449 618q0 -50 10 -102l563 596q-70 55 -176 55q-111 0 -203.5 -78t-143 -204t-50.5 -267zM1128 842q0 62 -12 112l-569 -604q70 -61 176 -61q117 0 210.5 74.5t144 200.5t50.5 278z" />
    <glyph glyph-name="oslashacute" unicode="&#x1ff;" horiz-adv-x="1097" 
d="M1047 1446l-265 -307h-286l239 305zM1075 950l-102 -106q65 -103 65 -252q0 -99 -21 -188.5t-65.5 -167t-109 -134t-157 -88.5t-204.5 -32q-152 0 -258 71l-98 -102l-94 94l98 102q-72 107 -72 265q0 122 37.5 231t106.5 193.5t175 134t234 49.5q167 0 273 -80l98 102z
M369 428q0 -19 2 -27l301 316q-35 28 -86 28q-96 0 -156.5 -97t-60.5 -220zM727 571v13l-293 -308q33 -20 70 -20q98 0 160.5 93.5t62.5 221.5z" />
    <glyph glyph-name="Scommaaccent" unicode="&#x218;" horiz-adv-x="1116" 
d="M518 -18q-150 0 -286 65t-220 195l234 204q49 -83 123.5 -127.5t148.5 -44.5q84 0 133 40t49 98q0 31 -21 57.5t-45.5 43t-97.5 58.5q-21 12 -32 19q-140 81 -188 117q-145 109 -167 255q-4 29 -4 60q0 202 143 326.5t355 124.5q133 0 254 -57.5t193 -166.5l-234 -194
q-97 129 -225 129q-64 0 -105 -36t-39 -89q2 -43 36 -80.5t122 -89.5q28 -17 77 -44.5t75.5 -43t66 -41t61 -45t48 -49t39.5 -58.5t22.5 -66.5t9.5 -80.5q0 -225 -145.5 -352t-380.5 -127zM285 -453l-31 174q63 14 89 40t26 79q0 11 -4 51h245q4 -28 4 -47q0 -138 -87 -215
t-242 -82z" />
    <glyph glyph-name="scommaaccent" unicode="&#x219;" horiz-adv-x="860" 
d="M385 -18q-111 0 -219 45.5t-172 126.5l172 178q44 -54 106 -86.5t121 -32.5q41 0 66.5 14.5t25.5 40.5q0 24 -25 42t-102 57l-28 14q-123 62 -183.5 131.5t-60.5 173.5q0 148 106.5 241t264.5 93q105 0 200 -40.5t160 -119.5l-186 -176q-38 52 -84 76t-88 26
q-33 0 -56.5 -16.5t-23.5 -44.5q0 -24 34 -49.5t107 -61.5q66 -33 108 -59.5t80.5 -63t56 -82t17.5 -102.5q0 -148 -107.5 -236.5t-289.5 -88.5zM137 -453l-31 174q63 14 89 40t26 79q0 11 -4 51h246q4 -28 4 -47q0 -138 -87.5 -215t-242.5 -82z" />
    <glyph glyph-name="uni021A" unicode="&#x21a;" horiz-adv-x="1103" 
d="M326 0l143 1161h-340l37 293h1005l-36 -293h-338l-144 -1161h-327zM264 -453l-31 174q63 14 89 40t26 79q0 11 -4 51h246q4 -28 4 -47q0 -138 -87.5 -215t-242.5 -82z" />
    <glyph glyph-name="uni021B" unicode="&#x21b;" horiz-adv-x="700" 
d="M348 -18q-126 0 -193 77.5t-46 241.5l53 453h-99l31 247h99l38 293l314 62l-43 -355h207l-31 -247h-207l-49 -412q-6 -41 6.5 -62.5t38.5 -21.5q36 0 100 33l49 -240q-126 -69 -268 -69zM121 -453l-31 174q63 14 89 40t26 79q0 11 -4 51h245q5 -35 5 -47
q0 -138 -87.5 -215t-242.5 -82z" />
    <glyph glyph-name="uni0232" unicode="&#x232;" horiz-adv-x="1189" 
d="M436 1606l31 225h584l-29 -225h-586zM367 0l79 635l-325 819h360l162 -512h6l283 512h375l-531 -819l-78 -635h-331z" />
    <glyph glyph-name="uni0233" unicode="&#x233;" horiz-adv-x="1093" 
d="M948 1427l-28 -235h-586l31 235h583zM743 1001h306l-107 -866q-65 -559 -565 -559q-204 0 -363 98l97 232q119 -78 249 -78q56 0 96.5 12t78.5 44.5t63.5 96t38.5 160.5v2l-6 2q-121 -163 -297 -163q-73 0 -125.5 20.5t-89.5 67t-46 122.5t5 187l86 622h305l-74 -530
q-18 -121 -3.5 -168t69.5 -47q67 0 140 92t85 197z" />
    <glyph glyph-name="uni0237" unicode="&#x237;" horiz-adv-x="514" 
d="M-6 -422q-122 0 -211 47l76 236q31 -25 78 -25q45 0 65 38.5t31 133.5l123 993h309l-129 -1036q-24 -205 -111.5 -296t-230.5 -91z" />
    <glyph glyph-name="uni0251" unicode="&#x251;" horiz-adv-x="1132" 
d="M381 -18q-156 0 -241 114.5t-85 294.5q0 175 63.5 319.5t172 227t237.5 82.5q151 0 236 -88h6l8 69h309l-122 -1001h-310l19 147l-6 3q-117 -168 -287 -168zM479 254q85 0 162 105.5t102 285.5l5 29q-68 71 -166 71q-64 0 -115 -52t-76.5 -127t-25.5 -152q0 -72 31 -116
t83 -44z" />
    <glyph glyph-name="uni0259" unicode="&#x259;" horiz-adv-x="958" 
d="M489 1020q196 0 310 -115t114 -315q0 -127 -37 -237t-106 -193t-175.5 -130.5t-238.5 -47.5q-143 0 -239.5 73.5t-96.5 206.5q0 89 48.5 160.5t134 117.5t187 74.5t222.5 42.5q-26 111 -149 111q-37 0 -88 -20t-101 -62l-161 197q68 60 170.5 98.5t205.5 38.5zM389 238
q81 0 138 61.5t81 165.5q-293 -45 -293 -168q0 -28 19.5 -43.5t54.5 -15.5z" />
    <glyph glyph-name="uni0261" unicode="&#x261;" horiz-adv-x="1128" 
d="M774 1001h307l-106 -872q-16 -130 -56 -228.5t-94 -159t-126.5 -98.5t-146 -52.5t-159.5 -14.5q-205 0 -364 98l96 240q128 -78 256 -78q63 0 106.5 13t83 48.5t64.5 105t39 175.5l-6 2q-120 -168 -285 -168q-105 0 -180 54.5t-110.5 141t-35.5 193.5q0 170 62.5 312.5
t171 224.5t237.5 82q153 0 234 -84l6 2zM739 645l4 33q-67 67 -161 67q-48 0 -90 -30.5t-68.5 -77.5t-41.5 -101t-15 -104q0 -71 29.5 -109t82.5 -38q83 0 159 100t101 260z" />
    <glyph glyph-name="uni0272" unicode="&#x272;" 
d="M801 1020q144 0 201.5 -99.5t29.5 -308.5l-80 -612h-305l72 543q15 104 1.5 153t-61.5 49q-75 0 -151 -94.5t-102 -259.5l-48 -391q-28 -223 -119 -321.5t-276 -98.5q-75 0 -147 17l53 233q24 -6 47 -6q67 0 96 53t45 176l117 948h307l-16 -139l4 -2q138 160 332 160z
" />
    <glyph glyph-name="uni02BB" unicode="&#x2bb;" horiz-adv-x="475" 
d="M150 840l106 551h215l-33 -551h-288z" />
    <glyph glyph-name="uni02BC" unicode="&#x2bc;" horiz-adv-x="466" 
d="M137 989l115 459h293l-193 -459h-215z" />
    <glyph glyph-name="uni02BE" unicode="&#x2be;" horiz-adv-x="483" 
d="M195 1575q157 0 247 -82t90 -225q0 -181 -110 -289.5t-295 -108.5l-6 209q73 3 117.5 51.5t44.5 122.5q0 105 -123 111z" />
    <glyph glyph-name="uni02BF" unicode="&#x2bf;" horiz-adv-x="524" 
d="M508 870q-157 0 -247.5 82.5t-90.5 225.5q0 181 110 289t295 108l7 -209q-73 -3 -117.5 -51.5t-44.5 -122.5q0 -105 123 -111z" />
    <glyph glyph-name="circumflex" unicode="&#x2c6;" horiz-adv-x="833" 
d="M147 1087l236 312h268l172 -312h-266l-49 152h-2l-86 -152h-273z" />
    <glyph glyph-name="caron" unicode="&#x2c7;" horiz-adv-x="831" 
d="M336 1071l-146 305h259l59 -145h4l94 145h256l-219 -305h-307z" />
    <glyph glyph-name="uni02C8" unicode="&#x2c8;" horiz-adv-x="411" 
d="M133 758l66 583h211l-70 -581z" />
    <glyph glyph-name="uni02C9" unicode="&#x2c9;" horiz-adv-x="673" 
d="M129 1192l31 235h583l-28 -235h-586z" />
    <glyph glyph-name="uni02CA" unicode="&#x2ca;" horiz-adv-x="614" 
d="M141 1141l240 305l311 2l-264 -307h-287z" />
    <glyph glyph-name="uni02CB" unicode="&#x2cb;" horiz-adv-x="604" 
d="M348 1141l-190 307l307 -2l164 -305h-281z" />
    <glyph glyph-name="uni02CC" unicode="&#x2cc;" horiz-adv-x="411" 
d="M-2 -393l65 583h211l-69 -581z" />
    <glyph glyph-name="breve" unicode="&#x2d8;" horiz-adv-x="837" 
d="M483 1057q-141 0 -215 83.5t-65 235.5h221q-5 -42 15.5 -70t64.5 -28q45 0 80.5 29t46.5 69h221q-27 -145 -122.5 -232t-246.5 -87z" />
    <glyph glyph-name="dotaccent" unicode="&#x2d9;" horiz-adv-x="948" 
d="M557 1081q-81 0 -132.5 50t-51.5 126q0 79 53 130t137 51q82 0 133.5 -49t51.5 -125q0 -79 -53.5 -131t-137.5 -52z" />
    <glyph glyph-name="ring" unicode="&#x2da;" horiz-adv-x="854" 
d="M518 1049q-92 0 -153.5 62t-61.5 153q0 93 63 155t158 62q92 0 152.5 -60.5t60.5 -150.5q0 -94 -62.5 -157.5t-156.5 -63.5zM522 1192q31 0 52.5 21.5t21.5 54.5q0 29 -21.5 50t-50.5 21q-34 0 -56 -21t-22 -52q0 -32 21 -53t55 -21z" />
    <glyph glyph-name="ogonek" unicode="&#x2db;" horiz-adv-x="890" 
d="M395 -391q-98 0 -148 41.5t-50 120.5q0 74 49.5 146t124.5 114l252 -31q-80 -6 -139.5 -60.5t-59.5 -115.5q0 -49 51 -49q43 0 68 14l4 -158q-56 -22 -152 -22z" />
    <glyph glyph-name="tilde" unicode="&#x2dc;" horiz-adv-x="909" 
d="M684 1079q-11 0 -22 1t-20 2.5t-19 5t-16.5 6t-16 7.5t-14 7.5t-14 8.5t-12 8t-11.5 8.5t-11 7.5q-49 37 -90 37q-67 0 -119 -105l-172 86q47 113 114.5 179.5t150.5 66.5q20 0 38.5 -3t30.5 -6.5t27 -11t21 -11t20 -12.5t16 -11q55 -39 86 -39q72 0 123 100l172 -70
q-46 -121 -113 -191.5t-149 -70.5z" />
    <glyph glyph-name="hungarumlaut" unicode="&#x2dd;" horiz-adv-x="1005" 
d="M123 1092l239 305l304 2l-267 -307h-276zM547 1092l237 305l303 2l-264 -307h-276z" />
    <glyph glyph-name="gravecomb" unicode="&#x300;" horiz-adv-x="0" 
d="M-1018 1092l-190 307l307 -2l164 -305h-281z" />
    <glyph glyph-name="acutecomb" unicode="&#x301;" horiz-adv-x="0" 
d="M-1169 1092l239 305l312 2l-265 -307h-286z" />
    <glyph glyph-name="uni0302" unicode="&#x302;" horiz-adv-x="0" 
d="M-1292 1087l235 312h269l172 -312h-267l-49 152h-2l-86 -152h-272z" />
    <glyph glyph-name="tildecomb" unicode="&#x303;" horiz-adv-x="0" 
d="M-784 1079q-11 0 -22 1t-20 2.5t-19 5t-16.5 6t-16 7.5t-14 7.5t-14 8.5t-12 8t-11.5 8.5t-11 7.5q-49 37 -90 37q-67 0 -119 -105l-172 86q47 113 114 179.5t150 66.5q20 0 38.5 -3t30.5 -6.5t27.5 -11t21.5 -11t20.5 -13t15.5 -10.5q55 -39 86 -39q72 0 123 100
l172 -70q-46 -121 -113 -191.5t-149 -70.5z" />
    <glyph glyph-name="uni0304" unicode="&#x304;" horiz-adv-x="0" 
d="M-1239 1143l31 235h583l-28 -235h-586z" />
    <glyph glyph-name="uni0306" unicode="&#x306;" horiz-adv-x="0" 
d="M-961 1057q-141 0 -215 83.5t-65 235.5h221q-5 -42 15.5 -70t64.5 -28q45 0 80.5 29t46.5 69h221q-27 -145 -122.5 -232t-246.5 -87z" />
    <glyph glyph-name="uni0307" unicode="&#x307;" horiz-adv-x="0" 
d="M-938 1081q-81 0 -132.5 50t-51.5 126q0 79 53 130t137 51q82 0 133 -49t51 -125q0 -79 -53 -131t-137 -52z" />
    <glyph glyph-name="uni0308" unicode="&#x308;" horiz-adv-x="0" 
d="M-1157 1081q-81 0 -132.5 50t-51.5 126q0 79 53 130t137 51q82 0 133 -49t51 -125q0 -79 -53 -131t-137 -52zM-713 1081q-81 0 -132.5 50t-51.5 126q0 79 53.5 130t138.5 51q79 0 131 -49.5t52 -124.5q0 -79 -53.5 -131t-137.5 -52z" />
    <glyph glyph-name="hookabovecomb" unicode="&#x309;" horiz-adv-x="0" 
d="M-897 1069l-166 2q48 36 83 78t38 80q3 21 -9 33t-38 12q-62 0 -133 -47l-37 129q47 44 125 77t157 33q83 0 130 -36.5t47 -104.5q0 -77 -56 -147.5t-141 -108.5z" />
    <glyph glyph-name="uni030A" unicode="&#x30a;" horiz-adv-x="0" 
d="M-930 1055q-92 0 -153.5 62t-61.5 153q0 93 63 155t158 62q92 0 152.5 -60.5t60.5 -150.5q0 -94 -62.5 -157.5t-156.5 -63.5zM-926 1198q31 0 52.5 21.5t21.5 54.5q0 29 -21.5 50.5t-50.5 21.5q-33 0 -55 -21.5t-22 -52.5q0 -32 20.5 -53t54.5 -21z" />
    <glyph glyph-name="uni030B" unicode="&#x30b;" horiz-adv-x="0" 
d="M-1296 1092l239 305l303 2l-266 -307h-276zM-872 1092l237 305l303 2l-264 -307h-276z" />
    <glyph glyph-name="uni030C" unicode="&#x30c;" horiz-adv-x="0" 
d="M-1104 1071l-145 305h258l59 -145h4l94 145h256l-219 -305h-307z" />
    <glyph glyph-name="uni0312" unicode="&#x312;" horiz-adv-x="0" 
d="M-1061 1110q-4 28 -4 47q0 139 87.5 215.5t240.5 81.5l32 -174q-63 -14 -88.5 -40t-25.5 -79q0 -11 4 -51h-246z" />
    <glyph glyph-name="uni0313" unicode="&#x313;" horiz-adv-x="0" 
d="M-971 1436q4 -28 4 -47q0 -139 -87 -215.5t-240 -81.5l-33 174q63 14 89 39.5t26 78.5q0 2 -5 52h246z" />
    <glyph glyph-name="uni031B" unicode="&#x31b;" horiz-adv-x="0" 
d="M-895 911q-62 0 -133 27l35 131q37 -16 57 -16q28 0 47.5 17t31.5 54.5t18.5 73t13.5 96.5l20 160h250l-20 -176q-24 -184 -108.5 -275.5t-211.5 -91.5z" />
    <glyph glyph-name="dotbelowcomb" unicode="&#x323;" horiz-adv-x="0" 
d="M-1116 -123q81 0 132.5 -50t51.5 -126q0 -79 -53 -129.5t-137 -50.5q-82 0 -133.5 49t-51.5 125q0 79 53.5 130.5t137.5 51.5z" />
    <glyph glyph-name="uni0324" unicode="&#x324;" horiz-adv-x="0" 
d="M-1339 -123q81 0 132.5 -50t51.5 -126q0 -79 -53.5 -129.5t-139.5 -50.5q-79 0 -130.5 49.5t-51.5 124.5q0 79 53.5 130.5t137.5 51.5zM-895 -123q81 0 132.5 -50t51.5 -126q0 -79 -53 -129.5t-137 -50.5q-82 0 -133 49t-51 125q0 79 53 130.5t137 51.5z" />
    <glyph glyph-name="uni0326" unicode="&#x326;" horiz-adv-x="0" 
d="M-1313 -453l-30 174q63 14 88.5 40t25.5 79q0 11 -4 51h246q4 -28 4 -47q0 -138 -87.5 -215t-242.5 -82z" />
    <glyph glyph-name="uni0327" unicode="&#x327;" horiz-adv-x="0" 
d="M-1208 -393q-68 0 -111 12l4 125q35 -12 80 -12q50 0 79.5 17.5t29.5 49.5q0 51 -134 51l3 78l53 84h157l-53 -73l2 -2q74 -3 114 -37t40 -99q0 -97 -70 -145.5t-194 -48.5z" />
    <glyph glyph-name="uni0328" unicode="&#x328;" horiz-adv-x="0" 
d="M-1317 -391q-98 0 -148.5 42t-50.5 120q0 73 50 145.5t125 114.5l251 -31q-80 -6 -139 -60t-59 -116q0 -49 51 -49q43 0 68 14l4 -158q-56 -22 -152 -22z" />
    <glyph glyph-name="uni032E" unicode="&#x32e;" horiz-adv-x="0" 
d="M-1143 -477q-141 0 -215 83.5t-65 235.5h221q-5 -42 15.5 -70t64.5 -28q45 0 80.5 29t46.5 69h221q-27 -145 -122.5 -232t-246.5 -87z" />
    <glyph glyph-name="uni0331" unicode="&#x331;" horiz-adv-x="0" 
d="M-1427 -434l30 235h584l-29 -235h-585z" />
    <glyph glyph-name="uni0335" unicode="&#x335;" horiz-adv-x="0" 
d="M-1300 440l22 185h553l-23 -185h-552z" />
    <glyph glyph-name="uni0374" unicode="&#x374;" horiz-adv-x="548" 
d="M125 958l141 541h305l-200 -541h-246z" />
    <glyph glyph-name="uni0375" unicode="&#x375;" horiz-adv-x="561" 
d="M4 -326l141 543h306l-201 -543h-246z" />
    <glyph glyph-name="uni037E" unicode="&#x37e;" horiz-adv-x="512" 
d="M289 662q-80 0 -128 50t-48 128q0 79 50 129.5t132 50.5t130 -48.5t48 -125.5q0 -81 -50 -132.5t-134 -51.5zM-47 -272l121 546h303l-207 -546h-217z" />
    <glyph glyph-name="tonos" unicode="&#x384;" horiz-adv-x="849" 
d="M301 1092l156 360h340l-224 -360h-272z" />
    <glyph glyph-name="dieresistonos" unicode="&#x385;" horiz-adv-x="1142" 
d="M508 1092l82 360h256l-135 -360h-203zM307 1081q-82 0 -133 50t-51 126q0 79 53 130t137 51q81 0 132 -49t51 -125q0 -79 -53 -131t-136 -52zM1020 1081q-82 0 -133 50t-51 126q0 79 53 130t137 51q82 0 133 -49t51 -125q0 -79 -53 -131t-137 -52z" />
    <glyph glyph-name="Alphatonos" unicode="&#x386;" horiz-adv-x="1300" 
d="M-92 1094l170 360h336l-234 -360h-272zM-47 0l655 1454h316l299 -1454h-340l-45 268h-437l-104 -268h-344zM506 545h289l-86 510h-4z" />
    <glyph glyph-name="anoteleia" unicode="&#x387;" horiz-adv-x="540" 
d="M317 662q-80 0 -128 50t-48 128q0 79 50.5 129.5t132.5 50.5t130 -48.5t48 -125.5q0 -81 -50.5 -132.5t-134.5 -51.5z" />
    <glyph glyph-name="Epsilontonos" unicode="&#x388;" 
d="M-358 1094l170 360h335l-233 -360h-272zM76 0l178 1454h864l-37 -293h-542l-37 -297h428l-33 -282h-428l-37 -289h582l-37 -293h-901z" />
    <glyph glyph-name="Etatonos" unicode="&#x389;" horiz-adv-x="1372" 
d="M-358 1094l170 360h335l-233 -360h-272zM78 0l178 1454h330l-74 -608h432l74 608h332l-181 -1454h-329l67 553h-432l-67 -553h-330z" />
    <glyph glyph-name="Iotatonos" unicode="&#x38a;" horiz-adv-x="630" 
d="M-348 1094l170 360h336l-234 -360h-272zM88 0l178 1454h332l-178 -1454h-332z" />
    <glyph glyph-name="Omicrontonos" unicode="&#x38c;" horiz-adv-x="1513" 
d="M694 -18q-271 0 -431.5 163t-160.5 453q0 138 34.5 268.5t102 240t159.5 191.5t214.5 128.5t259.5 46.5q269 0 431.5 -163.5t162.5 -449.5q0 -144 -33 -275t-98.5 -241t-157 -191t-215.5 -126t-268 -45zM-217 1094l170 360h336l-234 -360h-272zM719 289q117 0 210.5 74.5
t144 200.5t50.5 278q0 162 -76.5 243.5t-205.5 81.5q-111 0 -203.5 -78t-143.5 -204t-51 -267q0 -162 75.5 -245.5t199.5 -83.5z" />
    <glyph glyph-name="Upsilontonos" unicode="&#x38e;" horiz-adv-x="1189" 
d="M-449 1094l170 360h336l-233 -360h-273zM367 0l79 635l-325 819h360l162 -512h6l283 512h375l-531 -819l-78 -635h-331z" />
    <glyph glyph-name="Omegatonos" unicode="&#x38f;" horiz-adv-x="1398" 
d="M35 0l37 293h198l2 6q-153 176 -153 449q0 150 52 284t142.5 231t219 153.5t276.5 56.5q169 0 296.5 -79t192 -211t64.5 -296q0 -175 -73 -328.5t-204 -263.5v-2h191l-37 -293h-526l37 293q268 243 268 565q0 152 -60.5 234t-164.5 82q-103 -1 -182 -70t-117.5 -174.5
t-38.5 -227.5q0 -225 143 -409l-35 -293h-528zM-248 1094l170 360h336l-233 -360h-273z" />
    <glyph glyph-name="iotadieresistonos" unicode="&#x390;" horiz-adv-x="647" 
d="M246 1141l82 360h256l-135 -360h-203zM45 1130q-82 0 -133 50.5t-51 126.5q0 79 53 129.5t137 50.5q81 0 131.5 -49t50.5 -125q0 -79 -52.5 -131t-135.5 -52zM758 1130q-82 0 -133.5 50.5t-51.5 126.5q0 78 53.5 129t137.5 51q82 0 133 -49t51 -125q0 -79 -53 -131
t-137 -52zM344 -18q-288 0 -246 333l86 686h308l-82 -661q-11 -96 65 -96q22 0 60 10l51 -213q-112 -59 -242 -59z" />
    <glyph glyph-name="Alpha" unicode="&#x391;" horiz-adv-x="1300" 
d="M-47 0l655 1454h316l299 -1454h-340l-45 268h-437l-104 -268h-344zM506 545h289l-86 510h-4z" />
    <glyph glyph-name="Beta" unicode="&#x392;" horiz-adv-x="1208" 
d="M78 0l178 1454h512q385 0 385 -301q0 -109 -59 -213.5t-164 -157.5v-4q97 -38 151 -114.5t54 -190.5q0 -227 -137 -350t-425 -123h-495zM504 868h127q85 0 137.5 53.5t52.5 139.5q0 55 -33 79.5t-102 24.5h-143zM434 285h156q108 0 160.5 57t52.5 154q0 118 -156 118
h-172z" />
    <glyph glyph-name="Gamma" unicode="&#x393;" horiz-adv-x="1075" 
d="M78 0l178 1454h889l-35 -293h-559l-143 -1161h-330z" />
    <glyph glyph-name="uni0394" unicode="&#x394;" horiz-adv-x="1267" 
d="M0 0l29 250l563 1204h315l267 -1204l-31 -250h-1143zM381 293h453l-129 747h-5z" />
    <glyph glyph-name="Epsilon" unicode="&#x395;" 
d="M76 0l178 1454h864l-37 -293h-542l-37 -297h428l-33 -282h-428l-37 -289h582l-37 -293h-901z" />
    <glyph glyph-name="Zeta" unicode="&#x396;" horiz-adv-x="1167" 
d="M27 0l30 256l686 899l-4 6h-551l35 293h971l-29 -250l-700 -903l4 -8h582l-35 -293h-989z" />
    <glyph glyph-name="Eta" unicode="&#x397;" horiz-adv-x="1372" 
d="M78 0l178 1454h330l-74 -608h432l74 608h332l-181 -1454h-329l67 553h-432l-67 -553h-330z" />
    <glyph glyph-name="Theta" unicode="&#x398;" horiz-adv-x="1513" 
d="M698 -18q-271 0 -431.5 163t-160.5 453q0 138 34.5 268.5t102 240t160 191.5t215 128.5t259.5 46.5q269 0 431 -163.5t162 -449.5q0 -144 -33 -275t-98.5 -241t-157 -191t-215.5 -126t-268 -45zM723 289q117 0 210.5 74.5t144 200.5t50.5 278q0 162 -76.5 243.5
t-205.5 81.5q-111 0 -203.5 -78t-143 -204t-50.5 -267q0 -163 75 -246t199 -83zM573 578l35 280h391l-34 -280h-392z" />
    <glyph glyph-name="Iota" unicode="&#x399;" horiz-adv-x="630" 
d="M88 0l178 1454h332l-178 -1454h-332z" />
    <glyph glyph-name="Kappa" unicode="&#x39a;" horiz-adv-x="1265" 
d="M1362 1454l-524 -653l360 -801h-373l-235 569l-137 -161l-50 -408h-325l178 1454h326l-72 -594l6 -2l453 596h393z" />
    <glyph glyph-name="Lambda" unicode="&#x39b;" horiz-adv-x="1255" 
d="M-47 0l631 1454h317l273 -1454h-338l-152 999h-4l-385 -999h-342z" />
    <glyph glyph-name="Mu" unicode="&#x39c;" horiz-adv-x="1634" 
d="M78 0l178 1454h322l268 -790h6l438 790h322l-178 -1454h-322l96 795l-4 2l-307 -527h-199l-194 545l-4 -2l-101 -813h-321z" />
    <glyph glyph-name="Nu" unicode="&#x39d;" horiz-adv-x="1404" 
d="M78 0l178 1454h307l385 -901l6 2l111 899h319l-180 -1454h-317l-375 879h-6l-111 -879h-317z" />
    <glyph glyph-name="Xi" unicode="&#x39e;" horiz-adv-x="1185" 
d="M182 1157l35 297h985l-37 -297h-983zM225 578l35 284h750l-35 -284h-750zM27 0l36 299h1012l-39 -299h-1009z" />
    <glyph glyph-name="Omicron" unicode="&#x39f;" horiz-adv-x="1513" 
d="M694 -18q-271 0 -431.5 163t-160.5 453q0 138 34.5 268.5t102 240t159.5 191.5t214.5 128.5t259.5 46.5q269 0 431.5 -163.5t162.5 -449.5q0 -144 -33 -275t-98.5 -241t-157 -191t-215.5 -126t-268 -45zM719 289q117 0 210.5 74.5t144 200.5t50.5 278q0 162 -76.5 243.5
t-205.5 81.5q-111 0 -203.5 -78t-143.5 -204t-51 -267q0 -162 75.5 -245.5t199.5 -83.5z" />
    <glyph glyph-name="Pi" unicode="&#x3a0;" horiz-adv-x="1312" 
d="M78 0l178 1454h1034l-178 -1454h-328l142 1161h-377l-141 -1161h-330z" />
    <glyph glyph-name="Rho" unicode="&#x3a1;" horiz-adv-x="1167" 
d="M78 0l178 1454h508q209 0 309.5 -108t100.5 -293q0 -263 -152.5 -420.5t-427.5 -157.5h-137l-58 -475h-321zM494 764h116q102 0 163 69.5t61 182.5q0 74 -43 111.5t-111 37.5h-137z" />
    <glyph glyph-name="Sigma" unicode="&#x3a3;" horiz-adv-x="1107" 
d="M18 0l27 227l399 490l-272 502l25 235h958l-33 -293h-555v-2l232 -432l-346 -432v-2h561l-35 -293h-961z" />
    <glyph glyph-name="Tau" unicode="&#x3a4;" horiz-adv-x="1103" 
d="M326 0l143 1161h-340l37 293h1005l-36 -293h-338l-144 -1161h-327z" />
    <glyph glyph-name="Upsilon" unicode="&#x3a5;" horiz-adv-x="1189" 
d="M367 0l79 635l-325 819h360l162 -512h6l283 512h375l-531 -819l-78 -635h-331z" />
    <glyph glyph-name="Phi" unicode="&#x3a6;" horiz-adv-x="1652" 
d="M1616 819q0 -138 -41.5 -256.5t-122 -211t-210 -148t-294.5 -62.5l-18 -141h-326l19 141q-239 12 -384 150t-145 366q0 106 27.5 207t84 189.5t136 155.5t190.5 107t240 44l14 123h326l-14 -125q232 -18 375 -162.5t143 -376.5zM426 692q0 -131 60.5 -199.5t181.5 -80.5
l84 680q-102 -8 -177.5 -67t-112 -145.5t-36.5 -187.5zM967 414q153 17 235 118.5t82 260.5q0 126 -61.5 204t-171.5 93z" />
    <glyph glyph-name="Chi" unicode="&#x3a7;" horiz-adv-x="1288" 
d="M-53 0l508 737l-310 717h353l194 -475h10l297 475h379l-495 -725l329 -729h-360l-207 483h-8l-324 -483h-366z" />
    <glyph glyph-name="Psi" unicode="&#x3a8;" horiz-adv-x="1497" 
d="M1202 1454h316l-68 -541q-76 -602 -565 -602l-39 -311h-322l39 311q-233 6 -341.5 167t-71.5 454l65 522h315l-61 -496q-23 -185 6.5 -266.5t122.5 -89.5l104 852h322l-104 -852q91 9 144 92t77 275z" />
    <glyph glyph-name="uni03A9" unicode="&#x3a9;" horiz-adv-x="1398" 
d="M35 0l37 293h198l2 6q-153 176 -153 449q0 150 52 284t142.5 231t219 153.5t276.5 56.5q169 0 296.5 -79t192 -211t64.5 -296q0 -175 -73 -328.5t-204 -263.5v-2h191l-37 -293h-526l37 293q268 243 268 565q0 152 -60.5 234t-164.5 82q-103 -1 -182 -70t-117.5 -174.5
t-38.5 -227.5q0 -225 143 -409l-35 -293h-528z" />
    <glyph glyph-name="Iotadieresis" unicode="&#x3aa;" horiz-adv-x="630" 
d="M231 1550q-81 0 -132.5 50t-51.5 126q0 77 53.5 129t137.5 52q82 0 133 -49t51 -125q0 -79 -53.5 -131t-137.5 -52zM696 1550q-81 0 -132.5 50t-51.5 126q0 78 54 129.5t139 51.5q81 0 131.5 -49t50.5 -125q0 -79 -53 -131t-138 -52zM88 0l178 1454h332l-178 -1454h-332z
" />
    <glyph glyph-name="Upsilondieresis" unicode="&#x3ab;" horiz-adv-x="1189" 
d="M500 1550q-81 0 -133 50t-52 126q0 77 53.5 129t137.5 52q82 0 133 -49t51 -125q0 -79 -53 -131t-137 -52zM965 1550q-81 0 -133 50t-52 126q0 78 54 129.5t139 51.5q81 0 131.5 -49t50.5 -125q0 -79 -52.5 -131t-137.5 -52zM367 0l79 635l-325 819h360l162 -512h6
l283 512h375l-531 -819l-78 -635h-331z" />
    <glyph glyph-name="alphatonos" unicode="&#x3ac;" horiz-adv-x="1165" 
d="M997 1501l-223 -360h-272l155 360h340zM1001 236q27 0 58 8l45 -205q-92 -60 -215 -57q-78 0 -136 44t-77 142h-4q-109 -186 -297 -186q-139 0 -232.5 110t-93.5 291q0 172 60.5 318.5t167 232.5t233.5 86q209 0 287 -199h4l84 217l274 -114l-229 -424l-2 -154
q1 -63 17 -86.5t56 -23.5zM465 254q57 0 112 67.5t101 192.5q0 108 -33.5 169.5t-93.5 61.5q-57 0 -102.5 -50.5t-68 -122.5t-22.5 -146q0 -84 27.5 -128t79.5 -44z" />
    <glyph glyph-name="epsilontonos" unicode="&#x3ad;" horiz-adv-x="931" 
d="M422 1141l156 360h340l-224 -360h-272zM397 -18q-170 0 -266 69.5t-98 194.5q0 90 53 164t145 114v4q-127 71 -127 199q0 125 116.5 209t285.5 84q267 0 416 -111l-115 -204q-118 59 -256 59q-66 2 -109 -20t-43 -64q0 -33 28.5 -53.5t82.5 -20.5l135 -2l-24 -194h-152
q-55 0 -93 -27t-38 -66q0 -76 139 -79q151 0 293 86l98 -230q-121 -69 -224 -90.5t-247 -21.5z" />
    <glyph glyph-name="etatonos" unicode="&#x3ae;" horiz-adv-x="1157" 
d="M1008 1501l-224 -360h-272l156 360h340zM809 1020q163 0 226.5 -102t33.5 -326l-133 -998h-305l125 969q12 91 -3 136.5t-61 45.5q-68 0 -140.5 -104t-94.5 -279l-43 -362h-305l84 682q6 51 -5 73.5t-43 22.5q-26 0 -47 -8l-12 215q69 35 172 35q101 0 157 -44.5
t68 -139.5h4q127 184 322 184z" />
    <glyph glyph-name="iotatonos" unicode="&#x3af;" horiz-adv-x="647" 
d="M219 1141l156 360h340l-223 -360h-273zM344 -18q-288 0 -246 333l86 686h308l-82 -661q-11 -96 65 -96q22 0 60 10l51 -213q-112 -59 -242 -59z" />
    <glyph glyph-name="upsilondieresistonos" unicode="&#x3b0;" horiz-adv-x="1083" 
d="M522 1141l82 360h256l-135 -360h-203zM322 1130q-82 0 -133.5 50.5t-51.5 126.5q0 78 53.5 129t137.5 51q81 0 131.5 -49t50.5 -125q0 -79 -52.5 -131t-135.5 -52zM1034 1130q-82 0 -133 50.5t-51 126.5q0 79 53 129.5t137 50.5q82 0 133.5 -49t51.5 -125
q0 -79 -53.5 -131t-137.5 -52zM467 -18q-178 0 -271 96t-90 254q2 81 31 217.5t31 171.5q8 63 -51 63q-9 0 -23 -3t-16 -3l-8 207q107 35 206 35q97 0 149 -54.5t46 -166.5q-3 -70 -29.5 -211t-27.5 -213q-3 -119 90 -119q92 0 155 130.5t70 375.5q0 131 -14 223l291 35
q32 -113 32 -277q-4 -187 -49.5 -334t-123.5 -239.5t-179 -140t-219 -47.5z" />
    <glyph glyph-name="alpha" unicode="&#x3b1;" horiz-adv-x="1165" 
d="M1001 236q27 0 58 8l45 -205q-92 -60 -215 -57q-78 0 -136 44t-77 142h-4q-109 -186 -297 -186q-139 0 -232.5 110t-93.5 291q0 172 60.5 318.5t167 232.5t233.5 86q209 0 287 -199h4l84 217l274 -114l-229 -424l-2 -154q1 -63 17 -86.5t56 -23.5zM465 254q57 0 112 67.5
t101 192.5q0 108 -33.5 169.5t-93.5 61.5q-57 0 -102.5 -50.5t-68 -122.5t-22.5 -146q0 -84 27.5 -128t79.5 -44z" />
    <glyph glyph-name="beta" unicode="&#x3b2;" horiz-adv-x="1093" 
d="M864 776q74 -31 120 -106.5t46 -188.5q0 -216 -139.5 -357.5t-355.5 -141.5q-119 0 -207 39t-141.5 111.5t-79 167.5t-25.5 214q0 193 45.5 373t129 323t214 229.5t287.5 86.5q168 0 263 -80t95 -229q0 -141 -71 -255.5t-179 -179.5zM737 1264q-34 -1 -74 -25t-84.5 -74
t-87.5 -143.5t-73 -216.5q175 48 283 142t108 220q3 100 -72 97zM541 260q83 0 131.5 65t48.5 154q0 108 -68 156q-126 -49 -268 -64q-2 -18 -2 -47q0 -115 38 -189.5t120 -74.5z" />
    <glyph glyph-name="gamma" unicode="&#x3b3;" horiz-adv-x="1067" 
d="M262 -406q25 222 29.5 355t-12.5 327q-30 287 -62.5 398.5t-101.5 111.5q-19 0 -43 -8l-13 215q80 27 168 27q67 0 112 -15.5t74.5 -53.5t46.5 -84.5t34 -123.5q30 -126 49 -383h2q77 146 121.5 293t87.5 348h305q-97 -559 -461 -1007q4 -117 -27 -400h-309z" />
    <glyph glyph-name="delta" unicode="&#x3b4;" horiz-adv-x="1083" 
d="M778 1006q250 -137 250 -420q0 -174 -66 -310.5t-190.5 -215t-288.5 -78.5q-201 0 -315.5 115.5t-114.5 305.5q0 159 79.5 299t215.5 222q-117 108 -117 243q0 161 115.5 260t310.5 99q102 0 220 -27.5t215 -99.5l-152 -219q-147 94 -264 94q-62 0 -101.5 -23t-39.5 -67
q0 -30 22.5 -56.5t83.5 -54.5q102 -47 137 -67zM506 256q89 0 150 85t61 191q0 81 -33.5 140.5t-108.5 105.5l-18 10q-86 -55 -141 -155.5t-54 -204.5q1 -86 41 -129t103 -43z" />
    <glyph glyph-name="epsilon" unicode="&#x3b5;" horiz-adv-x="931" 
d="M397 -18q-170 0 -266 69.5t-98 194.5q0 90 53 164t145 114v4q-127 71 -127 199q0 125 116.5 209t285.5 84q267 0 416 -111l-115 -204q-118 59 -256 59q-66 2 -109 -20t-43 -64q0 -33 28.5 -53.5t82.5 -20.5l135 -2l-24 -194h-152q-55 0 -93 -27t-38 -66q0 -76 139 -79
q151 0 293 86l98 -230q-121 -69 -224 -90.5t-247 -21.5z" />
    <glyph glyph-name="zeta" unicode="&#x3b6;" horiz-adv-x="864" 
d="M606 -453l-241 140q129 160 129 223q0 30 -25 53.5t-104 56.5q-34 15 -50 22t-48 23t-49 27t-44 31t-41.5 38t-32.5 44.5t-27 54t-15.5 63.5t-6.5 76q0 375 520 846l-2 4h-358l31 258h735l-27 -229q-102 -87 -199.5 -189.5t-187.5 -218t-145.5 -233t-55.5 -209.5
q0 -24 4 -43t19 -37t24 -28t41.5 -28.5t47 -26.5t63.5 -32q138 -68 191 -130t53 -150q0 -98 -56.5 -205t-142.5 -201z" />
    <glyph glyph-name="eta" unicode="&#x3b7;" horiz-adv-x="1157" 
d="M809 1020q163 0 226.5 -102t33.5 -326l-133 -998h-305l125 969q12 91 -3 136.5t-61 45.5q-68 0 -140.5 -104t-94.5 -279l-43 -362h-305l84 682q6 51 -5 73.5t-43 22.5q-26 0 -47 -8l-12 215q69 35 172 35q101 0 157 -44.5t68 -139.5h4q127 184 322 184z" />
    <glyph glyph-name="theta" unicode="&#x3b8;" horiz-adv-x="1116" 
d="M676 1526q91 0 163 -27.5t130 -88.5t89.5 -170t31.5 -259q0 -158 -20 -300.5t-65 -272t-112.5 -223t-168.5 -148.5t-226 -55q-89 0 -161 29t-129.5 91.5t-89.5 172.5t-32 260q0 129 15 249.5t45.5 232t79.5 204t113 161t150 106.5t187 38zM649 1260q-50 0 -93.5 -54.5
t-72.5 -136t-51 -188.5h344q2 35 2 98q0 281 -129 281zM526 248q55 0 100.5 56t73.5 138t48 191h-347q-4 -74 -4 -103q0 -136 29.5 -209t99.5 -73z" />
    <glyph glyph-name="iota" unicode="&#x3b9;" horiz-adv-x="647" 
d="M344 -18q-288 0 -246 333l86 686h308l-82 -661q-11 -96 65 -96q22 0 60 10l51 -213q-112 -59 -242 -59z" />
    <glyph glyph-name="kappa" unicode="&#x3ba;" horiz-adv-x="1122" 
d="M936 240q26 0 74 10l51 -205q-107 -63 -240 -63q-118 0 -176 64t-67 185q-10 122 -11 148q-87 -85 -202 -213l-19 -166h-299l125 1001h303l-41 -321q-4 -39 -41 -195h2q284 390 488 566l221 -201q-172 -138 -309 -260q6 -53 30 -205q14 -80 38 -112.5t73 -32.5z" />
    <glyph glyph-name="lambda" unicode="&#x3bb;" horiz-adv-x="1017" 
d="M-41 0l494 993l-27 142q-14 76 -42.5 105.5t-76.5 29.5q-38 0 -110 -21l-19 234q92 45 221 45q125 0 202.5 -80.5t117.5 -247.5q139 -606 219 -1200h-320q-25 263 -69 578h-4l-252 -578h-334z" />
    <glyph glyph-name="uni03BC" unicode="&#x3bc;" horiz-adv-x="1165" 
d="M1069 246l37 -209q-78 -55 -195 -55q-195 0 -221 172h-4q-98 -172 -237 -172q-82 0 -125 53l-7 -2q24 -146 9 -264l-21 -175h-303l172 1407h305l-69 -555q-24 -190 84 -190q64 0 118 63.5t70 190.5l59 491h308l-82 -663q-6 -57 3.5 -77.5t43.5 -20.5q28 0 55 6z" />
    <glyph glyph-name="nu" unicode="&#x3bd;" horiz-adv-x="1069" 
d="M279 0l-197 1001h319l97 -702h4q104 159 162.5 328.5t85.5 373.5h315q-45 -319 -168 -573t-307 -428h-311z" />
    <glyph glyph-name="xi" unicode="&#x3be;" horiz-adv-x="929" 
d="M641 -453l-244 138q33 39 47 57t38.5 52.5t35 62t10.5 53.5q0 35 -26.5 57t-98.5 53q-51 22 -86.5 39.5t-80.5 43.5t-74.5 54t-56.5 64t-40.5 81t-13.5 97q0 130 70.5 227t191.5 152l2 8q-100 68 -100 181q0 178 219 290l-2 5l-219 -11l33 256h745l-30 -235
q-441 -67 -441 -248q0 -39 22.5 -66t82 -44t157.5 -17h84l-32 -258h-152q-90 0 -160.5 -20t-115 -65.5t-44.5 -111.5q0 -64 52 -103.5t182 -92.5q134 -58 189 -123.5t55 -161.5q0 -107 -55 -214.5t-144 -199.5z" />
    <glyph glyph-name="omicron" unicode="&#x3bf;" horiz-adv-x="1079" 
d="M473 -18q-191 0 -304.5 113t-113.5 315q0 123 36 231.5t104 194t176 135t243 49.5q189 0 299.5 -112.5t110.5 -313.5q0 -125 -33.5 -233.5t-98.5 -194t-173 -135t-246 -49.5zM498 256q95 0 157 94t62 223q0 53 -13.5 89.5t-36 53t-44 23t-45.5 6.5q-94 0 -155 -97.5
t-61 -221.5q0 -87 39.5 -128.5t96.5 -41.5z" />
    <glyph glyph-name="pi" unicode="&#x3c0;" horiz-adv-x="1200" 
d="M1008 743l-50 -403q-6 -57 5.5 -78.5t44.5 -21.5q7 0 24 2.5t23 3.5l45 -209q-83 -55 -207 -55q-129 0 -194 78.5t-44 252.5l52 430h-201l-92 -743h-301l92 743h-152l31 238q102 20 217 20h918l-48 -258h-163z" />
    <glyph glyph-name="rho" unicode="&#x3c1;" horiz-adv-x="1099" 
d="M-20 -406l112 912q31 250 166 382t360 132q202 0 316.5 -118t114.5 -312q0 -175 -66.5 -315t-178.5 -216.5t-245 -76.5q-135 0 -209 71l-6 -2l-55 -457h-309zM506 256q99 0 164 90t65 229q0 76 -37.5 123t-99.5 47q-78 0 -133 -66t-68 -183l-20 -170q41 -70 129 -70z" />
    <glyph glyph-name="uni03C2" unicode="&#x3c2;" horiz-adv-x="925" 
d="M606 -453l-239 140q129 156 129 223q0 31 -27 54.5t-109 58.5q-37 16 -59.5 27t-59 32.5t-59.5 41t-50.5 50t-43 64t-26.5 79t-11 97.5q0 122 39 233t108.5 193.5t171 131t220.5 48.5q123 0 218 -44.5t150 -129.5l-237 -174q-47 73 -137 73q-92 0 -158 -92.5t-66 -218.5
q0 -68 41 -105.5t152 -90.5q144 -70 198 -131t54 -150q0 -189 -199 -410z" />
    <glyph glyph-name="sigma" unicode="&#x3c3;" horiz-adv-x="1105" 
d="M465 -18q-189 0 -301.5 113t-112.5 313q0 124 34.5 230.5t99.5 188t168 128t231 46.5h557l-33 -251h-168v-7q66 -92 66 -208q0 -108 -36 -206.5t-102 -176t-170.5 -124t-232.5 -46.5zM489 256q83 0 145 90.5t62 231.5q0 117 -65 172h-56q-93 0 -154 -99.5t-61 -230.5
q0 -81 38.5 -122.5t90.5 -41.5z" />
    <glyph glyph-name="tau" unicode="&#x3c4;" horiz-adv-x="890" 
d="M471 -18q-61 0 -108.5 17.5t-83 55t-49.5 102.5t-3 154l52 439h-226l29 251h817l-29 -251h-282l-49 -408q-10 -88 65 -88q45 0 92 20l54 -223q-129 -69 -279 -69z" />
    <glyph glyph-name="upsilon" unicode="&#x3c5;" horiz-adv-x="1083" 
d="M467 -18q-178 0 -271 96t-90 254q2 81 31 217.5t31 171.5q8 63 -51 63q-9 0 -23 -3t-16 -3l-8 207q107 35 206 35q97 0 149 -54.5t46 -166.5q-3 -70 -29.5 -211t-27.5 -213q-3 -119 90 -119q92 0 155 130.5t70 375.5q0 131 -14 223l291 35q32 -113 32 -277
q-4 -187 -49.5 -334t-123.5 -239.5t-179 -140t-219 -47.5z" />
    <glyph glyph-name="phi" unicode="&#x3c6;" horiz-adv-x="1359" 
d="M940 1020q82 -1 150.5 -26.5t121.5 -75.5t81.5 -130.5t25.5 -183.5q-3 -132 -47.5 -246t-119 -193t-173.5 -126.5t-209 -54.5l-47 -390h-297l47 390q-201 18 -309.5 147.5t-108.5 325.5q0 165 66 321.5t184 268.5l244 -72q-89 -117 -140 -252t-51 -256q0 -96 38.5 -158.5
t107.5 -75.5l51 414q11 95 46.5 168t88 117.5t116 66.5t134.5 21zM1020 604q1 72 -21.5 114t-62.5 42q-38 0 -63.5 -40t-34.5 -114l-41 -368q104 27 162.5 125t60.5 241z" />
    <glyph glyph-name="chi" unicode="&#x3c7;" horiz-adv-x="1009" 
d="M741 -424q-65 0 -108 16t-72 53.5t-46 84.5t-34 125l-41 161h-4l-235 -422h-332l463 742l-109 326q-21 64 -45.5 92t-64.5 28q-7 0 -35 -4l-12 213q86 29 163 29q64 0 107.5 -15.5t72 -53.5t45.5 -84t35 -124l23 -90h4l197 348h338l-435 -675l132 -389q21 -65 45.5 -94
t62.5 -29q1 0 37 6l12 -215q-74 -29 -164 -29z" />
    <glyph glyph-name="psi" unicode="&#x3c8;" horiz-adv-x="1427" 
d="M1348 1020q38 -120 34 -283q-4 -181 -48 -324.5t-119.5 -236t-176.5 -142t-221 -52.5l-47 -388h-305l49 388h-31q-185 0 -282 97.5t-95 256.5q2 84 30.5 219.5t31.5 165.5q8 63 -51 63q-9 0 -23 -3t-16 -3l-8 207q107 35 213 35q92 0 142 -55t46 -166q-3 -62 -33.5 -201
t-31.5 -213q0 -68 33.5 -105.5t99.5 -37.5h10l131 1065l297 14l-133 -1079q77 5 130 78.5t77 184t28 255.5q3 111 -14 227z" />
    <glyph glyph-name="omega" unicode="&#x3c9;" horiz-adv-x="1400" 
d="M371 -18q-144 0 -232 101t-88 298q0 366 228 655l260 -63q-89 -135 -134 -289t-45 -283q0 -145 80 -145q96 0 131 264l31 230h262l-35 -293q-12 -94 6.5 -147.5t63.5 -53.5q69 0 105 97.5t36 240.5q0 204 -61 375l283 53q29 -77 43.5 -123t28.5 -132t14 -185
q0 -161 -51 -296.5t-150.5 -219.5t-228.5 -84q-205 0 -265 149h-2q-100 -149 -280 -149z" />
    <glyph glyph-name="iotadieresis" unicode="&#x3ca;" horiz-adv-x="647" 
d="M137 1130q-82 0 -133 50.5t-51 126.5q0 79 53 129.5t137 50.5q81 0 132 -49t51 -125q0 -79 -53 -131t-136 -52zM600 1130q-81 0 -132.5 50.5t-51.5 126.5q0 78 54 129t138 51q81 0 133 -49.5t52 -124.5q0 -79 -54 -131t-139 -52zM344 -18q-288 0 -246 333l86 686h308
l-82 -661q-11 -96 65 -96q22 0 60 10l51 -213q-112 -59 -242 -59z" />
    <glyph glyph-name="upsilondieresis" unicode="&#x3cb;" horiz-adv-x="1083" 
d="M414 1130q-82 0 -133.5 50.5t-51.5 126.5q0 78 53.5 129t137.5 51q81 0 131.5 -49t50.5 -125q0 -79 -52.5 -131t-135.5 -52zM877 1130q-81 0 -133 50.5t-52 126.5q0 78 54.5 129t138.5 51q81 0 132.5 -49t51.5 -125q0 -79 -53.5 -131t-138.5 -52zM467 -18q-178 0 -271 96
t-90 254q2 81 31 217.5t31 171.5q8 63 -51 63q-9 0 -23 -3t-16 -3l-8 207q107 35 206 35q97 0 149 -54.5t46 -166.5q-3 -70 -29.5 -211t-27.5 -213q-3 -119 90 -119q92 0 155 130.5t70 375.5q0 131 -14 223l291 35q32 -113 32 -277q-4 -187 -49.5 -334t-123.5 -239.5
t-179 -140t-219 -47.5z" />
    <glyph glyph-name="omicrontonos" unicode="&#x3cc;" horiz-adv-x="1079" 
d="M492 1141l155 360h340l-223 -360h-272zM473 -18q-191 0 -304.5 113t-113.5 315q0 123 36 231.5t104 194t176 135t243 49.5q189 0 299.5 -112.5t110.5 -313.5q0 -125 -33.5 -233.5t-98.5 -194t-173 -135t-246 -49.5zM498 256q95 0 157 94t62 223q0 53 -13.5 89.5t-36 53
t-44 23t-45.5 6.5q-94 0 -155 -97.5t-61 -221.5q0 -87 39.5 -128.5t96.5 -41.5z" />
    <glyph glyph-name="upsilontonos" unicode="&#x3cd;" horiz-adv-x="1083" 
d="M496 1141l155 360h340l-223 -360h-272zM467 -18q-178 0 -271 96t-90 254q2 81 31 217.5t31 171.5q8 63 -51 63q-9 0 -23 -3t-16 -3l-8 207q107 35 206 35q97 0 149 -54.5t46 -166.5q-3 -70 -29.5 -211t-27.5 -213q-3 -119 90 -119q92 0 155 130.5t70 375.5q0 131 -14 223
l291 35q32 -113 32 -277q-4 -187 -49.5 -334t-123.5 -239.5t-179 -140t-219 -47.5z" />
    <glyph glyph-name="omegatonos" unicode="&#x3ce;" horiz-adv-x="1400" 
d="M651 1141l156 360h340l-223 -360h-273zM371 -18q-144 0 -232 101t-88 298q0 366 228 655l260 -63q-89 -135 -134 -289t-45 -283q0 -145 80 -145q96 0 131 264l31 230h262l-35 -293q-12 -94 6.5 -147.5t63.5 -53.5q69 0 105 97.5t36 240.5q0 204 -61 375l283 53
q29 -77 43.5 -123t28.5 -132t14 -185q0 -161 -51 -296.5t-150.5 -219.5t-228.5 -84q-205 0 -265 149h-2q-100 -149 -280 -149z" />
    <glyph glyph-name="uni03D7" unicode="&#x3d7;" horiz-adv-x="1253" 
d="M958 246q64 -19 203 -19l-20 -221q-236 -247 -423 -347.5t-407 -100.5q-137 0 -257 37.5t-193 103.5l139 174q63 -37 144 -58.5t149 -21.5q255 0 477 203v4q-76 26 -122.5 95t-61.5 173l-15 117q-57 -58 -202 -225l-19 -160h-297l123 1001h303l-39 -321q-6 -50 -43 -191
h4q266 374 473 555l226 -180q-186 -148 -303 -260l41 -194q24 -138 120 -164z" />
    <glyph glyph-name="uni0400" unicode="&#x400;" 
d="M641 1556l-192 287l307 -2l166 -285h-281zM76 0l178 1454h864l-37 -293h-542l-37 -297h428l-33 -282h-428l-37 -289h582l-37 -293h-901z" />
    <glyph glyph-name="uni0401" unicode="&#x401;" 
d="M508 1587q-81 0 -132.5 50t-51.5 126q0 79 53 130t137 51q82 0 133 -49.5t51 -125.5q0 -79 -53 -130.5t-137 -51.5zM952 1587q-81 0 -132.5 50t-51.5 126q0 79 53.5 130t139.5 51q79 0 130.5 -50t51.5 -125q0 -79 -53.5 -130.5t-137.5 -51.5zM76 0l178 1454h864l-37 -293
h-542l-37 -297h428l-33 -282h-428l-37 -289h582l-37 -293h-901z" />
    <glyph glyph-name="uni0402" unicode="&#x402;" horiz-adv-x="1449" 
d="M1036 936q172 0 275.5 -105.5t103.5 -283.5q0 -264 -144.5 -414.5t-379.5 -150.5q-55 0 -127 10l43 260h35q105 0 168 67.5t63 174.5q0 149 -166 149q-111 0 -200 -47l-74 -596h-328l144 1161h-340l36 293h1006l-37 -293h-338l-39 -309q142 84 299 84z" />
    <glyph glyph-name="uni0403" unicode="&#x403;" horiz-adv-x="1058" 
d="M485 1559l236 284l309 2l-268 -286h-277zM78 0l178 1454h872l-34 -293h-543l-143 -1161h-330z" />
    <glyph glyph-name="uni0404" unicode="&#x404;" horiz-adv-x="1345" 
d="M727 283q176 0 307 137l230 -217q-208 -221 -553 -221q-134 0 -244.5 38.5t-192.5 113t-127 192.5t-45 270q0 248 90 446t263 314.5t401 116.5q94 0 179.5 -19t176.5 -75t152 -146l-250 -211q-44 72 -118 108.5t-160 36.5q-127 0 -224.5 -82.5t-142.5 -220.5h537
l-33 -268h-537q-1 -153 75 -233t216 -80z" />
    <glyph glyph-name="uni0405" unicode="&#x405;" horiz-adv-x="1116" 
d="M518 -18q-150 0 -286 65t-220 195l234 204q49 -83 123.5 -127.5t148.5 -44.5q84 0 133 40t49 98q0 31 -21 57.5t-45.5 43t-97.5 58.5q-21 12 -32 19q-140 81 -188 117q-145 109 -167 255q-4 29 -4 60q0 202 143 326.5t355 124.5q133 0 254 -57.5t193 -166.5l-234 -194
q-97 129 -225 129q-64 0 -105 -36t-39 -89q2 -43 36 -80.5t122 -89.5q28 -17 77 -44.5t75.5 -43t66 -41t61 -45t48 -49t39.5 -58.5t22.5 -66.5t9.5 -80.5q0 -225 -145.5 -352t-380.5 -127z" />
    <glyph glyph-name="uni0406" unicode="&#x406;" horiz-adv-x="630" 
d="M88 0l178 1454h332l-178 -1454h-332z" />
    <glyph glyph-name="uni0407" unicode="&#x407;" horiz-adv-x="630" 
d="M240 1587q-81 0 -133 50t-52 126q0 79 53.5 130t137.5 51q82 0 133 -49.5t51 -125.5q0 -79 -53 -130.5t-137 -51.5zM684 1587q-81 0 -132.5 50t-51.5 126q0 79 53.5 130t138.5 51q79 0 130.5 -50t51.5 -125q0 -79 -53 -130.5t-137 -51.5zM88 0l178 1454h332l-178 -1454
h-332z" />
    <glyph glyph-name="uni0408" unicode="&#x408;" horiz-adv-x="950" 
d="M346 -18q-110 0 -206.5 51t-151.5 147l217 221q22 -47 57.5 -76.5t79.5 -29.5q61 0 102 54.5t58 197.5l112 907h328l-113 -922q-34 -285 -147.5 -417.5t-335.5 -132.5z" />
    <glyph glyph-name="uni0409" unicode="&#x409;" horiz-adv-x="1984" 
d="M1524 938q100 0 177 -25t123 -64t75 -95t39.5 -111t9.5 -117q-1 -269 -148.5 -397.5t-443.5 -128.5h-486l142 1161h-269q-2 -13 -16.5 -95t-18 -99.5t-16 -86.5t-17.5 -93.5t-16.5 -79.5t-19 -86.5t-18.5 -73t-21 -76.5q-35 -124 -73.5 -209t-93.5 -150t-129.5 -95.5
t-172.5 -30.5q-92 0 -172 26l49 269q46 -11 68 -11q85 0 144.5 99.5t107.5 287.5q62 240 151 797h893l-63 -516h215zM1378 289q121 0 175.5 58t54.5 157q0 69 -38.5 109t-115.5 40h-180l-45 -364h149z" />
    <glyph glyph-name="uni040A" unicode="&#x40a;" horiz-adv-x="1951" 
d="M1489 911q100 0 177 -24.5t123 -64t75.5 -94t40 -108.5t10.5 -114q-6 -506 -592 -506h-496l72 586h-420l-71 -586h-330l178 1454h330l-70 -575h420l70 575h323l-67 -543h227zM1346 289q118 0 173.5 56.5t55.5 141.5q0 65 -39 102.5t-119 37.5h-190l-41 -338h160z" />
    <glyph glyph-name="uni040B" unicode="&#x40b;" horiz-adv-x="1474" 
d="M1114 940q347 0 285 -451l-66 -489h-325l61 457q13 112 -10.5 154t-97.5 42q-124 0 -234 -59l-74 -594h-327l143 1161h-340l37 293h1005l-36 -293h-338l-39 -315q77 38 176.5 66t179.5 28z" />
    <glyph glyph-name="uni040C" unicode="&#x40c;" horiz-adv-x="1265" 
d="M1106 1845l-268 -286h-277l236 284zM1362 1454l-524 -653l360 -801h-373l-235 569l-137 -161l-50 -408h-325l178 1454h326l-72 -594l6 -2l453 596h393z" />
    <glyph glyph-name="uni040D" unicode="&#x40d;" horiz-adv-x="1392" 
d="M766 1559l-193 286l308 -2l166 -284h-281zM78 0l178 1454h326l-115 -907l6 -2l580 909h317l-178 -1454h-328l107 866l-6 2l-574 -868h-313z" />
    <glyph glyph-name="uni040E" unicode="&#x40e;" horiz-adv-x="1239" 
d="M745 1550q-154 0 -228 67.5t-87 227.5l240 21q6 -64 36.5 -99.5t71.5 -35.5q44 0 88 38t78 105l217 -70q-49 -89 -119 -147.5t-143 -82.5t-154 -24zM981 1454h369l-559 -1079q-33 -65 -57.5 -108.5t-57 -93t-64 -80.5t-70.5 -58.5t-85 -40t-99 -12.5q-170 0 -264 67
l105 275q67 -50 133 -50q53 0 97.5 42t86.5 124l-391 1014h360l197 -649h10z" />
    <glyph glyph-name="uni040F" unicode="&#x40f;" horiz-adv-x="1310" 
d="M1290 1454l-178 -1454h-375l-45 -281h-266l23 281h-371l178 1454h330l-144 -1161h375l144 1161h329z" />
    <glyph glyph-name="uni0410" unicode="&#x410;" horiz-adv-x="1300" 
d="M-47 0l655 1454h316l299 -1454h-340l-45 268h-437l-104 -268h-344zM506 545h289l-86 510h-4z" />
    <glyph glyph-name="uni0411" unicode="&#x411;" horiz-adv-x="1196" 
d="M78 0l178 1454h872l-36 -293h-553l-29 -250h203q101 0 177.5 -21t123 -55.5t75.5 -85t39.5 -103t10.5 -116.5q-3 -274 -151 -402t-449 -128h-461zM430 285h150q217 0 217 215q0 71 -37.5 103t-116.5 32h-168z" />
    <glyph glyph-name="uni0412" unicode="&#x412;" horiz-adv-x="1208" 
d="M78 0l178 1454h512q385 0 385 -301q0 -109 -59 -213.5t-164 -157.5v-4q97 -38 151 -114.5t54 -190.5q0 -227 -137 -350t-425 -123h-495zM504 868h127q85 0 137.5 53.5t52.5 139.5q0 55 -33 79.5t-102 24.5h-143zM434 285h156q108 0 160.5 57t52.5 154q0 118 -156 118
h-172z" />
    <glyph glyph-name="uni0413" unicode="&#x413;" horiz-adv-x="1058" 
d="M78 0l178 1454h872l-34 -293h-543l-143 -1161h-330z" />
    <glyph glyph-name="uni0414" unicode="&#x414;" horiz-adv-x="1523" 
d="M1473 293l-91 -574h-264l23 281h-883l-51 -281h-268l65 574h164q146 249 223 524q71 249 121 637h897l-143 -1161h207zM788 1159q-42 -269 -108 -479q-60 -202 -156 -387h418l107 866h-261z" />
    <glyph glyph-name="uni0415" unicode="&#x415;" 
d="M76 0l178 1454h864l-37 -293h-542l-37 -297h428l-33 -282h-428l-37 -289h582l-37 -293h-901z" />
    <glyph glyph-name="uni0416" unicode="&#x416;" horiz-adv-x="1830" 
d="M1919 1454l-485 -682l335 -772h-374l-232 582l-106 -129l-56 -453h-315l53 446l-80 136l-354 -582h-368l499 776l-317 678h385l274 -655l6 2l78 653h320l-82 -645l6 -2l426 647h387z" />
    <glyph glyph-name="uni0417" unicode="&#x417;" horiz-adv-x="1138" 
d="M522 -18q-169 0 -306 59.5t-216 185.5l225 217q49 -81 128.5 -122t170.5 -41q100 0 153.5 54.5t53.5 133.5q0 71 -49.5 106t-140.5 35h-197l35 264h168q101 0 162 45.5t61 124.5q0 65 -45 96t-119 31q-145 0 -260 -92l-182 230q191 161 487 161q207 0 329 -88.5
t122 -246.5q0 -110 -62.5 -205t-175.5 -146v-4q93 -45 150 -133t57 -207q0 -206 -142.5 -332t-406.5 -126z" />
    <glyph glyph-name="uni0418" unicode="&#x418;" horiz-adv-x="1392" 
d="M78 0l178 1454h326l-115 -907l6 -2l580 909h317l-178 -1454h-328l107 866l-6 2l-574 -868h-313z" />
    <glyph glyph-name="uni0419" unicode="&#x419;" horiz-adv-x="1392" 
d="M838 1550q-154 0 -228.5 68t-87.5 227l240 21q6 -64 36.5 -99.5t71.5 -35.5q44 0 88 38t78 105l217 -70q-37 -68 -85.5 -118t-103 -79t-110.5 -43t-116 -14zM78 0l178 1454h326l-115 -907l6 -2l580 909h317l-178 -1454h-328l107 866l-6 2l-574 -868h-313z" />
    <glyph glyph-name="uni041A" unicode="&#x41a;" horiz-adv-x="1265" 
d="M1362 1454l-524 -653l360 -801h-373l-235 569l-137 -161l-50 -408h-325l178 1454h326l-72 -594l6 -2l453 596h393z" />
    <glyph glyph-name="uni041B" unicode="&#x41b;" horiz-adv-x="1402" 
d="M479 1454h903l-180 -1454h-328l144 1161h-268q-35 -194 -48 -267t-41 -203t-55 -220q-35 -123 -75 -208.5t-96 -150t-131 -95.5t-173 -31q-92 0 -172 26l49 269q46 -11 68 -11q85 0 144.5 99.5t107.5 287.5q62 240 151 797z" />
    <glyph glyph-name="uni041C" unicode="&#x41c;" horiz-adv-x="1634" 
d="M78 0l178 1454h322l268 -790h6l438 790h322l-178 -1454h-322l96 795l-4 2l-307 -527h-199l-194 545l-4 -2l-101 -813h-321z" />
    <glyph glyph-name="uni041D" unicode="&#x41d;" horiz-adv-x="1372" 
d="M78 0l178 1454h330l-74 -608h432l74 608h332l-181 -1454h-329l67 553h-432l-67 -553h-330z" />
    <glyph glyph-name="uni041E" unicode="&#x41e;" horiz-adv-x="1513" 
d="M694 -18q-271 0 -431.5 163t-160.5 453q0 138 34.5 268.5t102 240t159.5 191.5t214.5 128.5t259.5 46.5q269 0 431.5 -163.5t162.5 -449.5q0 -144 -33 -275t-98.5 -241t-157 -191t-215.5 -126t-268 -45zM719 289q117 0 210.5 74.5t144 200.5t50.5 278q0 162 -76.5 243.5
t-205.5 81.5q-111 0 -203.5 -78t-143.5 -204t-51 -267q0 -162 75.5 -245.5t199.5 -83.5z" />
    <glyph glyph-name="uni041F" unicode="&#x41f;" horiz-adv-x="1312" 
d="M78 0l178 1454h1034l-178 -1454h-328l144 1161h-377l-143 -1161h-330z" />
    <glyph glyph-name="uni0420" unicode="&#x420;" horiz-adv-x="1167" 
d="M78 0l178 1454h508q209 0 309.5 -108t100.5 -293q0 -263 -152.5 -420.5t-427.5 -157.5h-137l-58 -475h-321zM494 764h116q102 0 163 69.5t61 182.5q0 74 -43 111.5t-111 37.5h-137z" />
    <glyph glyph-name="uni0421" unicode="&#x421;" horiz-adv-x="1343" 
d="M696 -18q-128 0 -235.5 39t-188 114t-125.5 192.5t-45 266.5q0 144 35 276.5t102.5 241.5t160.5 190t215 126t259 45q143 0 276 -72.5t228 -231.5l-260 -196q-102 186 -262 186q-91 0 -169 -48t-129.5 -126.5t-80 -177t-28.5 -201.5q0 -148 71.5 -228.5t198.5 -80.5
q82 0 161.5 39t137.5 108l229 -213q-102 -119 -244 -184t-307 -65z" />
    <glyph glyph-name="uni0422" unicode="&#x422;" horiz-adv-x="1103" 
d="M326 0l143 1161h-340l37 293h1005l-36 -293h-338l-144 -1161h-327z" />
    <glyph glyph-name="uni0423" unicode="&#x423;" horiz-adv-x="1239" 
d="M981 1454h369l-559 -1079q-33 -65 -57.5 -108.5t-57 -93t-64 -80.5t-70.5 -58.5t-85 -40t-99 -12.5q-170 0 -264 67l105 275q67 -50 133 -50q53 0 97.5 42t86.5 124l-391 1014h360l197 -649h10z" />
    <glyph glyph-name="uni0424" unicode="&#x424;" horiz-adv-x="1652" 
d="M1616 819q0 -138 -41.5 -256.5t-122 -211t-210 -148t-294.5 -62.5l-18 -141h-326l19 141q-239 12 -384 150t-145 366q0 106 27.5 207t84 189.5t136 155.5t190.5 107t240 44l14 123h326l-14 -125q232 -18 375 -162.5t143 -376.5zM426 692q0 -131 60.5 -199.5t181.5 -80.5
l84 680q-102 -8 -177.5 -67t-112 -145.5t-36.5 -187.5zM967 414q153 17 235 118.5t82 260.5q0 126 -61.5 204t-171.5 93z" />
    <glyph glyph-name="uni0425" unicode="&#x425;" horiz-adv-x="1288" 
d="M-53 0l508 737l-310 717h353l194 -475h10l297 475h379l-495 -725l329 -729h-360l-207 483h-8l-324 -483h-366z" />
    <glyph glyph-name="uni0426" unicode="&#x426;" horiz-adv-x="1398" 
d="M1346 293l-89 -574h-266l23 281h-936l178 1454h330l-144 -1161h369l143 1161h328l-141 -1161h205z" />
    <glyph glyph-name="uni0427" unicode="&#x427;" horiz-adv-x="1236" 
d="M885 1454h332l-181 -1454h-329l65 543q-65 -39 -159.5 -61.5t-176.5 -22.5q-189 0 -265 112t-46 338l74 545h325l-67 -514q-15 -113 11 -155t112 -42q119 0 225 62z" />
    <glyph glyph-name="uni0428" unicode="&#x428;" horiz-adv-x="1886" 
d="M1536 1454h328l-178 -1454h-1608l178 1454h330l-144 -1161h312l143 1161h324l-142 -1161h314z" />
    <glyph glyph-name="uni0429" unicode="&#x429;" horiz-adv-x="1980" 
d="M1927 293l-88 -574h-266l22 281h-1517l178 1454h330l-144 -1161h312l143 1161h324l-142 -1161h314l143 1161h328l-142 -1161h205z" />
    <glyph glyph-name="uni042A" unicode="&#x42a;" horiz-adv-x="1388" 
d="M928 938q100 0 177 -25t123 -64t75 -95t39.5 -111t9.5 -117q-1 -269 -148.5 -397.5t-443.5 -128.5h-486l142 1161h-328l37 293h651l-63 -516h215zM782 289q121 0 175.5 58t54.5 157q0 69 -38.5 109t-115.5 40h-180l-45 -364h149z" />
    <glyph glyph-name="uni042B" unicode="&#x42b;" horiz-adv-x="1775" 
d="M78 0l178 1454h324l-64 -516h201q100 0 177 -25t123 -64t75.5 -95t40 -110.5t10.5 -117.5q-3 -269 -150.5 -397.5t-441.5 -128.5h-473zM1243 0l178 1454h332l-178 -1454h-332zM436 289h137q120 0 175 58t55 157q0 69 -39.5 109t-116.5 40h-166z" />
    <glyph glyph-name="uni042C" unicode="&#x42c;" horiz-adv-x="1191" 
d="M78 0l178 1454h324l-64 -516h215q100 0 177 -25t123 -64t75 -95t39.5 -111t9.5 -117q-1 -269 -148.5 -397.5t-443.5 -128.5h-485zM436 289h150q229 0 229 215q0 69 -38 109t-115 40h-181z" />
    <glyph glyph-name="uni042D" unicode="&#x42d;" horiz-adv-x="1325" 
d="M682 1475q286 0 441 -168t155 -453q0 -186 -49 -344.5t-141 -276.5t-234 -184.5t-319 -66.5q-168 0 -308 58.5t-221 184.5l234 207q90 -149 292 -149q154 0 251.5 85t136.5 228h-537l33 268h538q-6 149 -87.5 229.5t-227.5 80.5q-73 0 -148 -29t-137 -80l-182 235
q103 84 237 129.5t273 45.5z" />
    <glyph glyph-name="uni042E" unicode="&#x42e;" horiz-adv-x="2031" 
d="M1409 1470q268 0 430 -162.5t162 -447.5q0 -178 -52.5 -337t-148.5 -279.5t-241.5 -191t-321.5 -70.5q-248 0 -401.5 159.5t-161.5 415.5h-205l-68 -557h-331l178 1454h332l-74 -604h201q32 133 94 245t150 196t206 131.5t252 47.5zM1266 289q111 0 201 76.5t140 205
t50 281.5q0 154 -74.5 233.5t-193.5 79.5q-107 0 -197 -74.5t-140.5 -198t-50.5 -265.5q0 -167 74 -252.5t191 -85.5z" />
    <glyph glyph-name="uni042F" unicode="&#x42f;" horiz-adv-x="1243" 
d="M688 1454h533l-179 -1454h-321l57 475h-157l-295 -475h-361l365 565q-82 55 -131 142.5t-49 197.5q0 251 139.5 400t398.5 149zM811 758l51 407h-166q-97 0 -150.5 -64.5t-53.5 -162.5q0 -81 46 -130.5t126 -49.5h147z" />
    <glyph glyph-name="uni0430" unicode="&#x430;" horiz-adv-x="1132" 
d="M381 -18q-156 0 -241 114.5t-85 294.5q0 175 63.5 319.5t172 227t237.5 82.5q151 0 236 -88h6l8 69h309l-122 -1001h-310l19 147l-6 3q-117 -168 -287 -168zM479 254q85 0 162 105.5t102 285.5l5 29q-68 71 -166 71q-64 0 -115 -52t-76.5 -127t-25.5 -152q0 -72 31 -116
t83 -44z" />
    <glyph glyph-name="uni0431" unicode="&#x431;" horiz-adv-x="1114" 
d="M506 -18q-207 0 -315.5 144.5t-108.5 387.5q0 181 35 338t105 283t183.5 209t260.5 108q10 1 59.5 8.5t67.5 10.5t61 11t67.5 15.5t57 19t57.5 25.5l54 -254q-34 -24 -69.5 -41t-78.5 -28t-71 -16t-84 -13t-80 -12q-129 -20 -205 -102t-113 -242l4 -3q52 69 129.5 115.5
t169.5 46.5q161 0 265 -109.5t104 -291.5q0 -99 -20.5 -188.5t-65 -167t-108.5 -134t-156.5 -88.5t-204.5 -32zM530 256q94 0 157 84t63 203q0 53 -15 90t-40 54t-47 23.5t-46 6.5q-92 0 -152.5 -77t-60.5 -183q0 -101 41 -151t100 -50z" />
    <glyph glyph-name="uni0432" unicode="&#x432;" horiz-adv-x="1044" 
d="M803 530q80 -26 124 -84.5t44 -132.5q0 -105 -65 -181.5t-168.5 -113t-231.5 -36.5q-230 0 -341.5 108t-111.5 311q0 126 37 237t106.5 196.5t178.5 135.5t243 50q102 0 185 -28t136.5 -88t53.5 -144q0 -83 -53 -139.5t-137 -85.5v-5zM498 586q176 40 176 119
q0 33 -24.5 53t-63.5 20q-73 0 -139 -61.5t-93 -161.5zM520 227q33 0 63.5 8t57.5 33t27 64q0 62 -58.5 78.5t-144.5 -2.5l-121 -21q19 -160 176 -160z" />
    <glyph glyph-name="uni0433" unicode="&#x433;" horiz-adv-x="860" 
d="M360 -18q-167 0 -256.5 64t-91.5 181q-1 111 68 190t209 150l117 62q67 33 88.5 51t21.5 47q0 41 -70 41q-80 0 -174 -82l-161 211q62 52 169 87.5t203 35.5q69 0 129 -15.5t108 -45.5t75.5 -79.5t27.5 -113.5q0 -60 -19 -109.5t-57 -87.5t-77 -64.5t-95 -55.5l-147 -78
q-59 -30 -81.5 -51t-22.5 -44q0 -47 65 -47q50 0 101 28t90 75l225 -166q-84 -94 -191.5 -139t-253.5 -45z" />
    <glyph glyph-name="uni0434" unicode="&#x434;" horiz-adv-x="1089" 
d="M485 -18q-201 0 -315.5 119.5t-114.5 322.5q0 119 38.5 225t103 180.5t151.5 118t180 43.5q125 0 213 -71l2 4q-10 144 -61 215.5t-164 103.5q-71 22 -194 29l59 256q680 -7 672 -723q-2 -181 -38.5 -329.5t-105.5 -259.5t-177.5 -172.5t-248.5 -61.5zM500 254
q93 0 158.5 118t80.5 302q-57 57 -145 57q-99 0 -164 -90.5t-65 -204.5q0 -93 40.5 -137.5t94.5 -44.5z" />
    <glyph glyph-name="uni0435" unicode="&#x435;" horiz-adv-x="974" 
d="M948 743q-1 -74 -35.5 -134t-89.5 -101t-133 -71.5t-159 -47.5t-175 -27q13 -63 54 -94.5t90 -31.5q108 0 182 100l229 -135q-81 -111 -186 -165t-250 -54q-191 0 -305 113t-113 306q0 127 38.5 240t108.5 197t174 133t228 49q63 0 122.5 -17.5t109.5 -50t80.5 -87
t29.5 -122.5zM653 700q1 30 -18 47t-55 17q-68 0 -128 -58t-85 -159q283 30 286 153z" />
    <glyph glyph-name="uni0436" unicode="&#x436;" horiz-adv-x="1480" 
d="M1233 410q29 -100 72 -134.5t118 -39.5l-69 -250q-46 -4 -90 -4q-211 0 -279 286l-18 78q-43 -19 -109 -41l-37 -305h-293l52 416l-2 2q-111 -72 -172 -174.5t-97 -243.5h-317q29 145 104 273t185 225l-29 96q-27 99 -70.5 133t-120.5 41l68 248q46 4 92 4
q110 0 180.5 -75.5t100.5 -211.5l18 -80q57 26 92 37l39 311h291l-51 -421l2 -2q118 72 183 178.5t98 244.5h317q-29 -147 -103.5 -274.5t-183.5 -224.5z" />
    <glyph glyph-name="uni0437" unicode="&#x437;" horiz-adv-x="905" 
d="M383 -18q-132 0 -225.5 24t-175.5 74l106 248q60 -47 134 -69.5t143 -22.5q75 0 121 25.5t46 74.5q0 72 -126 72l-160 -2l24 194l129 2q79 1 118.5 27.5t39.5 66.5q0 34 -30.5 51t-82.5 17q-114 0 -235 -57l-113 223q61 34 167.5 62t201.5 28q110 0 197.5 -28
t142.5 -88.5t55 -145.5q0 -81 -54 -140t-136 -86v-4q79 -26 122.5 -83.5t43.5 -133.5q0 -158 -124.5 -243.5t-328.5 -85.5z" />
    <glyph glyph-name="uni0438" unicode="&#x438;" horiz-adv-x="1103" 
d="M340 -18q-149 0 -218 92.5t-38 304.5l86 622h305l-76 -530q-17 -121 -2.5 -168t68.5 -47q66 0 139 89.5t86 197.5l55 458h308l-123 -1001h-301l12 147h-4q-122 -165 -297 -165z" />
    <glyph glyph-name="uni0439" unicode="&#x439;" horiz-adv-x="1103" 
d="M637 1126q-154 0 -228.5 67.5t-89.5 227.5l242 31q4 -71 33 -108t72 -37q44 0 90.5 41t79.5 114l217 -82q-74 -132 -182.5 -193t-233.5 -61zM340 -18q-149 0 -218 92.5t-38 304.5l86 622h305l-76 -530q-17 -121 -2.5 -168t68.5 -47q66 0 139 89.5t86 197.5l55 458h308
l-123 -1001h-301l12 147h-4q-122 -165 -297 -165z" />
    <glyph glyph-name="uni043A" unicode="&#x43a;" horiz-adv-x="1046" 
d="M51 0l123 1001h307l-53 -428l4 -2q118 85 185 191t100 239h317q-55 -286 -282 -503l30 -88q32 -101 73.5 -135t115.5 -39l-70 -250q-46 -4 -92 -4q-109 0 -174 73.5t-109 212.5l-20 64q-65 -42 -123 -66l-31 -266h-301z" />
    <glyph glyph-name="uni043B" unicode="&#x43b;" horiz-adv-x="1101" 
d="M610 1001h441l-123 -1001h-305l92 748h-45q-56 0 -83 -25t-38 -78q-11 -40 -35.5 -143t-40.5 -164q-45 -176 -142 -264t-237 -88q-83 0 -137 22l49 250q24 -8 51 -8q100 0 156 244q39 186 43 208q28 143 117 221t237 78z" />
    <glyph glyph-name="uni043C" unicode="&#x43c;" horiz-adv-x="1314" 
d="M49 0l123 1001h317l168 -540h5l288 540h318l-125 -1001h-297l67 522h-4l-192 -348h-199l-104 354h-4l-66 -528h-295z" />
    <glyph glyph-name="uni043D" unicode="&#x43d;" horiz-adv-x="1116" 
d="M760 1001h307l-123 -1001h-307l45 365l-279 -3l-45 -362h-307l123 1001h307l-47 -389l279 2z" />
    <glyph glyph-name="uni043E" unicode="&#x43e;" horiz-adv-x="1095" 
d="M481 -18q-193 0 -308.5 113.5t-115.5 316.5q0 122 37.5 231t106.5 193.5t175 134t234 49.5q196 0 312 -113.5t116 -314.5q0 -99 -21 -188.5t-65.5 -167t-109 -134t-157 -88.5t-204.5 -32zM504 256q98 0 160.5 93.5t62.5 221.5q0 51 -14 87t-36.5 54t-45 25.5t-45.5 7.5
q-96 0 -156.5 -97t-60.5 -220q0 -83 40 -127.5t95 -44.5z" />
    <glyph glyph-name="uni043F" unicode="&#x43f;" 
d="M51 0l125 1001h305l-16 -139l4 -2q138 160 332 160q144 0 201.5 -99.5t29.5 -308.5l-80 -612h-305l72 543q15 104 1.5 153t-61.5 49q-78 0 -155.5 -100t-100.5 -274l-45 -371h-307z" />
    <glyph glyph-name="uni0440" unicode="&#x440;" horiz-adv-x="1142" 
d="M2 -406l174 1407h307l-18 -149l2 -4q120 172 301 172q151 0 234 -116t83 -294q0 -175 -63.5 -319.5t-173.5 -226.5t-242 -82q-146 0 -233 67l-8 -2l-56 -453h-307zM524 254q118 0 186 96.5t68 229.5q0 74 -30.5 121t-81.5 47q-90 0 -169 -109t-106 -297l-2 -27
q46 -61 135 -61z" />
    <glyph glyph-name="uni0441" unicode="&#x441;" horiz-adv-x="983" 
d="M481 -18q-198 0 -311 112.5t-113 323.5q0 93 22 180.5t66.5 164t107 134t149.5 90.5t188 33q258 0 385 -184l-236 -177q-47 89 -141 89q-100 0 -165.5 -94t-65.5 -224q0 -81 37 -127.5t100 -46.5q95 0 174 96l237 -151q-159 -219 -434 -219z" />
    <glyph glyph-name="uni0442" unicode="&#x442;" horiz-adv-x="1665" 
d="M53 0l123 1001h307l-16 -124l8 -3q130 146 305 146t217 -152h11q131 152 335 152q149 0 205.5 -101.5t28.5 -318.5l-80 -600h-305l72 543q15 104 2.5 153t-58.5 49q-63 0 -136.5 -101.5t-96.5 -274.5l-49 -369h-305l71 543q16 104 5.5 153t-60.5 49q-61 0 -135 -97.5
t-94 -256.5l-48 -391h-307z" />
    <glyph glyph-name="uni0443" unicode="&#x443;" horiz-adv-x="1093" 
d="M743 1001h306l-107 -866q-65 -559 -565 -559q-204 0 -363 98l97 232q119 -78 249 -78q56 0 96.5 12t78.5 44.5t63.5 96t38.5 160.5v2l-6 2q-121 -163 -297 -163q-73 0 -125.5 20.5t-89.5 67t-46 122.5t5 187l86 622h305l-74 -530q-18 -121 -3.5 -168t69.5 -47
q67 0 140 92t85 197z" />
    <glyph glyph-name="uni0444" unicode="&#x444;" horiz-adv-x="1480" 
d="M475 -406l66 519l-4 2q-42 -67 -98 -101t-111 -34q-135 0 -211 116t-74 305q1 176 53 318t143 221.5t203 79.5q120 0 193 -76l6 2l70 561h307l-78 -622l4 -2q40 68 98 102.5t113 34.5q134 0 209.5 -116.5t73.5 -305.5q-1 -175 -53.5 -316.5t-143.5 -220.5t-203 -79
q-123 0 -192 75l-6 -4l-58 -459h-307zM956 254q60 0 101.5 53t58.5 123.5t17 147.5q2 81 -23.5 134.5t-67.5 53.5q-57 0 -111 -118t-71 -296l-2 -37q40 -61 98 -61zM442 233q55 0 108.5 118.5t70.5 297.5l4 35q-43 61 -101 61q-60 0 -101 -52.5t-57.5 -121.5t-17.5 -147
q-2 -84 23.5 -137.5t70.5 -53.5z" />
    <glyph glyph-name="uni0445" unicode="&#x445;" horiz-adv-x="976" 
d="M-43 0l365 520l-234 481h340l92 -241h2l150 241h348l-363 -497l242 -504h-328l-106 252h-4l-172 -252h-332z" />
    <glyph glyph-name="uni0446" unicode="&#x446;" horiz-adv-x="1234" 
d="M1057 244h135l-100 -506h-238l31 248q-171 6 -209 178q-4 12 -4 20h-6q-57 -92 -143 -147t-181 -55q-73 0 -125.5 20.5t-89.5 67t-46.5 122.5t3.5 187l88 622h305l-76 -530q-18 -121 -3.5 -168t67.5 -47q66 0 139 89.5t86 191.5l58 464h307l-80 -647q-8 -65 12 -86.5
t70 -23.5z" />
    <glyph glyph-name="uni0447" unicode="&#x447;" horiz-adv-x="1056" 
d="M578 0l51 406h-6q-55 -63 -143.5 -101.5t-164.5 -38.5q-150 0 -203 92t-28 263l53 380h305l-51 -350q-10 -62 6.5 -92.5t69.5 -30.5q65 0 127 54t68 104l38 315h306l-123 -1001h-305z" />
    <glyph glyph-name="uni0448" unicode="&#x448;" horiz-adv-x="1599" 
d="M326 -18q-308 0 -252 405l88 614h305l-76 -524q-18 -126 -3 -173.5t67 -47.5q54 0 116 79t78 204l58 462h294l-65 -530q-15 -121 -2.5 -168t63.5 -47q53 0 120 90.5t81 210.5l55 444h308l-123 -1001h-305l16 150h-6q-51 -77 -124.5 -122.5t-154.5 -45.5q-79 0 -135 48.5
t-76 135.5h-6q-55 -86 -145 -135t-176 -49z" />
    <glyph glyph-name="uni0449" unicode="&#x449;" horiz-adv-x="1730" 
d="M1565 244h133l-101 -506h-237l31 248q-89 3 -142 50t-67 128q-1 3 -2 10t-2 10h-7q-54 -91 -137.5 -146.5t-169.5 -55.5q-169 0 -211 184h-6q-55 -86 -145 -135t-176 -49q-308 0 -252 405l88 614h305l-76 -524q-18 -126 -3 -173.5t67 -47.5q54 0 116 79t78 204l58 462
h294l-65 -530q-15 -121 -2.5 -168t63.5 -47q52 0 118.5 90t82.5 211l55 444h308l-80 -647q-8 -65 12 -86.5t72 -23.5z" />
    <glyph glyph-name="uni044A" unicode="&#x44a;" horiz-adv-x="1081" 
d="M762 801q120 0 201.5 -90t78.5 -236q-5 -228 -137.5 -361.5t-361.5 -133.5q-228 0 -320 111.5t-59 338.5l45 318h-172l31 253h483l-51 -329l4 -2q37 57 106 94t152 37zM563 233q75 0 122.5 62t47.5 141q0 59 -33.5 85t-74.5 26q-65 0 -114 -48.5t-58 -119.5
q-8 -64 19.5 -105t90.5 -41z" />
    <glyph glyph-name="uni044B" unicode="&#x44b;" horiz-adv-x="1480" 
d="M451 -20q-228 0 -320 111.5t-59 338.5l82 571h305l-51 -329l4 -2q39 58 107.5 94.5t144.5 36.5q122 0 202.5 -90t77.5 -236q-5 -227 -136 -361t-357 -134zM1001 0l123 1001h308l-123 -1001h-308zM471 233q71 0 117.5 62t46.5 141q0 59 -32.5 85t-70.5 26
q-65 0 -114 -48.5t-58 -119.5q-8 -64 20 -105t91 -41z" />
    <glyph glyph-name="uni044C" unicode="&#x44c;" horiz-adv-x="989" 
d="M451 -20q-228 0 -320 111.5t-59 338.5l82 571h305l-51 -329l4 -2q37 57 106 94t152 37q120 0 201.5 -90t78.5 -236q-5 -228 -137.5 -361.5t-361.5 -133.5zM471 233q75 0 122.5 62t47.5 141q0 59 -34 85t-75 26q-65 0 -114 -48.5t-58 -119.5q-8 -64 20 -105t91 -41z" />
    <glyph glyph-name="uni044D" unicode="&#x44d;" horiz-adv-x="966" 
d="M477 1020q201 0 317 -113.5t113 -324.5q-3 -175 -67 -309t-191 -212.5t-303 -78.5q-114 0 -212.5 35t-160.5 106l189 192q62 -75 188 -75q88 0 151 44.5t91 127.5l-373 -4l25 194l366 4q-4 85 -50 123.5t-120 38.5q-94 0 -186 -80l-160 197q67 59 170 97t213 38z" />
    <glyph glyph-name="uni044E" unicode="&#x44e;" horiz-adv-x="1527" 
d="M1059 1020q191 0 305.5 -113.5t114.5 -314.5q0 -126 -33.5 -234.5t-98.5 -193t-171 -133.5t-242 -49q-178 0 -287 102t-121 287l-131 -2l-45 -369h-307l123 1001h307l-49 -395l125 2q48 182 181 297t329 115zM950 256q93 0 155 91.5t62 217.5q0 92 -40 136t-99 44
q-94 0 -154.5 -94.5t-60.5 -222.5q0 -85 40.5 -128.5t96.5 -43.5z" />
    <glyph glyph-name="uni044F" unicode="&#x44f;" horiz-adv-x="1036" 
d="M555 1001h430l-123 -1001h-303l41 326h-74h-30l-27 -58q-48 -98 -92.5 -156.5t-107 -94t-142.5 -35.5q-64 0 -104 4l-7 250q68 5 110 36.5t97 128.5l2 5q-63 38 -94 101.5t-31 127.5q0 182 123.5 273t331.5 93zM537 526l88 2l26 224h-88q-70 0 -113.5 -31.5t-43.5 -93.5
q0 -101 131 -101z" />
    <glyph glyph-name="uni0450" unicode="&#x450;" horiz-adv-x="974" 
d="M786 1141h-280l-191 307l308 -2zM948 743q-1 -74 -35.5 -134t-89.5 -101t-133 -71.5t-159 -47.5t-175 -27q13 -63 54 -94.5t90 -31.5q108 0 182 100l229 -135q-81 -111 -186 -165t-250 -54q-191 0 -305 113t-113 306q0 127 38.5 240t108.5 197t174 133t228 49
q63 0 122.5 -17.5t109.5 -50t80.5 -87t29.5 -122.5zM653 700q1 30 -18 47t-55 17q-68 0 -128 -58t-85 -159q283 30 286 153z" />
    <glyph glyph-name="uni0451" unicode="&#x451;" horiz-adv-x="974" 
d="M395 1130q-81 0 -132.5 50.5t-51.5 126.5q0 79 53 129.5t137 50.5q82 0 133.5 -49t51.5 -125q0 -79 -53.5 -131t-137.5 -52zM848 1487q79 0 130.5 -49.5t51.5 -124.5q0 -79 -53 -131t-137 -52q-81 0 -133 50.5t-52 126.5q0 79 53.5 129.5t139.5 50.5zM606 1020
q63 0 122.5 -17.5t109.5 -50t80.5 -87t29.5 -122.5q-1 -74 -35.5 -134t-89.5 -101t-133 -71.5t-159 -47.5t-175 -27q13 -63 54 -94.5t90 -31.5q108 0 182 100l229 -135q-81 -111 -186 -165t-250 -54q-191 0 -305 113t-113 306q0 127 38.5 240t108.5 197t174 133t228 49z
M653 700q1 30 -18 47t-55 17q-68 0 -128 -58t-85 -159q283 30 286 153z" />
    <glyph glyph-name="uni0452" unicode="&#x452;" horiz-adv-x="1083" 
d="M770 936q76 0 131.5 -28.5t86.5 -77t45 -116t11.5 -142.5t-18.5 -160q-57 -306 -206.5 -520t-362.5 -324l-160 176q171 119 276.5 306t141.5 401q42 211 -72 211q-80 0 -156 -103.5t-96 -282.5l-33 -276h-305l133 1081h-108l26 219h111l25 207h299l-25 -207h330l-27 -219
h-332l-36 -303l4 -2q132 160 317 160z" />
    <glyph glyph-name="uni0453" unicode="&#x453;" horiz-adv-x="860" 
d="M328 1141l239 305l312 2l-265 -307h-286zM360 -18q-167 0 -256.5 64t-91.5 181q-1 111 68 190t209 150l117 62q67 33 88.5 51t21.5 47q0 41 -70 41q-80 0 -174 -82l-161 211q62 52 169 87.5t203 35.5q69 0 129 -15.5t108 -45.5t75.5 -79.5t27.5 -113.5q0 -60 -19 -109.5
t-57 -87.5t-77 -64.5t-95 -55.5l-147 -78q-59 -30 -81.5 -51t-22.5 -44q0 -47 65 -47q50 0 101 28t90 75l225 -166q-84 -94 -191.5 -139t-253.5 -45z" />
    <glyph glyph-name="uni0454" unicode="&#x454;" horiz-adv-x="999" 
d="M530 236q109 0 181 90l231 -156q-156 -188 -436 -188q-208 0 -329 113.5t-118 324.5q3 267 149.5 433.5t403.5 166.5q112 0 215 -36.5t172 -121.5l-202 -182q-34 41 -86 61.5t-101 20.5q-79 0 -138.5 -41.5t-88.5 -118.5l356 4l-24 -194l-357 -4q3 -90 51.5 -131
t120.5 -41z" />
    <glyph glyph-name="uni0455" unicode="&#x455;" horiz-adv-x="860" 
d="M385 -18q-111 0 -219 45.5t-172 126.5l172 178q44 -54 106 -86.5t121 -32.5q41 0 66.5 14.5t25.5 40.5q0 24 -25 42t-102 57l-28 14q-123 62 -183.5 131.5t-60.5 173.5q0 148 106.5 241t264.5 93q105 0 200 -40.5t160 -119.5l-186 -176q-38 52 -84 76t-88 26
q-33 0 -56.5 -16.5t-23.5 -44.5q0 -24 34 -49.5t107 -61.5q66 -33 108 -59.5t80.5 -63t56 -82t17.5 -102.5q0 -148 -107.5 -236.5t-289.5 -88.5z" />
    <glyph glyph-name="uni0456" unicode="&#x456;" horiz-adv-x="548" 
d="M373 1130q-81 0 -133 50.5t-52 126.5q0 78 53.5 129t137.5 51q82 0 133 -49t51 -125q0 -79 -53 -131t-137 -52zM59 0l123 1001h307l-122 -1001h-308z" />
    <glyph glyph-name="uni0457" unicode="&#x457;" horiz-adv-x="548" 
d="M457 1487q71 0 118.5 -49.5t47.5 -124.5q0 -76 -50 -128t-122 -52q-35 0 -72 16q-32 -16 -72 -16q-72 0 -120 50t-48 124q0 76 50 128t124 52q35 0 70 -14q40 14 74 14zM59 0l123 1001h307l-122 -1001h-308z" />
    <glyph glyph-name="uni0458" unicode="&#x458;" horiz-adv-x="514" 
d="M348 1130q-81 0 -132.5 50.5t-51.5 126.5q0 79 53 129.5t137 50.5q82 0 133.5 -49t51.5 -125q0 -79 -53.5 -131t-137.5 -52zM-6 -422q-122 0 -211 47l76 236q31 -25 78 -25q45 0 65 38.5t31 133.5l123 993h309l-129 -1036q-24 -205 -111.5 -296t-230.5 -91z" />
    <glyph glyph-name="uni0459" unicode="&#x459;" horiz-adv-x="1587" 
d="M1270 801q119 0 200 -90.5t78 -235.5q-6 -228 -138.5 -361.5t-360.5 -133.5t-320 111.5t-59 338.5l45 318h-47q-55 0 -82.5 -25.5t-38.5 -77.5q-53 -227 -74 -307q-45 -176 -142 -264t-237 -88q-83 0 -137 22l49 250q24 -8 51 -8q100 0 156 244q39 186 43 208
q28 143 117 221t237 78h447l-51 -337l2 -2q47 60 115.5 99.5t146.5 39.5zM1069 233q75 0 122.5 62t47.5 141q0 59 -34 85t-75 26q-65 0 -114 -48.5t-58 -119.5q-8 -64 20 -105t91 -41z" />
    <glyph glyph-name="uni045A" unicode="&#x45a;" horiz-adv-x="1531" 
d="M1227 801q119 0 200 -90.5t78 -235.5q-6 -228 -138.5 -361.5t-360.5 -133.5q-212 0 -305.5 95.5t-79.5 289.5l-232 -3l-45 -362h-307l123 1001h307l-47 -389l233 2l56 387h305l-51 -337l2 -2q47 60 115.5 99.5t146.5 39.5zM1026 233q75 0 122.5 62t47.5 141q0 59 -34 85
t-75 26q-65 0 -114 -48.5t-58 -119.5q-8 -64 20 -105t91 -41z" />
    <glyph glyph-name="uni045B" unicode="&#x45b;" horiz-adv-x="1110" 
d="M784 936q147 0 204.5 -99t29.5 -309l-68 -528h-305l60 459q15 104 1.5 153.5t-63.5 49.5q-80 0 -156 -103.5t-96 -282.5l-33 -276h-305l133 1081h-108l26 219h111l25 207h299l-25 -207h330l-27 -219h-332l-36 -303l4 -2q132 160 331 160z" />
    <glyph glyph-name="uni045C" unicode="&#x45c;" horiz-adv-x="1046" 
d="M446 1141l240 305l311 2l-264 -307h-287zM51 0l123 1001h307l-53 -428l4 -2q118 85 185 191t100 239h317q-55 -286 -282 -503l30 -88q32 -101 73.5 -135t115.5 -39l-70 -250q-46 -4 -92 -4q-109 0 -174 73.5t-109 212.5l-20 64q-65 -42 -123 -66l-31 -266h-301z" />
    <glyph glyph-name="uni045D" unicode="&#x45d;" horiz-adv-x="1103" 
d="M492 1141l-191 307l307 -2l164 -305h-280zM340 -18q-149 0 -218 92.5t-38 304.5l86 622h305l-76 -530q-17 -121 -2.5 -168t68.5 -47q66 0 139 89.5t86 197.5l55 458h308l-123 -1001h-301l12 147h-4q-122 -165 -297 -165z" />
    <glyph glyph-name="uni045E" unicode="&#x45e;" horiz-adv-x="1093" 
d="M621 1126q-154 0 -228.5 67.5t-89.5 227.5l242 31q4 -71 32.5 -108t71.5 -37q44 0 90.5 41t79.5 114l217 -82q-74 -132 -182 -193t-233 -61zM743 1001h306l-107 -866q-65 -559 -565 -559q-204 0 -363 98l97 232q119 -78 249 -78q56 0 96.5 12t78.5 44.5t63.5 96
t38.5 160.5v2l-6 2q-121 -163 -297 -163q-73 0 -125.5 20.5t-89.5 67t-46 122.5t5 187l86 622h305l-74 -530q-18 -121 -3.5 -168t69.5 -47q67 0 140 92t85 197z" />
    <glyph glyph-name="uni045F" unicode="&#x45f;" horiz-adv-x="1103" 
d="M340 -18q-149 0 -218 92.5t-38 304.5l86 622h305l-76 -530q-17 -121 -2.5 -168t68.5 -47q66 0 139 89.5t86 197.5l55 458h308l-123 -1001h-301l12 147h-4q-122 -165 -297 -165zM279 -379l32 303h260l-49 -303h-243z" />
    <glyph glyph-name="uni0462" unicode="&#x462;" horiz-adv-x="1339" 
d="M893 891q95 0 168.5 -23t118 -60t72.5 -89t38.5 -104t9.5 -111q-1 -256 -142.5 -380t-426.5 -124h-500l129 1051h-284l33 260h282l19 143h317l-18 -143h385l-33 -260h-383l-21 -160h236zM754 285q204 0 204 196q0 142 -141 142h-192l-41 -338h170z" />
    <glyph glyph-name="uni0463" unicode="&#x463;" horiz-adv-x="1536" 
d="M1004 -20q-230 0 -325 116.5t-52 345.5l16 95q20 109 6.5 158.5t-55.5 49.5q-57 0 -117 -100t-82 -274l-45 -371h-307l123 1001h307l-18 -139l6 -2q118 160 278 160q129 0 187 -89.5t28 -268.5l4 -3q51 63 120.5 102.5t146.5 39.5q119 0 200 -90.5t78 -235.5
q-6 -227 -138.5 -361t-360.5 -134zM1024 233q75 0 122.5 62t47.5 141q0 59 -34 85t-75 26q-65 0 -114 -48.5t-58 -119.5q-8 -64 20 -105t91 -41z" />
    <glyph glyph-name="uni0472" unicode="&#x472;" horiz-adv-x="1513" 
d="M872 1475q268 0 430 -163.5t162 -451.5q0 -180 -52.5 -339.5t-148.5 -280t-242.5 -190.5t-324.5 -70q-272 0 -433 164t-161 456q0 138 34.5 268t102 239.5t159.5 192t214.5 129t259.5 46.5zM844 1178q-135 0 -233.5 -86t-143.5 -232h666v8q0 152 -77.5 231t-211.5 79z
M721 279q136 0 234.5 82.5t142.5 232.5h-664v-2q0 -151 77 -232t210 -81z" />
    <glyph glyph-name="uni0473" unicode="&#x473;" horiz-adv-x="1073" 
d="M600 1020q196 0 311 -111.5t115 -316.5q0 -101 -22 -192t-67 -168t-110.5 -133t-157 -87.5t-200.5 -31.5q-194 0 -308 115t-114 317q0 122 37.5 231t106.5 193.5t175 134t234 49.5zM578 768q-74 0 -130 -46.5t-83 -123.5l368 6q-2 51 -16.5 85.5t-39 50.5t-47.5 22t-52 6
zM494 233q77 0 134.5 47.5t82.5 129.5l-373 -7q1 -89 44.5 -129.5t111.5 -40.5z" />
    <glyph glyph-name="uni0474" unicode="&#x474;" horiz-adv-x="1376" 
d="M438 0l-299 1454h353l141 -987h4l219 666q64 193 144.5 265t228.5 72q161 0 291 -65l-105 -270q-68 30 -112 30q-26 0 -48.5 -11.5t-39.5 -28t-35.5 -49.5t-31.5 -62t-34 -80l-387 -934h-289z" />
    <glyph glyph-name="uni0475" unicode="&#x475;" horiz-adv-x="1040" 
d="M270 0l-196 1001h317l80 -659h4l127 401q25 82 58.5 138.5t75 85.5t84 41t95.5 12q109 0 205 -51l-76 -240q-51 23 -71 23q-45 0 -79.5 -45t-78.5 -150l-231 -557h-314z" />
    <glyph glyph-name="uni048A" unicode="&#x48a;" horiz-adv-x="1488" 
d="M838 1550q-154 0 -228.5 68t-87.5 227l240 21q6 -64 36.5 -99.5t71.5 -35.5q44 0 88 38t78 105l217 -70q-37 -68 -85.5 -118t-103 -79t-110.5 -43t-116 -14zM1229 293h229l-10 -84l-236 -490h-223l96 281h-221l107 866l-6 2l-574 -868h-313l178 1454h326l-115 -907l6 -2
l580 909h317z" />
    <glyph glyph-name="uni048B" unicode="&#x48b;" horiz-adv-x="1183" 
d="M637 1126q-154 0 -228.5 67.5t-89.5 227.5l242 31q4 -71 33 -108t72 -37q44 0 90.5 41t79.5 114l217 -82q-74 -132 -182.5 -193t-233.5 -61zM1057 244h104l-8 -47l-221 -457h-215l94 258q-110 39 -135 166q-4 12 -4 20h-6q-57 -92 -143 -147t-181 -55q-73 0 -125.5 20.5
t-89.5 67t-46.5 122.5t3.5 187l88 622h305l-76 -530q-18 -121 -3.5 -168t67.5 -47q66 0 139 89.5t86 191.5l58 464h307l-80 -647q-8 -65 12 -86.5t70 -23.5z" />
    <glyph glyph-name="uni048C" unicode="&#x48c;" horiz-adv-x="1234" 
d="M788 891q95 0 169 -23t118.5 -60t72.5 -89t38.5 -104t9.5 -111q-1 -256 -142.5 -380t-426.5 -124h-500l133 1079h-192l28 228h191l18 147h318l-19 -147h287l-29 -228h-284l-25 -188h235zM649 285q205 0 205 196q0 142 -141 142h-193l-41 -338h170z" />
    <glyph glyph-name="uni048D" unicode="&#x48d;" horiz-adv-x="1017" 
d="M700 745q130 0 204.5 -81t72.5 -207q-6 -216 -140.5 -346.5t-365.5 -130.5q-229 0 -320.5 111.5t-58.5 338.5l49 342h-121l23 186h125l12 93h301l-12 -84h254l-23 -172h-258l-26 -185l4 -2q119 137 280 137zM659 399q6 59 -23 91t-83 32q-66 0 -112 -38t-58 -97
q-13 -66 15.5 -111t93.5 -45q69 0 115.5 50.5t51.5 117.5z" />
    <glyph glyph-name="uni048E" unicode="&#x48e;" horiz-adv-x="1202" 
d="M1208 1053q0 -170 -65 -299t-189 -201l88 -227l-206 -111l-105 266q-49 -6 -102 -6h-172l-58 -475h-321l178 1454h543q209 0 309 -108t100 -293zM485 752h170l-69 188l149 80l76 -207q72 75 72 203q0 74 -44 111.5t-110 37.5h-192z" />
    <glyph glyph-name="uni048F" unicode="&#x48f;" horiz-adv-x="1142" 
d="M1085 610q0 -167 -58.5 -306t-158.5 -224l90 -199l-188 -106l-96 213q-34 -6 -68 -6q-146 0 -233 67l-8 -2l-56 -453h-307l174 1407h307l-18 -149l2 -4q120 172 301 172q151 0 234 -116t83 -294zM389 315q46 -61 135 -61q31 0 58 6l-74 172l147 84l66 -151q57 91 57 215
q0 74 -30.5 121t-81.5 47q-90 0 -169 -109t-106 -297z" />
    <glyph glyph-name="uni0490" unicode="&#x490;" horiz-adv-x="1058" 
d="M901 1737h264l-71 -576h-543l-143 -1161h-330l178 1454h588z" />
    <glyph glyph-name="uni0491" unicode="&#x491;" horiz-adv-x="817" 
d="M653 1247h230l-62 -499h-370l-91 -748h-309l123 1001h426z" />
    <glyph glyph-name="uni0492" unicode="&#x492;" horiz-adv-x="1126" 
d="M1159 1161h-545l-45 -368h357l-29 -228h-356l-70 -565h-326l70 565h-190l28 228h189l82 661h872z" />
    <glyph glyph-name="uni0493" unicode="&#x493;" horiz-adv-x="860" 
d="M393 229q51 0 102 24.5t87 70.5l223 -166q-82 -93 -189.5 -134.5t-255.5 -41.5q-166 0 -256 63.5t-92 179.5q-3 168 211 258l-96 29l41 121l178 -51l6 18l54 27q66 33 88 52t22 48q0 43 -72 43q-83 0 -172 -74l-161 201q62 52 169 87.5t203 35.5q93 0 168 -25.5
t123.5 -81.5t48.5 -135q0 -87 -47 -141.5t-129 -93.5v-8h-10v4l-57 -25h-2l45 -14l-43 -123l-91 26l-61 -30q-60 -30 -82 -51.5t-22 -45.5q0 -47 69 -47z" />
    <glyph glyph-name="uni0494" unicode="&#x494;" horiz-adv-x="1230" 
d="M741 817q184 0 293 -133t109 -369q0 -151 -36 -281.5t-107 -232.5t-186 -160.5t-263 -58.5q-67 0 -123 12l41 256q16 -4 49 -4q71 0 127 40t89 106t50 142.5t17 156.5q0 237 -183 237q-86 0 -155 -34l-62 -494h-323l178 1454h872l-34 -293h-549l-49 -399q113 55 245 55z
" />
    <glyph glyph-name="uni0495" unicode="&#x495;" horiz-adv-x="1054" 
d="M670 551q137 0 229 -102.5t92 -278.5q0 -277 -161 -434.5t-431 -157.5q-88 0 -149 10l61 242q10 -2 47 -2q150 0 236 82t86 223q0 73 -34.5 109.5t-94.5 36.5t-112 -38t-58 -79l-25 -162h-305l123 1001h678l-31 -253h-370l-39 -320h6q110 123 252 123z" />
    <glyph glyph-name="uni0496" unicode="&#x496;" horiz-adv-x="1929" 
d="M1434 772l208 -479h238l-88 -574h-266l22 281h-153l-232 582l-106 -129l-56 -453h-315l53 446l-80 136l-354 -582h-368l499 776l-317 678h385l274 -655l6 2l78 653h320l-82 -645l6 -2l426 647h387z" />
    <glyph glyph-name="uni0497" unicode="&#x497;" horiz-adv-x="1560" 
d="M1427 244h97l-101 -506h-237l31 252q-170 28 -232 278q-17 70 -18 78q-43 -19 -109 -41l-37 -305h-293l52 416l-2 2q-111 -72 -172 -174.5t-97 -243.5h-317q29 145 104 273t185 225l-29 96q-27 100 -71 134.5t-120 39.5l68 250q46 4 92 4q110 0 180 -76.5t101 -212.5
l18 -80q57 26 92 37l39 311h291l-51 -421l2 -2q118 72 183 178.5t98 244.5h317q-29 -147 -103.5 -274.5t-183.5 -224.5q5 -15 14.5 -46t14.5 -46q15 -52 34 -85.5t44.5 -50.5t51.5 -23t64 -7z" />
    <glyph glyph-name="uni0498" unicode="&#x498;" horiz-adv-x="1138" 
d="M864 780q93 -45 150 -133t57 -207q0 -198 -131.5 -323t-376.5 -135l-16 -37q62 -13 103.5 -49t41.5 -93q0 -98 -76 -146t-206 -48q-66 0 -121 12l8 133q29 -10 84 -10q98 0 98 63q0 47 -112 62l53 119q-292 34 -420 239l225 217q49 -81 128.5 -122t170.5 -41
q100 0 153.5 54.5t53.5 133.5q0 71 -49.5 106t-140.5 35h-197l35 264h168q101 0 162 45.5t61 124.5q0 65 -45 96t-119 31q-145 0 -260 -92l-182 230q191 161 487 161q207 0 329 -88.5t122 -246.5q0 -110 -62.5 -205t-175.5 -146v-4z" />
    <glyph glyph-name="uni0499" unicode="&#x499;" horiz-adv-x="905" 
d="M670 528q79 -26 122.5 -83.5t43.5 -133.5q0 -150 -110.5 -234t-297.5 -93l-16 -39q62 -13 103.5 -49t41.5 -93q0 -97 -76.5 -145.5t-206.5 -48.5q-64 0 -120 12l8 133q29 -10 84 -10q98 0 98 63q0 47 -113 62l52 117q-168 13 -301 94l106 248q60 -47 134 -69.5t143 -22.5
q75 0 121 25.5t46 74.5q0 72 -126 72l-160 -2l24 194l129 2q79 1 118.5 27.5t39.5 66.5q0 34 -30.5 51t-82.5 17q-114 0 -235 -57l-113 223q61 34 167.5 62t201.5 28q110 0 197.5 -28t142.5 -88.5t55 -145.5q0 -81 -54 -140t-136 -86v-4z" />
    <glyph glyph-name="uni049A" unicode="&#x49a;" horiz-adv-x="1363" 
d="M838 801l229 -508h244l-88 -574h-267l23 281h-154l-235 569l-137 -161l-50 -408h-325l178 1454h326l-72 -594l6 -2l453 596h393z" />
    <glyph glyph-name="uni049B" unicode="&#x49b;" horiz-adv-x="1112" 
d="M975 244h96l-100 -506h-238l31 252q-87 14 -142 84.5t-96 193.5q-10 30 -16 60q-62 -35 -127 -62l-31 -266h-301l123 1001h307l-53 -428l4 -2q118 85 185 191t100 239h317q-56 -291 -282 -501q6 -16 15 -47t13 -43q16 -52 35.5 -85t45 -50t51.5 -23.5t63 -7.5z" />
    <glyph glyph-name="uni049C" unicode="&#x49c;" horiz-adv-x="1486" 
d="M1573 1454l-447 -711l293 -743h-368l-213 594h-21l-45 -354h-209l45 352h-131l-71 -592h-328l178 1454h328l-78 -635l131 6l49 398h209l-49 -389h12l330 620h385z" />
    <glyph glyph-name="uni049D" unicode="&#x49d;" horiz-adv-x="1175" 
d="M911 410q33 -101 74.5 -135t114.5 -39l-70 -250q-46 -4 -90 -4q-114 0 -172.5 64t-95.5 206l-31 135l-10 -4l-33 -268h-147l26 219q-7 -2 -39.5 -10.5t-48.5 -12.5l-37 -311h-301l123 1001h301l-57 -460l4 -2q29 4 82 20l33 260h153l-22 -170q42 37 73 80t51.5 95.5
t30 85.5t23.5 91h317q-55 -286 -282 -503z" />
    <glyph glyph-name="uni049E" unicode="&#x49e;" horiz-adv-x="1282" 
d="M1380 1454l-522 -676l359 -778h-375l-234 549l-143 -193l-45 -356h-324l133 1094h-159l28 227h160l16 133h326l-16 -133h123l-27 -227h-125l-35 -277l4 -2l463 639h393z" />
    <glyph glyph-name="uni049F" unicode="&#x49f;" horiz-adv-x="1046" 
d="M782 410q32 -101 73.5 -135t115.5 -39l-70 -250q-46 -4 -92 -4q-109 0 -174 73.5t-109 212.5l-20 64q-65 -42 -123 -66l-31 -266h-301l139 1133h-96l23 186h98l23 188h305l-23 -188h244l-23 -186h-243l-70 -560l4 -2q118 85 185 191t100 239h317q-55 -286 -282 -503z" />
    <glyph glyph-name="uni04A0" unicode="&#x4a0;" horiz-adv-x="1460" 
d="M1556 1454l-524 -653l361 -801h-373l-236 569l-137 -161l-49 -408h-326l142 1161h-326l37 293h651l-71 -594l6 -2l452 596h393z" />
    <glyph glyph-name="uni04A1" unicode="&#x4a1;" horiz-adv-x="1171" 
d="M907 410q32 -101 73.5 -135t115.5 -39l-70 -250q-46 -4 -92 -4q-109 0 -174 73.5t-109 212.5l-20 64q-65 -42 -123 -66l-31 -266h-301l92 748h-231l31 253h538l-53 -428l4 -2q118 85 185 191t100 239h317q-55 -286 -282 -503z" />
    <glyph glyph-name="uni04A2" unicode="&#x4a2;" horiz-adv-x="1466" 
d="M1411 293l-88 -574h-266l22 281h-239l67 553h-432l-67 -553h-330l178 1454h330l-74 -608h432l74 608h332l-144 -1161h205z" />
    <glyph glyph-name="uni04A3" unicode="&#x4a3;" horiz-adv-x="1243" 
d="M1065 244h135l-100 -506h-238l31 248q-263 4 -234 235l19 144l-275 -3l-45 -362h-307l123 1001h307l-47 -389l275 2l47 387h307l-84 -661q-7 -61 13 -77.5t73 -18.5z" />
    <glyph glyph-name="uni04A4" unicode="&#x4a4;" horiz-adv-x="1630" 
d="M1006 1454h694l-37 -293h-365l-143 -1161h-328l68 553h-420l-67 -553h-330l178 1454h330l-74 -608h420z" />
    <glyph glyph-name="uni04A5" unicode="&#x4a5;" horiz-adv-x="1286" 
d="M1321 1001l-31 -253h-278l-90 -748h-304l46 365l-261 -3l-45 -362h-307l123 1001h307l-47 -389l260 2l47 387h580z" />
    <glyph glyph-name="uni04A6" unicode="&#x4a6;" horiz-adv-x="1933" 
d="M1444 817q184 0 292.5 -133t108.5 -369q0 -151 -36 -281.5t-107 -232.5t-186 -160.5t-263 -58.5q-67 0 -123 12l41 256q16 -4 50 -4q57 0 104.5 26.5t80 71t55 102.5t32.5 120t10 125q0 237 -182 237q-77 0 -152 -32l-61 -496h-324l144 1161h-377l-143 -1161h-330
l178 1454h1030l-84 -690q116 53 242 53z" />
    <glyph glyph-name="uni04A7" unicode="&#x4a7;" horiz-adv-x="1636" 
d="M981 -422q-89 0 -150 10l62 242q10 -2 47 -2q152 0 237 81t85 224q0 73 -34.5 109.5t-94.5 36.5t-112 -38t-58 -79l-25 -162h-305l72 543q15 104 2.5 153t-60.5 49q-31 0 -67.5 -24t-72.5 -68.5t-64.5 -118.5t-39.5 -163l-45 -371h-307l125 1001h305l-16 -139l4 -2
q138 160 319 160q144 0 202 -99.5t30 -308.5l-27 -184h6q110 123 252 123q137 0 229.5 -102.5t92.5 -278.5q0 -277 -161 -434.5t-431 -157.5z" />
    <glyph glyph-name="uni04A8" unicode="&#x4a8;" horiz-adv-x="1654" 
d="M1628 66q-42 -39 -116 -61.5t-158 -22.5q-95 0 -176 24.5t-129 65.5q-137 -90 -347 -90q-274 0 -444 167.5t-170 454.5q0 138 34.5 268t101.5 238.5t158.5 190t212.5 127t257 45.5q13 0 80 -5l-70 -286q-12 2 -37 2q-109 0 -201.5 -80.5t-144 -209t-51.5 -269.5
q0 -173 92 -274t256 -101q19 0 55 4l3 6q-105 160 -105 358q0 124 33.5 241t93 208.5t149.5 147t195 55.5q185 0 279 -115.5t94 -308.5q0 -181 -80 -342.5t-217 -265.5v-5q34 -6 65 -6q89 0 175 62zM1171 989q-47 0 -86 -71.5t-58 -164.5t-19 -173q0 -118 41 -224l8 -2
q84 93 129 227.5t45 266.5q0 66 -16 103.5t-44 37.5z" />
    <glyph glyph-name="uni04A9" unicode="&#x4a9;" horiz-adv-x="1316" 
d="M1305 80q-121 -98 -324 -98q-163 0 -268 63q-97 -63 -238 -63q-194 0 -310 119t-116 321q0 168 74 342t213 285l217 -142q-87 -87 -142 -218t-55 -240q0 -101 49 -163t146 -65q-41 93 -41 223q0 103 27.5 204t77 183t127 132.5t169.5 50.5q137 0 212 -83.5t75 -232.5
q0 -148 -71 -279.5t-187 -211.5l2 -2q68 0 128 26.5t101 67.5zM862 741q-33 0 -65 -56.5t-50 -135t-18 -146.5q0 -63 14 -104l5 -2q71 65 112 172t41 201q0 71 -39 71z" />
    <glyph glyph-name="uni04AA" unicode="&#x4aa;" horiz-adv-x="1343" 
d="M719 297q82 0 161.5 39t137.5 108l229 -213q-93 -108 -220 -172.5t-273 -74.5l-19 -39q62 -13 104 -49t42 -93q0 -97 -76.5 -145.5t-206.5 -48.5q-66 0 -121 12l8 133q29 -10 84 -10q99 0 99 63q0 47 -113 62l53 117q-111 13 -203 58.5t-160 120t-105.5 184.5t-37.5 245
q0 144 35 276.5t102.5 241.5t160.5 190t215 126t259 45q143 0 276 -72.5t228 -231.5l-260 -196q-102 186 -262 186q-91 0 -169 -48t-129.5 -126.5t-80 -177t-28.5 -201.5q0 -148 71.5 -228.5t198.5 -80.5z" />
    <glyph glyph-name="uni04AB" unicode="&#x4ab;" horiz-adv-x="983" 
d="M504 256q95 0 174 96l237 -151q-143 -197 -376 -217l-19 -39q62 -13 104 -49t42 -93q0 -97 -76.5 -145.5t-206.5 -48.5q-66 0 -121 12l8 133q29 -10 84 -10q99 0 99 63q0 47 -113 62l53 119q-159 24 -247.5 134t-88.5 296q0 93 22 180.5t66.5 164t107 134t149.5 90.5
t188 33q258 0 385 -184l-236 -177q-47 89 -141 89q-100 0 -165.5 -94t-65.5 -224q0 -81 37 -127.5t100 -46.5z" />
    <glyph glyph-name="uni04AC" unicode="&#x4ac;" horiz-adv-x="1103" 
d="M1135 1161h-338l-107 -868h205l-88 -574h-266l22 281h-237l143 1161h-340l37 293h1005z" />
    <glyph glyph-name="uni04AD" unicode="&#x4ad;" horiz-adv-x="1775" 
d="M1602 244h135l-101 -506h-237l31 248q-59 1 -103 13t-79.5 39t-49 79t-0.5 125l47 295q38 208 -53 208q-61 0 -128.5 -100.5t-90.5 -275.5l-49 -369h-306l72 543q16 104 5 153t-60 49q-61 0 -134 -97.5t-93 -256.5l-48 -391h-307l123 1001h307l-16 -124l8 -3
q127 146 303 146q172 0 217 -152h11q109 152 321 152q148 0 206.5 -105.5t27.5 -302.5l-45 -278q-5 -17 -2.5 -30.5t3.5 -23t8.5 -16t13 -10t17.5 -6t21.5 -3.5t24.5 -1z" />
    <glyph glyph-name="uni04AE" unicode="&#x4ae;" horiz-adv-x="1189" 
d="M367 0l79 635l-325 819h360l162 -512h6l283 512h375l-531 -819l-78 -635h-331z" />
    <glyph glyph-name="uni04AF" unicode="&#x4af;" horiz-adv-x="1005" 
d="M221 -406l51 388l-198 1019h321l94 -694h5q164 301 229 694h315q-101 -564 -458 -1009l-54 -398h-305z" />
    <glyph glyph-name="uni04B0" unicode="&#x4b0;" horiz-adv-x="1189" 
d="M1307 1454l-476 -733h234l-29 -227h-276l-62 -494h-331l61 494h-276l28 227h232l-291 733h360l162 -512h6l283 512h375z" />
    <glyph glyph-name="uni04B1" unicode="&#x4b1;" horiz-adv-x="1005" 
d="M1038 1001q-83 -465 -336 -815h136l-25 -186h-231l-56 -406h-305l53 406h-190l22 186h140l-172 815h321l94 -694h5q164 301 229 694h315z" />
    <glyph glyph-name="uni04B2" unicode="&#x4b2;" horiz-adv-x="1378" 
d="M883 729l196 -436h250l-88 -574h-266l22 281h-145l-207 483h-8l-324 -483h-366l508 737l-310 717h353l194 -475h10l297 475h379z" />
    <glyph glyph-name="uni04B3" unicode="&#x4b3;" horiz-adv-x="1048" 
d="M713 395q44 -92 85 -120.5t115 -30.5h95l-101 -506h-237l30 252q-76 10 -128.5 65.5t-96.5 165.5l-12 27h-4l-170 -248h-332l365 520l-234 481h340l90 -239h4l148 239h350l-361 -497z" />
    <glyph glyph-name="uni04B4" unicode="&#x4b4;" horiz-adv-x="1636" 
d="M1583 293l-88 -574h-266l22 281h-936l142 1161h-328l37 293h887l-37 -293h-230l-106 -868h369l143 1161h328l-142 -1161h205z" />
    <glyph glyph-name="uni04B5" unicode="&#x4b5;" horiz-adv-x="1234" 
d="M1008 1425l-29 -235h-668l31 235h666zM1057 244h135l-100 -506h-238l31 248q-171 6 -209 178q-4 12 -4 20h-6q-57 -92 -143 -147t-181 -55q-73 0 -125.5 20.5t-89.5 67t-46.5 122.5t3.5 187l88 622h305l-76 -530q-18 -121 -3.5 -168t67.5 -47q66 0 139 89.5t86 191.5
l58 464h307l-80 -647q-8 -65 12 -86.5t70 -23.5z" />
    <glyph glyph-name="uni04B6" unicode="&#x4b6;" horiz-adv-x="1331" 
d="M1073 293h205l-88 -574h-266l22 281h-239l65 543q-65 -39 -159.5 -61.5t-176.5 -22.5q-189 0 -265 112t-46 338l74 545h325l-67 -514q-15 -113 11 -155t112 -42q119 0 225 62l80 649h332z" />
    <glyph glyph-name="uni04B7" unicode="&#x4b7;" horiz-adv-x="1177" 
d="M999 244h136l-101 -506h-237l30 248q-120 2 -184.5 55t-48.5 180l24 185h-6q-50 -63 -135.5 -101.5t-161.5 -38.5q-150 0 -203 92t-28 263l53 380h305l-51 -350q-10 -62 6.5 -92.5t69.5 -30.5q65 0 121 53.5t63 104.5l39 315h305l-82 -661q-7 -61 13 -77.5t73 -18.5z" />
    <glyph glyph-name="uni04B8" unicode="&#x4b8;" horiz-adv-x="1310" 
d="M961 1454h327l-180 -1454h-326l68 547q-46 -21 -105 -39l-34 -277h-209l28 234q-53 -6 -94 -6q-189 0 -265 112t-46 338l74 545h317l-65 -514q-15 -121 8.5 -165t103.5 -46l37 295h209l-33 -270q50 12 103 37z" />
    <glyph glyph-name="uni04B9" unicode="&#x4b9;" horiz-adv-x="1107" 
d="M760 1001h297l-123 -1001h-299l53 418h-6q-42 -37 -84 -62l-29 -219h-151l20 152q-80 -23 -131 -23q-274 0 -223 355l53 380h297l-53 -362q-11 -74 6 -103.5t76 -29.5h2l37 282h153l-30 -233q40 25 65.5 58.5t28.5 60.5z" />
    <glyph glyph-name="uni04BA" unicode="&#x4ba;" horiz-adv-x="1255" 
d="M881 1004q192 0 264.5 -114.5t42.5 -340.5l-74 -549h-323l65 506q14 117 -11.5 164t-111.5 47q-128 0 -244 -58l-79 -659h-332l180 1454h330l-66 -534q71 36 171.5 60t187.5 24z" />
    <glyph glyph-name="uni04BB" unicode="&#x4bb;" 
d="M51 0l187 1507h305l-80 -645l4 -2q138 160 334 160q144 0 201.5 -99.5t29.5 -308.5l-80 -612h-307l74 543q15 104 1.5 153t-61.5 49q-79 0 -157.5 -104t-100.5 -281l-43 -360h-307z" />
    <glyph glyph-name="uni04BC" unicode="&#x4bc;" horiz-adv-x="1681" 
d="M670 631v-19q-6 -161 77 -244t240 -83q87 0 165 40.5t136 112.5l225 -207q-213 -249 -550 -249q-283 0 -452 162.5t-169 449.5v37q-150 3 -229.5 68t-79.5 182q0 60 22.5 126t59.5 111l217 -57q-47 -73 -47 -113q0 -57 84 -57h12q70 261 253 421.5t443 160.5
q268 0 424 -163t156 -452q0 -95 -35 -227h-952zM1063 1180q-114 0 -200.5 -73t-135.5 -198h610q-4 132 -80 201.5t-194 69.5z" />
    <glyph glyph-name="uni04BD" unicode="&#x4bd;" horiz-adv-x="1165" 
d="M1137 743q-1 -73 -35 -133.5t-89.5 -102t-133.5 -73t-159.5 -49t-174.5 -27.5q14 -62 54.5 -92t90.5 -30q105 0 182 100l228 -135q-79 -111 -184.5 -165t-249.5 -54q-179 0 -292 99t-126 271h-4q-123 -3 -187.5 51t-62.5 150q3 86 57 182l166 -35q-33 -82 -33 -108
q-3 -27 14.5 -39t59.5 -14q40 208 184.5 344.5t352.5 136.5q63 0 122.5 -17.5t109.5 -50t80.5 -87t29.5 -122.5zM842 700q1 31 -18 47.5t-54 16.5q-71 0 -132 -61.5t-85 -163.5q286 34 289 161z" />
    </font>
</defs>
</svg>
