<?xml version="1.0" standalone="no"?>
<!DOCTYPE svg PUBLIC "-//W3C//DTD SVG 1.1//EN" "http://www.w3.org/Graphics/SVG/1.1/DTD/svg11.dtd" >
<svg xmlns="http://www.w3.org/2000/svg" xmlns:xlink="http://www.w3.org/1999/xlink" version="1.1">
<metadata>
Created by FontForge 20170731 at Sat Aug  5 07:28:19 2023
 By Aleksey,,,
Copyright (c) 2015 by Kostas Bartsokas. All rights reserved.
</metadata>
<defs>
<font id="AvertaDemoPE-Regular" horiz-adv-x="1214" >
  <font-face 
    font-family="Averta Demo PE"
    font-weight="400"
    font-stretch="normal"
    units-per-em="2048"
    panose-1="0 0 5 0 0 0 0 0 0 0"
    ascent="1638"
    descent="-410"
    x-height="997"
    cap-height="1454"
    bbox="-1393 -526 2859 2132"
    underline-thickness="77"
    underline-position="-246"
    unicode-range="U+000D-2E18"
  />
<missing-glyph horiz-adv-x="913" 
 />
    <glyph glyph-name=".notdef" horiz-adv-x="913" 
 />
    <glyph glyph-name=".null" horiz-adv-x="0" 
 />
    <glyph glyph-name="nonmarkingreturn" horiz-adv-x="682" 
 />
    <glyph glyph-name="CR" unicode="&#xd;" horiz-adv-x="0" 
 />
    <glyph glyph-name="space" unicode=" " horiz-adv-x="557" 
 />
    <glyph glyph-name="exclam" unicode="!" horiz-adv-x="495" 
d="M186 428l-30 1079h190l-31 -1079h-129zM248 -14q-51 0 -87 34.5t-36 85.5t36 86t87 35t86 -35t35 -86t-35 -85.5t-86 -34.5z" />
    <glyph glyph-name="quotedbl" unicode="&#x22;" horiz-adv-x="692" 
d="M78 961l67 493h179l-111 -493h-135zM369 961l65 493h180l-110 -493h-135z" />
    <glyph glyph-name="numbersign" unicode="#" horiz-adv-x="1290" 
d="M260 -72l64 418h-242v129h260l51 330h-268v127h289l63 411h119l-64 -411h334l64 411h119l-64 -411h252l-2 -127h-270l-50 -330h275v-129h-295l-64 -418h-118l65 418h-336l-63 -418h-119zM461 475h336l49 330h-334z" />
    <glyph glyph-name="dollar" unicode="$" horiz-adv-x="1150" 
d="M1061 371q0 -159 -108 -261t-296 -114v-248h-133v250q-239 28 -415 201l108 127q84 -83 188 -126.5t205 -43.5q116 0 189 54t73 148q0 43 -14.5 77.5t-37.5 59t-65.5 47t-82.5 38t-105 36.5q-46 14 -74 23.5t-69.5 25t-67.5 28.5t-59.5 32t-54 38t-43 45t-34.5 54
t-20 63.5t-8 75.5q0 152 102.5 252.5t284.5 110.5v256h133v-264q96 -15 192 -56t165 -96l-103 -125q-77 57 -171.5 89t-172.5 32q-109 0 -176 -50t-67 -138q0 -38 15.5 -68.5t38 -52t65 -42.5t78.5 -34t97 -33q52 -17 82 -27.5t74.5 -27.5t71 -30t60.5 -33.5t54 -40.5
t41.5 -47t33 -57t19 -67.5t7.5 -80.5z" />
    <glyph glyph-name="percent" unicode="%" horiz-adv-x="2035" 
d="M768 -35l-135 58l637 1456l135 -58zM496 662q-172 0 -290 113t-118 292q0 169 114 285t294 116q171 0 289 -112t118 -289q0 -171 -113.5 -288t-293.5 -117zM496 793q119 0 192.5 78t73.5 194q0 120 -76 195t-190 75q-116 0 -189.5 -77.5t-73.5 -192.5q0 -121 76 -196.5
t187 -75.5zM1532 -12q-171 0 -289.5 112.5t-118.5 290.5q0 169 114 285.5t294 116.5q173 0 291.5 -112t118.5 -290q0 -171 -114.5 -287t-295.5 -116zM1534 117q118 0 192 78t74 194q0 119 -77 194.5t-189 75.5q-118 0 -192 -77.5t-74 -192.5q0 -119 77 -195.5t189 -76.5z
" />
    <glyph glyph-name="ampersand" unicode="&#x26;" horiz-adv-x="1335" 
d="M561 -12q-197 0 -330 119t-133 309q0 133 76 247.5t199 180.5v4l-172 209q14 181 132.5 296t297.5 115q84 0 155.5 -23.5t122.5 -64t86.5 -87t59.5 -99.5l-144 -55q-81 178 -268 178q-120 0 -188.5 -65.5t-79.5 -168.5l590 -700h6q73 132 73 291l162 2q0 -248 -125 -430
v-4l201 -242h-199l-116 137h-4q-152 -149 -402 -149zM578 145q174 0 288 111v4l-391 465q-93 -45 -148 -127.5t-55 -173.5q0 -121 84.5 -200t221.5 -79z" />
    <glyph glyph-name="quotesingle" unicode="'" horiz-adv-x="401" 
d="M78 961l67 493h179l-111 -493h-135z" />
    <glyph glyph-name="parenleft" unicode="(" horiz-adv-x="571" 
d="M350 -303q-229 409 -229 909q0 258 62.5 494t174.5 418l127 -60q-99 -181 -154 -400t-55 -452q0 -439 203 -852z" />
    <glyph glyph-name="parenright" unicode=")" horiz-adv-x="571" 
d="M221 -303l-129 57q203 413 203 852q0 233 -55 452t-154 400l127 60q112 -182 175 -418t63 -494q0 -499 -230 -909z" />
    <glyph glyph-name="asterisk" unicode="*" horiz-adv-x="831" 
d="M360 805l9 244l-205 -129l-58 98l216 110l-218 115l60 96l205 -127l-9 242h111l-10 -242l209 127l53 -96l-215 -115l215 -110l-53 -98l-205 129l6 -244h-111z" />
    <glyph glyph-name="plus" unicode="+" horiz-adv-x="1187" 
d="M516 88v401h-403v154h403v404h154v-404h403v-154h-403v-401h-154z" />
    <glyph glyph-name="comma" unicode="," horiz-adv-x="430" 
d="M61 -268l68 493h180l-123 -493h-125z" />
    <glyph glyph-name="hyphen" unicode="-" horiz-adv-x="831" 
d="M113 549v164h606v-164h-606z" />
    <glyph glyph-name="period" unicode="." horiz-adv-x="483" 
d="M242 -14q-51 0 -87 34.5t-36 85.5t36 86t87 35t85.5 -35t34.5 -86t-34.5 -85.5t-85.5 -34.5z" />
    <glyph glyph-name="slash" unicode="/" horiz-adv-x="839" 
d="M80 -231l-133 61l788 1747l131 -64z" />
    <glyph glyph-name="zero" unicode="0" horiz-adv-x="1277" 
d="M639 -12q-235 0 -381.5 189t-146.5 525q0 210 61.5 371t182 253.5t284.5 92.5q115 0 211.5 -48t167 -137.5t110 -226t39.5 -305.5q0 -209 -61 -369.5t-181.5 -252.5t-285.5 -92zM639 147q167 0 259.5 150t92.5 405q0 264 -96 411t-256 147q-165 0 -258.5 -151t-93.5 -407
q0 -262 96.5 -408.5t255.5 -146.5z" />
    <glyph glyph-name="one" unicode="1" horiz-adv-x="761" 
d="M406 0v1200l-281 -213l-84 129l393 291h144v-1407h-172z" />
    <glyph glyph-name="two" unicode="2" horiz-adv-x="1056" 
d="M78 0l-2 119l481 491q106 109 159.5 194.5t53.5 180.5q0 118 -74 194t-190 76q-201 0 -301 -192l-127 88q62 124 171.5 195t266.5 71q114 0 211 -48t158 -144t61 -221q0 -120 -56 -230.5t-185 -241.5l-367 -368l2 -6h623v-158h-885z" />
    <glyph glyph-name="three" unicode="3" horiz-adv-x="1091" 
d="M535 -12q-175 0 -301.5 76t-180.5 202l150 68q38 -88 119 -137.5t200 -49.5q125 0 208 70t83 184q0 108 -80 181t-229 73h-117v148h137q126 0 190 65.5t64 159.5q0 103 -75 167.5t-187 64.5q-181 0 -276 -142l-140 78q58 102 166 162.5t254 60.5q186 0 309 -99t123 -269
q0 -101 -55 -187.5t-152 -128.5v-6q114 -43 179 -135.5t65 -216.5q0 -173 -128.5 -281t-325.5 -108z" />
    <glyph glyph-name="four" unicode="4" horiz-adv-x="1153" 
d="M713 0v248h-654v123l680 1036h146v-1004h205v-155h-205v-248h-172zM260 399h459v715z" />
    <glyph glyph-name="five" unicode="5" horiz-adv-x="1130" 
d="M580 893q194 0 324 -121.5t130 -327.5q0 -203 -137 -329.5t-352 -126.5q-147 0 -271.5 61.5t-197.5 171.5l129 96q48 -78 134 -124t191 -46q147 0 237.5 84t90.5 215q0 137 -95 217t-231 80q-146 0 -247 -77l-101 30l41 711h744v-160h-582l-22 -395q112 41 215 41z" />
    <glyph glyph-name="six" unicode="6" horiz-adv-x="1187" 
d="M651 887q195 0 317 -120t122 -327q0 -194 -139 -323t-349 -129q-139 0 -251 67.5t-177 194t-65 289.5q0 146 38.5 279.5t106 238t158 187t195 134.5t216.5 72l51 -145q-207 -53 -359.5 -189t-209.5 -354q141 125 346 125zM612 147q135 0 220.5 86t85.5 209
q0 128 -84 207.5t-222 79.5q-109 0 -196.5 -56t-139.5 -141v-12q0 -163 97 -268t239 -105z" />
    <glyph glyph-name="seven" unicode="7" horiz-adv-x="1003" 
d="M51 1407h873v-121l-557 -1311l-172 35l536 1239h-680v158z" />
    <glyph glyph-name="eight" unicode="8" horiz-adv-x="1171" 
d="M584 -12q-217 0 -355.5 113t-138.5 286q0 137 74.5 236t193.5 137v4q-80 30 -139 110.5t-59 186.5q0 165 119.5 261.5t304.5 96.5q191 0 308.5 -98.5t117.5 -259.5q0 -107 -60.5 -188.5t-140.5 -108.5v-4q121 -36 195.5 -135t74.5 -238q0 -179 -141.5 -289t-353.5 -110z
M584 836q116 0 188 57.5t72 153.5t-73.5 157.5t-186.5 61.5q-116 0 -187 -63t-71 -156q0 -96 71.5 -153.5t186.5 -57.5zM584 143q141 0 230 77t89 186q0 121 -88 195.5t-231 74.5q-144 0 -231 -74t-87 -196q0 -113 91.5 -188t226.5 -75z" />
    <glyph glyph-name="nine" unicode="9" horiz-adv-x="1183" 
d="M586 1419q211 0 351.5 -153.5t139.5 -399.5q0 -185 -63 -348t-167 -277t-234 -189t-269 -101l-51 145q100 26 189 70.5t169 110t140 160t90 208.5q-68 -61 -161 -95t-196 -34q-188 0 -310 121t-122 321q0 198 141 329.5t353 131.5zM563 676q104 0 197 52.5t149 139.5v13
q0 170 -90.5 274.5t-230.5 104.5q-144 0 -233 -87.5t-89 -214.5q0 -128 81 -205t216 -77z" />
    <glyph glyph-name="colon" unicode=":" horiz-adv-x="477" 
d="M233 768q-51 0 -86.5 35t-35.5 86t35.5 86t86.5 35t86 -35t35 -86t-35 -86t-86 -35zM233 -14q-51 0 -86.5 34.5t-35.5 85.5t35.5 86t86.5 35t86 -35t35 -86t-35 -85.5t-86 -34.5z" />
    <glyph glyph-name="semicolon" unicode=";" horiz-adv-x="454" 
d="M233 768q-51 0 -86.5 35t-35.5 86t35.5 86t86.5 35t86 -35t35 -86t-35 -86t-86 -35zM76 -268l67 493h181l-123 -493h-125z" />
    <glyph glyph-name="less" unicode="&#x3c;" horiz-adv-x="1169" 
d="M1038 88l-919 418v123l919 424v-168l-692 -316l692 -315v-166z" />
    <glyph glyph-name="equal" unicode="=" horiz-adv-x="1185" 
d="M127 721v153h960v-153h-960zM127 258v154h960v-154h-960z" />
    <glyph glyph-name="greater" unicode="&#x3e;" horiz-adv-x="1167" 
d="M137 88v166l692 315l-692 316v168l920 -424v-123z" />
    <glyph glyph-name="question" unicode="?" horiz-adv-x="915" 
d="M322 424v111q0 23 4.5 46.5t10 41.5t19.5 41t23 36.5t29.5 37.5t30 34t34.5 37t33 35q46 51 72.5 86t49.5 89.5t23 110.5q0 104 -65 165t-164 61q-73 0 -142.5 -38t-113.5 -104l-125 117q69 91 171.5 141t221.5 50q111 0 202.5 -45t146.5 -133t55 -205q0 -111 -49.5 -197
t-135.5 -172q-11 -11 -50.5 -49t-52.5 -52.5t-36.5 -43.5t-31.5 -52t-9 -47l-4 -102h-147zM399 -14q-51 0 -87 34.5t-36 85.5t36 86t87 35t86 -35t35 -86t-35 -85.5t-86 -34.5z" />
    <glyph glyph-name="at" unicode="@" horiz-adv-x="1841" 
d="M854 -287q-217 0 -389 95.5t-270.5 271t-98.5 401.5q0 79 14.5 160t47 166.5t81 162.5t121.5 145.5t162 119t209 79.5t258 29q223 0 395.5 -94t266.5 -261.5t94 -381.5q0 -50 -9 -104t-27.5 -114t-52 -113t-78 -96t-110 -68t-143.5 -25q-63 0 -108 28.5t-62 80.5
q-23 36 -29 86h-6q-44 -81 -124 -126.5t-179 -45.5q-153 0 -252.5 107t-99.5 282q0 57 13.5 118.5t45.5 124.5t77.5 112t116.5 80.5t156 31.5q94 0 166 -47t111 -130h4l16 164h170l-55 -553q-2 -25 -2 -59q0 -70 22 -94.5t66 -24.5q58 0 106 39.5t76 99.5t43 124t15 120
q0 132 -45.5 246t-126.5 195.5t-198 128.5t-255 47q-152 0 -279.5 -44t-214.5 -117.5t-147.5 -170t-88.5 -200.5t-28 -210q0 -128 44 -244t123.5 -203.5t198 -139.5t259.5 -52q128 0 228 26.5t196 80.5l59 -97q-193 -137 -483 -137zM864 260q66 0 121 28t89 73t52.5 98
t18.5 106q0 106 -62.5 176t-160.5 70q-131 0 -209 -88t-78 -209q0 -110 64.5 -182t164.5 -72z" />
    <glyph glyph-name="A" unicode="A" horiz-adv-x="1384" 
d="M51 0l551 1454h178l553 -1454h-186l-131 354h-649l-129 -354h-187zM424 510h537l-269 729h-4z" />
    <glyph glyph-name="B" unicode="B" horiz-adv-x="1300" 
d="M180 0v1454h475q221 0 345 -87t124 -267q0 -112 -58.5 -202t-172.5 -130v-4q135 -28 219 -123t84 -246q0 -180 -123 -287.5t-362 -107.5h-531zM358 827h299q125 0 205 57.5t80 180.5q0 108 -75 168.5t-230 60.5l-279 -2v-465zM358 162h336q147 0 231.5 62.5t84.5 185.5
q0 125 -87.5 193.5t-254.5 68.5h-310v-510z" />
    <glyph glyph-name="C" unicode="C" horiz-adv-x="1482" 
d="M842 -10q-149 0 -279.5 48.5t-230 139t-157.5 231.5t-58 314q0 155 48.5 290t138 236.5t228 160t308.5 58.5q161 0 307.5 -70t259.5 -208l-133 -111q-177 219 -434 219q-244 0 -390.5 -160.5t-146.5 -414.5q0 -256 152 -410.5t387 -154.5q261 0 434 219l133 -113
q-220 -274 -567 -274z" />
    <glyph glyph-name="D" unicode="D" horiz-adv-x="1486" 
d="M180 0v1454h434q170 0 312 -53.5t239.5 -149.5t151 -231t53.5 -295t-52 -294t-147.5 -229.5t-236.5 -148.5t-313 -53h-441zM358 162h252q262 0 419 157t157 406q0 250 -158 408.5t-412 158.5h-258v-1130z" />
    <glyph glyph-name="E" unicode="E" 
d="M180 0v1454h891v-162h-713v-487h584v-162h-584v-481h756v-162h-934z" />
    <glyph glyph-name="F" unicode="F" horiz-adv-x="1185" 
d="M180 0v1454h928v-162h-750v-512h635v-162h-635v-618h-178z" />
    <glyph glyph-name="G" unicode="G" horiz-adv-x="1554" 
d="M844 -10q-156 0 -290 52t-230.5 146t-151.5 232.5t-55 304.5q0 215 88 383.5t253 264t380 95.5q156 0 299 -55.5t254 -171.5l-125 -111q-174 168 -430 168q-232 0 -382.5 -158t-150.5 -415q0 -250 149.5 -410.5t391.5 -160.5q227 0 387 120v314h-422v162h600v-576
q-102 -87 -250.5 -135.5t-314.5 -48.5z" />
    <glyph glyph-name="H" unicode="H" horiz-adv-x="1476" 
d="M180 0v1454h178v-682h760v682h178v-1454h-178v610h-760v-610h-178z" />
    <glyph glyph-name="I" unicode="I" horiz-adv-x="559" 
d="M190 0v1454h179v-1454h-179z" />
    <glyph glyph-name="J" unicode="J" horiz-adv-x="1009" 
d="M444 -10q-103 0 -208 48t-177 138l103 131q58 -66 129.5 -106.5t144.5 -40.5q238 0 238 317v977h180v-981q0 -239 -100 -361t-310 -122z" />
    <glyph glyph-name="K" unicode="K" horiz-adv-x="1323" 
d="M180 0v1454h178v-797h4l660 797h229l-563 -663l578 -791h-224l-473 651l-211 -248v-403h-178z" />
    <glyph glyph-name="L" unicode="L" horiz-adv-x="1140" 
d="M180 0v1454h178v-1292h719v-162h-897z" />
    <glyph glyph-name="M" unicode="M" horiz-adv-x="1792" 
d="M180 0v1454h180l535 -940h4l535 940h178v-1454h-178v1108h-4l-474 -815h-120l-474 815h-2v-1108h-180z" />
    <glyph glyph-name="N" unicode="N" horiz-adv-x="1538" 
d="M180 0v1454h176l822 -1157h2v1157h178v-1454h-182l-814 1145h-4v-1145h-178z" />
    <glyph glyph-name="O" unicode="O" horiz-adv-x="1689" 
d="M848 -12q-210 0 -376.5 94t-260.5 263t-94 382t94 382.5t261 264t376 94.5q152 0 285.5 -54t230.5 -149.5t153 -235t56 -302.5t-56 -301.5t-153 -234t-230.5 -149.5t-285.5 -54zM848 156q112 0 211 42.5t171 116.5t114 181t42 231t-42 231.5t-114 182t-171 117t-211 42.5
q-236 0 -390.5 -162.5t-154.5 -410.5q0 -246 154.5 -408.5t390.5 -162.5z" />
    <glyph glyph-name="P" unicode="P" horiz-adv-x="1255" 
d="M180 0v1454h508q124 0 218 -33.5t150.5 -95t84.5 -142t28 -179.5q0 -223 -138 -336t-374 -113h-299v-555h-178zM358 717h283q174 0 259 79t85 212q0 138 -83.5 211t-231.5 73h-312v-575z" />
    <glyph glyph-name="Q" unicode="Q" horiz-adv-x="1724" 
d="M1608 96l-103 -127l-194 176q-196 -157 -465 -157q-213 0 -380 97t-258 265t-91 377t91 377.5t258 266t380 97.5q153 0 286.5 -54t231 -149.5t153.5 -235t56 -302.5q0 -271 -150 -467zM303 727q0 -245 154.5 -408t388.5 -163q192 0 332 112l-168 154l100 119l176 -156
q100 146 100 342q0 248 -153 410.5t-387 162.5t-388.5 -163.5t-154.5 -409.5z" />
    <glyph glyph-name="R" unicode="R" horiz-adv-x="1314" 
d="M180 0v1454h516q123 0 216.5 -33.5t151 -95t86 -142t28.5 -179.5q0 -180 -94 -288.5t-269 -144.5l402 -571h-213l-386 555h-260v-555h-178zM358 717h289q174 0 260 79t86 212q0 138 -84.5 211t-236.5 73h-314v-575z" />
    <glyph glyph-name="S" unicode="S" horiz-adv-x="1187" 
d="M600 -12q-142 0 -275.5 56t-238.5 169l115 137q75 -95 183 -145.5t218 -50.5q136 0 217.5 59.5t81.5 163.5q0 56 -17 95.5t-70 73.5t-86 48.5t-128 50.5q-16 7 -25 10q-56 21 -92.5 36t-86.5 39t-82.5 46.5t-68.5 55.5t-56.5 68.5t-34 82.5t-13.5 100q0 163 128.5 274
t316.5 111q248 0 458 -170l-108 -141q-180 148 -350 148q-108 0 -183.5 -56.5t-76.5 -156.5q-1 -41 15.5 -74.5t39 -56.5t70 -48.5t82.5 -40t104 -41.5q179 -71 234 -100q140 -73 187 -180q29 -66 29 -154q0 -97 -40 -176t-108.5 -129t-155.5 -77t-183 -27z" />
    <glyph glyph-name="T" unicode="T" horiz-adv-x="1173" 
d="M496 0v1292h-435v162h1053v-162h-440v-1292h-178z" />
    <glyph glyph-name="U" unicode="U" horiz-adv-x="1445" 
d="M723 -12q-255 0 -409 160.5t-154 443.5v862h178v-850q0 -202 104.5 -325t280.5 -123q172 0 279.5 120.5t107.5 327.5v850h178v-862q0 -279 -152.5 -441.5t-412.5 -162.5z" />
    <glyph glyph-name="V" unicode="V" horiz-adv-x="1372" 
d="M610 0l-549 1454h193l436 -1196h2l436 1196h191l-549 -1454h-160z" />
    <glyph glyph-name="W" unicode="W" horiz-adv-x="2088" 
d="M530 0l-462 1454h190l358 -1165h5l327 1165h195l325 -1163h5l360 1163h188l-465 -1454h-172l-335 1194h-5l-342 -1194h-172z" />
    <glyph glyph-name="X" unicode="X" horiz-adv-x="1357" 
d="M68 0l493 727l-487 727h207l399 -588h2l397 588h207l-489 -727l495 -727h-211l-401 586h-4l-402 -586h-206z" />
    <glyph glyph-name="Y" unicode="Y" horiz-adv-x="1230" 
d="M524 0v649l-493 805h205l376 -625h4l375 625h209l-498 -805v-649h-178z" />
    <glyph glyph-name="Z" unicode="Z" horiz-adv-x="1255" 
d="M117 0v141l774 1149l-2 2h-733v162h968v-141l-780 -1147l2 -4h787v-162h-1016z" />
    <glyph glyph-name="bracketleft" unicode="[" horiz-adv-x="628" 
d="M137 -297v1790h400v-129h-252v-1530h252v-131h-400z" />
    <glyph glyph-name="backslash" unicode="\" horiz-adv-x="851" 
d="M768 -231l-786 1744l131 64l788 -1747z" />
    <glyph glyph-name="bracketright" unicode="]" horiz-adv-x="628" 
d="M492 -297h-400v131h252v1530h-252v129h400v-1790z" />
    <glyph glyph-name="asciicircum" unicode="^" horiz-adv-x="950" 
d="M121 1024l289 430h131l288 -430h-151l-205 313l-205 -313h-147z" />
    <glyph glyph-name="underscore" unicode="_" horiz-adv-x="1071" 
d="M-8 -174v119h1087v-119h-1087z" />
    <glyph glyph-name="grave" unicode="`" horiz-adv-x="1034" 
d="M524 1110l-248 283l189 -2l227 -281h-168z" />
    <glyph glyph-name="a" unicode="a" horiz-adv-x="1236" 
d="M575 -12q-209 0 -347 140t-138 364q0 223 137 370.5t348 147.5q111 0 203 -50.5t146 -140.5l4 2v176h166v-997h-160v180h-2q-55 -91 -146.5 -141.5t-210.5 -50.5zM600 139q141 0 237.5 99t96.5 254q0 156 -94 261t-240 105q-144 0 -243 -102t-99 -264q0 -153 95 -253
t247 -100z" />
    <glyph glyph-name="b" unicode="b" horiz-adv-x="1257" 
d="M678 -12q-120 0 -212 50.5t-149 141.5h-4v-180h-157v1507h166v-684h2q57 90 148.5 138.5t205.5 48.5q211 0 348 -147.5t137 -370.5q0 -224 -138 -364t-347 -140zM655 139q149 0 244.5 100.5t95.5 252.5q0 162 -99 264t-243 102q-150 0 -245 -105t-95 -261t98.5 -254.5
t243.5 -98.5z" />
    <glyph glyph-name="c" unicode="c" horiz-adv-x="1067" 
d="M590 -12q-219 0 -358.5 142t-139.5 368t140.5 369t363.5 143q115 0 222 -46.5t179 -132.5l-112 -100q-49 58 -122 92.5t-159 34.5q-153 0 -247.5 -100.5t-94.5 -259.5q0 -160 94 -259.5t246 -99.5q88 0 163 34.5t122 92.5l114 -104q-146 -174 -411 -174z" />
    <glyph glyph-name="d" unicode="d" horiz-adv-x="1255" 
d="M580 -12q-210 0 -350 140t-140 364q0 222 139 370t349 148q114 0 206.5 -50t149.5 -141h2v688h166v-1507h-160v184h-2q-55 -93 -148 -144.5t-212 -51.5zM602 139q144 0 242 98.5t98 254.5t-94.5 261t-243.5 105q-146 0 -245 -102t-99 -264q0 -152 95.5 -252.5
t246.5 -100.5z" />
    <glyph glyph-name="e" unicode="e" horiz-adv-x="1130" 
d="M1042 516q0 -15 -2 -39t-2 -28h-778q17 -141 109.5 -225.5t232.5 -84.5q182 0 289 133l117 -98q-144 -186 -412 -186q-222 0 -363 141t-141 369q0 225 138.5 368.5t353.5 143.5q203 0 330.5 -139.5t127.5 -354.5zM582 858q-121 0 -208 -74t-110 -200h613
q-19 125 -96.5 199.5t-198.5 74.5z" />
    <glyph glyph-name="f" unicode="f" horiz-adv-x="679" 
d="M197 0v854h-121v143h121v203q0 158 72.5 240t207.5 82q128 0 232 -66l-37 -141q-101 53 -174 53q-136 0 -136 -184v-187h283v-143h-283v-854h-165z" />
    <glyph glyph-name="g" unicode="g" horiz-adv-x="1228" 
d="M596 -418q-226 0 -406 109l41 147q93 -53 175 -78.5t184 -25.5q162 0 248 83.5t86 215.5v160h-4q-57 -82 -146 -128.5t-201 -46.5q-207 0 -345 137.5t-138 356.5q0 215 134 356.5t343 141.5q106 0 198.5 -45t152.5 -127h4v159h165v-923q0 -227 -120.5 -359.5
t-370.5 -132.5zM594 172q149 0 241.5 98.5t92.5 249.5q0 149 -95 242.5t-237 93.5q-151 0 -244.5 -96t-93.5 -244q0 -155 96 -249.5t240 -94.5z" />
    <glyph glyph-name="h" unicode="h" horiz-adv-x="1189" 
d="M156 0v1507h166v-684h2q59 90 154 138.5t214 48.5q168 0 265.5 -103t97.5 -309v-598h-166v551q0 307 -246 307q-150 0 -235.5 -94t-85.5 -262v-502h-166z" />
    <glyph glyph-name="i" unicode="i" horiz-adv-x="501" 
d="M252 1180q-51 0 -86 34t-35 84t35 84.5t86 34.5t86 -34.5t35 -84.5t-35 -84t-86 -34zM168 0v997h166v-997h-166z" />
    <glyph glyph-name="j" unicode="j" horiz-adv-x="458" 
d="M233 1180q-51 0 -85.5 34t-34.5 84t34.5 84.5t85.5 34.5t86 -34.5t35 -84.5t-35 -84t-86 -34zM66 -418q-95 0 -172 33l26 147q49 -30 113 -30q119 0 119 164v1101h165v-1101q0 -147 -66.5 -230.5t-184.5 -83.5z" />
    <glyph glyph-name="k" unicode="k" horiz-adv-x="1058" 
d="M156 0v1507h166v-1054l2 -2l489 546h201l-373 -411l377 -586h-191l-301 469l-204 -221v-248h-166z" />
    <glyph glyph-name="l" unicode="l" horiz-adv-x="501" 
d="M168 0v1507h166v-1507h-166z" />
    <glyph glyph-name="m" unicode="m" horiz-adv-x="1812" 
d="M156 0v997h166v-180h2q57 91 145 142t188 51q112 0 192 -55t118 -158h2q57 101 153 157t213 56q166 0 255 -112t89 -325v-573h-166v528q0 161 -57 245.5t-170 84.5q-120 0 -200 -99t-80 -263v-496h-166v528q0 160 -60 245t-172 85q-125 0 -205.5 -98.5t-80.5 -263.5v-496
h-166z" />
    <glyph glyph-name="n" unicode="n" horiz-adv-x="1179" 
d="M156 0v997h166v-180h2q59 92 153 142.5t209 50.5q167 0 262.5 -105t95.5 -313v-592h-165v545q0 313 -246 313q-142 0 -226.5 -96.5t-84.5 -263.5v-498h-166z" />
    <glyph glyph-name="o" unicode="o" 
d="M608 -12q-151 0 -269.5 67.5t-182.5 183.5t-64 259q0 219 144 365.5t372 146.5q223 0 368.5 -143t145.5 -369q0 -225 -145.5 -367.5t-368.5 -142.5zM608 139q145 0 244.5 101t99.5 258q0 158 -98.5 259t-245.5 101q-154 0 -250 -103.5t-96 -256.5q0 -152 96.5 -255.5
t249.5 -103.5z" />
    <glyph glyph-name="p" unicode="p" horiz-adv-x="1257" 
d="M156 -406v1403h166v-176h2q57 90 149 139.5t205 49.5q211 0 348 -147.5t137 -370.5q0 -224 -138 -364t-347 -140q-117 0 -207 48t-147 136h-2v-578h-166zM655 139q149 0 244.5 100.5t95.5 252.5q0 162 -99 264t-243 102q-150 0 -245 -105t-95 -261t98.5 -254.5
t243.5 -98.5z" />
    <glyph glyph-name="q" unicode="q" horiz-adv-x="1251" 
d="M938 -406v578h-2q-56 -88 -147.5 -136t-208.5 -48q-209 0 -347.5 140t-138.5 364q0 222 137.5 370t348.5 148q114 0 206.5 -50t149.5 -141h2v178h166v-1403h-166zM604 139q142 0 240 99t98 254q0 156 -94.5 261t-243.5 105q-145 0 -243.5 -101.5t-98.5 -264.5
q0 -153 95 -253t247 -100z" />
    <glyph glyph-name="r" unicode="r" horiz-adv-x="722" 
d="M156 0v997h166v-182h4q55 92 138.5 143.5t184.5 51.5q27 0 41 -2v-185q-50 4 -65 4q-140 0 -221.5 -96t-81.5 -250v-481h-166z" />
    <glyph glyph-name="s" unicode="s" horiz-adv-x="894" 
d="M457 -12q-228 0 -389 141l84 127q62 -60 133.5 -90.5t171.5 -30.5q88 0 139 38t51 97q0 24 -10 43t-24 32.5t-44 28t-53.5 23.5t-69.5 26q-8 3 -12.5 4.5t-11 4t-12.5 4.5q-71 25 -117 47t-91.5 57.5t-68 85t-22.5 115.5q0 116 93 192.5t234 76.5q192 0 344 -123
l-86 -131q-114 106 -264 106q-62 0 -107.5 -33t-45.5 -88q0 -54 46.5 -87.5t141.5 -67.5q16 -6 47 -18q40 -15 59.5 -23t52.5 -22t49 -23.5t40.5 -24.5t36 -28.5t26.5 -33t21.5 -40t11 -46t4.5 -55.5q0 -123 -92.5 -203.5t-265.5 -80.5z" />
    <glyph glyph-name="t" unicode="t" horiz-adv-x="739" 
d="M436 -12q-258 0 -258 309v557h-129v143h129v340l166 19v-359h330v-143h-330v-532q0 -94 26.5 -136.5t94.5 -42.5q76 0 170 52l43 -146q-102 -61 -242 -61z" />
    <glyph glyph-name="u" unicode="u" horiz-adv-x="1150" 
d="M508 -12q-177 0 -276 103.5t-99 311.5v594h166v-546q0 -165 61 -238.5t183 -73.5q125 0 211 101.5t86 273.5v483h166v-997h-166v172h-2q-56 -88 -143.5 -136t-186.5 -48z" />
    <glyph glyph-name="v" unicode="v" horiz-adv-x="1064" 
d="M453 0l-406 997h180l305 -786h3l305 786h178l-406 -997h-159z" />
    <glyph glyph-name="w" unicode="w" horiz-adv-x="1564" 
d="M399 0l-344 997h170l252 -749h4l230 749h143l233 -749h5l249 749h170l-344 -997h-155l-230 731h-2l-229 -731h-152z" />
    <glyph glyph-name="x" unicode="x" horiz-adv-x="1036" 
d="M59 0l363 506l-363 491h197l258 -364h4l262 364h195l-361 -493l365 -504h-188l-271 362h-2l-272 -362h-187z" />
    <glyph glyph-name="y" unicode="y" horiz-adv-x="1075" 
d="M291 -406l178 445l-424 958h180l324 -757h4l301 757h174l-565 -1403h-172z" />
    <glyph glyph-name="z" unicode="z" horiz-adv-x="964" 
d="M74 0v121l579 727l-2 6h-547v143h777v-118l-582 -734l2 -2h580v-143h-807z" />
    <glyph glyph-name="braceleft" unicode="{" horiz-adv-x="681" 
d="M475 -295q-93 0 -156 62t-63 165v439q0 36 -3.5 56.5t-18 45t-50 37t-92.5 14.5v131q46 3 78 14.5t49 25t25.5 36t10 39t1.5 43.5v453q0 97 59.5 162t159.5 65h109v-117h-52q-64 0 -98.5 -41t-34.5 -98v-440q0 -90 -25.5 -137.5t-90.5 -65.5v-4q68 -19 92 -61t24 -144
v-401q0 -85 30.5 -123.5t102.5 -38.5h52v-117h-109z" />
    <glyph glyph-name="bar" unicode="|" horiz-adv-x="593" 
d="M223 -236v1745h146v-1745h-146z" />
    <glyph glyph-name="braceright" unicode="}" horiz-adv-x="681" 
d="M207 -295h-109v117h52q72 0 102.5 38.5t30.5 123.5v401q0 102 24 144t92 61v4q-65 18 -90.5 65.5t-25.5 137.5v440q0 57 -34.5 98t-98.5 41h-52v117h109q100 0 159.5 -65t59.5 -162v-453q0 -27 1.5 -43.5t10 -39t25.5 -36t49 -25t78 -14.5v-131q-57 -2 -92.5 -14.5
t-50 -37t-18 -45t-3.5 -56.5v-439q0 -103 -63 -165t-156 -62z" />
    <glyph glyph-name="asciitilde" unicode="~" horiz-adv-x="1142" 
d="M772 432q-18 0 -35 2t-35.5 6.5t-31 8t-33 12t-29 12t-31 14t-28.5 13.5q-85 45 -152 45q-102 0 -157 -107l-119 47q37 101 102 159t154 58q93 0 209 -57q36 -19 55.5 -27.5t51.5 -18t59 -9.5q46 0 86.5 28t64.5 78l119 -41q-36 -102 -102.5 -162.5t-147.5 -60.5z" />
    <glyph glyph-name="uni00A0" unicode="&#xa0;" horiz-adv-x="557" 
 />
    <glyph glyph-name="exclamdown" unicode="&#xa1;" horiz-adv-x="495" 
d="M248 1010q51 0 86 -35t35 -86t-35 -86t-86 -35t-87 35t-36 86t36 86t87 35zM186 567h129l31 -1079h-190z" />
    <glyph glyph-name="cent" unicode="&#xa2;" horiz-adv-x="1107" 
d="M1034 266q-60 -64 -151 -108t-201 -56v-211h-125v209q-204 19 -330.5 158t-126.5 350q0 210 126 349t331 159v217h125v-217q102 -9 193.5 -54t154.5 -120l-115 -98q-115 125 -290 125q-157 0 -256 -100.5t-99 -258.5q0 -159 98.5 -259.5t256.5 -100.5q88 0 166 33t129 88
z" />
    <glyph glyph-name="sterling" unicode="&#xa3;" horiz-adv-x="1146" 
d="M92 0v162h162v522h-129v127h129v139q0 122 32.5 214t90 146t128.5 80.5t154 26.5q118 0 217 -52t164 -146l-94 -121q-49 74 -118 113.5t-148 39.5q-115 0 -182.5 -76.5t-67.5 -242.5v-121h344v-127h-342v-522h662v-162h-1002z" />
    <glyph glyph-name="currency" unicode="&#xa4;" horiz-adv-x="1028" 
d="M887 791q0 -125 -74 -224l158 -157l-80 -82l-160 159q-96 -71 -223 -71q-126 0 -221 73l-160 -159l-80 82l160 159q-72 98 -72 220q0 123 72 221l-160 162l80 79l160 -159q102 73 223 73q122 0 221 -73l160 161l82 -81l-160 -160q74 -104 74 -223zM510 541
q104 0 178 74.5t74 177.5q0 104 -74 179t-178 75q-103 -1 -177.5 -76t-74.5 -176q0 -104 74.5 -179t177.5 -75z" />
    <glyph glyph-name="yen" unicode="&#xa5;" horiz-adv-x="1142" 
d="M1122 1407l-389 -680h264v-123h-333l-2 -4v-143h335v-121h-335v-336h-179v336h-350v121h350v143l-2 4h-348v123h279l-389 680h206l342 -629h4l340 629h207z" />
    <glyph glyph-name="brokenbar" unicode="&#xa6;" horiz-adv-x="593" 
d="M223 788v721h146v-721h-146zM223 -233v722h146v-722h-146z" />
    <glyph glyph-name="section" unicode="&#xa7;" horiz-adv-x="1095" 
d="M815 264q135 -85 135 -244q0 -149 -108.5 -241t-290.5 -92q-260 0 -436 188l102 123q67 -76 156 -115t174 -39q94 0 157.5 46.5t63.5 127.5q0 28 -7 50.5t-25 41.5t-35 32t-52.5 29.5t-59.5 26t-73 27.5q-58 21 -91.5 34.5t-82 35t-77 39.5t-61.5 45t-50 54t-29 63
t-12 77q0 93 45.5 163t130.5 108q-127 89 -127 237q0 140 102.5 232t270.5 92q100 0 208 -40t187 -105l-101 -121q-140 106 -286 106q-85 0 -143 -43.5t-58 -116.5q0 -27 7 -49.5t25 -41t34.5 -32t50 -29t56 -24.5t67.5 -26q178 -70 224 -94q119 -61 157 -146
q22 -51 22 -119q0 -83 -45 -150.5t-125 -109.5zM283 602q0 -76 63 -121t219 -104q2 -1 101 -39q70 17 109.5 61.5t39.5 106.5q0 22 -3.5 40t-15 34.5t-20 28t-32.5 26t-38 22.5t-50 23t-55 22t-66 25l-95 37q-72 -12 -114.5 -56t-42.5 -106z" />
    <glyph glyph-name="dieresis" unicode="&#xa8;" horiz-adv-x="1042" 
d="M336 1149q-51 0 -85 34.5t-34 84.5q0 48 34 81t85 33q49 0 84 -34.5t35 -81.5q0 -48 -35 -82.5t-84 -34.5zM707 1149q-49 0 -84 34.5t-35 84.5q0 47 35 80.5t84 33.5t83.5 -34t34.5 -82t-34.5 -82.5t-83.5 -34.5z" />
    <glyph glyph-name="copyright" unicode="&#xa9;" horiz-adv-x="1429" 
d="M715 25q-171 0 -314.5 85t-226 229t-82.5 312t82.5 312t227 229.5t315.5 85.5q129 0 244.5 -50t197.5 -135t130 -200.5t48 -241.5q0 -125 -48.5 -240t-131 -200t-198.5 -135.5t-244 -50.5zM715 141q139 0 255 69.5t182.5 187t66.5 253.5q0 138 -66 255t-181.5 186
t-254.5 69q-141 0 -257.5 -69.5t-182.5 -187t-66 -255.5q0 -137 66 -253.5t182 -185.5t256 -69zM729 313q-143 0 -237.5 88.5t-94.5 245.5q0 144 88 240t244 96q158 0 262 -127l-80 -68q-34 43 -82 68t-100 25q-101 0 -161 -64.5t-60 -169.5q0 -106 61.5 -167.5t159.5 -61.5
q114 0 182 88l80 -68q-102 -125 -262 -125z" />
    <glyph glyph-name="ordfeminine" unicode="&#xaa;" horiz-adv-x="854" 
d="M379 799q-131 0 -214 85.5t-83 221.5q0 134 81 221.5t210 87.5q137 0 225 -108h2v100h121v-598h-121v90h-4q-78 -100 -217 -100zM406 915q82 0 137 52.5t55 138.5q0 83 -54 138.5t-138 55.5t-141.5 -54.5t-57.5 -139.5q0 -82 56 -136.5t143 -54.5z" />
    <glyph glyph-name="guillemotleft" unicode="&#xab;" horiz-adv-x="964" 
d="M502 53h-166l-254 449l256 452h164l-254 -452zM864 53h-166l-256 449l258 452h166l-258 -452z" />
    <glyph glyph-name="logicalnot" unicode="&#xac;" horiz-adv-x="1144" 
d="M879 336v323h-764v150h913v-473h-149z" />
    <glyph glyph-name="registered" unicode="&#xae;" horiz-adv-x="1429" 
d="M717 1278q129 0 244.5 -50t197.5 -135t130 -200.5t48 -241.5q0 -125 -48.5 -240t-131 -200t-198.5 -135.5t-244 -50.5q-171 0 -314.5 85t-226 229t-82.5 312t82.5 312t227 229.5t315.5 85.5zM715 141q139 0 255 69.5t182.5 187t66.5 253.5q0 138 -66 255t-181.5 186
t-254.5 69q-141 0 -257.5 -69.5t-182.5 -187t-66 -255.5q0 -137 66 -253.5t182 -185.5t256 -69zM961 778q0 -157 -146 -198l176 -256h-125l-166 245h-96v-245h-104v663h239q111 0 166.5 -57.5t55.5 -151.5zM604 889v-223h111q70 0 103.5 31.5t33.5 82.5q0 50 -34 79.5
t-95 29.5h-119z" />
    <glyph glyph-name="macron" unicode="&#xaf;" horiz-adv-x="935" 
d="M174 1188v141h590v-141h-590z" />
    <glyph glyph-name="degree" unicode="&#xb0;" horiz-adv-x="798" 
d="M399 911q-117 0 -200.5 81.5t-83.5 195.5t85 197t199 83t198.5 -83t84.5 -199q0 -112 -83.5 -193.5t-199.5 -81.5zM399 1026q68 0 117 47.5t49 114.5t-50.5 116.5t-115.5 49.5q-66 0 -116 -49.5t-50 -116.5t48.5 -114.5t117.5 -47.5z" />
    <glyph glyph-name="plusminus" unicode="&#xb1;" horiz-adv-x="1200" 
d="M522 328v401h-403v154h403v403h154v-403h403v-154h-403v-401h-154zM119 0v154h960v-154h-960z" />
    <glyph glyph-name="uni00B2" unicode="&#xb2;" horiz-adv-x="690" 
d="M51 893l-2 96l295 281q68 64 98.5 110t30.5 97q0 59 -40 98t-103 39q-49 0 -97 -26.5t-77 -78.5l-107 78q40 70 117 115t172 45q115 0 197.5 -70.5t82.5 -183.5q0 -77 -34 -141.5t-121 -141.5l-201 -184l2 -4h365v-129h-578z" />
    <glyph glyph-name="uni00B3" unicode="&#xb3;" horiz-adv-x="702" 
d="M352 881q-115 0 -198 50t-117 130l127 55q44 -108 178 -108q74 0 117 35.5t43 99.5q0 56 -46.5 92.5t-127.5 36.5h-70v108h84q66 0 105.5 33t39.5 82q0 58 -40 91.5t-109 33.5q-105 0 -152 -84l-116 66q34 65 104.5 105t165.5 40q121 0 202 -60.5t81 -164.5
q0 -136 -121 -191v-4q70 -26 107.5 -79.5t37.5 -127.5q0 -107 -81.5 -173t-213.5 -66z" />
    <glyph glyph-name="acute" unicode="&#xb4;" horiz-adv-x="1034" 
d="M336 1108l242 289l186 2l-254 -291h-174z" />
    <glyph glyph-name="uni00B5" unicode="&#xb5;" horiz-adv-x="1165" 
d="M147 -406v1403h166v-528q0 -166 66 -248t188 -82q124 0 205.5 98.5t81.5 262.5v497h166v-997h-152l-10 172h-4q-56 -88 -138.5 -136t-178.5 -48q-156 0 -228 110l-4 -2q8 -144 8 -221v-281h-166z" />
    <glyph glyph-name="paragraph" unicode="&#xb6;" horiz-adv-x="958" 
d="M664 -307v1528h-127v-1221h-111v719q-150 6 -242 86t-92 219q0 145 94.5 229t259.5 84h326v-1644h-108z" />
    <glyph glyph-name="periodcentered" unicode="&#xb7;" horiz-adv-x="475" 
d="M240 377q-51 0 -87 35t-36 86t36 85.5t87 34.5t85.5 -34.5t34.5 -85.5t-34.5 -86t-85.5 -35z" />
    <glyph glyph-name="cedilla" unicode="&#xb8;" horiz-adv-x="788" 
d="M342 -385q-53 0 -115 12v90q44 -14 99 -14q47 0 80.5 19.5t33.5 56.5q0 36 -44 61t-126 25l2 61l39 86h105l-35 -75v-5q83 -3 131.5 -45t48.5 -116q0 -69 -55 -112.5t-164 -43.5z" />
    <glyph glyph-name="uni00B9" unicode="&#xb9;" horiz-adv-x="532" 
d="M266 893v666l-162 -111l-69 108l262 181h111v-844h-142z" />
    <glyph glyph-name="ordmasculine" unicode="&#xba;" horiz-adv-x="813" 
d="M399 799q-140 0 -228.5 87.5t-88.5 221.5q0 132 88.5 219.5t228.5 87.5q137 0 227.5 -86t90.5 -221q0 -136 -90.5 -222.5t-227.5 -86.5zM399 913q79 0 133 55t54 140q0 84 -53.5 139.5t-133.5 55.5q-83 0 -134.5 -56t-51.5 -139t51.5 -139t134.5 -56z" />
    <glyph glyph-name="guillemotright" unicode="&#xbb;" horiz-adv-x="964" 
d="M100 53l256 449l-258 452h166l258 -452l-256 -449h-166zM463 53l254 449l-254 452h164l256 -452l-254 -449h-166z" />
    <glyph glyph-name="onequarter" unicode="&#xbc;" horiz-adv-x="1572" 
d="M514 -35l-137 58l637 1456l135 -58zM266 612v666l-162 -111l-69 109l262 180h111v-844h-142zM1262 0v139h-388v92l416 613h111v-580h125v-125h-125v-139h-139zM1032 256h238v354z" />
    <glyph glyph-name="onehalf" unicode="&#xbd;" horiz-adv-x="1636" 
d="M514 -35l-137 58l637 1456l135 -58zM266 612v666l-162 -111l-69 109l262 180h111v-844h-142zM997 0l-2 96l295 281q68 64 98.5 110t30.5 97q0 59 -40 98t-103 39q-49 0 -97 -26.5t-77 -78.5l-107 78q40 70 117 115t172 45q115 0 198 -70.5t83 -183.5q0 -77 -34.5 -141
t-121.5 -142l-201 -184l2 -4h365v-129h-578z" />
    <glyph glyph-name="threequarters" unicode="&#xbe;" horiz-adv-x="1705" 
d="M647 -35l-137 58l637 1456l135 -58zM352 600q-115 0 -198 50t-117 130l127 56q44 -109 178 -109q74 0 117 35.5t43 99.5q0 56 -46.5 92.5t-127.5 36.5h-70v109h84q66 0 105.5 32.5t39.5 81.5q0 58 -40 91.5t-109 33.5q-105 0 -152 -84l-116 66q34 65 104.5 105t165.5 40
q121 0 202 -60.5t81 -164.5q0 -135 -121 -190v-4q70 -26 107.5 -79.5t37.5 -127.5q0 -107 -81.5 -173.5t-213.5 -66.5zM1395 0v139h-387v92l415 613h111v-580h125v-125h-125v-139h-139zM1165 256h238v354z" />
    <glyph glyph-name="questiondown" unicode="&#xbf;" horiz-adv-x="862" 
d="M516 1010q51 0 87 -35t36 -86t-36 -86t-87 -35t-86 35t-35 86t35 86t86 35zM594 571v-110q0 -23 -4.5 -46.5t-10 -41.5t-19.5 -41t-23 -36.5t-29.5 -37.5t-30 -34t-34.5 -37t-33 -35q-46 -51 -72.5 -86t-50 -90t-23.5 -111q0 -104 65.5 -164.5t164.5 -60.5
q74 0 143.5 37.5t112.5 103.5l124 -117q-69 -91 -171 -140.5t-222 -49.5q-171 0 -287 104t-116 279q0 111 49 196.5t135 171.5q11 11 50.5 49t52.5 52.5t36.5 43.5t31.5 52t9 47l4 102h148z" />
    <glyph glyph-name="Agrave" unicode="&#xc0;" horiz-adv-x="1384" 
d="M623 1602l-250 264h188l230 -264h-168zM51 0l551 1454h178l553 -1454h-186l-131 354h-649l-129 -354h-187zM424 510h537l-269 729h-4z" />
    <glyph glyph-name="Aacute" unicode="&#xc1;" horiz-adv-x="1384" 
d="M606 1602l230 264h190l-250 -264h-170zM51 0l551 1454h178l553 -1454h-186l-131 354h-649l-129 -354h-187zM424 510h537l-269 729h-4z" />
    <glyph glyph-name="Acircumflex" unicode="&#xc2;" horiz-adv-x="1384" 
d="M369 1602l237 253h174l232 -253h-166l-152 159h-4l-151 -159h-170zM51 0l551 1454h178l553 -1454h-186l-131 354h-649l-129 -354h-187zM424 510h537l-269 729h-4z" />
    <glyph glyph-name="Atilde" unicode="&#xc3;" horiz-adv-x="1384" 
d="M852 1602q-73 0 -174 67q-83 51 -129 51q-73 0 -119 -112l-106 45q31 90 84.5 141t128.5 51q34 0 68.5 -10.5t54.5 -21t51 -29.5q8 -5 25.5 -16t27 -16.5t24 -12.5t28 -10t26.5 -3q69 0 110 113l107 -35q-30 -101 -83.5 -151.5t-123.5 -50.5zM51 0l551 1454h178
l553 -1454h-186l-131 354h-649l-129 -354h-187zM424 510h537l-269 729h-4z" />
    <glyph glyph-name="Adieresis" unicode="&#xc4;" horiz-adv-x="1384" 
d="M508 1624q-51 0 -85 34.5t-34 84.5q0 48 34 81.5t85 33.5q49 0 84 -34.5t35 -82.5t-35 -82.5t-84 -34.5zM879 1624q-49 0 -84 35t-35 84q0 47 35 81t84 34t83.5 -34.5t34.5 -82.5t-34.5 -82.5t-83.5 -34.5zM51 0l551 1454h178l553 -1454h-186l-131 354h-649l-129 -354
h-187zM424 510h537l-269 729h-4z" />
    <glyph glyph-name="Aring" unicode="&#xc5;" horiz-adv-x="1384" 
d="M690 1556q-78 0 -136 57t-58 136t56 136t138 57q83 0 141 -55.5t58 -137.5q0 -78 -57 -135.5t-142 -57.5zM690 1665q38 0 64 25t26 61t-26 61t-64 25q-35 0 -60.5 -25.5t-25.5 -60.5q0 -36 25 -61t61 -25zM51 0l551 1454h178l553 -1454h-186l-131 354h-649l-129 -354
h-187zM424 510h537l-269 729h-4z" />
    <glyph glyph-name="AE" unicode="&#xc6;" horiz-adv-x="1900" 
d="M18 0l766 1454h996v-162h-715v-487h594v-162h-594v-481h756v-162h-932v354h-498l-188 -354h-185zM469 510h420v786h-4z" />
    <glyph glyph-name="Ccedilla" unicode="&#xc7;" horiz-adv-x="1482" 
d="M844 -10l-25 -53v-5q83 -3 131.5 -45t48.5 -116q0 -69 -55 -112.5t-164 -43.5q-52 0 -114 12v90q44 -14 98 -14q47 0 81 19.5t34 56.5q0 36 -44 61t-126 25l2 61l30 70q-132 15 -244.5 70t-197.5 145t-133.5 221.5t-48.5 290.5q0 155 48.5 290t138 236.5t228 160
t308.5 58.5q161 0 307.5 -70t259.5 -208l-133 -111q-177 219 -434 219q-244 0 -390.5 -160.5t-146.5 -414.5q0 -256 152 -410.5t387 -154.5q261 0 434 219l133 -113q-220 -274 -565 -274z" />
    <glyph glyph-name="Egrave" unicode="&#xc8;" 
d="M657 1602l-249 264h188l229 -264h-168zM180 0v1454h891v-162h-713v-487h584v-162h-584v-481h756v-162h-934z" />
    <glyph glyph-name="Eacute" unicode="&#xc9;" 
d="M446 1602l230 264h190l-250 -264h-170zM180 0v1454h891v-162h-713v-487h584v-162h-584v-481h756v-162h-934z" />
    <glyph glyph-name="Ecircumflex" unicode="&#xca;" 
d="M307 1602l238 253h174l231 -253h-166l-151 159h-4l-152 -159h-170zM180 0v1454h891v-162h-713v-487h584v-162h-584v-481h756v-162h-934z" />
    <glyph glyph-name="Edieresis" unicode="&#xcb;" 
d="M446 1624q-51 0 -84.5 34.5t-33.5 84.5q0 48 34 81.5t84 33.5q49 0 84 -34.5t35 -82.5t-35 -82.5t-84 -34.5zM817 1624q-49 0 -84 35t-35 84q0 47 35 81t84 34t84 -34.5t35 -82.5t-35 -82.5t-84 -34.5zM180 0v1454h891v-162h-713v-487h584v-162h-584v-481h756v-162h-934z
" />
    <glyph glyph-name="Igrave" unicode="&#xcc;" horiz-adv-x="559" 
d="M199 1602l-250 264h188l230 -264h-168zM190 0v1454h179v-1454h-179z" />
    <glyph glyph-name="Iacute" unicode="&#xcd;" horiz-adv-x="559" 
d="M195 1602l229 264h190l-249 -264h-170zM190 0v1454h179v-1454h-179z" />
    <glyph glyph-name="Icircumflex" unicode="&#xce;" horiz-adv-x="559" 
d="M-45 1602l238 253h174l231 -253h-166l-151 159h-5l-151 -159h-170zM190 0v1454h179v-1454h-179z" />
    <glyph glyph-name="Idieresis" unicode="&#xcf;" horiz-adv-x="559" 
d="M94 1624q-51 0 -85 34.5t-34 84.5q0 48 34 81.5t85 33.5q49 0 84 -34.5t35 -82.5t-35 -82.5t-84 -34.5zM465 1624q-49 0 -84 35t-35 84q0 47 35 81t84 34t84 -34.5t35 -82.5t-35 -82.5t-84 -34.5zM190 0v1454h179v-1454h-179z" />
    <glyph glyph-name="Eth" unicode="&#xd0;" horiz-adv-x="1486" 
d="M614 1454q170 0 312 -53.5t239.5 -149.5t151 -231t53.5 -295t-52 -294t-147.5 -229.5t-236.5 -148.5t-313 -53h-441v647h-139v158h139v649h434zM610 162q262 0 419 157t157 406q0 250 -158 408.5t-412 158.5h-258v-487h390v-158h-390v-485h252z" />
    <glyph glyph-name="Ntilde" unicode="&#xd1;" horiz-adv-x="1538" 
d="M928 1602q-73 0 -174 67q-83 51 -129 51q-73 0 -119 -112l-107 45q31 90 84.5 141t128.5 51q34 0 68.5 -10.5t54.5 -21t51 -29.5q7 -4 25.5 -16t27.5 -17t24 -12t28.5 -10t26.5 -3q69 0 110 113l107 -35q-30 -101 -83.5 -151.5t-123.5 -50.5zM180 0v1454h176l822 -1157h2
v1157h178v-1454h-182l-814 1145h-4v-1145h-178z" />
    <glyph glyph-name="Ograve" unicode="&#xd2;" horiz-adv-x="1689" 
d="M786 1602l-249 264h188l229 -264h-168zM848 -12q-210 0 -376.5 94t-260.5 263t-94 382t94 382.5t261 264t376 94.5q152 0 285.5 -54t230.5 -149.5t153 -235t56 -302.5t-56 -301.5t-153 -234t-230.5 -149.5t-285.5 -54zM848 156q112 0 211 42.5t171 116.5t114 181t42 231
t-42 231.5t-114 182t-171 117t-211 42.5q-236 0 -390.5 -162.5t-154.5 -410.5q0 -246 154.5 -408.5t390.5 -162.5z" />
    <glyph glyph-name="Oacute" unicode="&#xd3;" horiz-adv-x="1689" 
d="M741 1602l230 264h190l-250 -264h-170zM848 -12q-210 0 -376.5 94t-260.5 263t-94 382t94 382.5t261 264t376 94.5q152 0 285.5 -54t230.5 -149.5t153 -235t56 -302.5t-56 -301.5t-153 -234t-230.5 -149.5t-285.5 -54zM848 156q112 0 211 42.5t171 116.5t114 181t42 231
t-42 231.5t-114 182t-171 117t-211 42.5q-236 0 -390.5 -162.5t-154.5 -410.5q0 -246 154.5 -408.5t390.5 -162.5z" />
    <glyph glyph-name="Ocircumflex" unicode="&#xd4;" horiz-adv-x="1689" 
d="M524 1602l238 253h174l231 -253h-166l-151 159h-4l-152 -159h-170zM848 -12q-210 0 -376.5 94t-260.5 263t-94 382t94 382.5t261 264t376 94.5q152 0 285.5 -54t230.5 -149.5t153 -235t56 -302.5t-56 -301.5t-153 -234t-230.5 -149.5t-285.5 -54zM848 156q112 0 211 42.5
t171 116.5t114 181t42 231t-42 231.5t-114 182t-171 117t-211 42.5q-236 0 -390.5 -162.5t-154.5 -410.5q0 -246 154.5 -408.5t390.5 -162.5z" />
    <glyph glyph-name="Otilde" unicode="&#xd5;" horiz-adv-x="1689" 
d="M1008 1602q-73 0 -174 67q-83 51 -129 51q-73 0 -119 -112l-107 45q31 90 84.5 141t128.5 51q34 0 68.5 -10.5t54.5 -21t51 -29.5q8 -5 25.5 -16t27 -16.5t24 -12.5t28 -10t26.5 -3q70 0 111 113l106 -35q-60 -202 -206 -202zM848 -12q-210 0 -376.5 94t-260.5 263
t-94 382t94 382.5t261 264t376 94.5q152 0 285.5 -54t230.5 -149.5t153 -235t56 -302.5t-56 -301.5t-153 -234t-230.5 -149.5t-285.5 -54zM848 156q112 0 211 42.5t171 116.5t114 181t42 231t-42 231.5t-114 182t-171 117t-211 42.5q-236 0 -390.5 -162.5t-154.5 -410.5
q0 -246 154.5 -408.5t390.5 -162.5z" />
    <glyph glyph-name="Odieresis" unicode="&#xd6;" horiz-adv-x="1689" 
d="M664 1624q-51 0 -85 34.5t-34 84.5q0 48 34 81.5t85 33.5q49 0 83.5 -34.5t34.5 -82.5t-34.5 -82.5t-83.5 -34.5zM1034 1624q-50 0 -84.5 35t-34.5 84q0 47 35 81t84 34t84 -34.5t35 -82.5t-35 -82.5t-84 -34.5zM848 -12q-210 0 -376.5 94t-260.5 263t-94 382t94 382.5
t261 264t376 94.5q152 0 285.5 -54t230.5 -149.5t153 -235t56 -302.5t-56 -301.5t-153 -234t-230.5 -149.5t-285.5 -54zM848 156q112 0 211 42.5t171 116.5t114 181t42 231t-42 231.5t-114 182t-171 117t-211 42.5q-236 0 -390.5 -162.5t-154.5 -410.5q0 -246 154.5 -408.5
t390.5 -162.5z" />
    <glyph glyph-name="multiply" unicode="&#xd7;" horiz-adv-x="1040" 
d="M217 158l-108 104l305 305l-305 303l106 109l303 -305l305 305l109 -107l-305 -307l303 -303l-107 -104l-303 303z" />
    <glyph glyph-name="Oslash" unicode="&#xd8;" horiz-adv-x="1689" 
d="M1581 1401l-172 -187q164 -201 164 -487q0 -163 -56 -301.5t-153 -234t-230.5 -149.5t-285.5 -54q-256 0 -447 139l-165 -180l-105 96l166 180q-180 205 -180 504q0 213 94 382.5t261 264t376 94.5q270 0 461 -155l168 180zM303 727q0 -213 121 -369l764 824
q-143 118 -340 118q-236 0 -390.5 -162.5t-154.5 -410.5zM1386 727q0 202 -104 350l-758 -819q136 -102 324 -102q112 0 211 42.5t171 116.5t114 181t42 231z" />
    <glyph glyph-name="Ugrave" unicode="&#xd9;" horiz-adv-x="1445" 
d="M678 1602l-250 264h188l230 -264h-168zM723 -12q-255 0 -409 160.5t-154 443.5v862h178v-850q0 -202 104.5 -325t280.5 -123q172 0 279.5 120.5t107.5 327.5v850h178v-862q0 -279 -152.5 -441.5t-412.5 -162.5z" />
    <glyph glyph-name="Uacute" unicode="&#xda;" horiz-adv-x="1445" 
d="M586 1602l229 264h191l-250 -264h-170zM723 -12q-255 0 -409 160.5t-154 443.5v862h178v-850q0 -202 104.5 -325t280.5 -123q172 0 279.5 120.5t107.5 327.5v850h178v-862q0 -279 -152.5 -441.5t-412.5 -162.5z" />
    <glyph glyph-name="Ucircumflex" unicode="&#xdb;" horiz-adv-x="1445" 
d="M399 1602l238 253h174l231 -253h-165l-152 159h-4l-152 -159h-170zM723 -12q-255 0 -409 160.5t-154 443.5v862h178v-850q0 -202 104.5 -325t280.5 -123q172 0 279.5 120.5t107.5 327.5v850h178v-862q0 -279 -152.5 -441.5t-412.5 -162.5z" />
    <glyph glyph-name="Udieresis" unicode="&#xdc;" horiz-adv-x="1445" 
d="M539 1624q-51 0 -85 34.5t-34 84.5q0 48 34 81.5t85 33.5q49 0 83.5 -34.5t34.5 -82.5t-34.5 -82.5t-83.5 -34.5zM909 1624q-49 0 -83.5 34.5t-34.5 84.5q0 47 34.5 81t83.5 34t84 -34.5t35 -82.5t-35 -82.5t-84 -34.5zM723 -12q-255 0 -409 160.5t-154 443.5v862h178
v-850q0 -202 104.5 -325t280.5 -123q172 0 279.5 120.5t107.5 327.5v850h178v-862q0 -279 -152.5 -441.5t-412.5 -162.5z" />
    <glyph glyph-name="Yacute" unicode="&#xdd;" horiz-adv-x="1230" 
d="M510 1602l229 264h191l-250 -264h-170zM524 0v649l-493 805h205l376 -625h4l375 625h209l-498 -805v-649h-178z" />
    <glyph glyph-name="Thorn" unicode="&#xde;" horiz-adv-x="1294" 
d="M180 0v1454h178v-287h371q124 0 217.5 -33.5t150 -95t84 -142t27.5 -179.5q0 -221 -138 -333t-374 -112h-338v-272h-178zM358 432h326q171 0 255.5 79.5t84.5 209.5q0 138 -83 211.5t-232 73.5h-351v-574z" />
    <glyph glyph-name="germandbls" unicode="&#xdf;" horiz-adv-x="1271" 
d="M516 -12v149h184q140 0 233 88.5t93 229.5q0 134 -95.5 231.5t-254.5 97.5h-111v144h103q68 1 119.5 18t79 41t44.5 56.5t22 57t5 48.5q0 97 -74 159t-213 62q-161 0 -245 -86t-84 -272v-1012h-166v1008q0 257 128 385.5t363 128.5q213 0 334 -100t121 -259q0 -37 -8 -73
t-27 -76t-57.5 -76t-91.5 -59v-5q129 -52 203.5 -167.5t74.5 -255.5q0 -210 -128.5 -336.5t-330.5 -126.5h-221z" />
    <glyph glyph-name="agrave" unicode="&#xe0;" horiz-adv-x="1236" 
d="M573 1143l-247 282l188 -2l227 -280h-168zM575 -12q-209 0 -347 140t-138 364q0 223 137 370.5t348 147.5q111 0 203 -50.5t146 -140.5l4 2v176h166v-997h-160v180h-2q-55 -91 -146.5 -141.5t-210.5 -50.5zM600 139q141 0 237.5 99t96.5 254q0 156 -94 261t-240 105
q-144 0 -243 -102t-99 -264q0 -153 95 -253t247 -100z" />
    <glyph glyph-name="aacute" unicode="&#xe1;" horiz-adv-x="1236" 
d="M518 1141l242 289l186 2l-254 -291h-174zM575 -12q-209 0 -347 140t-138 364q0 223 137 370.5t348 147.5q111 0 203 -50.5t146 -140.5l4 2v176h166v-997h-160v180h-2q-55 -91 -146.5 -141.5t-210.5 -50.5zM600 139q141 0 237.5 99t96.5 254q0 156 -94 261t-240 105
q-144 0 -243 -102t-99 -264q0 -153 95 -253t247 -100z" />
    <glyph glyph-name="acircumflex" unicode="&#xe2;" horiz-adv-x="1236" 
d="M293 1139l235 286h174l228 -286h-166l-148 182h-4l-149 -182h-170zM575 -12q-209 0 -347 140t-138 364q0 223 137 370.5t348 147.5q111 0 203 -50.5t146 -140.5l4 2v176h166v-997h-160v180h-2q-55 -91 -146.5 -141.5t-210.5 -50.5zM600 139q141 0 237.5 99t96.5 254
q0 156 -94 261t-240 105q-144 0 -243 -102t-99 -264q0 -153 95 -253t247 -100z" />
    <glyph glyph-name="atilde" unicode="&#xe3;" horiz-adv-x="1236" 
d="M772 1151q-33 0 -68 12.5t-57 25.5t-55 36q-74 49 -119 49q-80 0 -123 -115l-106 47q64 201 213 201q80 0 166 -59q6 -4 24.5 -16t27.5 -17t24 -13t28.5 -11t26.5 -3q37 0 67.5 29.5t50.5 83.5l105 -35q-27 -102 -82 -158.5t-123 -56.5zM575 -12q-209 0 -347 140
t-138 364q0 223 137 370.5t348 147.5q111 0 203 -50.5t146 -140.5l4 2v176h166v-997h-160v180h-2q-55 -91 -146.5 -141.5t-210.5 -50.5zM600 139q141 0 237.5 99t96.5 254q0 156 -94 261t-240 105q-144 0 -243 -102t-99 -264q0 -153 95 -253t247 -100z" />
    <glyph glyph-name="adieresis" unicode="&#xe4;" horiz-adv-x="1236" 
d="M426 1182q-51 0 -85 34t-34 84q0 48 34 81.5t85 33.5q49 0 84 -34.5t35 -82.5q0 -47 -35 -81.5t-84 -34.5zM797 1182q-50 0 -84.5 34.5t-34.5 83.5q0 47 35 81t84 34t83.5 -34.5t34.5 -82.5t-34.5 -82t-83.5 -34zM575 -12q-209 0 -347 140t-138 364q0 223 137 370.5
t348 147.5q111 0 203 -50.5t146 -140.5l4 2v176h166v-997h-160v180h-2q-55 -91 -146.5 -141.5t-210.5 -50.5zM600 139q141 0 237.5 99t96.5 254q0 156 -94 261t-240 105q-144 0 -243 -102t-99 -264q0 -153 95 -253t247 -100z" />
    <glyph glyph-name="aring" unicode="&#xe5;" horiz-adv-x="1236" 
d="M610 1116q-78 0 -136 57t-58 136t56 135.5t138 56.5q84 0 141.5 -55.5t57.5 -136.5q0 -78 -57 -135.5t-142 -57.5zM610 1225q38 0 64 25t26 61t-26 61t-64 25q-35 0 -60.5 -25.5t-25.5 -60.5q0 -36 25 -61t61 -25zM575 -12q-209 0 -347 140t-138 364q0 223 137 370.5
t348 147.5q111 0 203 -50.5t146 -140.5l4 2v176h166v-997h-160v180h-2q-55 -91 -146.5 -141.5t-210.5 -50.5zM600 139q141 0 237.5 99t96.5 254q0 156 -94 261t-240 105q-144 0 -243 -102t-99 -264q0 -153 95 -253t247 -100z" />
    <glyph glyph-name="ae" unicode="&#xe6;" horiz-adv-x="1617" 
d="M1544 516q0 -56 -2 -70h-696q15 -142 96 -224.5t209 -82.5q90 0 145 33t105 100l115 -98q-71 -94 -154 -140t-223 -46q-123 0 -212.5 55t-144.5 147h-4q-43 -90 -139.5 -146t-226.5 -56q-169 0 -257.5 86.5t-88.5 216.5q0 138 96.5 217.5t283.5 79.5h238v24
q0 137 -46.5 192.5t-152.5 55.5q-146 0 -284 -76l-64 136q60 34 159.5 62t199.5 28q117 0 189 -46.5t110 -146.5h4q56 91 145.5 142t190.5 51q182 0 295.5 -139.5t113.5 -354.5zM850 584h528q-11 123 -75 198.5t-175 75.5q-108 0 -182.5 -75.5t-95.5 -198.5zM426 127
q108 0 184 66.5t76 179.5v80h-225q-109 0 -170.5 -40t-61.5 -120q0 -72 51 -119t146 -47z" />
    <glyph glyph-name="ccedilla" unicode="&#xe7;" horiz-adv-x="1067" 
d="M610 -12l-24 -51v-5q83 -3 131.5 -45t48.5 -116q0 -69 -55 -112.5t-164 -43.5q-53 0 -115 12v90q44 -14 98 -14q47 0 81 19.5t34 56.5q0 36 -44 61t-126 25l2 61l31 68q-187 26 -301.5 163t-114.5 341q0 226 140.5 369t363.5 143q115 0 222 -46.5t179 -132.5l-112 -100
q-49 58 -122 92.5t-159 34.5q-153 0 -247.5 -100.5t-94.5 -259.5q0 -160 94 -259.5t246 -99.5q88 0 163 34.5t122 92.5l114 -104q-144 -169 -391 -174z" />
    <glyph glyph-name="egrave" unicode="&#xe8;" horiz-adv-x="1128" 
d="M721 1143h-168l-248 282l189 -2zM1042 516q0 -15 -2 -39t-2 -28h-778q17 -141 109.5 -225.5t232.5 -84.5q182 0 289 133l117 -98q-144 -186 -412 -186q-222 0 -363 141t-141 369q0 225 138.5 368.5t353.5 143.5q203 0 330.5 -139.5t127.5 -354.5zM582 858
q-121 0 -208 -74t-110 -200h613q-19 125 -96.5 199.5t-198.5 74.5z" />
    <glyph glyph-name="eacute" unicode="&#xe9;" horiz-adv-x="1128" 
d="M907 1432l-254 -291h-174l242 289zM1042 516q0 -15 -2 -39t-2 -28h-778q17 -141 109.5 -225.5t232.5 -84.5q182 0 289 133l117 -98q-144 -186 -412 -186q-222 0 -363 141t-141 369q0 225 138.5 368.5t353.5 143.5q203 0 330.5 -139.5t127.5 -354.5zM582 858
q-121 0 -208 -74t-110 -200h613q-19 125 -96.5 199.5t-198.5 74.5z" />
    <glyph glyph-name="ecircumflex" unicode="&#xea;" horiz-adv-x="1130" 
d="M588 1321l-150 -182h-170l236 286h174l227 -286h-166l-147 182h-4zM1042 516q0 -15 -2 -39t-2 -28h-778q17 -141 109.5 -225.5t232.5 -84.5q182 0 289 133l117 -98q-144 -186 -412 -186q-222 0 -363 141t-141 369q0 225 138.5 368.5t353.5 143.5q203 0 330.5 -139.5
t127.5 -354.5zM582 858q-121 0 -208 -74t-110 -200h613q-19 125 -96.5 199.5t-198.5 74.5z" />
    <glyph glyph-name="edieresis" unicode="&#xeb;" horiz-adv-x="1130" 
d="M401 1182q-51 0 -84.5 34t-33.5 84q0 48 34 81.5t84 33.5q49 0 84 -34.5t35 -82.5q0 -47 -35 -81.5t-84 -34.5zM772 1182q-50 0 -84.5 34.5t-34.5 83.5q0 47 35 81t84 34t84 -34.5t35 -82.5q0 -47 -35 -81.5t-84 -34.5zM1042 516q0 -15 -2 -39t-2 -28h-778
q17 -141 109.5 -225.5t232.5 -84.5q182 0 289 133l117 -98q-144 -186 -412 -186q-222 0 -363 141t-141 369q0 225 138.5 368.5t353.5 143.5q203 0 330.5 -139.5t127.5 -354.5zM582 858q-121 0 -208 -74t-110 -200h613q-19 125 -96.5 199.5t-198.5 74.5z" />
    <glyph glyph-name="igrave" unicode="&#xec;" horiz-adv-x="503" 
d="M162 1141l-185 291l187 -2l170 -289h-172zM168 0v997h166v-997h-166z" />
    <glyph glyph-name="iacute" unicode="&#xed;" horiz-adv-x="501" 
d="M176 1141l242 289l186 2l-254 -291h-174zM168 0v997h166v-997h-166z" />
    <glyph glyph-name="icircumflex" unicode="&#xee;" horiz-adv-x="501" 
d="M-68 1139l236 286h174l227 -286h-166l-147 182h-4l-150 -182h-170zM168 0v997h166v-997h-166z" />
    <glyph glyph-name="idieresis" unicode="&#xef;" horiz-adv-x="501" 
d="M66 1182q-51 0 -85 34t-34 84q0 48 34 81.5t85 33.5q49 0 83.5 -34.5t34.5 -82.5t-34.5 -82t-83.5 -34zM436 1182q-50 0 -84.5 34.5t-34.5 83.5q0 47 35 81t84 34t84 -34.5t35 -82.5q0 -47 -35 -81.5t-84 -34.5zM168 0v997h166v-997h-166z" />
    <glyph glyph-name="eth" unicode="&#xf0;" horiz-adv-x="1204" 
d="M889 1155q223 -276 223 -618q0 -257 -140.5 -403t-373.5 -146q-215 0 -360.5 139.5t-145.5 353.5q0 219 134.5 361.5t328.5 142.5q103 0 193 -38t151 -105l2 4q-49 118 -133 219q-41 51 -117 119l-104 -123l-111 82l105 123q-106 71 -250 127l65 123q141 -47 281 -136
l137 164l113 -78l-142 -168q74 -60 144 -143zM598 139q152 0 248 102t96 257q0 146 -97.5 242t-244.5 96q-148 0 -244 -100t-96 -244q0 -153 97.5 -253t240.5 -100z" />
    <glyph glyph-name="ntilde" unicode="&#xf1;" horiz-adv-x="1179" 
d="M756 1151q-33 0 -68 12.5t-57.5 25.5t-55.5 36q-74 49 -118 49q-80 0 -123 -115l-107 47q64 201 213 201q80 0 166 -59q6 -4 24.5 -16t27.5 -17t24 -13t28.5 -11t26.5 -3q37 0 68 29.5t51 83.5l105 -35q-27 -102 -82 -158.5t-123 -56.5zM156 0v997h166v-180h2
q59 92 153 142.5t209 50.5q167 0 262.5 -105t95.5 -313v-592h-165v545q0 313 -246 313q-142 0 -226.5 -96.5t-84.5 -263.5v-498h-166z" />
    <glyph glyph-name="ograve" unicode="&#xf2;" 
d="M559 1143l-248 282l189 -2l227 -280h-168zM608 -12q-151 0 -269.5 67.5t-182.5 183.5t-64 259q0 219 144 365.5t372 146.5q223 0 368.5 -143t145.5 -369q0 -225 -145.5 -367.5t-368.5 -142.5zM608 139q145 0 244.5 101t99.5 258q0 158 -98.5 259t-245.5 101
q-154 0 -250 -103.5t-96 -256.5q0 -152 96.5 -255.5t249.5 -103.5z" />
    <glyph glyph-name="oacute" unicode="&#xf3;" 
d="M516 1141l242 289l186 2l-254 -291h-174zM608 -12q-151 0 -269.5 67.5t-182.5 183.5t-64 259q0 219 144 365.5t372 146.5q223 0 368.5 -143t145.5 -369q0 -225 -145.5 -367.5t-368.5 -142.5zM608 139q145 0 244.5 101t99.5 258q0 158 -98.5 259t-245.5 101
q-154 0 -250 -103.5t-96 -256.5q0 -152 96.5 -255.5t249.5 -103.5z" />
    <glyph glyph-name="ocircumflex" unicode="&#xf4;" 
d="M289 1139l235 286h174l228 -286h-166l-148 182h-4l-149 -182h-170zM608 -12q-151 0 -269.5 67.5t-182.5 183.5t-64 259q0 219 144 365.5t372 146.5q223 0 368.5 -143t145.5 -369q0 -225 -145.5 -367.5t-368.5 -142.5zM608 139q145 0 244.5 101t99.5 258q0 158 -98.5 259
t-245.5 101q-154 0 -250 -103.5t-96 -256.5q0 -152 96.5 -255.5t249.5 -103.5z" />
    <glyph glyph-name="otilde" unicode="&#xf5;" 
d="M768 1151q-33 0 -68 12.5t-57 25.5t-55 36q-74 49 -119 49q-80 0 -123 -115l-106 47q64 201 213 201q79 0 165 -59q5 -3 24.5 -16t28 -17.5t24 -12.5t29 -11t26.5 -3q37 0 67.5 29.5t50.5 83.5l105 -35q-27 -102 -82 -158.5t-123 -56.5zM608 -12q-151 0 -269.5 67.5
t-182.5 183.5t-64 259q0 219 144 365.5t372 146.5q223 0 368.5 -143t145.5 -369q0 -225 -145.5 -367.5t-368.5 -142.5zM608 139q145 0 244.5 101t99.5 258q0 158 -98.5 259t-245.5 101q-154 0 -250 -103.5t-96 -256.5q0 -152 96.5 -255.5t249.5 -103.5z" />
    <glyph glyph-name="odieresis" unicode="&#xf6;" 
d="M422 1182q-51 0 -85 34t-34 84q0 48 34 81.5t85 33.5q49 0 84 -34.5t35 -82.5q0 -47 -35 -81.5t-84 -34.5zM793 1182q-50 0 -84.5 34.5t-34.5 83.5q0 47 35 81t84 34t83.5 -34.5t34.5 -82.5t-34.5 -82t-83.5 -34zM608 -12q-151 0 -269.5 67.5t-182.5 183.5t-64 259
q0 219 144 365.5t372 146.5q223 0 368.5 -143t145.5 -369q0 -225 -145.5 -367.5t-368.5 -142.5zM608 139q145 0 244.5 101t99.5 258q0 158 -98.5 259t-245.5 101q-154 0 -250 -103.5t-96 -256.5q0 -152 96.5 -255.5t249.5 -103.5z" />
    <glyph glyph-name="divide" unicode="&#xf7;" horiz-adv-x="1183" 
d="M594 844q-51 0 -86 34.5t-35 84.5t35 84t86 34t86 -34t35 -84t-35 -84.5t-86 -34.5zM125 489v154h960v-154h-960zM594 37q-51 0 -86 34.5t-35 84.5t35 84t86 34t86 -34t35 -84t-35 -84.5t-86 -34.5z" />
    <glyph glyph-name="oslash" unicode="&#xf8;" 
d="M1139 952l-123 -131q106 -131 106 -323q0 -225 -145.5 -367.5t-368.5 -142.5q-167 0 -297 84l-110 -117l-92 86l106 115q-123 142 -123 342q0 219 144 365.5t372 146.5q180 0 318 -101l121 129zM262 498q0 -126 68 -222l485 515q-89 67 -207 67q-154 0 -250 -103.5
t-96 -256.5zM952 498q0 114 -53 200l-477 -508q82 -51 186 -51q145 0 244.5 101t99.5 258z" />
    <glyph glyph-name="ugrave" unicode="&#xf9;" horiz-adv-x="1150" 
d="M541 1143l-248 282l188 -2l228 -280h-168zM508 -12q-177 0 -276 103.5t-99 311.5v594h166v-546q0 -165 61 -238.5t183 -73.5q125 0 211 101.5t86 273.5v483h166v-997h-166v172h-2q-56 -88 -143.5 -136t-186.5 -48z" />
    <glyph glyph-name="uacute" unicode="&#xfa;" horiz-adv-x="1150" 
d="M477 1141l242 289l186 2l-254 -291h-174zM508 -12q-177 0 -276 103.5t-99 311.5v594h166v-546q0 -165 61 -238.5t183 -73.5q125 0 211 101.5t86 273.5v483h166v-997h-166v172h-2q-56 -88 -143.5 -136t-186.5 -48z" />
    <glyph glyph-name="ucircumflex" unicode="&#xfb;" horiz-adv-x="1150" 
d="M252 1139l235 286h175l227 -286h-166l-148 182h-4l-149 -182h-170zM508 -12q-177 0 -276 103.5t-99 311.5v594h166v-546q0 -165 61 -238.5t183 -73.5q125 0 211 101.5t86 273.5v483h166v-997h-166v172h-2q-56 -88 -143.5 -136t-186.5 -48z" />
    <glyph glyph-name="udieresis" unicode="&#xfc;" horiz-adv-x="1150" 
d="M385 1182q-51 0 -85 34t-34 84q0 48 34 81.5t85 33.5q49 0 84 -34.5t35 -82.5q0 -47 -35 -81.5t-84 -34.5zM756 1182q-50 0 -84.5 34.5t-34.5 83.5q0 47 35 81t84 34t83.5 -34.5t34.5 -82.5t-34.5 -82t-83.5 -34zM508 -12q-177 0 -276 103.5t-99 311.5v594h166v-546
q0 -165 61 -238.5t183 -73.5q125 0 211 101.5t86 273.5v483h166v-997h-166v172h-2q-56 -88 -143.5 -136t-186.5 -48z" />
    <glyph glyph-name="yacute" unicode="&#xfd;" horiz-adv-x="1075" 
d="M418 1141l241 289l187 2l-254 -291h-174zM291 -406l178 445l-424 958h180l324 -757h4l301 757h174l-565 -1403h-172z" />
    <glyph glyph-name="thorn" unicode="&#xfe;" horiz-adv-x="1257" 
d="M156 -406v1913h166v-684h2q57 90 148.5 138.5t205.5 48.5q211 0 348 -147.5t137 -370.5q0 -224 -138 -364t-347 -140q-117 0 -208 48t-146 136l-2 -2v-576h-166zM655 139q149 0 244.5 100.5t95.5 252.5q0 162 -99 264t-243 102q-150 0 -245 -105t-95 -261t98.5 -254.5
t243.5 -98.5z" />
    <glyph glyph-name="ydieresis" unicode="&#xff;" horiz-adv-x="1075" 
d="M354 1182q-51 0 -84.5 34t-33.5 84q0 48 34 81.5t84 33.5q49 0 84 -34.5t35 -82.5q0 -47 -35 -81.5t-84 -34.5zM725 1182q-50 0 -84.5 34.5t-34.5 83.5q0 47 35 81t84 34t84 -34.5t35 -82.5q0 -47 -35 -81.5t-84 -34.5zM291 -406l178 445l-424 958h180l324 -757h4
l301 757h174l-565 -1403h-172z" />
    <glyph glyph-name="Amacron" unicode="&#x100;" horiz-adv-x="1384" 
d="M397 1657v137h590v-137h-590zM51 0l551 1454h178l553 -1454h-186l-131 354h-649l-129 -354h-187zM424 510h537l-269 729h-4z" />
    <glyph glyph-name="amacron" unicode="&#x101;" horiz-adv-x="1236" 
d="M317 1221v141h590v-141h-590zM575 -12q-209 0 -347 140t-138 364q0 223 137 370.5t348 147.5q111 0 203 -50.5t146 -140.5l4 2v176h166v-997h-160v180h-2q-55 -91 -146.5 -141.5t-210.5 -50.5zM600 139q141 0 237.5 99t96.5 254q0 156 -94 261t-240 105q-144 0 -243 -102
t-99 -264q0 -153 95 -253t247 -100z" />
    <glyph glyph-name="Abreve" unicode="&#x102;" horiz-adv-x="1384" 
d="M692 1589q-128 0 -207 72.5t-88 193.5h133q3 -58 46.5 -97.5t115.5 -39.5t115.5 40t46.5 97h133q-9 -121 -88 -193.5t-207 -72.5zM51 0l551 1454h178l553 -1454h-186l-131 354h-649l-129 -354h-187zM424 510h537l-269 729h-4z" />
    <glyph glyph-name="abreve" unicode="&#x103;" horiz-adv-x="1236" 
d="M612 1130q-129 0 -207.5 77.5t-87.5 213.5h134q3 -67 46.5 -113t114.5 -46q72 0 115.5 45.5t46.5 113.5h133q-9 -136 -87.5 -213.5t-207.5 -77.5zM575 -12q-209 0 -347 140t-138 364q0 223 137 370.5t348 147.5q111 0 203 -50.5t146 -140.5l4 2v176h166v-997h-160v180h-2
q-55 -91 -146.5 -141.5t-210.5 -50.5zM600 139q141 0 237.5 99t96.5 254q0 156 -94 261t-240 105q-144 0 -243 -102t-99 -264q0 -153 95 -253t247 -100z" />
    <glyph glyph-name="Aogonek" unicode="&#x104;" horiz-adv-x="1384" 
d="M1335 -248l13 -106q-62 -27 -142 -27q-94 0 -148 46t-54 126q0 54 37 112.5t104 102.5l-129 348h-649l-129 -354h-187l551 1454h178l553 -1454h-33q-73 -24 -117 -73t-44 -101q0 -43 25 -67.5t75 -24.5q55 0 96 18zM424 510h537l-269 729h-4z" />
    <glyph glyph-name="aogonek" unicode="&#x105;" horiz-adv-x="1236" 
d="M1114 -248l12 -106q-62 -27 -141 -27q-94 0 -148.5 46.5t-54.5 125.5q0 56 39.5 116.5t112.5 106.5v166h-2q-55 -91 -146.5 -141.5t-210.5 -50.5q-209 0 -347 140t-138 364q0 223 137 370.5t348 147.5q111 0 203 -50.5t146 -140.5l4 2v176h166v-997h-15q-73 -24 -117 -73
t-44 -101q0 -43 25 -67.5t75 -24.5q56 0 96 18zM600 139q141 0 237.5 99t96.5 254q0 156 -94 261t-240 105q-144 0 -243 -102t-99 -264q0 -153 95 -253t247 -100z" />
    <glyph glyph-name="Cacute" unicode="&#x106;" horiz-adv-x="1482" 
d="M713 1602l229 264h191l-250 -264h-170zM842 -10q-149 0 -279.5 48.5t-230 139t-157.5 231.5t-58 314q0 155 48.5 290t138 236.5t228 160t308.5 58.5q161 0 307.5 -70t259.5 -208l-133 -111q-177 219 -434 219q-244 0 -390.5 -160.5t-146.5 -414.5q0 -256 152 -410.5
t387 -154.5q261 0 434 219l133 -113q-220 -274 -567 -274z" />
    <glyph glyph-name="cacute" unicode="&#x107;" horiz-adv-x="1067" 
d="M487 1141l242 289l186 2l-253 -291h-175zM590 -12q-219 0 -358.5 142t-139.5 368t140.5 369t363.5 143q115 0 222 -46.5t179 -132.5l-112 -100q-49 58 -122 92.5t-159 34.5q-153 0 -247.5 -100.5t-94.5 -259.5q0 -160 94 -259.5t246 -99.5q88 0 163 34.5t122 92.5
l114 -104q-146 -174 -411 -174z" />
    <glyph glyph-name="Ccircumflex" unicode="&#x108;" horiz-adv-x="1482" 
d="M516 1602l238 253h174l231 -253h-166l-151 159h-4l-152 -159h-170zM842 -10q-149 0 -279.5 48.5t-230 139t-157.5 231.5t-58 314q0 155 48.5 290t138 236.5t228 160t308.5 58.5q161 0 307.5 -70t259.5 -208l-133 -111q-177 219 -434 219q-244 0 -390.5 -160.5
t-146.5 -414.5q0 -256 152 -410.5t387 -154.5q261 0 434 219l133 -113q-220 -274 -567 -274z" />
    <glyph glyph-name="ccircumflex" unicode="&#x109;" horiz-adv-x="1067" 
d="M274 1139l236 286h174l227 -286h-166l-147 182h-4l-150 -182h-170zM590 -12q-219 0 -358.5 142t-139.5 368t140.5 369t363.5 143q115 0 222 -46.5t179 -132.5l-112 -100q-49 58 -122 92.5t-159 34.5q-153 0 -247.5 -100.5t-94.5 -259.5q0 -160 94 -259.5t246 -99.5
q88 0 163 34.5t122 92.5l114 -104q-146 -174 -411 -174z" />
    <glyph glyph-name="Cdotaccent" unicode="&#x10a;" horiz-adv-x="1482" 
d="M840 1622q-51 0 -86 34.5t-35 84.5t35 84.5t86 34.5t86 -34.5t35 -84.5t-35 -84.5t-86 -34.5zM842 -10q-149 0 -279.5 48.5t-230 139t-157.5 231.5t-58 314q0 155 48.5 290t138 236.5t228 160t308.5 58.5q161 0 307.5 -70t259.5 -208l-133 -111q-177 219 -434 219
q-244 0 -390.5 -160.5t-146.5 -414.5q0 -256 152 -410.5t387 -154.5q261 0 434 219l133 -113q-220 -274 -567 -274z" />
    <glyph glyph-name="cdotaccent" unicode="&#x10b;" horiz-adv-x="1067" 
d="M594 1180q-51 0 -86 34t-35 84t35 84.5t86 34.5t86 -34.5t35 -84.5t-35 -84t-86 -34zM590 -12q-219 0 -358.5 142t-139.5 368t140.5 369t363.5 143q115 0 222 -46.5t179 -132.5l-112 -100q-49 58 -122 92.5t-159 34.5q-153 0 -247.5 -100.5t-94.5 -259.5
q0 -160 94 -259.5t246 -99.5q88 0 163 34.5t122 92.5l114 -104q-146 -174 -411 -174z" />
    <glyph glyph-name="Ccaron" unicode="&#x10c;" horiz-adv-x="1482" 
d="M748 1602l-232 253h168l150 -159h4l153 159h168l-237 -253h-174zM842 -10q-149 0 -279.5 48.5t-230 139t-157.5 231.5t-58 314q0 155 48.5 290t138 236.5t228 160t308.5 58.5q161 0 307.5 -70t259.5 -208l-133 -111q-177 219 -434 219q-244 0 -390.5 -160.5
t-146.5 -414.5q0 -256 152 -410.5t387 -154.5q261 0 434 219l133 -113q-220 -274 -567 -274z" />
    <glyph glyph-name="ccaron" unicode="&#x10d;" horiz-adv-x="1067" 
d="M502 1137l-228 284h168l148 -180h4l147 180h170l-235 -284h-174zM590 -12q-219 0 -358.5 142t-139.5 368t140.5 369t363.5 143q115 0 222 -46.5t179 -132.5l-112 -100q-49 58 -122 92.5t-159 34.5q-153 0 -247.5 -100.5t-94.5 -259.5q0 -160 94 -259.5t246 -99.5
q88 0 163 34.5t122 92.5l114 -104q-146 -174 -411 -174z" />
    <glyph glyph-name="Dcaron" unicode="&#x10e;" horiz-adv-x="1486" 
d="M621 1602l-232 253h168l150 -159h4l153 159h168l-237 -253h-174zM180 0v1454h434q170 0 312 -53.5t239.5 -149.5t151 -231t53.5 -295t-52 -294t-147.5 -229.5t-236.5 -148.5t-313 -53h-441zM358 162h252q262 0 419 157t157 406q0 250 -158 408.5t-412 158.5h-258v-1130z
" />
    <glyph glyph-name="dcaron" unicode="&#x10f;" horiz-adv-x="1404" 
d="M1253 1204l60 377h164l-101 -377h-123zM580 -12q-210 0 -350 140t-140 364q0 222 139 370t349 148q114 0 206.5 -50t149.5 -141h2v688h166v-1507h-160v184h-2q-55 -93 -148 -144.5t-212 -51.5zM602 139q144 0 242 98.5t98 254.5t-94.5 261t-243.5 105q-146 0 -245 -102
t-99 -264q0 -152 95.5 -252.5t246.5 -100.5z" />
    <glyph glyph-name="Dcroat" unicode="&#x110;" horiz-adv-x="1486" 
d="M614 1454q170 0 312 -53.5t239.5 -149.5t151 -231t53.5 -295t-52 -294t-147.5 -229.5t-236.5 -148.5t-313 -53h-441v647h-139v158h139v649h434zM610 162q262 0 419 157t157 406q0 250 -158 408.5t-412 158.5h-258v-487h390v-158h-390v-485h252z" />
    <glyph glyph-name="dcroat" unicode="&#x111;" horiz-adv-x="1239" 
d="M1229 1286v-119h-127v-1167h-160v184h-2q-55 -93 -148 -144.5t-212 -51.5q-210 0 -350 140t-140 364q0 222 139 370t349 148q114 0 206.5 -50t149.5 -141h2v348h-420v119h420v221h166v-221h127zM602 139q144 0 242 98.5t98 254.5t-94.5 261t-243.5 105q-146 0 -245 -102
t-99 -264q0 -152 95.5 -252.5t246.5 -100.5z" />
    <glyph glyph-name="Emacron" unicode="&#x112;" 
d="M336 1657v137h590v-137h-590zM180 0v1454h891v-162h-713v-487h584v-162h-584v-481h756v-162h-934z" />
    <glyph glyph-name="emacron" unicode="&#x113;" horiz-adv-x="1130" 
d="M883 1362v-141h-590v141h590zM1042 516q0 -15 -2 -39t-2 -28h-778q17 -141 109.5 -225.5t232.5 -84.5q182 0 289 133l117 -98q-144 -186 -412 -186q-222 0 -363 141t-141 369q0 225 138.5 368.5t353.5 143.5q203 0 330.5 -139.5t127.5 -354.5zM582 858q-121 0 -208 -74
t-110 -200h613q-19 125 -96.5 199.5t-198.5 74.5z" />
    <glyph glyph-name="Ebreve" unicode="&#x114;" 
d="M631 1589q-128 0 -207 72.5t-88 193.5h133q3 -58 46.5 -97.5t115.5 -39.5t115.5 40t46.5 97h133q-9 -121 -88 -193.5t-207 -72.5zM180 0v1454h891v-162h-713v-487h584v-162h-584v-481h756v-162h-934z" />
    <glyph glyph-name="ebreve" unicode="&#x115;" horiz-adv-x="1130" 
d="M588 1130q-129 0 -207.5 77.5t-87.5 213.5h133q3 -67 47 -113t115 -46q72 0 115.5 45.5t46.5 113.5h133q-9 -136 -87.5 -213.5t-207.5 -77.5zM1042 516q0 -15 -2 -39t-2 -28h-778q17 -141 109.5 -225.5t232.5 -84.5q182 0 289 133l117 -98q-144 -186 -412 -186
q-222 0 -363 141t-141 369q0 225 138.5 368.5t353.5 143.5q203 0 330.5 -139.5t127.5 -354.5zM582 858q-121 0 -208 -74t-110 -200h613q-19 125 -96.5 199.5t-198.5 74.5z" />
    <glyph glyph-name="Edotaccent" unicode="&#x116;" 
d="M631 1622q-51 0 -86 34.5t-35 84.5t35 84.5t86 34.5t86 -34.5t35 -84.5t-35 -84.5t-86 -34.5zM180 0v1454h891v-162h-713v-487h584v-162h-584v-481h756v-162h-934z" />
    <glyph glyph-name="edotaccent" unicode="&#x117;" horiz-adv-x="1130" 
d="M588 1180q-51 0 -86 34t-35 84t35 84.5t86 34.5t86 -34.5t35 -84.5t-35 -84t-86 -34zM1042 516q0 -15 -2 -39t-2 -28h-778q17 -141 109.5 -225.5t232.5 -84.5q182 0 289 133l117 -98q-144 -186 -412 -186q-222 0 -363 141t-141 369q0 225 138.5 368.5t353.5 143.5
q203 0 330.5 -139.5t127.5 -354.5zM582 858q-121 0 -208 -74t-110 -200h613q-19 125 -96.5 199.5t-198.5 74.5z" />
    <glyph glyph-name="Eogonek" unicode="&#x118;" 
d="M1130 -248l13 -106q-62 -27 -142 -27q-94 0 -148 46t-54 126q0 53 34 108.5t97 100.5h-750v1454h891v-162h-713v-487h584v-162h-584v-481h756v-162h-18q-74 -24 -118 -73t-44 -101q0 -43 25 -67.5t75 -24.5q56 0 96 18z" />
    <glyph glyph-name="eogonek" unicode="&#x119;" horiz-adv-x="1128" 
d="M1042 516q0 -15 -2 -39t-2 -28h-778q17 -141 109.5 -225.5t232.5 -84.5q182 0 289 133l117 -98q-113 -142 -291 -176q-152 -73 -152 -164q0 -40 26 -64t77 -24q56 0 96 18l12 -112q-62 -27 -141 -27q-101 0 -158 47t-57 127q0 46 27.5 97t78.5 92v4q-195 23 -314.5 160
t-119.5 346q0 225 138.5 368.5t353.5 143.5q203 0 330.5 -139.5t127.5 -354.5zM582 858q-121 0 -208 -74t-110 -200h613q-19 125 -96.5 199.5t-198.5 74.5z" />
    <glyph glyph-name="Ecaron" unicode="&#x11a;" 
d="M539 1602l-232 253h168l150 -159h4l153 159h168l-237 -253h-174zM180 0v1454h891v-162h-713v-487h584v-162h-584v-481h756v-162h-934z" />
    <glyph glyph-name="ecaron" unicode="&#x11b;" horiz-adv-x="1130" 
d="M670 1137h-174l-228 284h168l148 -180h4l147 180h170zM1042 516q0 -15 -2 -39t-2 -28h-778q17 -141 109.5 -225.5t232.5 -84.5q182 0 289 133l117 -98q-144 -186 -412 -186q-222 0 -363 141t-141 369q0 225 138.5 368.5t353.5 143.5q203 0 330.5 -139.5t127.5 -354.5z
M582 858q-121 0 -208 -74t-110 -200h613q-19 125 -96.5 199.5t-198.5 74.5z" />
    <glyph glyph-name="Gcircumflex" unicode="&#x11c;" horiz-adv-x="1554" 
d="M506 1602l237 253h175l231 -253h-166l-152 159h-4l-151 -159h-170zM844 -10q-156 0 -290 52t-230.5 146t-151.5 232.5t-55 304.5q0 215 88 383.5t253 264t380 95.5q156 0 299 -55.5t254 -171.5l-125 -111q-174 168 -430 168q-232 0 -382.5 -158t-150.5 -415
q0 -250 149.5 -410.5t391.5 -160.5q227 0 387 120v314h-422v162h600v-576q-102 -87 -250.5 -135.5t-314.5 -48.5z" />
    <glyph glyph-name="gcircumflex" unicode="&#x11d;" horiz-adv-x="1228" 
d="M272 1139l236 286h174l227 -286h-166l-147 182h-4l-150 -182h-170zM596 -418q-226 0 -406 109l41 147q93 -53 175 -78.5t184 -25.5q162 0 248 83.5t86 215.5v160h-4q-57 -82 -146 -128.5t-201 -46.5q-207 0 -345 137.5t-138 356.5q0 215 134 356.5t343 141.5
q106 0 198.5 -45t152.5 -127h4v159h165v-923q0 -227 -120.5 -359.5t-370.5 -132.5zM594 172q149 0 241.5 98.5t92.5 249.5q0 149 -95 242.5t-237 93.5q-151 0 -244.5 -96t-93.5 -244q0 -155 96 -249.5t240 -94.5z" />
    <glyph glyph-name="Gbreve" unicode="&#x11e;" horiz-adv-x="1554" 
d="M829 1589q-128 0 -206.5 72.5t-87.5 193.5h133q3 -58 46 -97.5t115 -39.5t115.5 40t46.5 97h133q-9 -121 -88 -193.5t-207 -72.5zM844 -10q-156 0 -290 52t-230.5 146t-151.5 232.5t-55 304.5q0 215 88 383.5t253 264t380 95.5q156 0 299 -55.5t254 -171.5l-125 -111
q-174 168 -430 168q-232 0 -382.5 -158t-150.5 -415q0 -250 149.5 -410.5t391.5 -160.5q227 0 387 120v314h-422v162h600v-576q-102 -87 -250.5 -135.5t-314.5 -48.5z" />
    <glyph glyph-name="gbreve" unicode="&#x11f;" horiz-adv-x="1228" 
d="M592 1130q-129 0 -207.5 77.5t-87.5 213.5h133q3 -67 47 -113t115 -46q72 0 115.5 45.5t46.5 113.5h133q-9 -136 -87.5 -213.5t-207.5 -77.5zM596 -418q-226 0 -406 109l41 147q93 -53 175 -78.5t184 -25.5q162 0 248 83.5t86 215.5v160h-4q-57 -82 -146 -128.5
t-201 -46.5q-207 0 -345 137.5t-138 356.5q0 215 134 356.5t343 141.5q106 0 198.5 -45t152.5 -127h4v159h165v-923q0 -227 -120.5 -359.5t-370.5 -132.5zM594 172q149 0 241.5 98.5t92.5 249.5q0 149 -95 242.5t-237 93.5q-151 0 -244.5 -96t-93.5 -244q0 -155 96 -249.5
t240 -94.5z" />
    <glyph glyph-name="Gdotaccent" unicode="&#x120;" horiz-adv-x="1554" 
d="M829 1622q-51 0 -85.5 34.5t-34.5 84.5t34.5 84.5t85.5 34.5t86 -34.5t35 -84.5t-35 -84.5t-86 -34.5zM844 -10q-156 0 -290 52t-230.5 146t-151.5 232.5t-55 304.5q0 215 88 383.5t253 264t380 95.5q156 0 299 -55.5t254 -171.5l-125 -111q-174 168 -430 168
q-232 0 -382.5 -158t-150.5 -415q0 -250 149.5 -410.5t391.5 -160.5q227 0 387 120v314h-422v162h600v-576q-102 -87 -250.5 -135.5t-314.5 -48.5z" />
    <glyph glyph-name="gdotaccent" unicode="&#x121;" horiz-adv-x="1228" 
d="M592 1180q-51 0 -86 34t-35 84t35 84.5t86 34.5t86 -34.5t35 -84.5t-35 -84t-86 -34zM596 -418q-226 0 -406 109l41 147q93 -53 175 -78.5t184 -25.5q162 0 248 83.5t86 215.5v160h-4q-57 -82 -146 -128.5t-201 -46.5q-207 0 -345 137.5t-138 356.5q0 215 134 356.5
t343 141.5q106 0 198.5 -45t152.5 -127h4v159h165v-923q0 -227 -120.5 -359.5t-370.5 -132.5zM594 172q149 0 241.5 98.5t92.5 249.5q0 149 -95 242.5t-237 93.5q-151 0 -244.5 -96t-93.5 -244q0 -155 96 -249.5t240 -94.5z" />
    <glyph glyph-name="Gcommaaccent" unicode="&#x122;" horiz-adv-x="1554" 
d="M844 -10q-156 0 -290 52t-230.5 146t-151.5 232.5t-55 304.5q0 215 88 383.5t253 264t380 95.5q156 0 299 -55.5t254 -171.5l-125 -111q-174 168 -430 168q-232 0 -382.5 -158t-150.5 -415q0 -250 149.5 -410.5t391.5 -160.5q227 0 387 120v314h-422v162h600v-576
q-102 -87 -250.5 -135.5t-314.5 -48.5zM682 -434l-41 100q68 14 94.5 45.5t26.5 85.5q0 34 -10 92h151q8 -41 8 -100q0 -98 -62 -156t-167 -67z" />
    <glyph glyph-name="gcommaaccent" unicode="&#x123;" horiz-adv-x="1228" 
d="M752 1464l41 -100q-68 -14 -94.5 -45.5t-26.5 -85.5q0 -34 10 -92h-152q-8 41 -8 100q0 98 62.5 156t167.5 67zM596 -418q-226 0 -406 109l41 147q93 -53 175 -78.5t184 -25.5q162 0 248 83.5t86 215.5v160h-4q-57 -82 -146 -128.5t-201 -46.5q-207 0 -345 137.5
t-138 356.5q0 215 134 356.5t343 141.5q106 0 198.5 -45t152.5 -127h4v159h165v-923q0 -227 -120.5 -359.5t-370.5 -132.5zM594 172q149 0 241.5 98.5t92.5 249.5q0 149 -95 242.5t-237 93.5q-151 0 -244.5 -96t-93.5 -244q0 -155 96 -249.5t240 -94.5z" />
    <glyph glyph-name="Hcircumflex" unicode="&#x124;" horiz-adv-x="1476" 
d="M418 1602l237 253h174l232 -253h-166l-152 159h-4l-151 -159h-170zM180 0v1454h178v-682h760v682h178v-1454h-178v610h-760v-610h-178z" />
    <glyph glyph-name="hcircumflex" unicode="&#x125;" horiz-adv-x="1189" 
d="M154 1624l237 254h174l232 -254h-166l-152 160h-4l-151 -160h-170zM156 0v1507h166v-684h2q59 90 154 138.5t214 48.5q168 0 265.5 -103t97.5 -309v-598h-166v551q0 307 -246 307q-150 0 -235.5 -94t-85.5 -262v-502h-166z" />
    <glyph glyph-name="Hbar" unicode="&#x126;" horiz-adv-x="1478" 
d="M1421 1200v-125h-123v-1075h-178v610h-760v-610h-178v1075h-129v125h129v254h178v-254h760v254h178v-254h123zM1120 772v303h-760v-303h760z" />
    <glyph glyph-name="hbar" unicode="&#x127;" horiz-adv-x="1189" 
d="M692 1010q168 0 265.5 -103t97.5 -309v-598h-166v551q0 307 -246 307q-150 0 -235.5 -94t-85.5 -262v-502h-166v1167h-146v119h146v221h166v-221h387v-119h-387v-344h2q59 90 154 138.5t214 48.5z" />
    <glyph glyph-name="Itilde" unicode="&#x128;" horiz-adv-x="559" 
d="M438 1602q-73 0 -174 67q-83 51 -129 51q-73 0 -119 -112l-106 45q31 90 84.5 141t128.5 51q34 0 68.5 -10.5t54.5 -21t51 -29.5q8 -5 25.5 -16t27 -16.5t24 -12.5t28 -10t26.5 -3q70 0 111 113l106 -35q-30 -101 -83.5 -151.5t-123.5 -50.5zM190 0v1454h179v-1454h-179z
" />
    <glyph glyph-name="itilde" unicode="&#x129;" horiz-adv-x="501" 
d="M412 1151q-33 0 -68 12.5t-57.5 25.5t-55.5 36q-74 49 -118 49q-80 0 -123 -115l-107 47q64 201 213 201q80 0 166 -59q6 -4 24.5 -16t27.5 -17t24 -13t28.5 -11t26.5 -3q37 0 68 29.5t51 83.5l104 -35q-28 -102 -82 -158.5t-122 -56.5zM168 0v997h166v-997h-166z" />
    <glyph glyph-name="Imacron" unicode="&#x12a;" horiz-adv-x="559" 
d="M-16 1657v137h589v-137h-589zM190 0v1454h179v-1454h-179z" />
    <glyph glyph-name="imacron" unicode="&#x12b;" horiz-adv-x="501" 
d="M-43 1221v141h590v-141h-590zM168 0v997h166v-997h-166z" />
    <glyph glyph-name="Ibreve" unicode="&#x12c;" horiz-adv-x="559" 
d="M279 1589q-128 0 -207 72.5t-88 193.5h133q3 -58 46.5 -97.5t115.5 -39.5t115 40t46 97h133q-9 -121 -87.5 -193.5t-206.5 -72.5zM190 0v1454h179v-1454h-179z" />
    <glyph glyph-name="ibreve" unicode="&#x12d;" horiz-adv-x="501" 
d="M252 1135q-111 0 -186 75.5t-84 210.5h133q5 -75 39.5 -120.5t97.5 -45.5q62 0 97 45.5t38 120.5h133q-8 -132 -79 -209t-189 -77zM168 0v997h166v-997h-166z" />
    <glyph glyph-name="Iogonek" unicode="&#x12e;" horiz-adv-x="559" 
d="M377 -248l12 -106q-62 -27 -141 -27q-94 0 -148.5 46.5t-54.5 125.5q0 55 38 115t107 104v1444h179v-1454h-27q-74 -24 -118 -73t-44 -101q0 -43 25.5 -67.5t75.5 -24.5q55 0 96 18z" />
    <glyph glyph-name="iogonek" unicode="&#x12f;" horiz-adv-x="501" 
d="M252 1180q-51 0 -86 34t-35 84t35 84.5t86 34.5t86 -34.5t35 -84.5t-35 -84t-86 -34zM258 -266q56 0 96 18l13 -106q-62 -27 -142 -27q-94 0 -148 46t-54 126q0 55 38 115t107 104v987h166v-997h-15q-73 -24 -117 -73t-44 -101q0 -43 25 -67.5t75 -24.5z" />
    <glyph glyph-name="Idotaccent" unicode="&#x130;" horiz-adv-x="559" 
d="M279 1622q-51 0 -86 34.5t-35 84.5t35 84.5t86 34.5t85.5 -34.5t34.5 -84.5t-34.5 -84.5t-85.5 -34.5zM190 0v1454h179v-1454h-179z" />
    <glyph glyph-name="dotlessi" unicode="&#x131;" horiz-adv-x="501" 
d="M168 0v997h166v-997h-166z" />
    <glyph glyph-name="IJ" unicode="&#x132;" horiz-adv-x="1568" 
d="M190 0v1454h179v-1454h-179zM1004 -10q-104 0 -209 48t-177 138l103 131q58 -66 129.5 -106.5t144.5 -40.5q238 0 238 317v977h180v-981q0 -239 -99.5 -361t-309.5 -122z" />
    <glyph glyph-name="ij" unicode="&#x133;" horiz-adv-x="960" 
d="M252 1180q-51 0 -86 34t-35 84t35 84.5t86 34.5t86 -34.5t35 -84.5t-35 -84t-86 -34zM735 1180q-51 0 -86 34t-35 84t35 84.5t86 34.5t86 -34.5t35 -84.5t-35 -84t-86 -34zM168 0v997h166v-997h-166zM567 -418q-95 0 -172 33l27 147q50 -30 113 -30q118 0 118 164v1101
h166v-1101q0 -147 -67 -230.5t-185 -83.5z" />
    <glyph glyph-name="Jcircumflex" unicode="&#x134;" horiz-adv-x="1009" 
d="M440 1602l238 253h174l231 -253h-165l-152 159h-4l-152 -159h-170zM444 -10q-103 0 -208 48t-177 138l103 131q58 -66 129.5 -106.5t144.5 -40.5q238 0 238 317v977h180v-981q0 -239 -100 -361t-310 -122z" />
    <glyph glyph-name="jcircumflex" unicode="&#x135;" horiz-adv-x="458" 
d="M-86 1139l236 286h174l227 -286h-166l-147 182h-5l-149 -182h-170zM66 -418q-95 0 -172 33l26 147q49 -30 113 -30q119 0 119 164v1101h165v-1101q0 -147 -66.5 -230.5t-184.5 -83.5z" />
    <glyph glyph-name="Kcommaaccent" unicode="&#x136;" horiz-adv-x="1323" 
d="M180 0v1454h178v-797h4l660 797h229l-563 -663l578 -791h-224l-473 651l-211 -248v-403h-178zM526 -434l-41 100q68 14 94.5 45.5t26.5 85.5q0 34 -10 92h152q8 -41 8 -100q0 -98 -62.5 -156t-167.5 -67z" />
    <glyph glyph-name="kcommaaccent" unicode="&#x137;" horiz-adv-x="1058" 
d="M156 0v1507h166v-1054l2 -2l489 546h201l-373 -411l377 -586h-191l-301 469l-204 -221v-248h-166zM410 -434l-41 100q67 14 93.5 45.5t26.5 85.5q0 34 -10 92h152q8 -41 8 -100q0 -98 -62 -156t-167 -67z" />
    <glyph glyph-name="kgreenlandic" unicode="&#x138;" horiz-adv-x="1103" 
d="M156 0v997h166v-548h2l510 548h208l-407 -432l430 -565h-205l-336 455l-202 -215v-240h-166z" />
    <glyph glyph-name="Lacute" unicode="&#x139;" horiz-adv-x="1140" 
d="M391 1602l230 264h190l-250 -264h-170zM180 0v1454h178v-1292h719v-162h-897z" />
    <glyph glyph-name="lacute" unicode="&#x13a;" horiz-adv-x="501" 
d="M164 1628l229 264h191l-250 -264h-170zM168 0v1507h166v-1507h-166z" />
    <glyph glyph-name="Lcommaaccent" unicode="&#x13b;" horiz-adv-x="1140" 
d="M180 0v1454h178v-1292h719v-162h-897zM465 -434l-41 100q68 14 94.5 45.5t26.5 85.5q0 34 -10 92h151q8 -41 8 -100q0 -98 -62 -156t-167 -67z" />
    <glyph glyph-name="lcommaaccent" unicode="&#x13c;" horiz-adv-x="501" 
d="M168 0v1507h166v-1507h-166zM102 -434l-41 100q68 14 94.5 45.5t26.5 85.5q0 34 -10 92h152q8 -41 8 -100q0 -98 -62.5 -156t-167.5 -67z" />
    <glyph glyph-name="Lcaron" unicode="&#x13d;" horiz-adv-x="1140" 
d="M623 1202l59 377h164l-101 -377h-122zM180 0v1454h178v-1292h719v-162h-897z" />
    <glyph glyph-name="lcaron" unicode="&#x13e;" horiz-adv-x="634" 
d="M485 1204l60 377h164l-101 -377h-123zM168 0v1507h166v-1507h-166z" />
    <glyph glyph-name="Ldot" unicode="&#x13f;" horiz-adv-x="1140" 
d="M180 0v1454h178v-1292h719v-162h-897zM852 573q-51 0 -87 35t-36 86t36 86t87 35t86 -35t35 -86t-35 -86t-86 -35z" />
    <glyph glyph-name="ldot" unicode="&#x140;" horiz-adv-x="757" 
d="M168 0v1507h166v-1507h-166zM629 401q-51 0 -87 35t-36 86t36 86t87 35t86 -35t35 -86t-35 -86t-86 -35z" />
    <glyph glyph-name="Lslash" unicode="&#x141;" horiz-adv-x="1171" 
d="M387 162h719v-162h-897v575l-164 -69v149l164 72v727h178v-651l244 106v-151l-244 -105v-491z" />
    <glyph glyph-name="lslash" unicode="&#x142;" horiz-adv-x="561" 
d="M522 827v-135l-151 -63v-629h-166v559l-164 -70v136l164 69v813h166v-743z" />
    <glyph glyph-name="Nacute" unicode="&#x143;" horiz-adv-x="1538" 
d="M584 1602l229 264h191l-250 -264h-170zM180 0v1454h176l822 -1157h2v1157h178v-1454h-182l-814 1145h-4v-1145h-178z" />
    <glyph glyph-name="nacute" unicode="&#x144;" horiz-adv-x="1179" 
d="M475 1141l242 289l186 2l-254 -291h-174zM156 0v997h166v-180h2q59 92 153 142.5t209 50.5q167 0 262.5 -105t95.5 -313v-592h-165v545q0 313 -246 313q-142 0 -226.5 -96.5t-84.5 -263.5v-498h-166z" />
    <glyph glyph-name="Ncommaaccent" unicode="&#x145;" horiz-adv-x="1538" 
d="M180 0v1454h176l822 -1157h2v1157h178v-1454h-182l-814 1145h-4v-1145h-178zM618 -434l-40 100q67 14 93.5 45.5t26.5 85.5q0 34 -10 92h152q8 -41 8 -100q0 -98 -62.5 -156t-167.5 -67z" />
    <glyph glyph-name="ncommaaccent" unicode="&#x146;" horiz-adv-x="1179" 
d="M156 0v997h166v-180h2q59 92 153 142.5t209 50.5q167 0 262.5 -105t95.5 -313v-592h-165v545q0 313 -246 313q-142 0 -226.5 -96.5t-84.5 -263.5v-498h-166zM463 -434l-41 100q68 14 94.5 45.5t26.5 85.5q0 28 -11 92h152q8 -41 8 -100q0 -98 -62 -156t-167 -67z" />
    <glyph glyph-name="Ncaron" unicode="&#x147;" horiz-adv-x="1538" 
d="M676 1602l-232 253h168l150 -159h4l154 159h167l-237 -253h-174zM180 0v1454h176l822 -1157h2v1157h178v-1454h-182l-814 1145h-4v-1145h-178z" />
    <glyph glyph-name="ncaron" unicode="&#x148;" horiz-adv-x="1179" 
d="M504 1137l-228 284h168l148 -180h4l147 180h170l-235 -284h-174zM156 0v997h166v-180h2q59 92 153 142.5t209 50.5q167 0 262.5 -105t95.5 -313v-592h-165v545q0 313 -246 313q-142 0 -226.5 -96.5t-84.5 -263.5v-498h-166z" />
    <glyph glyph-name="napostrophe" unicode="&#x149;" horiz-adv-x="1325" 
d="M6 1057l60 397h161l-98 -397h-123zM301 0v997h166v-180h2q59 92 153 142.5t209 50.5q167 0 263 -105t96 -313v-592h-166v545q0 313 -246 313q-142 0 -226.5 -96.5t-84.5 -263.5v-498h-166z" />
    <glyph glyph-name="Eng" unicode="&#x14a;" horiz-adv-x="1538" 
d="M1180 1454h178v-1477q0 -395 -369 -395q-85 0 -168 29l13 149q53 -26 129 -26q217 0 217 237v27l-818 1145h-4v-1143h-178v1454h174l822 -1159l4 2v1157z" />
    <glyph glyph-name="eng" unicode="&#x14b;" horiz-adv-x="1173" 
d="M705 -418q-72 0 -146 29l12 135q59 -22 113 -22q102 0 145 49t43 170v602q0 313 -243 313q-139 0 -223 -96.5t-84 -263.5v-498h-166v997h166v-180h2q59 92 151 142.5t205 50.5q167 0 262.5 -105t95.5 -313v-635q0 -190 -81 -282.5t-252 -92.5z" />
    <glyph glyph-name="Omacron" unicode="&#x14c;" horiz-adv-x="1689" 
d="M553 1657v137h590v-137h-590zM848 -12q-210 0 -376.5 94t-260.5 263t-94 382t94 382.5t261 264t376 94.5q152 0 285.5 -54t230.5 -149.5t153 -235t56 -302.5t-56 -301.5t-153 -234t-230.5 -149.5t-285.5 -54zM848 156q112 0 211 42.5t171 116.5t114 181t42 231t-42 231.5
t-114 182t-171 117t-211 42.5q-236 0 -390.5 -162.5t-154.5 -410.5q0 -246 154.5 -408.5t390.5 -162.5z" />
    <glyph glyph-name="omacron" unicode="&#x14d;" 
d="M313 1221v141h590v-141h-590zM608 -12q-151 0 -269.5 67.5t-182.5 183.5t-64 259q0 219 144 365.5t372 146.5q223 0 368.5 -143t145.5 -369q0 -225 -145.5 -367.5t-368.5 -142.5zM608 139q145 0 244.5 101t99.5 258q0 158 -98.5 259t-245.5 101q-154 0 -250 -103.5
t-96 -256.5q0 -152 96.5 -255.5t249.5 -103.5z" />
    <glyph glyph-name="Obreve" unicode="&#x14e;" horiz-adv-x="1689" 
d="M848 1589q-128 0 -207 72.5t-88 193.5h133q3 -58 46.5 -97.5t115.5 -39.5t115.5 40t46.5 97h133q-9 -121 -88 -193.5t-207 -72.5zM848 -12q-210 0 -376.5 94t-260.5 263t-94 382t94 382.5t261 264t376 94.5q152 0 285.5 -54t230.5 -149.5t153 -235t56 -302.5t-56 -301.5
t-153 -234t-230.5 -149.5t-285.5 -54zM848 156q112 0 211 42.5t171 116.5t114 181t42 231t-42 231.5t-114 182t-171 117t-211 42.5q-236 0 -390.5 -162.5t-154.5 -410.5q0 -246 154.5 -408.5t390.5 -162.5z" />
    <glyph glyph-name="obreve" unicode="&#x14f;" 
d="M608 1130q-129 0 -207.5 77.5t-87.5 213.5h133q3 -67 47 -113t115 -46q72 0 115.5 45.5t46.5 113.5h133q-9 -136 -87.5 -213.5t-207.5 -77.5zM608 -12q-151 0 -269.5 67.5t-182.5 183.5t-64 259q0 219 144 365.5t372 146.5q223 0 368.5 -143t145.5 -369
q0 -225 -145.5 -367.5t-368.5 -142.5zM608 139q145 0 244.5 101t99.5 258q0 158 -98.5 259t-245.5 101q-154 0 -250 -103.5t-96 -256.5q0 -152 96.5 -255.5t249.5 -103.5z" />
    <glyph glyph-name="Ohungarumlaut" unicode="&#x150;" horiz-adv-x="1689" 
d="M594 1599l242 289l174 2l-254 -291h-162zM938 1599l240 289l174 2l-254 -291h-160zM848 -12q-210 0 -376.5 94t-260.5 263t-94 382t94 382.5t261 264t376 94.5q152 0 285.5 -54t230.5 -149.5t153 -235t56 -302.5t-56 -301.5t-153 -234t-230.5 -149.5t-285.5 -54zM848 156
q112 0 211 42.5t171 116.5t114 181t42 231t-42 231.5t-114 182t-171 117t-211 42.5q-236 0 -390.5 -162.5t-154.5 -410.5q0 -246 154.5 -408.5t390.5 -162.5z" />
    <glyph glyph-name="ohungarumlaut" unicode="&#x151;" 
d="M354 1141l242 289l174 2l-254 -291h-162zM698 1141l240 289l174 2l-254 -291h-160zM608 -12q-151 0 -269.5 67.5t-182.5 183.5t-64 259q0 219 144 365.5t372 146.5q223 0 368.5 -143t145.5 -369q0 -225 -145.5 -367.5t-368.5 -142.5zM608 139q145 0 244.5 101t99.5 258
q0 158 -98.5 259t-245.5 101q-154 0 -250 -103.5t-96 -256.5q0 -152 96.5 -255.5t249.5 -103.5z" />
    <glyph glyph-name="OE" unicode="&#x152;" horiz-adv-x="1953" 
d="M1096 162h757v-162h-1001q-214 0 -383 97.5t-260.5 263.5t-91.5 368q0 203 91.5 368.5t260.5 261.5t383 95h960v-162h-716v-489h596v-162h-596v-479zM852 166l74 2v1120h-74q-114 1 -215 -41t-174.5 -115t-116.5 -178t-43 -225q0 -160 73 -289.5t198.5 -201.5t277.5 -72z
" />
    <glyph glyph-name="oe" unicode="&#x153;" horiz-adv-x="1669" 
d="M1608 514q0 -39 -4 -63h-674q11 -145 86.5 -228.5t204.5 -83.5q148 0 241 133l117 -98q-131 -186 -367 -186q-256 0 -372 219h-4q-43 -101 -136.5 -160t-201.5 -59q-198 0 -315 139.5t-117 368.5q0 224 119.5 369t312.5 145q120 0 206.5 -60.5t131.5 -161.5h4
q112 222 366 222q179 0 290.5 -139.5t111.5 -356.5zM496 137q110 0 186 102t76 259q0 158 -72.5 259t-181.5 101q-118 0 -193 -102t-75 -258q0 -161 70.5 -261t189.5 -100zM932 580h510q-11 128 -74 203t-166 75q-117 0 -186 -74t-84 -204z" />
    <glyph glyph-name="Racute" unicode="&#x154;" horiz-adv-x="1314" 
d="M467 1602l229 264h191l-250 -264h-170zM180 0v1454h516q123 0 216.5 -33.5t151 -95t86 -142t28.5 -179.5q0 -180 -94 -288.5t-269 -144.5l402 -571h-213l-386 555h-260v-555h-178zM358 717h289q174 0 260 79t86 212q0 138 -84.5 211t-236.5 73h-314v-575z" />
    <glyph glyph-name="racute" unicode="&#x155;" horiz-adv-x="722" 
d="M252 1141l242 289l186 2l-254 -291h-174zM156 0v997h166v-182h4q55 92 138.5 143.5t184.5 51.5q27 0 41 -2v-185q-50 4 -65 4q-140 0 -221.5 -96t-81.5 -250v-481h-166z" />
    <glyph glyph-name="Rcommaaccent" unicode="&#x156;" horiz-adv-x="1314" 
d="M180 0v1454h516q123 0 216.5 -33.5t151 -95t86 -142t28.5 -179.5q0 -180 -94 -288.5t-269 -144.5l402 -571h-213l-386 555h-260v-555h-178zM358 717h289q174 0 260 79t86 212q0 138 -84.5 211t-236.5 73h-314v-575zM498 -434l-41 100q68 14 94.5 45.5t26.5 85.5
q0 28 -11 92h152q8 -41 8 -100q0 -98 -62 -156t-167 -67z" />
    <glyph glyph-name="rcommaaccent" unicode="&#x157;" horiz-adv-x="722" 
d="M156 0v997h166v-182h4q55 92 138.5 143.5t184.5 51.5q27 0 41 -2v-185q-50 4 -65 4q-140 0 -221.5 -96t-81.5 -250v-481h-166zM92 -434l-41 100q68 14 94.5 45.5t26.5 85.5q0 34 -10 92h151q9 -47 9 -100q0 -98 -62.5 -156t-167.5 -67z" />
    <glyph glyph-name="Rcaron" unicode="&#x158;" horiz-adv-x="1314" 
d="M559 1602l-231 253h168l149 -159h4l154 159h168l-238 -253h-174zM180 0v1454h516q123 0 216.5 -33.5t151 -95t86 -142t28.5 -179.5q0 -180 -94 -288.5t-269 -144.5l402 -571h-213l-386 555h-260v-555h-178zM358 717h289q174 0 260 79t86 212q0 138 -84.5 211t-236.5 73
h-314v-575z" />
    <glyph glyph-name="rcaron" unicode="&#x159;" horiz-adv-x="722" 
d="M342 1137l-227 284h168l147 -180h4l148 180h170l-236 -284h-174zM156 0v997h166v-182h4q55 92 138.5 143.5t184.5 51.5q27 0 41 -2v-185q-50 4 -65 4q-140 0 -221.5 -96t-81.5 -250v-481h-166z" />
    <glyph glyph-name="Sacute" unicode="&#x15a;" horiz-adv-x="1187" 
d="M467 1602l229 264h191l-250 -264h-170zM600 -12q-142 0 -275.5 56t-238.5 169l115 137q75 -95 183 -145.5t218 -50.5q136 0 217.5 59.5t81.5 163.5q0 56 -17 95.5t-70 73.5t-86 48.5t-128 50.5q-16 7 -25 10q-56 21 -92.5 36t-86.5 39t-82.5 46.5t-68.5 55.5t-56.5 68.5
t-34 82.5t-13.5 100q0 163 128.5 274t316.5 111q248 0 458 -170l-108 -141q-180 148 -350 148q-108 0 -183.5 -56.5t-76.5 -156.5q-1 -41 15.5 -74.5t39 -56.5t70 -48.5t82.5 -40t104 -41.5q179 -71 234 -100q140 -73 187 -180q29 -66 29 -154q0 -97 -40 -176t-108.5 -129
t-155.5 -77t-183 -27z" />
    <glyph glyph-name="sacute" unicode="&#x15b;" horiz-adv-x="894" 
d="M346 1141l242 289l186 2l-254 -291h-174zM457 -12q-228 0 -389 141l84 127q62 -60 133.5 -90.5t171.5 -30.5q88 0 139 38t51 97q0 24 -10 43t-24 32.5t-44 28t-53.5 23.5t-69.5 26q-8 3 -12.5 4.5t-11 4t-12.5 4.5q-71 25 -117 47t-91.5 57.5t-68 85t-22.5 115.5
q0 116 93 192.5t234 76.5q192 0 344 -123l-86 -131q-114 106 -264 106q-62 0 -107.5 -33t-45.5 -88q0 -54 46.5 -87.5t141.5 -67.5q16 -6 47 -18q40 -15 59.5 -23t52.5 -22t49 -23.5t40.5 -24.5t36 -28.5t26.5 -33t21.5 -40t11 -46t4.5 -55.5q0 -123 -92.5 -203.5
t-265.5 -80.5z" />
    <glyph glyph-name="Scircumflex" unicode="&#x15c;" horiz-adv-x="1187" 
d="M266 1602l238 253h174l231 -253h-166l-151 159h-4l-152 -159h-170zM600 -12q-142 0 -275.5 56t-238.5 169l115 137q75 -95 183 -145.5t218 -50.5q136 0 217.5 59.5t81.5 163.5q0 56 -17 95.5t-70 73.5t-86 48.5t-128 50.5q-16 7 -25 10q-56 21 -92.5 36t-86.5 39
t-82.5 46.5t-68.5 55.5t-56.5 68.5t-34 82.5t-13.5 100q0 163 128.5 274t316.5 111q248 0 458 -170l-108 -141q-180 148 -350 148q-108 0 -183.5 -56.5t-76.5 -156.5q-1 -41 15.5 -74.5t39 -56.5t70 -48.5t82.5 -40t104 -41.5q179 -71 234 -100q140 -73 187 -180
q29 -66 29 -154q0 -97 -40 -176t-108.5 -129t-155.5 -77t-183 -27z" />
    <glyph glyph-name="scircumflex" unicode="&#x15d;" horiz-adv-x="894" 
d="M139 1139l236 286h174l227 -286h-166l-147 182h-4l-150 -182h-170zM457 -12q-228 0 -389 141l84 127q62 -60 133.5 -90.5t171.5 -30.5q88 0 139 38t51 97q0 24 -10 43t-24 32.5t-44 28t-53.5 23.5t-69.5 26q-8 3 -12.5 4.5t-11 4t-12.5 4.5q-71 25 -117 47t-91.5 57.5
t-68 85t-22.5 115.5q0 116 93 192.5t234 76.5q192 0 344 -123l-86 -131q-114 106 -264 106q-62 0 -107.5 -33t-45.5 -88q0 -54 46.5 -87.5t141.5 -67.5q16 -6 47 -18q40 -15 59.5 -23t52.5 -22t49 -23.5t40.5 -24.5t36 -28.5t26.5 -33t21.5 -40t11 -46t4.5 -55.5
q0 -123 -92.5 -203.5t-265.5 -80.5z" />
    <glyph glyph-name="Scedilla" unicode="&#x15e;" horiz-adv-x="1187" 
d="M623 -12l-25 -51v-5q83 -3 131.5 -45t48.5 -116q0 -69 -55 -112.5t-164 -43.5q-53 0 -115 12v90q44 -14 99 -14q47 0 80.5 19.5t33.5 56.5q0 36 -44 61t-126 25l2 61l31 66q-254 29 -434 221l115 137q75 -95 183 -145.5t218 -50.5q136 0 217.5 59.5t81.5 163.5
q0 56 -17 95.5t-70 73.5t-86 48.5t-128 50.5q-16 7 -25 10q-56 21 -92.5 36t-86.5 39t-82.5 46.5t-68.5 55.5t-56.5 68.5t-34 82.5t-13.5 100q0 163 128.5 274t316.5 111q248 0 458 -170l-108 -141q-180 148 -350 148q-108 0 -183.5 -56.5t-76.5 -156.5q-1 -41 15.5 -74.5
t39 -56.5t70 -48.5t82.5 -40t104 -41.5q179 -71 234 -100q140 -73 187 -180q29 -66 29 -154q0 -124 -66 -217.5t-169.5 -140.5t-228.5 -51z" />
    <glyph glyph-name="scedilla" unicode="&#x15f;" horiz-adv-x="894" 
d="M467 586q16 -6 47 -18q40 -15 59.5 -23t52.5 -22t49 -23.5t40.5 -24.5t36 -28.5t26.5 -33t21.5 -40t11 -46t4.5 -55.5q0 -123 -92.5 -203.5t-265.5 -80.5h-6l-23 -51v-5q83 -3 131.5 -45t48.5 -116q0 -69 -55 -112.5t-164 -43.5q-53 0 -115 12v90q44 -14 99 -14
q47 0 80.5 19.5t33.5 56.5q0 36 -44 61t-126 25l2 61l31 70q-161 25 -282 133l84 127q62 -60 133.5 -90.5t171.5 -30.5q88 0 139 38t51 97q0 24 -10 43t-24 32.5t-44 28t-53.5 23.5t-69.5 26q-8 3 -12.5 4.5t-11 4t-12.5 4.5q-71 25 -117 47t-91.5 57.5t-68 85t-22.5 115.5
q0 116 93 192.5t234 76.5q192 0 344 -123l-86 -131q-114 106 -264 106q-62 0 -107.5 -33t-45.5 -88q0 -54 46.5 -87.5t141.5 -67.5z" />
    <glyph glyph-name="Scaron" unicode="&#x160;" horiz-adv-x="1187" 
d="M498 1602l-232 253h168l150 -159h4l153 159h168l-237 -253h-174zM600 -12q-142 0 -275.5 56t-238.5 169l115 137q75 -95 183 -145.5t218 -50.5q136 0 217.5 59.5t81.5 163.5q0 56 -17 95.5t-70 73.5t-86 48.5t-128 50.5q-16 7 -25 10q-56 21 -92.5 36t-86.5 39
t-82.5 46.5t-68.5 55.5t-56.5 68.5t-34 82.5t-13.5 100q0 163 128.5 274t316.5 111q248 0 458 -170l-108 -141q-180 148 -350 148q-108 0 -183.5 -56.5t-76.5 -156.5q-1 -41 15.5 -74.5t39 -56.5t70 -48.5t82.5 -40t104 -41.5q179 -71 234 -100q140 -73 187 -180
q29 -66 29 -154q0 -97 -40 -176t-108.5 -129t-155.5 -77t-183 -27z" />
    <glyph glyph-name="scaron" unicode="&#x161;" horiz-adv-x="894" 
d="M367 1137l-228 284h168l148 -180h4l147 180h170l-235 -284h-174zM457 -12q-228 0 -389 141l84 127q62 -60 133.5 -90.5t171.5 -30.5q88 0 139 38t51 97q0 24 -10 43t-24 32.5t-44 28t-53.5 23.5t-69.5 26q-8 3 -12.5 4.5t-11 4t-12.5 4.5q-71 25 -117 47t-91.5 57.5
t-68 85t-22.5 115.5q0 116 93 192.5t234 76.5q192 0 344 -123l-86 -131q-114 106 -264 106q-62 0 -107.5 -33t-45.5 -88q0 -54 46.5 -87.5t141.5 -67.5q16 -6 47 -18q40 -15 59.5 -23t52.5 -22t49 -23.5t40.5 -24.5t36 -28.5t26.5 -33t21.5 -40t11 -46t4.5 -55.5
q0 -123 -92.5 -203.5t-265.5 -80.5z" />
    <glyph glyph-name="uni0162" unicode="&#x162;" horiz-adv-x="1173" 
d="M598 0l-29 -63v-5q83 -3 132 -45t49 -116q0 -69 -55.5 -112.5t-164.5 -43.5q-52 0 -114 12v90q44 -14 98 -14q47 0 81 19.5t34 56.5q0 36 -44 61t-126 25l2 61l35 78v1288h-435v162h1053v-162h-440v-1292h-76z" />
    <glyph glyph-name="uni0163" unicode="&#x163;" horiz-adv-x="739" 
d="M408 -68q83 -3 131.5 -45t48.5 -116q0 -69 -55 -112.5t-164 -43.5q-53 0 -115 12v90q44 -14 98 -14q47 0 81 19.5t34 56.5q0 36 -44 61t-126 25l2 61l35 78q-156 52 -156 293v557h-129v143h129v340l166 19v-359h330v-143h-330v-532q0 -94 26.5 -136.5t94.5 -42.5
q76 0 170 52l43 -146q-102 -61 -242 -61h-6l-22 -51v-5z" />
    <glyph glyph-name="Tcaron" unicode="&#x164;" horiz-adv-x="1173" 
d="M492 1602l-232 253h168l150 -159h4l153 159h168l-237 -253h-174zM496 0v1292h-435v162h1053v-162h-440v-1292h-178z" />
    <glyph glyph-name="tcaron" unicode="&#x165;" horiz-adv-x="739" 
d="M489 1204l60 377h164l-101 -377h-123zM436 -12q-258 0 -258 309v557h-129v143h129v340l166 19v-359h330v-143h-330v-532q0 -94 26.5 -136.5t94.5 -42.5q76 0 170 52l43 -146q-102 -61 -242 -61z" />
    <glyph glyph-name="Tbar" unicode="&#x166;" horiz-adv-x="1173" 
d="M1114 1292h-440v-506h248v-137h-248v-649h-178v649h-240v137h240v506h-435v162h1053v-162z" />
    <glyph glyph-name="tbar" unicode="&#x167;" horiz-adv-x="739" 
d="M635 195l43 -146q-102 -61 -242 -61q-258 0 -258 309v201h-108v118h108v238h-129v143h129v340l166 19v-359h330v-143h-330v-238h279v-118h-279v-176q0 -94 26.5 -136.5t94.5 -42.5q76 0 170 52z" />
    <glyph glyph-name="Utilde" unicode="&#x168;" horiz-adv-x="1445" 
d="M883 1602q-73 0 -174 67q-83 51 -129 51q-73 0 -119 -112l-107 45q31 90 84.5 141t128.5 51q34 0 68.5 -10.5t54.5 -21t51 -29.5q8 -5 25.5 -16t27 -16.5t24 -12.5t28 -10t26.5 -3q70 0 111 113l107 -35q-30 -101 -83.5 -151.5t-123.5 -50.5zM723 -12q-255 0 -409 160.5
t-154 443.5v862h178v-850q0 -202 104.5 -325t280.5 -123q172 0 279.5 120.5t107.5 327.5v850h178v-862q0 -279 -152.5 -441.5t-412.5 -162.5z" />
    <glyph glyph-name="utilde" unicode="&#x169;" horiz-adv-x="1150" 
d="M731 1151q-33 0 -68 12.5t-57 25.5t-55 36q-74 49 -119 49q-80 0 -123 -115l-106 47q64 201 213 201q80 0 166 -59q6 -4 24.5 -16t27.5 -17t24 -13t28.5 -11t26.5 -3q37 0 67.5 29.5t50.5 83.5l105 -35q-27 -102 -82 -158.5t-123 -56.5zM508 -12q-177 0 -276 103.5
t-99 311.5v594h166v-546q0 -165 61 -238.5t183 -73.5q125 0 211 101.5t86 273.5v483h166v-997h-166v172h-2q-56 -88 -143.5 -136t-186.5 -48z" />
    <glyph glyph-name="Umacron" unicode="&#x16a;" horiz-adv-x="1445" 
d="M428 1657v137h590v-137h-590zM723 -12q-255 0 -409 160.5t-154 443.5v862h178v-850q0 -202 104.5 -325t280.5 -123q172 0 279.5 120.5t107.5 327.5v850h178v-862q0 -279 -152.5 -441.5t-412.5 -162.5z" />
    <glyph glyph-name="umacron" unicode="&#x16b;" horiz-adv-x="1150" 
d="M276 1221v141h590v-141h-590zM508 -12q-177 0 -276 103.5t-99 311.5v594h166v-546q0 -165 61 -238.5t183 -73.5q125 0 211 101.5t86 273.5v483h166v-997h-166v172h-2q-56 -88 -143.5 -136t-186.5 -48z" />
    <glyph glyph-name="Ubreve" unicode="&#x16c;" horiz-adv-x="1445" 
d="M723 1589q-128 0 -207 72.5t-88 193.5h133q3 -58 46.5 -97.5t115.5 -39.5t115.5 40t46.5 97h133q-9 -121 -88 -193.5t-207 -72.5zM723 -12q-255 0 -409 160.5t-154 443.5v862h178v-850q0 -202 104.5 -325t280.5 -123q172 0 279.5 120.5t107.5 327.5v850h178v-862
q0 -279 -152.5 -441.5t-412.5 -162.5z" />
    <glyph glyph-name="ubreve" unicode="&#x16d;" horiz-adv-x="1150" 
d="M571 1130q-129 0 -207.5 77.5t-87.5 213.5h134q3 -67 46.5 -113t114.5 -46q72 0 115.5 45.5t46.5 113.5h133q-9 -136 -87.5 -213.5t-207.5 -77.5zM508 -12q-177 0 -276 103.5t-99 311.5v594h166v-546q0 -165 61 -238.5t183 -73.5q125 0 211 101.5t86 273.5v483h166v-997
h-166v172h-2q-56 -88 -143.5 -136t-186.5 -48z" />
    <glyph glyph-name="Uring" unicode="&#x16e;" horiz-adv-x="1445" 
d="M721 1556q-79 0 -137 57t-58 136t56.5 136t138.5 57q83 0 141 -55.5t58 -137.5q0 -78 -57 -135.5t-142 -57.5zM721 1665q38 0 64 25t26 61t-26 61t-64 25q-35 0 -60.5 -25.5t-25.5 -60.5q0 -36 25 -61t61 -25zM723 -12q-255 0 -409 160.5t-154 443.5v862h178v-850
q0 -202 104.5 -325t280.5 -123q172 0 279.5 120.5t107.5 327.5v850h178v-862q0 -279 -152.5 -441.5t-412.5 -162.5z" />
    <glyph glyph-name="uring" unicode="&#x16f;" horiz-adv-x="1150" 
d="M569 1116q-78 0 -136 57t-58 136t56 135.5t138 56.5q84 0 141.5 -55.5t57.5 -136.5q0 -78 -57 -135.5t-142 -57.5zM569 1225q38 0 64 25t26 61t-26 61t-64 25q-35 0 -60.5 -25.5t-25.5 -60.5q0 -36 25 -61t61 -25zM508 -12q-177 0 -276 103.5t-99 311.5v594h166v-546
q0 -165 61 -238.5t183 -73.5q125 0 211 101.5t86 273.5v483h166v-997h-166v172h-2q-56 -88 -143.5 -136t-186.5 -48z" />
    <glyph glyph-name="Uhungarumlaut" unicode="&#x170;" horiz-adv-x="1445" 
d="M469 1599l242 289l174 2l-254 -291h-162zM813 1599l240 289l174 2l-254 -291h-160zM723 -12q-255 0 -409 160.5t-154 443.5v862h178v-850q0 -202 104.5 -325t280.5 -123q172 0 279.5 120.5t107.5 327.5v850h178v-862q0 -279 -152.5 -441.5t-412.5 -162.5z" />
    <glyph glyph-name="uhungarumlaut" unicode="&#x171;" horiz-adv-x="1150" 
d="M317 1141l242 289l174 2l-254 -291h-162zM662 1141l239 289l174 2l-254 -291h-159zM508 -12q-177 0 -276 103.5t-99 311.5v594h166v-546q0 -165 61 -238.5t183 -73.5q125 0 211 101.5t86 273.5v483h166v-997h-166v172h-2q-56 -88 -143.5 -136t-186.5 -48z" />
    <glyph glyph-name="Uogonek" unicode="&#x172;" horiz-adv-x="1445" 
d="M1110 1454h178v-862q0 -235 -110.5 -390t-303.5 -198q-74 -29 -116.5 -75t-42.5 -95q0 -43 25.5 -68.5t74.5 -25.5q55 0 96 18l11 -106q-62 -27 -140 -27q-94 0 -149 47t-55 127q0 45 27 95t77 92v4q-237 12 -379.5 171.5t-142.5 430.5v862h178v-850q0 -202 104.5 -325
t280.5 -123q172 0 279.5 120.5t107.5 327.5v850z" />
    <glyph glyph-name="uogonek" unicode="&#x173;" horiz-adv-x="1150" 
d="M1024 -248l12 -106q-62 -27 -141 -27q-94 0 -148.5 46.5t-54.5 125.5q0 56 39 115t109 104v162h-2q-56 -88 -143.5 -136t-186.5 -48q-177 0 -276 103.5t-99 311.5v594h166v-546q0 -165 61 -238.5t183 -73.5q125 0 211 101.5t86 273.5v483h166v-997h-17q-74 -24 -118 -73
t-44 -101q0 -43 25.5 -67.5t75.5 -24.5q56 0 96 18z" />
    <glyph glyph-name="Wcircumflex" unicode="&#x174;" horiz-adv-x="2088" 
d="M723 1602l238 253h174l231 -253h-166l-151 159h-5l-151 -159h-170zM530 0l-462 1454h190l358 -1165h5l327 1165h195l325 -1163h5l360 1163h188l-465 -1454h-172l-335 1194h-5l-342 -1194h-172z" />
    <glyph glyph-name="wcircumflex" unicode="&#x175;" horiz-adv-x="1564" 
d="M463 1139l235 286h174l228 -286h-166l-148 182h-4l-149 -182h-170zM399 0l-344 997h170l252 -749h4l230 749h143l233 -749h5l249 749h170l-344 -997h-155l-230 731h-2l-229 -731h-152z" />
    <glyph glyph-name="Ycircumflex" unicode="&#x176;" horiz-adv-x="1230" 
d="M295 1602l237 253h175l231 -253h-166l-151 159h-5l-151 -159h-170zM524 0v649l-493 805h205l376 -625h4l375 625h209l-498 -805v-649h-178z" />
    <glyph glyph-name="ycircumflex" unicode="&#x177;" horiz-adv-x="1075" 
d="M221 1139l236 286h174l227 -286h-166l-147 182h-4l-150 -182h-170zM291 -406l178 445l-424 958h180l324 -757h4l301 757h174l-565 -1403h-172z" />
    <glyph glyph-name="Ydieresis" unicode="&#x178;" horiz-adv-x="1230" 
d="M434 1624q-51 0 -85 34.5t-34 84.5q0 48 34 81.5t85 33.5q49 0 84 -34.5t35 -82.5t-35 -82.5t-84 -34.5zM805 1624q-49 0 -84 35t-35 84q0 47 35 81t84 34t84 -34.5t35 -82.5t-35 -82.5t-84 -34.5zM524 0v649l-493 805h205l376 -625h4l375 625h209l-498 -805v-649h-178z
" />
    <glyph glyph-name="Zacute" unicode="&#x179;" horiz-adv-x="1255" 
d="M438 1602l230 264h190l-250 -264h-170zM117 0v141l774 1149l-2 2h-733v162h968v-141l-780 -1147l2 -4h787v-162h-1016z" />
    <glyph glyph-name="zacute" unicode="&#x17a;" horiz-adv-x="964" 
d="M373 1141l241 289l187 2l-254 -291h-174zM74 0v121l579 727l-2 6h-547v143h777v-118l-582 -734l2 -2h580v-143h-807z" />
    <glyph glyph-name="Zdotaccent" unicode="&#x17b;" horiz-adv-x="1255" 
d="M623 1622q-51 0 -86 34.5t-35 84.5t35 84.5t86 34.5t85.5 -34.5t34.5 -84.5t-34.5 -84.5t-85.5 -34.5zM117 0v141l774 1149l-2 2h-733v162h968v-141l-780 -1147l2 -4h787v-162h-1016z" />
    <glyph glyph-name="zdotaccent" unicode="&#x17c;" horiz-adv-x="964" 
d="M483 1180q-51 0 -86 34t-35 84t35 84.5t86 34.5t86 -34.5t35 -84.5t-35 -84t-86 -34zM74 0v121l579 727l-2 6h-547v143h777v-118l-582 -734l2 -2h580v-143h-807z" />
    <glyph glyph-name="Zcaron" unicode="&#x17d;" horiz-adv-x="1255" 
d="M530 1602l-231 253h168l149 -159h5l153 159h168l-237 -253h-175zM117 0v141l774 1149l-2 2h-733v162h968v-141l-780 -1147l2 -4h787v-162h-1016z" />
    <glyph glyph-name="zcaron" unicode="&#x17e;" horiz-adv-x="964" 
d="M391 1137l-227 284h168l147 -180h4l148 180h170l-236 -284h-174zM74 0v121l579 727l-2 6h-547v143h777v-118l-582 -734l2 -2h580v-143h-807z" />
    <glyph glyph-name="longs" unicode="&#x17f;" horiz-adv-x="653" 
d="M197 0v854h-121v143h121v203q0 158 72.5 240t207.5 82q128 0 232 -66l-37 -141q-101 53 -174 53q-136 0 -136 -184v-1184h-165z" />
    <glyph glyph-name="uni018F" unicode="&#x18f;" horiz-adv-x="1587" 
d="M752 1468q172 0 310 -57.5t226.5 -157.5t135 -233.5t46.5 -288.5q0 -168 -53 -308.5t-146.5 -235t-222 -147t-278.5 -52.5q-200 0 -352.5 79.5t-239 234.5t-86.5 366q0 36 4 90h1192q-9 247 -154 393.5t-399 146.5q-246 3 -450 -145l-103 135q238 183 570 180zM766 156
q199 0 338 116.5t174 325.5h-1006q9 -203 144 -322.5t350 -119.5z" />
    <glyph glyph-name="florin" unicode="&#x192;" horiz-adv-x="1093" 
d="M203 -256q-178 0 -266 84l65 119q74 -51 174 -51q163 0 189 206l92 713h-158l20 143h160l31 240q45 324 328 324q165 0 266 -84l-66 -119q-84 49 -174 49q-79 0 -127 -48t-61 -159l-25 -203h303l-18 -143h-307l-99 -747q-42 -324 -327 -324z" />
    <glyph glyph-name="uni019D" unicode="&#x19d;" horiz-adv-x="1538" 
d="M1180 1454h178v-1454h-182l-814 1145h-4v-1221q0 -342 -268 -342q-77 0 -160 29l13 149q55 -24 108 -24q129 0 129 155v1563h178v-2l820 -1155h2v1157z" />
    <glyph glyph-name="Ohorn" unicode="&#x1a0;" horiz-adv-x="1775" 
d="M1538 1585h170v-149q0 -291 -217 -351q82 -158 82 -358q0 -163 -56 -301.5t-153 -234t-230.5 -149.5t-285.5 -54q-210 0 -376.5 94t-260.5 263t-94 382t94 382.5t261 264t376 94.5q177 0 327.5 -72t249.5 -202q68 19 90.5 77.5t22.5 172.5v141zM848 156q112 0 211 42.5
t171 116.5t114 181t42 231t-42 231.5t-114 182t-171 117t-211 42.5q-236 0 -390.5 -162.5t-154.5 -410.5q0 -246 154.5 -408.5t390.5 -162.5z" />
    <glyph glyph-name="ohorn" unicode="&#x1a1;" horiz-adv-x="1370" 
d="M1163 1157h170v-149q0 -302 -231 -353q20 -82 20 -157q0 -225 -145.5 -367.5t-368.5 -142.5q-151 0 -269.5 67.5t-182.5 183.5t-64 259q0 219 144 365.5t372 146.5q147 0 263.5 -64.5t183.5 -179.5q34 11 55.5 31.5t33 54t15.5 71t4 93.5v141zM608 139q145 0 244.5 101
t99.5 258q0 158 -98.5 259t-245.5 101q-154 0 -250 -103.5t-96 -256.5q0 -152 96.5 -255.5t249.5 -103.5z" />
    <glyph glyph-name="Uhorn" unicode="&#x1af;" horiz-adv-x="1619" 
d="M1430 1585h169v-149q0 -173 -80 -265.5t-231 -97.5v-481q0 -279 -152.5 -441.5t-412.5 -162.5q-255 0 -409 160.5t-154 443.5v862h178v-850q0 -202 104.5 -325t280.5 -123q172 0 279.5 120.5t107.5 327.5v850h178v-266q86 13 114 72t28 184v141z" />
    <glyph glyph-name="uhorn" unicode="&#x1b0;" horiz-adv-x="1345" 
d="M1139 1157h170v-149q0 -171 -77.5 -263t-225.5 -100v-645h-166v172h-2q-56 -88 -143.5 -136t-186.5 -48q-177 0 -276 103.5t-99 311.5v594h166v-546q0 -165 61 -238.5t183 -73.5q125 0 211 101.5t86 273.5v483h166v-237q42 8 69 28t40.5 54.5t18.5 74t5 99.5v141z" />
    <glyph glyph-name="uni01CD" unicode="&#x1cd;" horiz-adv-x="1384" 
d="M600 1602l-231 253h168l149 -159h4l154 159h168l-238 -253h-174zM51 0l551 1454h178l553 -1454h-186l-131 354h-649l-129 -354h-187zM424 510h537l-269 729h-4z" />
    <glyph glyph-name="uni01CE" unicode="&#x1ce;" horiz-adv-x="1236" 
d="M520 1137l-227 284h168l147 -180h4l148 180h170l-236 -284h-174zM575 -12q-209 0 -347 140t-138 364q0 223 137 370.5t348 147.5q111 0 203 -50.5t146 -140.5l4 2v176h166v-997h-160v180h-2q-55 -91 -146.5 -141.5t-210.5 -50.5zM600 139q141 0 237.5 99t96.5 254
q0 156 -94 261t-240 105q-144 0 -243 -102t-99 -264q0 -153 95 -253t247 -100z" />
    <glyph glyph-name="uni01CF" unicode="&#x1cf;" horiz-adv-x="559" 
d="M186 1602l-231 253h168l149 -159h4l154 159h168l-238 -253h-174zM190 0v1454h179v-1454h-179z" />
    <glyph glyph-name="uni01D0" unicode="&#x1d0;" horiz-adv-x="501" 
d="M160 1137l-228 284h168l148 -180h4l147 180h170l-235 -284h-174zM168 0v997h166v-997h-166z" />
    <glyph glyph-name="uni01D1" unicode="&#x1d1;" horiz-adv-x="1689" 
d="M756 1602l-232 253h168l150 -159h4l153 159h168l-237 -253h-174zM848 -12q-210 0 -376.5 94t-260.5 263t-94 382t94 382.5t261 264t376 94.5q152 0 285.5 -54t230.5 -149.5t153 -235t56 -302.5t-56 -301.5t-153 -234t-230.5 -149.5t-285.5 -54zM848 156q112 0 211 42.5
t171 116.5t114 181t42 231t-42 231.5t-114 182t-171 117t-211 42.5q-236 0 -390.5 -162.5t-154.5 -410.5q0 -246 154.5 -408.5t390.5 -162.5z" />
    <glyph glyph-name="uni01D2" unicode="&#x1d2;" 
d="M516 1137l-227 284h168l147 -180h4l148 180h170l-236 -284h-174zM608 -12q-151 0 -269.5 67.5t-182.5 183.5t-64 259q0 219 144 365.5t372 146.5q223 0 368.5 -143t145.5 -369q0 -225 -145.5 -367.5t-368.5 -142.5zM608 139q145 0 244.5 101t99.5 258q0 158 -98.5 259
t-245.5 101q-154 0 -250 -103.5t-96 -256.5q0 -152 96.5 -255.5t249.5 -103.5z" />
    <glyph glyph-name="uni01D3" unicode="&#x1d3;" horiz-adv-x="1445" 
d="M631 1602l-232 253h168l150 -159h4l153 159h168l-237 -253h-174zM723 -12q-255 0 -409 160.5t-154 443.5v862h178v-850q0 -202 104.5 -325t280.5 -123q172 0 279.5 120.5t107.5 327.5v850h178v-862q0 -279 -152.5 -441.5t-412.5 -162.5z" />
    <glyph glyph-name="uni01D4" unicode="&#x1d4;" horiz-adv-x="1150" 
d="M479 1137l-227 284h168l147 -180h4l148 180h170l-236 -284h-174zM508 -12q-177 0 -276 103.5t-99 311.5v594h166v-546q0 -165 61 -238.5t183 -73.5q125 0 211 101.5t86 273.5v483h166v-997h-166v172h-2q-56 -88 -143.5 -136t-186.5 -48z" />
    <glyph glyph-name="uni01D5" unicode="&#x1d5;" horiz-adv-x="1445" 
d="M428 1927v117h590v-117h-590zM547 1602q-47 0 -80 31t-33 75q0 45 33 77t80 32t79.5 -32t32.5 -77q0 -44 -32.5 -75t-79.5 -31zM891 1602q-47 0 -80 31t-33 75q0 45 33 77t80 32t80 -32t33 -77q0 -44 -33 -75t-80 -31zM723 -12q-255 0 -409 160.5t-154 443.5v862h178
v-850q0 -202 104.5 -325t280.5 -123q172 0 279.5 120.5t107.5 327.5v850h178v-862q0 -279 -152.5 -441.5t-412.5 -162.5z" />
    <glyph glyph-name="uni01D6" unicode="&#x1d6;" horiz-adv-x="1150" 
d="M274 1550v131h590v-131h-590zM387 1186q-52 0 -86.5 33t-34.5 81q0 50 34.5 82.5t86.5 32.5q51 0 86 -33t35 -82q0 -47 -35 -80.5t-86 -33.5zM756 1186q-51 0 -86 33.5t-35 80.5q0 49 35 82t86 33t86 -33t35 -82q0 -47 -35 -80.5t-86 -33.5zM508 -12q-177 0 -276 103.5
t-99 311.5v594h166v-546q0 -165 61 -238.5t183 -73.5q125 0 211 101.5t86 273.5v483h166v-997h-166v172h-2q-56 -88 -143.5 -136t-186.5 -48z" />
    <glyph glyph-name="uni01D7" unicode="&#x1d7;" horiz-adv-x="1445" 
d="M662 1845l198 264h189l-256 -264h-131zM547 1602q-47 0 -80 31t-33 75q0 45 33 77t80 32t79.5 -32t32.5 -77q0 -44 -32.5 -75t-79.5 -31zM891 1602q-47 0 -80 31t-33 75q0 45 33 77t80 32t80 -32t33 -77q0 -44 -33 -75t-80 -31zM723 -12q-255 0 -409 160.5t-154 443.5
v862h178v-850q0 -202 104.5 -325t280.5 -123q172 0 279.5 120.5t107.5 327.5v850h178v-862q0 -279 -152.5 -441.5t-412.5 -162.5z" />
    <glyph glyph-name="uni01D8" unicode="&#x1d8;" horiz-adv-x="1150" 
d="M496 1466l241 289h187l-293 -289h-135zM387 1186q-52 0 -86.5 33t-34.5 81q0 50 34.5 82.5t86.5 32.5q51 0 86 -33t35 -82q0 -47 -35 -80.5t-86 -33.5zM756 1186q-51 0 -86 33.5t-35 80.5q0 49 35 82t86 33t86 -33t35 -82q0 -47 -35 -80.5t-86 -33.5zM508 -12
q-177 0 -276 103.5t-99 311.5v594h166v-546q0 -165 61 -238.5t183 -73.5q125 0 211 101.5t86 273.5v483h166v-997h-166v172h-2q-56 -88 -143.5 -136t-186.5 -48z" />
    <glyph glyph-name="uni01D9" unicode="&#x1d9;" horiz-adv-x="1445" 
d="M641 1864l-231 254h168l149 -160h4l154 160h168l-238 -254h-174zM547 1602q-47 0 -80 31t-33 75q0 45 33 77t80 32t79.5 -32t32.5 -77q0 -44 -32.5 -75t-79.5 -31zM891 1602q-47 0 -80 31t-33 75q0 45 33 77t80 32t80 -32t33 -77q0 -44 -33 -75t-80 -31zM723 -12
q-255 0 -409 160.5t-154 443.5v862h178v-850q0 -202 104.5 -325t280.5 -123q172 0 279.5 120.5t107.5 327.5v850h178v-862q0 -279 -152.5 -441.5t-412.5 -162.5z" />
    <glyph glyph-name="uni01DA" unicode="&#x1da;" horiz-adv-x="1150" 
d="M479 1479l-227 284h168l147 -180h4l148 180h170l-236 -284h-174zM387 1186q-52 0 -86.5 33t-34.5 81q0 50 34.5 82.5t86.5 32.5q51 0 86 -33t35 -82q0 -47 -35 -80.5t-86 -33.5zM756 1186q-51 0 -86 33.5t-35 80.5q0 49 35 82t86 33t86 -33t35 -82q0 -47 -35 -80.5
t-86 -33.5zM508 -12q-177 0 -276 103.5t-99 311.5v594h166v-546q0 -165 61 -238.5t183 -73.5q125 0 211 101.5t86 273.5v483h166v-997h-166v172h-2q-56 -88 -143.5 -136t-186.5 -48z" />
    <glyph glyph-name="uni01DB" unicode="&#x1db;" horiz-adv-x="1445" 
d="M657 1845l-254 264h187l201 -264h-134zM547 1602q-47 0 -80 31t-33 75q0 45 33 77t80 32t79.5 -32t32.5 -77q0 -44 -32.5 -75t-79.5 -31zM891 1602q-47 0 -80 31t-33 75q0 45 33 77t80 32t80 -32t33 -77q0 -44 -33 -75t-80 -31zM723 -12q-255 0 -409 160.5t-154 443.5
v862h178v-850q0 -202 104.5 -325t280.5 -123q172 0 279.5 120.5t107.5 327.5v850h178v-862q0 -279 -152.5 -441.5t-412.5 -162.5z" />
    <glyph glyph-name="uni01DC" unicode="&#x1dc;" horiz-adv-x="1150" 
d="M651 1466h-135l-293 289h189zM387 1186q-52 0 -86.5 33t-34.5 81q0 50 34.5 82.5t86.5 32.5q51 0 86 -33t35 -82q0 -47 -35 -80.5t-86 -33.5zM756 1186q-51 0 -86 33.5t-35 80.5q0 49 35 82t86 33t86 -33t35 -82q0 -47 -35 -80.5t-86 -33.5zM508 -12q-177 0 -276 103.5
t-99 311.5v594h166v-546q0 -165 61 -238.5t183 -73.5q125 0 211 101.5t86 273.5v483h166v-997h-166v172h-2q-56 -88 -143.5 -136t-186.5 -48z" />
    <glyph glyph-name="Gcaron" unicode="&#x1e6;" horiz-adv-x="1554" 
d="M737 1602l-231 253h168l149 -159h4l154 159h168l-238 -253h-174zM844 -10q-156 0 -290 52t-230.5 146t-151.5 232.5t-55 304.5q0 215 88 383.5t253 264t380 95.5q156 0 299 -55.5t254 -171.5l-125 -111q-174 168 -430 168q-232 0 -382.5 -158t-150.5 -415
q0 -250 149.5 -410.5t391.5 -160.5q227 0 387 120v314h-422v162h600v-576q-102 -87 -250.5 -135.5t-314.5 -48.5z" />
    <glyph glyph-name="gcaron" unicode="&#x1e7;" horiz-adv-x="1228" 
d="M500 1137l-228 284h168l148 -180h4l147 180h170l-235 -284h-174zM596 -418q-226 0 -406 109l41 147q93 -53 175 -78.5t184 -25.5q162 0 248 83.5t86 215.5v160h-4q-57 -82 -146 -128.5t-201 -46.5q-207 0 -345 137.5t-138 356.5q0 215 134 356.5t343 141.5
q106 0 198.5 -45t152.5 -127h4v159h165v-923q0 -227 -120.5 -359.5t-370.5 -132.5zM594 172q149 0 241.5 98.5t92.5 249.5q0 149 -95 242.5t-237 93.5q-151 0 -244.5 -96t-93.5 -244q0 -155 96 -249.5t240 -94.5z" />
    <glyph glyph-name="uni01EA" unicode="&#x1ea;" horiz-adv-x="1689" 
d="M950 -6q-66 -26 -105.5 -73t-39.5 -95q0 -43 25 -67.5t75 -24.5q55 0 96 18l13 -106q-62 -27 -142 -27q-94 0 -148 46t-54 126q0 48 29.5 101t84.5 96v2q-294 22 -480.5 226.5t-186.5 510.5q0 213 94 382.5t261 264t376 94.5q152 0 285.5 -54t230.5 -149.5t153 -235
t56 -302.5q0 -199 -81.5 -359t-222.5 -255.5t-319 -118.5zM303 727q0 -246 154.5 -408.5t390.5 -162.5q112 0 211 42.5t171 116.5t114 181t42 231t-42 231.5t-114 182t-171 117t-211 42.5q-236 0 -390.5 -162.5t-154.5 -410.5z" />
    <glyph glyph-name="uni01EB" unicode="&#x1eb;" 
d="M680 -8q-64 -27 -101.5 -72.5t-37.5 -93.5q0 -43 25 -67.5t75 -24.5q55 0 96 18l13 -106q-62 -27 -142 -27q-94 0 -148 46t-54 126q0 49 31 103.5t89 97.5l-2 2q-195 26 -313.5 166.5t-118.5 337.5q0 219 144 365.5t372 146.5q223 0 368.5 -143t145.5 -369
q0 -207 -123 -344.5t-319 -161.5zM262 498q0 -152 96.5 -255.5t249.5 -103.5q145 0 244.5 101t99.5 258q0 158 -98.5 259t-245.5 101q-154 0 -250 -103.5t-96 -256.5z" />
    <glyph glyph-name="Aringacute" unicode="&#x1fa;" horiz-adv-x="1384" 
d="M690 1556q-78 0 -136 57t-58 136t56 136t138 57q93 0 154 -68l141 100h197l-293 -217v-8q0 -78 -57 -135.5t-142 -57.5zM690 1837q-35 0 -60.5 -25.5t-25.5 -60.5q0 -36 25 -61t61 -25q38 0 64 25t26 61t-26 61t-64 25zM780 1454l553 -1454h-186l-131 354h-649l-129 -354
h-187l551 1454h178zM424 510h537l-269 729h-4z" />
    <glyph glyph-name="aringacute" unicode="&#x1fb;" horiz-adv-x="1236" 
d="M610 1116q-78 0 -136 57t-58 136t56 135.5t138 56.5q90 0 150 -63l135 94h197l-283 -209v-14q0 -78 -57 -135.5t-142 -57.5zM610 1397q-35 0 -60.5 -25.5t-25.5 -60.5q0 -36 25 -61t61 -25q38 0 64 25t26 61t-26 61t-64 25zM928 997h166v-997h-160v180h-2
q-55 -91 -146.5 -141.5t-210.5 -50.5q-209 0 -347 140t-138 364q0 223 137 370.5t348 147.5q111 0 203 -50.5t146 -140.5l4 2v176zM600 139q141 0 237.5 99t96.5 254q0 156 -94 261t-240 105q-144 0 -243 -102t-99 -264q0 -153 95 -253t247 -100z" />
    <glyph glyph-name="AEacute" unicode="&#x1fc;" horiz-adv-x="1900" 
d="M858 1602l229 264h191l-250 -264h-170zM18 0l766 1454h996v-162h-715v-487h594v-162h-594v-481h756v-162h-932v354h-498l-188 -354h-185zM469 510h420v786h-4z" />
    <glyph glyph-name="aeacute" unicode="&#x1fd;" horiz-adv-x="1617" 
d="M1128 1432l-254 -291h-174l242 289zM1544 516q0 -56 -2 -70h-696q15 -142 96 -224.5t209 -82.5q90 0 145 33t105 100l115 -98q-71 -94 -154 -140t-223 -46q-123 0 -212.5 55t-144.5 147h-4q-43 -90 -139.5 -146t-226.5 -56q-169 0 -257.5 86.5t-88.5 216.5
q0 138 96.5 217.5t283.5 79.5h238v24q0 137 -46.5 192.5t-152.5 55.5q-146 0 -284 -76l-64 136q60 34 159.5 62t199.5 28q117 0 189 -46.5t110 -146.5h4q56 91 145.5 142t190.5 51q182 0 295.5 -139.5t113.5 -354.5zM850 584h528q-11 123 -75 198.5t-175 75.5
q-108 0 -182.5 -75.5t-95.5 -198.5zM426 127q108 0 184 66.5t76 179.5v80h-225q-109 0 -170.5 -40t-61.5 -120q0 -72 51 -119t146 -47z" />
    <glyph glyph-name="Oslashacute" unicode="&#x1fe;" horiz-adv-x="1689" 
d="M1157 1866l-250 -264h-170l230 264h190zM1581 1401l-172 -187q164 -201 164 -487q0 -163 -56 -301.5t-153 -234t-230.5 -149.5t-285.5 -54q-256 0 -447 139l-165 -180l-105 96l166 180q-180 205 -180 504q0 213 94 382.5t261 264t376 94.5q270 0 461 -155l168 180z
M303 727q0 -213 121 -369l764 824q-143 118 -340 118q-236 0 -390.5 -162.5t-154.5 -410.5zM1386 727q0 202 -104 350l-758 -819q136 -102 324 -102q112 0 211 42.5t171 116.5t114 181t42 231z" />
    <glyph glyph-name="oslashacute" unicode="&#x1ff;" 
d="M944 1432l-254 -291h-174l242 289zM1139 952l-123 -131q106 -131 106 -323q0 -225 -145.5 -367.5t-368.5 -142.5q-167 0 -297 84l-110 -117l-92 86l106 115q-123 142 -123 342q0 219 144 365.5t372 146.5q180 0 318 -101l121 129zM262 498q0 -126 68 -222l485 515
q-89 67 -207 67q-154 0 -250 -103.5t-96 -256.5zM952 498q0 114 -53 200l-477 -508q82 -51 186 -51q145 0 244.5 101t99.5 258z" />
    <glyph glyph-name="Scommaaccent" unicode="&#x218;" horiz-adv-x="1187" 
d="M600 -12q-142 0 -275.5 56t-238.5 169l115 137q75 -95 183 -145.5t218 -50.5q136 0 217.5 59.5t81.5 163.5q0 56 -17 95.5t-70 73.5t-86 48.5t-128 50.5q-16 7 -25 10q-56 21 -92.5 36t-86.5 39t-82.5 46.5t-68.5 55.5t-56.5 68.5t-34 82.5t-13.5 100q0 163 128.5 274
t316.5 111q248 0 458 -170l-108 -141q-180 148 -350 148q-108 0 -183.5 -56.5t-76.5 -156.5q-1 -41 15.5 -74.5t39 -56.5t70 -48.5t82.5 -40t104 -41.5q179 -71 234 -100q140 -73 187 -180q29 -66 29 -154q0 -97 -40 -176t-108.5 -129t-155.5 -77t-183 -27zM461 -434
l-41 100q68 14 94.5 45.5t26.5 85.5q0 28 -11 92h152q8 -41 8 -100q0 -98 -62 -156t-167 -67z" />
    <glyph glyph-name="scommaaccent" unicode="&#x219;" horiz-adv-x="894" 
d="M457 -12q-228 0 -389 141l84 127q62 -60 133.5 -90.5t171.5 -30.5q88 0 139 38t51 97q0 24 -10 43t-24 32.5t-44 28t-53.5 23.5t-69.5 26q-8 3 -12.5 4.5t-11 4t-12.5 4.5q-71 25 -117 47t-91.5 57.5t-68 85t-22.5 115.5q0 116 93 192.5t234 76.5q192 0 344 -123
l-86 -131q-114 106 -264 106q-62 0 -107.5 -33t-45.5 -88q0 -54 46.5 -87.5t141.5 -67.5q16 -6 47 -18q40 -15 59.5 -23t52.5 -22t49 -23.5t40.5 -24.5t36 -28.5t26.5 -33t21.5 -40t11 -46t4.5 -55.5q0 -123 -92.5 -203.5t-265.5 -80.5zM291 -434l-41 100q68 14 94.5 45.5
t26.5 85.5q0 28 -11 92h152q8 -41 8 -100q0 -98 -62 -156t-167 -67z" />
    <glyph glyph-name="uni021A" unicode="&#x21a;" horiz-adv-x="1173" 
d="M496 0v1292h-435v162h1053v-162h-440v-1292h-178zM432 -434l-41 100q68 14 94.5 45.5t26.5 85.5q0 34 -10 92h151q9 -47 9 -100q0 -98 -62.5 -156t-167.5 -67z" />
    <glyph glyph-name="uni021B" unicode="&#x21b;" horiz-adv-x="739" 
d="M436 -12q-258 0 -258 309v557h-129v143h129v340l166 19v-359h330v-143h-330v-532q0 -94 26.5 -136.5t94.5 -42.5q76 0 170 52l43 -146q-102 -61 -242 -61zM270 -434l-41 100q68 14 94.5 45.5t26.5 85.5q0 34 -10 92h152q8 -41 8 -100q0 -98 -62.5 -156t-167.5 -67z" />
    <glyph glyph-name="uni0232" unicode="&#x232;" horiz-adv-x="1230" 
d="M324 1657v137h589v-137h-589zM524 0v649l-493 805h205l376 -625h4l375 625h209l-498 -805v-649h-178z" />
    <glyph glyph-name="uni0233" unicode="&#x233;" horiz-adv-x="1075" 
d="M246 1221v141h590v-141h-590zM291 -406l178 445l-424 958h180l324 -757h4l301 757h174l-565 -1403h-172z" />
    <glyph glyph-name="uni0237" unicode="&#x237;" horiz-adv-x="458" 
d="M66 -418q-95 0 -172 33l26 147q49 -30 113 -30q119 0 119 164v1101h165v-1101q0 -147 -66.5 -230.5t-184.5 -83.5z" />
    <glyph glyph-name="uni0251" unicode="&#x251;" horiz-adv-x="1236" 
d="M575 -12q-209 0 -347 140t-138 364q0 223 137 370.5t348 147.5q111 0 203 -50.5t146 -140.5l4 2v176h166v-997h-160v180h-2q-55 -91 -146.5 -141.5t-210.5 -50.5zM600 139q141 0 237.5 99t96.5 254q0 156 -94 261t-240 105q-144 0 -243 -102t-99 -264q0 -153 95 -253
t247 -100z" />
    <glyph glyph-name="uni0259" unicode="&#x259;" horiz-adv-x="1132" 
d="M530 1010q144 0 258.5 -59.5t183 -178t68.5 -278.5q0 -226 -127.5 -366t-353.5 -140q-218 0 -343.5 137.5t-125.5 349.5q0 32 6 74h778q-17 146 -114 228.5t-240 82.5q-148 0 -293 -80l-65 135q168 95 368 95zM559 137q131 0 210.5 74t100.5 203h-612
q12 -128 91.5 -202.5t209.5 -74.5z" />
    <glyph glyph-name="uni0261" unicode="&#x261;" horiz-adv-x="1228" 
d="M596 -418q-226 0 -406 109l41 147q93 -53 175 -78.5t184 -25.5q162 0 248 83.5t86 215.5v160h-4q-57 -82 -146 -128.5t-201 -46.5q-207 0 -345 137.5t-138 356.5q0 215 134 356.5t343 141.5q106 0 198.5 -45t152.5 -127h4v159h165v-923q0 -227 -120.5 -359.5
t-370.5 -132.5zM594 172q149 0 241.5 98.5t92.5 249.5q0 149 -95 242.5t-237 93.5q-151 0 -244.5 -96t-93.5 -244q0 -155 96 -249.5t240 -94.5z" />
    <glyph glyph-name="uni0272" unicode="&#x272;" horiz-adv-x="1179" 
d="M686 1010q167 0 262.5 -105t95.5 -313v-592h-165v545q0 313 -246 313q-142 0 -226.5 -96.5t-84.5 -263.5v-584q0 -159 -67 -245.5t-202 -86.5q-71 0 -145 29l12 135q54 -22 107 -22q129 0 129 176v1097h166v-180h2q59 92 153 142.5t209 50.5z" />
    <glyph glyph-name="uni02BB" unicode="&#x2bb;" horiz-adv-x="415" 
d="M131 864l29 494h135l16 -494h-180z" />
    <glyph glyph-name="uni02BC" unicode="&#x2bc;" horiz-adv-x="337" 
d="M59 1057l58 397h164l-101 -397h-121z" />
    <glyph glyph-name="uni02BE" unicode="&#x2be;" horiz-adv-x="421" 
d="M86 930l-14 123q79 3 123.5 51t44.5 121q0 72 -45.5 119.5t-122.5 50.5l14 125q131 -3 213 -86t82 -209t-82 -209t-213 -86z" />
    <glyph glyph-name="uni02BF" unicode="&#x2bf;" horiz-adv-x="483" 
d="M397 930q-131 3 -213 86t-82 209t82 209t213 86l15 -125q-77 -3 -122.5 -50.5t-45.5 -119.5q0 -73 44.5 -121t123.5 -51z" />
    <glyph glyph-name="circumflex" unicode="&#x2c6;" horiz-adv-x="1013" 
d="M188 1106l236 287h174l227 -287h-166l-147 182h-4l-150 -182h-170z" />
    <glyph glyph-name="caron" unicode="&#x2c7;" horiz-adv-x="1013" 
d="M416 1104l-228 285h168l148 -181h4l147 181h170l-235 -285h-174z" />
    <glyph glyph-name="uni02C8" unicode="&#x2c8;" horiz-adv-x="358" 
d="M111 1393h137v-590h-137v590z" />
    <glyph glyph-name="uni02C9" unicode="&#x2c9;" horiz-adv-x="804" 
d="M109 1221v141h589v-141h-589z" />
    <glyph glyph-name="uni02CA" unicode="&#x2ca;" horiz-adv-x="641" 
d="M137 1141l242 289l186 2l-254 -291h-174z" />
    <glyph glyph-name="uni02CB" unicode="&#x2cb;" horiz-adv-x="638" 
d="M330 1143l-248 282l188 -2l228 -280h-168z" />
    <glyph glyph-name="uni02CC" unicode="&#x2cc;" horiz-adv-x="358" 
d="M111 272h137v-589h-137v589z" />
    <glyph glyph-name="breve" unicode="&#x2d8;" horiz-adv-x="954" 
d="M477 1098q-129 0 -207.5 77.5t-87.5 213.5h133q3 -67 47 -113.5t115 -46.5q72 0 115.5 46t46.5 114h133q-9 -136 -87.5 -213.5t-207.5 -77.5z" />
    <glyph glyph-name="dotaccent" unicode="&#x2d9;" horiz-adv-x="1009" 
d="M506 1147q-51 0 -86 34.5t-35 84.5t35 84t86 34t86 -34t35 -84t-35 -84.5t-86 -34.5z" />
    <glyph glyph-name="ring" unicode="&#x2da;" horiz-adv-x="937" 
d="M467 1069q-79 0 -137 57t-58 136t56.5 135.5t138.5 56.5q84 0 141.5 -55.5t57.5 -136.5q0 -78 -57 -135.5t-142 -57.5zM467 1178q38 0 64 25t26 61t-26 61t-64 25q-35 0 -60.5 -25.5t-25.5 -60.5q0 -36 25 -61t61 -25z" />
    <glyph glyph-name="ogonek" unicode="&#x2db;" horiz-adv-x="958" 
d="M555 -381q-94 0 -148.5 46.5t-54.5 125.5q0 62 47 128t131 110l125 -27q-77 -24 -122.5 -73t-45.5 -103q0 -43 25.5 -67.5t75.5 -24.5q56 0 96 18l12 -106q-62 -27 -141 -27z" />
    <glyph glyph-name="tilde" unicode="&#x2dc;" horiz-adv-x="1036" 
d="M680 1118q-33 0 -68 12.5t-57 25.5t-55 36q-74 49 -119 49q-80 0 -123 -115l-106 48q63 200 213 200q79 0 165 -59q5 -3 24.5 -16t28 -17.5t24 -12.5t29 -11t26.5 -3q37 0 67.5 29.5t50.5 83.5l105 -35q-27 -102 -82 -158.5t-123 -56.5z" />
    <glyph glyph-name="hungarumlaut" unicode="&#x2dd;" horiz-adv-x="1060" 
d="M154 1108l241 289l174 2l-254 -291h-161zM498 1108l239 289l174 2l-254 -291h-159z" />
    <glyph glyph-name="gravecomb" unicode="&#x300;" horiz-adv-x="0" 
d="M-997 1110l-248 283l188 -2l228 -281h-168z" />
    <glyph glyph-name="acutecomb" unicode="&#x301;" horiz-adv-x="0" 
d="M-1206 1108l241 289l187 2l-254 -291h-174z" />
    <glyph glyph-name="uni0302" unicode="&#x302;" horiz-adv-x="0" 
d="M-1343 1106l235 287h174l227 -287h-165l-148 182h-4l-150 -182h-169z" />
    <glyph glyph-name="tildecomb" unicode="&#x303;" horiz-adv-x="0" 
d="M-864 1118q-33 0 -68 12.5t-57 25.5t-55 36q-74 49 -119 49q-80 0 -123 -115l-107 48q63 200 213 200q80 0 166 -59q6 -4 24.5 -16t27.5 -17t24 -13t28.5 -11t26.5 -3q37 0 68 29.5t51 83.5l105 -35q-27 -102 -82 -158.5t-123 -56.5z" />
    <glyph glyph-name="uni0304" unicode="&#x304;" horiz-adv-x="0" 
d="M-1319 1188v141h590v-141h-590z" />
    <glyph glyph-name="uni0306" unicode="&#x306;" horiz-adv-x="0" 
d="M-1024 1098q-129 0 -207.5 77.5t-87.5 213.5h133q3 -67 47 -113.5t115 -46.5q72 0 115.5 46t46.5 114h133q-9 -136 -87.5 -213.5t-207.5 -77.5z" />
    <glyph glyph-name="uni0307" unicode="&#x307;" horiz-adv-x="0" 
d="M-1024 1147q-51 0 -86 34.5t-35 84.5t35 84t86 34t86 -34t35 -84t-35 -84.5t-86 -34.5z" />
    <glyph glyph-name="uni0308" unicode="&#x308;" horiz-adv-x="0" 
d="M-1210 1149q-51 0 -85 34.5t-34 84.5q0 48 34 81t85 33q49 0 83.5 -34t34.5 -82t-34.5 -82.5t-83.5 -34.5zM-840 1149q-49 0 -83.5 34.5t-34.5 84.5q0 47 34.5 80.5t83.5 33.5t84 -34.5t35 -81.5q0 -48 -35 -82.5t-84 -34.5z" />
    <glyph glyph-name="hookabovecomb" unicode="&#x309;" horiz-adv-x="0" 
d="M-1094 1102q79 58 123 104.5t43 85.5q0 60 -82 60q-95 0 -180 -68l-41 96q103 90 258 90q83 0 134 -39t51 -118q0 -46 -31 -91.5t-66 -72.5t-73 -47h-136z" />
    <glyph glyph-name="uni030A" unicode="&#x30a;" horiz-adv-x="0" 
d="M-1026 1083q-79 0 -137 57t-58 136t56.5 135.5t138.5 56.5q84 0 141.5 -55.5t57.5 -136.5q0 -78 -57 -135.5t-142 -57.5zM-1026 1192q38 0 64 25t26 61t-26 61t-64 25q-35 0 -60.5 -25.5t-25.5 -60.5q0 -36 25 -61t61 -25z" />
    <glyph glyph-name="uni030B" unicode="&#x30b;" horiz-adv-x="0" 
d="M-1278 1108l242 289l174 2l-254 -291h-162zM-934 1108l240 289l174 2l-254 -291h-160z" />
    <glyph glyph-name="uni030C" unicode="&#x30c;" horiz-adv-x="0" 
d="M-1116 1104l-227 285h167l148 -181h4l147 181h170l-235 -285h-174z" />
    <glyph glyph-name="uni0312" unicode="&#x312;" horiz-adv-x="0" 
d="M-1085 1106q-9 50 -9 102q0 97 63 156t167 68l41 -101q-68 -17 -94.5 -48t-26.5 -85q0 -30 10 -92h-151z" />
    <glyph glyph-name="uni0313" unicode="&#x313;" horiz-adv-x="0" 
d="M-930 1417q8 -44 8 -102q0 -97 -62.5 -155.5t-166.5 -67.5l-41 100q68 17 94.5 48t26.5 85q0 30 -10 92h151z" />
    <glyph glyph-name="uni031B" unicode="&#x31b;" horiz-adv-x="0" 
d="M-1051 942l-2 111q56 3 91 20t53 52.5t24 77.5t6 110v141h170v-149q0 -182 -88 -275t-254 -88z" />
    <glyph glyph-name="dotbelowcomb" unicode="&#x323;" horiz-adv-x="0" 
d="M-1024 -193q51 0 86 -34t35 -84t-35 -84.5t-86 -34.5t-86 34.5t-35 84.5t35 84t86 34z" />
    <glyph glyph-name="uni0324" unicode="&#x324;" horiz-adv-x="0" 
d="M-1210 -195q50 0 84 -34.5t34 -83.5q0 -47 -34.5 -81t-83.5 -34t-84 34.5t-35 82.5q0 47 35 81.5t84 34.5zM-840 -195q51 0 85 -34t34 -84q0 -48 -34 -81.5t-85 -33.5q-49 0 -83.5 34.5t-34.5 82.5t34.5 82t83.5 34z" />
    <glyph glyph-name="uni0326" unicode="&#x326;" horiz-adv-x="0" 
d="M-1184 -434l-41 100q68 14 94.5 45.5t26.5 85.5q0 34 -10 92h151q9 -47 9 -100q0 -98 -62.5 -156t-167.5 -67z" />
    <glyph glyph-name="uni0327" unicode="&#x327;" horiz-adv-x="0" 
d="M-1085 -385q-53 0 -115 12v90q44 -14 98 -14q47 0 81 19.5t34 56.5q0 36 -44 61t-126 25l2 61l39 86h104l-35 -75v-5q83 -3 132 -45t49 -116q0 -69 -55 -112.5t-164 -43.5z" />
    <glyph glyph-name="uni0328" unicode="&#x328;" horiz-adv-x="0" 
d="M-1135 -381q-94 0 -148 46t-54 126q0 62 47 128t131 110l125 -27q-77 -24 -122.5 -73t-45.5 -103q0 -43 25 -67.5t75 -24.5q56 0 96 18l13 -106q-62 -27 -142 -27z" />
    <glyph glyph-name="uni032E" unicode="&#x32e;" horiz-adv-x="0" 
d="M-1024 -451q-129 0 -207.5 77.5t-87.5 213.5h133q3 -68 46.5 -113.5t115.5 -45.5q71 0 115 46t47 113h133q-9 -136 -87.5 -213.5t-207.5 -77.5z" />
    <glyph glyph-name="uni0331" unicode="&#x331;" horiz-adv-x="0" 
d="M-729 -397h-590v141h590v-141z" />
    <glyph glyph-name="uni0335" unicode="&#x335;" horiz-adv-x="0" 
d="M-1296 498v118h553v-118h-553z" />
    <glyph glyph-name="uni0374" unicode="&#x374;" horiz-adv-x="514" 
d="M80 983l110 504h170l-133 -504h-147z" />
    <glyph glyph-name="uni0375" unicode="&#x375;" horiz-adv-x="512" 
d="M141 -301l111 506h170l-133 -506h-148z" />
    <glyph glyph-name="uni037E" unicode="&#x37e;" horiz-adv-x="454" 
d="M233 768q-51 0 -86.5 35t-35.5 86t35.5 86t86.5 35t86 -35t35 -86t-35 -86t-86 -35zM76 -268l67 493h181l-123 -493h-125z" />
    <glyph glyph-name="tonos" unicode="&#x384;" horiz-adv-x="950" 
d="M338 1108l121 336h190l-149 -336h-162z" />
    <glyph glyph-name="dieresistonos" unicode="&#x385;" horiz-adv-x="1136" 
d="M449 1120l59 336h160l-88 -336h-131zM246 1147q-51 0 -86 34.5t-35 84.5t35 84t86 34t86 -34t35 -84t-35 -84.5t-86 -34.5zM819 1149q-49 0 -84 34.5t-35 82.5q0 47 35 81.5t84 34.5t84 -34.5t35 -81.5q0 -48 -35 -82.5t-84 -34.5z" />
    <glyph glyph-name="Alphatonos" unicode="&#x386;" horiz-adv-x="1384" 
d="M51 0l551 1454h178l553 -1454h-186l-131 354h-649l-129 -354h-187zM-63 1108l149 336h190l-182 -336h-157zM424 510h537l-269 729h-4z" />
    <glyph glyph-name="anoteleia" unicode="&#x387;" horiz-adv-x="483" 
d="M242 768q-51 0 -87 35t-36 86t36 86t87 35t85.5 -35t34.5 -86t-34.5 -86t-85.5 -35z" />
    <glyph glyph-name="Epsilontonos" unicode="&#x388;" 
d="M180 0v1454h891v-162h-713v-487h584v-162h-584v-481h756v-162h-934zM-305 1108l149 336h191l-182 -336h-158z" />
    <glyph glyph-name="Etatonos" unicode="&#x389;" horiz-adv-x="1476" 
d="M180 0v1454h178v-682h760v682h178v-1454h-178v610h-760v-610h-178zM-305 1108l149 336h191l-182 -336h-158z" />
    <glyph glyph-name="Iotatonos" unicode="&#x38a;" horiz-adv-x="559" 
d="M190 0v1454h179v-1454h-179zM-293 1108l150 336h190l-182 -336h-158z" />
    <glyph glyph-name="Omicrontonos" unicode="&#x38c;" horiz-adv-x="1689" 
d="M848 -12q-210 0 -376.5 94t-260.5 263t-94 382t94 382.5t261 264t376 94.5q152 0 285.5 -54t230.5 -149.5t153 -235t56 -302.5t-56 -301.5t-153 -234t-230.5 -149.5t-285.5 -54zM-199 1108l150 336h190l-182 -336h-158zM848 156q112 0 211 42.5t171 116.5t114 181t42 231
t-42 231.5t-114 182t-171 117t-211 42.5q-236 0 -390.5 -162.5t-154.5 -410.5q0 -246 154.5 -408.5t390.5 -162.5z" />
    <glyph glyph-name="Upsilontonos" unicode="&#x38e;" horiz-adv-x="1230" 
d="M524 0v649l-493 805h205l376 -625h4l375 625h209l-498 -805v-649h-178zM-403 1108l149 336h191l-183 -336h-157z" />
    <glyph glyph-name="Omegatonos" unicode="&#x38f;" horiz-adv-x="1587" 
d="M135 0v162h303l2 2q-154 106 -239.5 264t-85.5 348q0 195 84.5 351.5t240.5 247.5t355 91q148 0 275.5 -53t216 -145t138.5 -219.5t50 -272.5q0 -189 -86 -347.5t-240 -264.5l2 -2h303v-162h-547v162q180 108 281.5 263.5t101.5 348.5q0 230 -137.5 377t-357.5 147
t-357 -147t-137 -377q0 -194 100.5 -350t280.5 -262v-162h-547zM-213 1108l150 336h190l-182 -336h-158z" />
    <glyph glyph-name="iotadieresistonos" unicode="&#x390;" horiz-adv-x="559" 
d="M184 1153l60 336h159l-88 -336h-131zM-18 1180q-51 0 -86 34t-35 84t35 84.5t86 34.5t85.5 -34.5t34.5 -84.5t-34.5 -84t-85.5 -34zM555 1182q-49 0 -84 34.5t-35 81.5q0 48 35 82.5t84 34.5t84 -34.5t35 -82.5q0 -47 -35 -81.5t-84 -34.5zM371 -12q-209 0 -209 241v768
h166v-718q0 -78 15.5 -108t68.5 -30q32 0 98 17l16 -140q-84 -30 -155 -30z" />
    <glyph glyph-name="Alpha" unicode="&#x391;" horiz-adv-x="1384" 
d="M51 0l551 1454h178l553 -1454h-186l-131 354h-649l-129 -354h-187zM424 510h537l-269 729h-4z" />
    <glyph glyph-name="Beta" unicode="&#x392;" horiz-adv-x="1300" 
d="M180 0v1454h475q221 0 345 -87t124 -267q0 -112 -58.5 -202t-172.5 -130v-4q135 -28 219 -123t84 -246q0 -180 -123 -287.5t-362 -107.5h-531zM358 827h299q125 0 205 57.5t80 180.5q0 108 -75 168.5t-230 60.5l-279 -2v-465zM358 162h336q147 0 231.5 62.5t84.5 185.5
q0 125 -87.5 193.5t-254.5 68.5h-310v-510z" />
    <glyph glyph-name="Gamma" unicode="&#x393;" horiz-adv-x="1153" 
d="M180 0v1454h914v-162h-736v-1292h-178z" />
    <glyph glyph-name="uni0394" unicode="&#x394;" horiz-adv-x="1357" 
d="M72 0v139l514 1315h182l518 -1315v-139h-1214zM272 162h809l-401 1073h-4z" />
    <glyph glyph-name="Epsilon" unicode="&#x395;" 
d="M180 0v1454h891v-162h-713v-487h584v-162h-584v-481h756v-162h-934z" />
    <glyph glyph-name="Zeta" unicode="&#x396;" horiz-adv-x="1255" 
d="M117 0v141l774 1149l-2 2h-733v162h968v-141l-780 -1147l2 -4h787v-162h-1016z" />
    <glyph glyph-name="Eta" unicode="&#x397;" horiz-adv-x="1476" 
d="M180 0v1454h178v-682h760v682h178v-1454h-178v610h-760v-610h-178z" />
    <glyph glyph-name="Theta" unicode="&#x398;" horiz-adv-x="1710" 
d="M848 -12q-210 0 -376.5 94t-260.5 263t-94 382t94 382.5t261 264t376 94.5q152 0 285.5 -54t230.5 -149.5t153 -235t56 -302.5t-56 -301.5t-153 -234t-230.5 -149.5t-285.5 -54zM848 156q112 0 211 42.5t171 116.5t114 181t42 231t-42 231.5t-114 182t-171 117t-211 42.5
q-236 0 -390.5 -162.5t-154.5 -410.5q0 -246 154.5 -408.5t390.5 -162.5zM506 639v160h700v-160h-700z" />
    <glyph glyph-name="Iota" unicode="&#x399;" horiz-adv-x="559" 
d="M190 0v1454h179v-1454h-179z" />
    <glyph glyph-name="Kappa" unicode="&#x39a;" horiz-adv-x="1323" 
d="M180 0v1454h178v-797h4l660 797h229l-563 -663l578 -791h-224l-473 651l-211 -248v-403h-178z" />
    <glyph glyph-name="Lambda" unicode="&#x39b;" horiz-adv-x="1372" 
d="M55 0l537 1454h182l541 -1454h-195l-434 1206h-6l-432 -1206h-193z" />
    <glyph glyph-name="Mu" unicode="&#x39c;" horiz-adv-x="1792" 
d="M180 0v1454h180l535 -940h4l535 940h178v-1454h-178v1108h-4l-474 -815h-120l-474 815h-2v-1108h-180z" />
    <glyph glyph-name="Nu" unicode="&#x39d;" horiz-adv-x="1538" 
d="M180 0v1454h176l822 -1157h2v1157h178v-1454h-182l-814 1145h-4v-1145h-178z" />
    <glyph glyph-name="Xi" unicode="&#x39e;" horiz-adv-x="1280" 
d="M141 1288v166h998v-166h-998zM236 639v162h804v-162h-804zM127 0v166h1026v-166h-1026z" />
    <glyph glyph-name="Omicron" unicode="&#x39f;" horiz-adv-x="1689" 
d="M848 -12q-210 0 -376.5 94t-260.5 263t-94 382t94 382.5t261 264t376 94.5q152 0 285.5 -54t230.5 -149.5t153 -235t56 -302.5t-56 -301.5t-153 -234t-230.5 -149.5t-285.5 -54zM848 156q112 0 211 42.5t171 116.5t114 181t42 231t-42 231.5t-114 182t-171 117t-211 42.5
q-236 0 -390.5 -162.5t-154.5 -410.5q0 -246 154.5 -408.5t390.5 -162.5z" />
    <glyph glyph-name="Pi" unicode="&#x3a0;" horiz-adv-x="1425" 
d="M180 0v1454h1067v-1454h-180v1292h-709v-1292h-178z" />
    <glyph glyph-name="Rho" unicode="&#x3a1;" horiz-adv-x="1255" 
d="M180 0v1454h508q124 0 218 -33.5t150.5 -95t84.5 -142t28 -179.5q0 -223 -138 -336t-374 -113h-299v-555h-178zM358 717h283q174 0 259 79t85 212q0 138 -83.5 211t-231.5 73h-312v-575z" />
    <glyph glyph-name="Sigma" unicode="&#x3a3;" horiz-adv-x="1181" 
d="M111 0v129l409 600l-409 592v133h983v-162h-740l-2 -4l385 -559l-385 -561l2 -6h740v-162h-983z" />
    <glyph glyph-name="Tau" unicode="&#x3a4;" horiz-adv-x="1173" 
d="M496 0v1292h-435v162h1053v-162h-440v-1292h-178z" />
    <glyph glyph-name="Upsilon" unicode="&#x3a5;" horiz-adv-x="1230" 
d="M524 0v649l-493 805h205l376 -625h4l375 625h209l-498 -805v-649h-178z" />
    <glyph glyph-name="Phi" unicode="&#x3a6;" horiz-adv-x="1740" 
d="M1645 739q0 -260 -182 -421t-502 -168v-150h-181v150q-318 9 -500 169t-182 420q0 178 80 316t235.5 219t366.5 86v133h181v-133q318 -9 501 -179.5t183 -441.5zM285 739q0 -189 131.5 -306t367.5 -124v889q-238 -6 -368.5 -131t-130.5 -328zM956 309q238 7 370 123.5
t132 306.5q0 201 -131 325.5t-371 133.5v-889z" />
    <glyph glyph-name="Chi" unicode="&#x3a7;" horiz-adv-x="1357" 
d="M68 0l493 727l-487 727h207l399 -588h2l397 588h207l-489 -727l495 -727h-211l-401 586h-4l-402 -586h-206z" />
    <glyph glyph-name="Psi" unicode="&#x3a8;" horiz-adv-x="1613" 
d="M1296 1454h179l-2 -522q0 -585 -578 -588v-344h-180v344q-288 3 -432 152t-144 436l2 522h178l-2 -504q0 -220 92.5 -330t305.5 -114v948h180v-948q206 5 303 112t98 332v504z" />
    <glyph glyph-name="uni03A9" unicode="&#x3a9;" horiz-adv-x="1587" 
d="M135 0v162h303l2 2q-154 106 -239.5 264t-85.5 348q0 195 84.5 351.5t240.5 247.5t355 91q148 0 275.5 -53t216 -145t138.5 -219.5t50 -272.5q0 -189 -86 -347.5t-240 -264.5l2 -2h303v-162h-547v162q180 108 281.5 263.5t101.5 348.5q0 230 -137.5 377t-357.5 147
t-357 -147t-137 -377q0 -194 100.5 -350t280.5 -262v-162h-547z" />
    <glyph glyph-name="Iotadieresis" unicode="&#x3aa;" horiz-adv-x="559" 
d="M59 1622q-51 0 -85.5 34.5t-34.5 84.5t34.5 84.5t85.5 34.5q50 0 85.5 -35t35.5 -84t-35.5 -84t-85.5 -35zM504 1624q-49 0 -84 34.5t-35 82.5t35 82.5t84 34.5t84 -34.5t35 -82.5t-35 -82.5t-84 -34.5zM190 0v1454h179v-1454h-179z" />
    <glyph glyph-name="Upsilondieresis" unicode="&#x3ab;" horiz-adv-x="1230" 
d="M385 1622q-51 0 -86 34.5t-35 84.5t35 84.5t86 34.5q50 0 85.5 -35t35.5 -84t-35.5 -84t-85.5 -35zM829 1624q-49 0 -83.5 34.5t-34.5 82.5t34.5 82.5t83.5 34.5t84 -34.5t35 -82.5t-35 -82.5t-84 -34.5zM524 0v649l-493 805h205l376 -625h4l375 625h209l-498 -805v-649
h-178z" />
    <glyph glyph-name="alphatonos" unicode="&#x3ac;" horiz-adv-x="1228" 
d="M530 1141l121 336h191l-150 -336h-162zM545 -12q-203 0 -330 140t-127 364t131 371t338 147q118 0 209.5 -58t142.5 -164h4l11 209h159l-47 -485v-219q0 -77 16 -114.5t66 -37.5q38 0 70 13l18 -138q-75 -28 -143 -28q-74 0 -117 49t-53 127l-2 24q-53 -93 -141.5 -146.5
t-204.5 -53.5zM563 139q133 0 226 98t108 255q-2 164 -88 265t-229 101q-138 0 -230 -101.5t-92 -264.5q0 -153 84 -253t221 -100z" />
    <glyph glyph-name="epsilontonos" unicode="&#x3ad;" horiz-adv-x="997" 
d="M737 1477l-149 -336h-162l121 336h190zM858 225l78 -123q-105 -64 -212 -89t-239 -25q-177 0 -281 72.5t-104 209.5q0 82 50.5 147.5t136.5 96.5q-75 36 -116.5 94t-41.5 121q0 139 105.5 210t275.5 71q95 0 206.5 -24.5t209.5 -80.5l-70 -125q-175 78 -334 78
q-111 -1 -168 -38t-57 -103q0 -57 52.5 -99.5t156.5 -42.5h176v-135h-197q-109 0 -160 -47.5t-51 -107.5q0 -72 65.5 -109t186.5 -37q180 0 332 86z" />
    <glyph glyph-name="etatonos" unicode="&#x3ae;" horiz-adv-x="1175" 
d="M510 1141l121 336h190l-149 -336h-162zM872 -406v951q0 162 -64 237.5t-179 75.5q-138 0 -222.5 -98t-84.5 -264v-496h-166v997h166v-178l4 -2q60 91 154 142t202 51q167 0 261.5 -105.5t94.5 -312.5v-998h-166z" />
    <glyph glyph-name="iotatonos" unicode="&#x3af;" horiz-adv-x="542" 
d="M166 1141l121 336h190l-149 -336h-162zM371 -12q-209 0 -209 241v768h166v-718q0 -78 15.5 -108t68.5 -30q32 0 98 17l16 -140q-84 -30 -155 -30z" />
    <glyph glyph-name="upsilondieresistonos" unicode="&#x3b0;" horiz-adv-x="1144" 
d="M494 1155l59 336h160l-88 -336h-131zM291 1182q-51 0 -86 34t-35 84t35 84.5t86 34.5t86 -34.5t35 -84.5t-35 -84t-86 -34zM864 1184q-49 0 -84 34.5t-35 81.5q0 48 35 82.5t84 34.5t84 -34.5t35 -82.5q0 -47 -35 -81.5t-84 -34.5zM567 -12q-199 0 -317.5 125.5
t-118.5 363.5v520h166v-499q0 -180 75.5 -269.5t194.5 -89.5q128 0 200.5 88t72.5 271v499h164v-520q0 -240 -115 -364.5t-322 -124.5z" />
    <glyph glyph-name="alpha" unicode="&#x3b1;" horiz-adv-x="1228" 
d="M545 -12q-203 0 -330 140t-127 364t131 371t338 147q118 0 209.5 -58t142.5 -164h4l11 209h159l-47 -485v-219q0 -77 16 -114.5t66 -37.5q38 0 70 13l18 -138q-75 -28 -143 -28q-74 0 -117 49t-53 127l-2 24q-53 -93 -141.5 -146.5t-204.5 -53.5zM563 139q133 0 226 98
t108 255q-2 164 -88 265t-229 101q-138 0 -230 -101.5t-92 -264.5q0 -153 84 -253t221 -100z" />
    <glyph glyph-name="beta" unicode="&#x3b2;" horiz-adv-x="1198" 
d="M156 -406v1420q0 250 123.5 379t330.5 129q193 0 309.5 -105t116.5 -268q0 -241 -190 -330v-2q124 -50 195 -153t71 -226q0 -204 -126 -327t-335 -123q-213 0 -325 159l-4 -2v-551h-166zM635 137q140 0 223.5 81.5t83.5 213.5q0 123 -89.5 208t-250.5 85h-86v141h78
q70 1 122.5 20t81 46.5t46.5 65t23 69t5 66.5q0 101 -69 169t-189 68q-131 0 -211.5 -86t-80.5 -260v-563q0 -132 88 -228t225 -96z" />
    <glyph glyph-name="gamma" unicode="&#x3b3;" horiz-adv-x="1064" 
d="M475 -406q0 18 -0.5 74t-1 78t-3 69t-7.5 76t-14.5 68t-22.5 74l-379 964h182l301 -811h7l301 811h180l-402 -1011q8 -31 12.5 -64.5t6.5 -76t2.5 -72.5t1 -89t0.5 -90h-164z" />
    <glyph glyph-name="delta" unicode="&#x3b4;" horiz-adv-x="1171" 
d="M752 979q71 -29 128.5 -70t106.5 -100t76 -142t27 -182q0 -149 -67 -263.5t-179 -174t-250 -59.5q-146 0 -261.5 64.5t-179 178.5t-63.5 256q0 162 87 282t235 189q-205 103 -205 283q0 126 100 202t283 79q245 0 428 -107l-68 -131q-161 84 -352 84q-106 0 -165.5 -36
t-59.5 -99q0 -58 43.5 -102t148.5 -84q110 -38 187 -68zM594 139q137 0 232.5 94.5t95.5 251.5q0 287 -299 387q-47 16 -62 23q-139 -55 -221 -163t-82 -245q0 -151 93.5 -249.5t242.5 -98.5z" />
    <glyph glyph-name="epsilon" unicode="&#x3b5;" horiz-adv-x="997" 
d="M858 225l78 -123q-105 -64 -212 -89t-239 -25q-177 0 -281 72.5t-104 209.5q0 82 50.5 147.5t136.5 96.5q-75 36 -116.5 94t-41.5 121q0 139 105.5 210t275.5 71q95 0 206.5 -24.5t209.5 -80.5l-70 -125q-175 78 -334 78q-111 -1 -168 -38t-57 -103q0 -57 52.5 -99.5
t156.5 -42.5h176v-135h-197q-109 0 -160 -47.5t-51 -107.5q0 -72 65.5 -109t186.5 -37q180 0 332 86z" />
    <glyph glyph-name="zeta" unicode="&#x3b6;" horiz-adv-x="933" 
d="M766 -434l-141 74q2 3 20.5 24.5t23 27t20 25.5t20.5 29t15.5 27t14.5 30.5t7.5 28.5t3.5 31q0 39 -19 64t-69 48.5t-150 53.5q-80 25 -134 46.5t-113.5 58.5t-94.5 81.5t-58 112t-22 153.5q2 140 84 296.5t212 297.5t308 285v4h-534v143h780v-127q-143 -106 -262.5 -217
t-215 -227t-149.5 -233.5t-55 -221.5q0 -33 5.5 -61.5t14 -51t26.5 -43.5t33 -36.5t43.5 -31.5t48.5 -26.5t58 -25t61.5 -22.5t67.5 -23q171 -53 237.5 -112t66.5 -163q0 -81 -45 -165.5t-109 -153.5z" />
    <glyph glyph-name="eta" unicode="&#x3b7;" horiz-adv-x="1175" 
d="M872 -406v951q0 162 -64 237.5t-179 75.5q-138 0 -222.5 -98t-84.5 -264v-496h-166v997h166v-178l4 -2q60 91 154 142t202 51q167 0 261.5 -105.5t94.5 -312.5v-998h-166z" />
    <glyph glyph-name="theta" unicode="&#x3b8;" horiz-adv-x="1183" 
d="M596 1522q89 0 164.5 -28t139 -88t108 -149t69.5 -216.5t25 -284.5q0 -132 -17.5 -245t-56 -210.5t-96.5 -166t-143.5 -107.5t-192.5 -39q-112 0 -202.5 44.5t-159.5 135.5t-106.5 240.5t-37.5 347.5q0 130 17.5 242.5t56 210t96.5 166.5t143.5 108t192.5 39zM596 1370
q-104 0 -177.5 -67.5t-112 -184t-46.5 -278.5h672q-12 260 -101 395t-235 135zM596 139q160 0 244.5 147.5t93.5 409.5h-676q9 -274 98 -415.5t240 -141.5z" />
    <glyph glyph-name="iota" unicode="&#x3b9;" horiz-adv-x="542" 
d="M371 -12q-209 0 -209 241v768h166v-718q0 -78 15.5 -108t68.5 -30q32 0 98 17l16 -140q-84 -30 -155 -30z" />
    <glyph glyph-name="kappa" unicode="&#x3ba;" horiz-adv-x="1120" 
d="M156 0v997h166v-538l4 -2l534 540h211l-428 -422l451 -575h-205l-357 461l-210 -205v-256h-166z" />
    <glyph glyph-name="lambda" unicode="&#x3bb;" horiz-adv-x="1114" 
d="M1059 0h-174q-263 724 -291 801h-2l-352 -801h-183l455 1016l-61 162q-36 100 -81 147t-112 47q-52 0 -104 -18l-21 139q89 29 166 29q112 0 184 -78t131 -240q192 -511 445 -1204z" />
    <glyph glyph-name="uni03BC" unicode="&#x3bc;" horiz-adv-x="1165" 
d="M147 -406v1403h166v-528q0 -166 66 -248t188 -82q124 0 205.5 98.5t81.5 262.5v497h166v-997h-152l-10 172h-4q-56 -88 -138.5 -136t-178.5 -48q-156 0 -228 110l-4 -2q8 -144 8 -221v-281h-166z" />
    <glyph glyph-name="nu" unicode="&#x3bd;" horiz-adv-x="1064" 
d="M453 0l-406 997h180l305 -786h3l305 786h178l-406 -997h-159z" />
    <glyph glyph-name="xi" unicode="&#x3be;" horiz-adv-x="978" 
d="M780 -434l-141 74q127 141 127 221q0 54 -49 87t-201 87q-72 25 -128 50.5t-113.5 63t-95 80.5t-61.5 102.5t-24 129.5q0 113 74.5 212t202.5 148v2q-94 44 -148.5 124t-54.5 196q0 91 35 165t93 119.5t129.5 70t147.5 24.5q90 0 195.5 -25.5t200.5 -81.5l-68 -131
q-161 84 -309 84q-116 1 -186 -65t-70 -166q0 -254 377 -254h137v-144h-217q-170 0 -270.5 -80t-100.5 -188q0 -107 82.5 -174t253.5 -131q191 -70 264.5 -129.5t73.5 -157.5q-1 -72 -48.5 -160t-107.5 -153z" />
    <glyph glyph-name="omicron" unicode="&#x3bf;" horiz-adv-x="1181" 
d="M592 -12q-223 0 -363.5 143.5t-140.5 366.5t140.5 367.5t363.5 144.5q219 0 360.5 -143t141.5 -369t-141 -368t-361 -142zM592 139q143 0 239.5 100.5t96.5 258.5t-96.5 258t-239.5 100q-147 0 -241.5 -101t-94.5 -257q0 -155 94.5 -257t241.5 -102z" />
    <glyph glyph-name="pi" unicode="&#x3c0;" horiz-adv-x="1236" 
d="M1196 997v-143h-190v-854h-166v854h-455v-854h-166v854h-168v143h1145z" />
    <glyph glyph-name="rho" unicode="&#x3c1;" horiz-adv-x="1216" 
d="M135 -406v898q0 228 135 373t351 145q220 0 363.5 -148t143.5 -370t-136 -363t-339 -141q-110 0 -199.5 44.5t-148.5 123.5h-4v-562h-166zM621 139q150 0 245 101t95 252q0 161 -98 263.5t-242 102.5q-143 0 -234.5 -105t-91.5 -261q0 -155 94 -254t232 -99z" />
    <glyph glyph-name="uni03C2" unicode="&#x3c2;" horiz-adv-x="1021" 
d="M756 -436l-142 76q5 5 22.5 24.5t23.5 26.5t20.5 24.5t20.5 27t15.5 25.5t13.5 28.5t7.5 28.5t3.5 32q0 54 -41.5 86.5t-158.5 76.5q-60 22 -105.5 41.5t-95.5 46.5t-86 55t-70 66.5t-55.5 81.5t-34 99t-12.5 120q0 212 139 346t363 134q110 0 217 -46.5t180 -132.5
l-115 -100q-49 58 -122 92.5t-156 34.5q-153 0 -245.5 -93t-92.5 -235q0 -74 25 -131t78.5 -100.5t117.5 -75.5t162 -67q149 -54 212.5 -116.5t63.5 -164.5q0 -62 -26.5 -124.5t-53 -98t-73.5 -88.5z" />
    <glyph glyph-name="sigma" unicode="&#x3c3;" horiz-adv-x="1204" 
d="M586 -12q-216 0 -356 137t-140 362q0 221 142 365.5t366 144.5h569v-143h-276l-2 -4q196 -148 196 -383q0 -135 -61.5 -244t-176 -172t-261.5 -63zM586 139q148 0 237.5 98t89.5 250q0 118 -57.5 211.5t-159.5 155.5h-98q-149 0 -243.5 -105.5t-94.5 -261.5
q0 -157 94 -252.5t232 -95.5z" />
    <glyph glyph-name="tau" unicode="&#x3c4;" horiz-adv-x="935" 
d="M573 -12q-130 0 -189.5 73t-59.5 224v569h-293v143h846v-143h-388v-526q0 -100 25 -143.5t104 -43.5q83 0 181 56l43 -148q-125 -61 -269 -61z" />
    <glyph glyph-name="upsilon" unicode="&#x3c5;" horiz-adv-x="1136" 
d="M567 -12q-199 0 -317.5 125.5t-118.5 363.5v520h166v-499q0 -180 75.5 -269.5t194.5 -89.5q128 0 200.5 88t72.5 271v499h164v-520q0 -240 -115 -364.5t-322 -124.5z" />
    <glyph glyph-name="phi" unicode="&#x3c6;" horiz-adv-x="1429" 
d="M1337 541q0 -150 -65 -272t-192.5 -197t-295.5 -78v-400h-166v400q-228 3 -375 141t-147 363q0 157 51.5 281t155.5 243l166 -51q-100 -103 -152.5 -222.5t-52.5 -238.5q0 -157 97 -256.5t257 -108.5v465q0 199 87.5 299.5t220.5 100.5q183 0 297 -134t114 -335zM784 143
q182 7 283.5 118.5t101.5 275.5q0 81 -25.5 152.5t-79.5 120t-126 48.5q-154 0 -154 -260v-455z" />
    <glyph glyph-name="chi" unicode="&#x3c7;" horiz-adv-x="1052" 
d="M930 -418q-81 0 -133 49t-99 150l-174 366h-2l-303 -553h-182l409 721l-215 426q-31 61 -60 88t-71 27q-18 0 -45 -6l-20 133q55 27 119 27q79 0 131 -50.5t96 -148.5l149 -330h5l284 516h180l-387 -680l236 -469q29 -60 57.5 -88t65.5 -28q5 0 53 8l18 -131
q-56 -27 -112 -27z" />
    <glyph glyph-name="psi" unicode="&#x3c8;" horiz-adv-x="1429" 
d="M1137 997h166v-524q0 -236 -136 -359.5t-372 -125.5v-394h-166v394q-232 2 -367 125.5t-135 359.5v524h164v-501q0 -175 94 -263t244 -90v1162h166v-1162q154 2 248 89.5t94 263.5v501z" />
    <glyph glyph-name="omega" unicode="&#x3c9;" horiz-adv-x="1544" 
d="M467 -12q-159 0 -266 135t-107 356q0 175 52 303.5t153 239.5l150 -39q-84 -100 -134.5 -229.5t-50.5 -259.5q0 -166 61.5 -260.5t161.5 -94.5q96 0 149.5 96.5t53.5 264.5v245h164v-245q0 -169 54 -265t151 -96q99 0 160 94.5t61 260.5q0 129 -50.5 258.5t-133.5 230.5
l149 39q102 -110 153.5 -239t51.5 -304q0 -221 -107 -356t-266 -135q-222 0 -303 219h-4q-81 -219 -303 -219z" />
    <glyph glyph-name="iotadieresis" unicode="&#x3ca;" horiz-adv-x="542" 
d="M25 1180q-51 0 -86 34t-35 84t35 84.5t86 34.5q50 0 85 -35t35 -84t-35 -83.5t-85 -34.5zM469 1182q-49 0 -84 34.5t-35 81.5q0 48 35 82.5t84 34.5t84 -34.5t35 -82.5q0 -47 -35 -81.5t-84 -34.5zM371 -12q-209 0 -209 241v768h166v-718q0 -78 15.5 -108t68.5 -30
q32 0 98 17l16 -140q-84 -30 -155 -30z" />
    <glyph glyph-name="upsilondieresis" unicode="&#x3cb;" horiz-adv-x="1136" 
d="M346 1180q-51 0 -86 34t-35 84t35 84.5t86 34.5q50 0 85.5 -35t35.5 -84t-35.5 -83.5t-85.5 -34.5zM791 1182q-49 0 -84 34.5t-35 81.5q0 48 35 82.5t84 34.5t83.5 -34.5t34.5 -82.5t-34.5 -82t-83.5 -34zM567 -12q-199 0 -317.5 125.5t-118.5 363.5v520h166v-499
q0 -180 75.5 -269.5t194.5 -89.5q128 0 200.5 88t72.5 271v499h164v-520q0 -240 -115 -364.5t-322 -124.5z" />
    <glyph glyph-name="omicrontonos" unicode="&#x3cc;" horiz-adv-x="1181" 
d="M508 1141l121 336h190l-149 -336h-162zM592 -12q-223 0 -363.5 143.5t-140.5 366.5t140.5 367.5t363.5 144.5q219 0 360.5 -143t141.5 -369t-141 -368t-361 -142zM592 139q143 0 239.5 100.5t96.5 258.5t-96.5 258t-239.5 100q-147 0 -241.5 -101t-94.5 -257
q0 -155 94.5 -257t241.5 -102z" />
    <glyph glyph-name="upsilontonos" unicode="&#x3cd;" horiz-adv-x="1136" 
d="M487 1141l121 336h191l-150 -336h-162zM567 -12q-199 0 -317.5 125.5t-118.5 363.5v520h166v-499q0 -180 75.5 -269.5t194.5 -89.5q128 0 200.5 88t72.5 271v499h164v-520q0 -240 -115 -364.5t-322 -124.5z" />
    <glyph glyph-name="omegatonos" unicode="&#x3ce;" horiz-adv-x="1544" 
d="M690 1141l121 336h190l-149 -336h-162zM467 -12q-159 0 -266 135t-107 356q0 175 52 303.5t153 239.5l150 -39q-84 -100 -134.5 -229.5t-50.5 -259.5q0 -166 61.5 -260.5t161.5 -94.5q96 0 149.5 96.5t53.5 264.5v245h164v-245q0 -169 54 -265t151 -96q99 0 160 94.5
t61 260.5q0 129 -50.5 258.5t-133.5 230.5l149 39q102 -110 153.5 -239t51.5 -304q0 -221 -107 -356t-266 -135q-222 0 -303 219h-4q-81 -219 -303 -219z" />
    <glyph glyph-name="uni03D7" unicode="&#x3d7;" horiz-adv-x="1191" 
d="M399 -442q-221 0 -387 100l33 149q71 -51 160.5 -78.5t171.5 -27.5q145 0 277 71t268 220v8q-287 122 -394 446l-206 -217v-229h-166v997h166v-542l4 -2l514 544h202l-395 -422q73 -198 186.5 -308t303.5 -152v-97q-101 -124 -184 -206t-172.5 -141.5t-181.5 -86
t-200 -26.5z" />
    <glyph glyph-name="uni0400" unicode="&#x400;" 
d="M657 1602l-249 264h188l229 -264h-168zM180 0v1454h891v-162h-713v-487h584v-162h-584v-481h756v-162h-934z" />
    <glyph glyph-name="uni0401" unicode="&#x401;" 
d="M444 1661q-51 0 -84.5 34.5t-33.5 84.5q0 48 33.5 81t84.5 33q49 0 84 -34.5t35 -81.5q0 -48 -35 -82.5t-84 -34.5zM815 1661q-49 0 -84 34.5t-35 84.5q0 47 35 80.5t84 33.5t84 -34.5t35 -81.5q0 -48 -35 -82.5t-84 -34.5zM180 0v1454h891v-162h-713v-487h584v-162h-584
v-481h756v-162h-934z" />
    <glyph glyph-name="uni0402" unicode="&#x402;" horiz-adv-x="1617" 
d="M1024 903q228 0 368 -119.5t140 -337.5q0 -221 -132 -340.5t-349 -119.5q-95 0 -187 18l15 152q83 -15 159 -15q147 0 228.5 77t81.5 218q0 145 -94 223t-269 78q-195 0 -338 -73v-664h-180v1292h-434v162h1054v-162h-440v-473q180 84 377 84z" />
    <glyph glyph-name="uni0403" unicode="&#x403;" horiz-adv-x="1134" 
d="M446 1602l230 264h190l-250 -264h-170zM180 0v1454h893v-162h-715v-1292h-178z" />
    <glyph glyph-name="uni0404" unicode="&#x404;" horiz-adv-x="1482" 
d="M1278 362l133 -112q-215 -260 -571 -260q-150 0 -279 45.5t-229 134t-157.5 230.5t-57.5 323q0 131 30 244.5t90.5 205.5t147.5 157.5t206 101.5t261 36q309 0 524 -221l-123 -121q-166 172 -405 172q-238 0 -379.5 -131t-163.5 -356h764l2 -160h-768
q17 -230 163.5 -361.5t371.5 -131.5q273 0 440 204z" />
    <glyph glyph-name="uni0405" unicode="&#x405;" horiz-adv-x="1187" 
d="M600 -12q-142 0 -275.5 56t-238.5 169l115 137q75 -95 183 -145.5t218 -50.5q136 0 217.5 59.5t81.5 163.5q0 56 -17 95.5t-70 73.5t-86 48.5t-128 50.5q-16 7 -25 10q-56 21 -92.5 36t-86.5 39t-82.5 46.5t-68.5 55.5t-56.5 68.5t-34 82.5t-13.5 100q0 163 128.5 274
t316.5 111q248 0 458 -170l-108 -141q-180 148 -350 148q-108 0 -183.5 -56.5t-76.5 -156.5q-1 -41 15.5 -74.5t39 -56.5t70 -48.5t82.5 -40t104 -41.5q179 -71 234 -100q140 -73 187 -180q29 -66 29 -154q0 -97 -40 -176t-108.5 -129t-155.5 -77t-183 -27z" />
    <glyph glyph-name="uni0406" unicode="&#x406;" horiz-adv-x="559" 
d="M190 0v1454h179v-1454h-179z" />
    <glyph glyph-name="uni0407" unicode="&#x407;" horiz-adv-x="559" 
d="M92 1661q-51 0 -85 34.5t-34 84.5q0 48 34 81t85 33q49 0 84 -34.5t35 -81.5q0 -48 -35 -82.5t-84 -34.5zM463 1661q-49 0 -84 34.5t-35 84.5q0 47 35 80.5t84 33.5t84 -34.5t35 -81.5q0 -48 -35 -82.5t-84 -34.5zM190 0v1454h179v-1454h-179z" />
    <glyph glyph-name="uni0408" unicode="&#x408;" horiz-adv-x="1009" 
d="M444 -10q-103 0 -208 48t-177 138l103 131q58 -66 129.5 -106.5t144.5 -40.5q238 0 238 317v977h180v-981q0 -239 -100 -361t-310 -122z" />
    <glyph glyph-name="uni0409" unicode="&#x409;" horiz-adv-x="2220" 
d="M1626 887q258 0 382 -112.5t124 -321.5q0 -453 -508 -453h-504v1292h-516q-20 -397 -51 -688q-35 -319 -123 -464.5t-266 -145.5q-67 0 -125 16l14 150q24 -6 72 -6q49 0 87 22t64.5 61t47 105t34.5 141.5t27 182.5q32 276 47 788h866v-567h328zM1624 162q324 0 324 282
q0 138 -81 209.5t-241 71.5h-328v-563h326z" />
    <glyph glyph-name="uni040A" unicode="&#x40a;" horiz-adv-x="2203" 
d="M1616 856q256 0 378 -110t122 -306q0 -440 -504 -440h-518v670h-736v-670h-178v1454h178v-623h736v623h178v-598h344zM1612 162q164 0 241.5 70.5t77.5 197.5t-79 195.5t-236 68.5h-344v-532h340z" />
    <glyph glyph-name="uni040B" unicode="&#x40b;" horiz-adv-x="1597" 
d="M1057 913q212 0 307.5 -117.5t95.5 -357.5v-438h-178v424q0 178 -67 248.5t-211 70.5q-192 0 -357 -86v-657h-180v1292h-434v162h1054v-162h-440v-477q213 98 410 98z" />
    <glyph glyph-name="uni040C" unicode="&#x40c;" horiz-adv-x="1323" 
d="M502 1602l229 264h191l-250 -264h-170zM180 0v1454h178v-797h4l660 797h229l-563 -663l578 -791h-224l-473 651l-211 -248v-403h-178z" />
    <glyph glyph-name="uni040D" unicode="&#x40d;" horiz-adv-x="1503" 
d="M784 1602l-249 264h188l229 -264h-168zM180 0v1454h178v-1157h4l805 1157h156v-1454h-178v1147h-4l-801 -1147h-160z" />
    <glyph glyph-name="uni040E" unicode="&#x40e;" horiz-adv-x="1316" 
d="M666 1587q-127 0 -215.5 64.5t-110.5 201.5l147 17q7 -67 52.5 -120.5t126.5 -53.5q83 0 128 53.5t50 120.5l147 -17q-22 -137 -110 -201.5t-215 -64.5zM1087 1454h191l-483 -1083q-73 -163 -104 -215q-76 -124 -184 -156q-46 -14 -101 -14q-57 0 -127 20.5t-107 54.5
l61 154q79 -57 170 -57q81 0 132.5 56.5t91.5 176.5l-588 1063h201l465 -858h6z" />
    <glyph glyph-name="uni040F" unicode="&#x40f;" horiz-adv-x="1425" 
d="M1247 1454v-1454h-454l-5 -287h-149l-4 287h-455v1454h178v-1292h709v1292h180z" />
    <glyph glyph-name="uni0410" unicode="&#x410;" horiz-adv-x="1384" 
d="M51 0l551 1454h178l553 -1454h-186l-131 354h-649l-129 -354h-187zM424 510h537l-269 729h-4z" />
    <glyph glyph-name="uni0411" unicode="&#x411;" horiz-adv-x="1275" 
d="M180 0v1454h881v-162h-703v-418h312q257 0 381.5 -111.5t124.5 -313.5q0 -449 -508 -449h-488zM358 162h310q323 0 323 278q0 134 -81 205.5t-240 71.5h-312v-555z" />
    <glyph glyph-name="uni0412" unicode="&#x412;" horiz-adv-x="1300" 
d="M180 0v1454h475q221 0 345 -87t124 -267q0 -112 -58.5 -202t-172.5 -130v-4q135 -28 219 -123t84 -246q0 -180 -123 -287.5t-362 -107.5h-531zM358 827h299q125 0 205 57.5t80 180.5q0 108 -75 168.5t-230 60.5l-279 -2v-465zM358 162h336q147 0 231.5 62.5t84.5 185.5
q0 125 -87.5 193.5t-254.5 68.5h-310v-510z" />
    <glyph glyph-name="uni0413" unicode="&#x413;" horiz-adv-x="1134" 
d="M180 0v1454h893v-162h-715v-1292h-178z" />
    <glyph glyph-name="uni0414" unicode="&#x414;" horiz-adv-x="1622" 
d="M1542 162v-449h-149l-9 287h-1194l-8 -287h-149v449h196q142 250 197 586q44 261 47 706h868v-1292h201zM596 690q-57 -329 -174 -528h741v1130h-516q-3 -348 -51 -602z" />
    <glyph glyph-name="uni0415" unicode="&#x415;" 
d="M180 0v1454h891v-162h-713v-487h584v-162h-584v-481h756v-162h-934z" />
    <glyph glyph-name="uni0416" unicode="&#x416;" horiz-adv-x="1929" 
d="M53 0l502 795l-500 659h217l598 -799h2v799h172v-809l5 -2l585 811h215l-481 -661l508 -793h-209l-432 670l-191 -246v-424h-172v428l-188 246l-424 -674h-207z" />
    <glyph glyph-name="uni0417" unicode="&#x417;" horiz-adv-x="1243" 
d="M614 -12q-166 0 -303.5 57.5t-232.5 167.5l115 137q147 -196 425 -196q156 0 247 68.5t91 191.5q0 124 -90.5 193t-265.5 69h-233v155h221q133 0 217 63.5t84 182.5q0 107 -75 165t-214 58q-208 0 -367 -126l-98 137q73 69 209.5 113t276.5 44q209 0 329.5 -97
t120.5 -263q0 -114 -59.5 -205.5t-175.5 -130.5v-2q140 -30 223.5 -118t83.5 -238q0 -190 -140 -308t-389 -118z" />
    <glyph glyph-name="uni0418" unicode="&#x418;" horiz-adv-x="1503" 
d="M180 0v1454h178v-1157h4l805 1157h156v-1454h-178v1147h-4l-801 -1147h-160z" />
    <glyph glyph-name="uni0419" unicode="&#x419;" horiz-adv-x="1503" 
d="M758 1587q-127 0 -215.5 64.5t-110.5 201.5l148 17q7 -68 52 -121t126 -53q83 0 128 53.5t50 120.5l147 -17q-22 -137 -110 -201.5t-215 -64.5zM180 0v1454h178v-1157h4l805 1157h156v-1454h-178v1147h-4l-801 -1147h-160z" />
    <glyph glyph-name="uni041A" unicode="&#x41a;" horiz-adv-x="1323" 
d="M180 0v1454h178v-797h4l660 797h229l-563 -663l578 -791h-224l-473 651l-211 -248v-403h-178z" />
    <glyph glyph-name="uni041B" unicode="&#x41b;" horiz-adv-x="1478" 
d="M432 1454h866v-1454h-178v1292h-516q-20 -397 -51 -688q-35 -319 -123 -464.5t-266 -145.5q-67 0 -125 16l14 150q24 -6 72 -6q49 0 87 22t64.5 61t47 105t34.5 141.5t27 182.5q32 276 47 788z" />
    <glyph glyph-name="uni041C" unicode="&#x41c;" horiz-adv-x="1792" 
d="M180 0v1454h180l535 -940h4l535 940h178v-1454h-178v1108h-4l-474 -815h-120l-474 815h-2v-1108h-180z" />
    <glyph glyph-name="uni041D" unicode="&#x41d;" horiz-adv-x="1476" 
d="M180 0v1454h178v-682h760v682h178v-1454h-178v610h-760v-610h-178z" />
    <glyph glyph-name="uni041E" unicode="&#x41e;" horiz-adv-x="1689" 
d="M848 -12q-210 0 -376.5 94t-260.5 263t-94 382t94 382.5t261 264t376 94.5q152 0 285.5 -54t230.5 -149.5t153 -235t56 -302.5t-56 -301.5t-153 -234t-230.5 -149.5t-285.5 -54zM848 156q112 0 211 42.5t171 116.5t114 181t42 231t-42 231.5t-114 182t-171 117t-211 42.5
q-236 0 -390.5 -162.5t-154.5 -410.5q0 -246 154.5 -408.5t390.5 -162.5z" />
    <glyph glyph-name="uni041F" unicode="&#x41f;" horiz-adv-x="1425" 
d="M180 0v1454h1067v-1454h-180v1292h-709v-1292h-178z" />
    <glyph glyph-name="uni0420" unicode="&#x420;" horiz-adv-x="1255" 
d="M180 0v1454h508q124 0 218 -33.5t150.5 -95t84.5 -142t28 -179.5q0 -223 -138 -336t-374 -113h-299v-555h-178zM358 717h283q174 0 259 79t85 212q0 138 -83.5 211t-231.5 73h-312v-575z" />
    <glyph glyph-name="uni0421" unicode="&#x421;" horiz-adv-x="1482" 
d="M842 -10q-149 0 -279.5 48.5t-230 139t-157.5 231.5t-58 314q0 155 48.5 290t138 236.5t228 160t308.5 58.5q161 0 307.5 -70t259.5 -208l-133 -111q-177 219 -434 219q-244 0 -390.5 -160.5t-146.5 -414.5q0 -256 152 -410.5t387 -154.5q261 0 434 219l133 -113
q-220 -274 -567 -274z" />
    <glyph glyph-name="uni0422" unicode="&#x422;" horiz-adv-x="1173" 
d="M496 0v1292h-435v162h1053v-162h-440v-1292h-178z" />
    <glyph glyph-name="uni0423" unicode="&#x423;" horiz-adv-x="1316" 
d="M1087 1454h191l-483 -1083q-73 -163 -104 -215q-76 -124 -184 -156q-46 -14 -101 -14q-57 0 -127 20.5t-107 54.5l61 154q79 -57 170 -57q81 0 132.5 56.5t91.5 176.5l-588 1063h201l465 -858h6z" />
    <glyph glyph-name="uni0424" unicode="&#x424;" horiz-adv-x="1740" 
d="M1645 739q0 -260 -182 -421t-502 -168v-150h-181v150q-318 9 -500 169t-182 420q0 178 80 316t235.5 219t366.5 86v133h181v-133q318 -9 501 -179.5t183 -441.5zM285 739q0 -189 131.5 -306t367.5 -124v889q-238 -6 -368.5 -131t-130.5 -328zM956 309q238 7 370 123.5
t132 306.5q0 201 -131 325.5t-371 133.5v-889z" />
    <glyph glyph-name="uni0425" unicode="&#x425;" horiz-adv-x="1357" 
d="M68 0l493 727l-487 727h207l399 -588h2l397 588h207l-489 -727l495 -727h-211l-401 586h-4l-402 -586h-206z" />
    <glyph glyph-name="uni0426" unicode="&#x426;" horiz-adv-x="1505" 
d="M1425 162v-449h-149l-8 287h-1088v1454h178v-1292h689v1292h178v-1292h200z" />
    <glyph glyph-name="uni0427" unicode="&#x427;" horiz-adv-x="1325" 
d="M967 1454h178v-1454h-178v602q-77 -41 -194.5 -67.5t-217.5 -26.5q-218 0 -318 118t-100 357v471h178v-444q0 -129 32 -203.5t92.5 -103.5t162.5 -29q92 0 193 22t172 64v694z" />
    <glyph glyph-name="uni0428" unicode="&#x428;" horiz-adv-x="1982" 
d="M1624 1454h180v-1454h-1624v1454h178v-1292h545v1292h178v-1292h543v1292z" />
    <glyph glyph-name="uni0429" unicode="&#x429;" horiz-adv-x="2082" 
d="M2005 162v-449h-150l-8 287h-1667v1454h178v-1292h545v1292h178v-1292h543v1292h180v-1292h201z" />
    <glyph glyph-name="uni042A" unicode="&#x42a;" horiz-adv-x="1482" 
d="M889 887q260 0 384 -112.5t124 -321.5q0 -453 -508 -453h-506v1292h-369v162h547v-567h328zM889 162q321 0 321 282q0 138 -80.5 209.5t-240.5 71.5h-328v-563h328z" />
    <glyph glyph-name="uni042B" unicode="&#x42b;" horiz-adv-x="1736" 
d="M180 0v1454h178v-567h287q258 0 382 -112.5t124 -321.5q0 -453 -508 -453h-463zM1378 0v1454h178v-1454h-178zM358 162h285q324 0 324 282q0 138 -81 209.5t-241 71.5h-287v-563z" />
    <glyph glyph-name="uni042C" unicode="&#x42c;" horiz-adv-x="1280" 
d="M180 0v1454h178v-567h328q258 0 382 -112.5t124 -321.5q0 -453 -508 -453h-504zM358 162h326q324 0 324 282q0 138 -81 209.5t-241 71.5h-328v-563z" />
    <glyph glyph-name="uni042D" unicode="&#x42d;" horiz-adv-x="1482" 
d="M649 1468q225 0 388.5 -96t246 -263.5t82.5 -385.5q0 -176 -55.5 -317.5t-153 -231t-225.5 -137t-277 -47.5q-171 0 -321 60t-250 169l106 139q77 -87 203.5 -143.5t265.5 -56.5q221 0 363.5 133.5t159.5 359.5h-776l2 160h774q-17 223 -161.5 356t-373.5 133
q-244 0 -424 -151l-102 137q104 86 241.5 134t286.5 48z" />
    <glyph glyph-name="uni042E" unicode="&#x42e;" horiz-adv-x="2136" 
d="M1321 1468q210 0 371 -93.5t248.5 -262t87.5 -385.5q0 -216 -87.5 -384t-248.5 -261.5t-371 -93.5q-275 0 -465.5 174.5t-224.5 447.5h-283v-610h-178v1454h178v-682h279q19 307 212 501.5t482 194.5zM1321 156q234 0 377 160t143 411q0 253 -143 413t-377 160
q-109 0 -205 -44t-164 -121t-107.5 -186t-39.5 -234q0 -154 67 -282t185.5 -202.5t263.5 -74.5z" />
    <glyph glyph-name="uni042F" unicode="&#x42f;" horiz-adv-x="1341" 
d="M92 0l375 573q-153 44 -236.5 150.5t-83.5 271.5q0 217 127.5 338t368.5 121h520v-1454h-178v545h-334l-346 -545h-213zM690 707h295v585h-317q-161 0 -248.5 -74.5t-87.5 -220.5q0 -133 88 -211.5t270 -78.5z" />
    <glyph glyph-name="uni0430" unicode="&#x430;" horiz-adv-x="1236" 
d="M575 -12q-209 0 -347 140t-138 364q0 223 137 370.5t348 147.5q111 0 203 -50.5t146 -140.5l4 2v176h166v-997h-160v180h-2q-55 -91 -146.5 -141.5t-210.5 -50.5zM600 139q141 0 237.5 99t96.5 254q0 156 -94 261t-240 105q-144 0 -243 -102t-99 -264q0 -153 95 -253
t247 -100z" />
    <glyph glyph-name="uni0431" unicode="&#x431;" horiz-adv-x="1230" 
d="M651 -12q-134 0 -235 48t-163 136t-92.5 205t-29.5 260q0 101 4.5 178.5t18 158.5t36.5 142t61 118.5t90 98t125.5 72t166.5 47.5l385 68l47 -148l-399 -72q-69 -12 -123 -33t-92.5 -46t-66.5 -63t-45 -74.5t-29 -92.5t-17.5 -103t-11.5 -120l4 -2q54 107 151 171t238 64
q196 0 332.5 -141t136.5 -358q0 -147 -67 -265.5t-179.5 -183.5t-245.5 -65zM645 137q134 0 232 104t98 261q0 151 -97.5 250.5t-238.5 99.5q-77 0 -142.5 -30t-107 -79t-64.5 -108t-24 -119q0 -68 21 -133t61.5 -121t108.5 -90.5t153 -34.5z" />
    <glyph glyph-name="uni0432" unicode="&#x432;" horiz-adv-x="1097" 
d="M156 0v997h465q164 0 250.5 -61.5t86.5 -181.5q0 -179 -163 -230v-2q97 -20 156 -82t59 -161q0 -279 -375 -279h-479zM317 575h289q189 0 189 146q0 135 -183 135h-295v-281zM317 141h306q111 0 164 37t53 115q0 149 -207 149h-316v-301z" />
    <glyph glyph-name="uni0433" unicode="&#x433;" horiz-adv-x="894" 
d="M156 0v997h684v-147h-518v-850h-166z" />
    <glyph glyph-name="uni0434" unicode="&#x434;" horiz-adv-x="1253" 
d="M1196 147v-421h-141l-11 274h-849l-11 -274h-139v421h158q91 154 129 371q35 190 39 479h651v-850h174zM375 147h481v703h-328q-8 -234 -41 -381q-40 -189 -112 -322z" />
    <glyph glyph-name="uni0435" unicode="&#x435;" horiz-adv-x="1130" 
d="M1042 516q0 -15 -2 -39t-2 -28h-778q17 -141 109.5 -225.5t232.5 -84.5q182 0 289 133l117 -98q-144 -186 -412 -186q-222 0 -363 141t-141 369q0 225 138.5 368.5t353.5 143.5q203 0 330.5 -139.5t127.5 -354.5zM582 858q-121 0 -208 -74t-110 -200h613
q-19 125 -96.5 199.5t-198.5 74.5z" />
    <glyph glyph-name="uni0436" unicode="&#x436;" horiz-adv-x="1587" 
d="M45 0l389 553l-383 444h201l457 -530h4v530h159v-536h2l451 536h195l-373 -442l395 -555h-192l-322 465l-156 -176v-289h-159v291l-162 174l-320 -465h-186z" />
    <glyph glyph-name="uni0437" unicode="&#x437;" horiz-adv-x="1003" 
d="M489 -12q-244 0 -407 104l51 150q149 -107 356 -107q120 0 188 42.5t68 119.5q0 71 -57 107t-162 36h-225v133h199q98 0 148 36.5t50 105.5q0 145 -213 145q-170 0 -305 -76l-63 136q63 36 158.5 63t207.5 27q176 0 278.5 -67.5t102.5 -186.5q0 -79 -44.5 -141
t-123.5 -89v-2q94 -22 156.5 -85.5t62.5 -162.5q0 -131 -112 -209.5t-314 -78.5z" />
    <glyph glyph-name="uni0438" unicode="&#x438;" horiz-adv-x="1202" 
d="M156 0v997h166v-757h4l563 757h158v-997h-166v741h-4l-562 -741h-159z" />
    <glyph glyph-name="uni0439" unicode="&#x439;" horiz-adv-x="1202" 
d="M612 1135q-127 0 -215 65.5t-110 206.5l147 27q7 -79 51.5 -135t126.5 -56q84 0 129 56.5t50 134.5l147 -27q-22 -141 -110.5 -206.5t-215.5 -65.5zM156 0v997h166v-757h4l563 757h158v-997h-166v741h-4l-562 -741h-159z" />
    <glyph glyph-name="uni043A" unicode="&#x43a;" horiz-adv-x="1099" 
d="M156 0v997h166v-544h4l501 544h205l-399 -430l422 -567h-197l-344 467l-192 -205v-262h-166z" />
    <glyph glyph-name="uni043B" unicode="&#x43b;" horiz-adv-x="1153" 
d="M317 997h680v-997h-166v850h-352q-15 -314 -33 -459q-28 -204 -105.5 -301.5t-211.5 -97.5q-53 0 -88 14l12 144q30 -5 47 -5q156 0 191 299q17 164 26 553z" />
    <glyph glyph-name="uni043C" unicode="&#x43c;" horiz-adv-x="1388" 
d="M156 0v997h161l375 -639h4l377 639h160v-997h-160v717h-4l-319 -543h-113l-318 541h-4v-715h-159z" />
    <glyph glyph-name="uni043D" unicode="&#x43d;" horiz-adv-x="1181" 
d="M156 0v997h166v-438h538v438h166v-997h-166v416h-538v-416h-166z" />
    <glyph glyph-name="uni043E" unicode="&#x43e;" 
d="M608 -12q-151 0 -269.5 67.5t-182.5 183.5t-64 259q0 219 144 365.5t372 146.5q223 0 368.5 -143t145.5 -369q0 -225 -145.5 -367.5t-368.5 -142.5zM608 139q145 0 244.5 101t99.5 258q0 158 -98.5 259t-245.5 101q-154 0 -250 -103.5t-96 -256.5q0 -152 96.5 -255.5
t249.5 -103.5z" />
    <glyph glyph-name="uni043F" unicode="&#x43f;" horiz-adv-x="1159" 
d="M156 0v997h848v-997h-166v850h-516v-850h-166z" />
    <glyph glyph-name="uni0440" unicode="&#x440;" horiz-adv-x="1257" 
d="M156 -406v1403h166v-176h2q57 90 149 139.5t205 49.5q211 0 348 -147.5t137 -370.5q0 -224 -138 -364t-347 -140q-117 0 -207 48t-147 136h-2v-578h-166zM655 139q149 0 244.5 100.5t95.5 252.5q0 162 -99 264t-243 102q-150 0 -245 -105t-95 -261t98.5 -254.5
t243.5 -98.5z" />
    <glyph glyph-name="uni0441" unicode="&#x441;" horiz-adv-x="1067" 
d="M590 -12q-219 0 -358.5 142t-139.5 368t140.5 369t363.5 143q115 0 222 -46.5t179 -132.5l-112 -100q-49 58 -122 92.5t-159 34.5q-153 0 -247.5 -100.5t-94.5 -259.5q0 -160 94 -259.5t246 -99.5q88 0 163 34.5t122 92.5l114 -104q-146 -174 -411 -174z" />
    <glyph glyph-name="uni0442" unicode="&#x442;" horiz-adv-x="937" 
d="M387 0v850h-334v147h834v-147h-334v-850h-166z" />
    <glyph glyph-name="uni0443" unicode="&#x443;" horiz-adv-x="1075" 
d="M291 -406l178 445l-424 958h180l324 -757h4l301 757h174l-565 -1403h-172z" />
    <glyph glyph-name="uni0444" unicode="&#x444;" horiz-adv-x="1431" 
d="M1356 494q0 -219 -152 -359t-405 -147v-394h-166v394q-258 6 -406.5 144t-148.5 362q0 222 150.5 366t404.5 150v497h166v-497q255 -3 406 -145.5t151 -370.5zM797 131q190 9 289.5 106t99.5 257q0 163 -103 262.5t-286 109.5v-735zM246 492q0 -162 100 -257t291 -104
v733q-184 -9 -287.5 -109.5t-103.5 -262.5z" />
    <glyph glyph-name="uni0445" unicode="&#x445;" horiz-adv-x="1036" 
d="M59 0l363 506l-363 491h197l258 -364h4l262 364h195l-361 -493l365 -504h-188l-271 362h-2l-272 -362h-187z" />
    <glyph glyph-name="uni0446" unicode="&#x446;" horiz-adv-x="1216" 
d="M1159 147v-421h-141l-10 274h-852v997h166v-850h489v850h166v-850h182z" />
    <glyph glyph-name="uni0447" unicode="&#x447;" horiz-adv-x="1089" 
d="M768 997h166v-997h-166v393q-64 -31 -151.5 -50t-161.5 -19q-187 0 -274 88.5t-87 281.5v303h166v-266q0 -80 15.5 -132t48 -79.5t73.5 -38t101 -10.5q139 0 270 59v467z" />
    <glyph glyph-name="uni0448" unicode="&#x448;" horiz-adv-x="1669" 
d="M152 0v997h165v-850h435v850h166v-850h432v850h166v-997h-1364z" />
    <glyph glyph-name="uni0449" unicode="&#x449;" horiz-adv-x="1753" 
d="M1698 147v-421h-139l-11 274h-1396v997h165v-850h435v850h166v-850h432v850h166v-850h182z" />
    <glyph glyph-name="uni044A" unicode="&#x44a;" horiz-adv-x="1161" 
d="M709 664q383 0 383 -332q0 -157 -96.5 -244.5t-301.5 -87.5h-393v850h-285v147h451v-333h242zM696 143q226 0 226 187q0 194 -220 194h-235v-381h229z" />
    <glyph glyph-name="uni044B" unicode="&#x44b;" horiz-adv-x="1435" 
d="M156 0v997h166v-331h223q201 0 291 -87t90 -247q0 -157 -95.5 -244.5t-300.5 -87.5h-374zM1114 0v997h166v-997h-166zM322 143h208q228 0 228 187q0 194 -219 194h-217v-381z" />
    <glyph glyph-name="uni044C" unicode="&#x44c;" horiz-adv-x="1013" 
d="M156 0v997h166v-333h241q383 0 383 -332q0 -157 -96 -244.5t-301 -87.5h-393zM322 143h229q225 0 225 187q0 194 -219 194h-235v-381z" />
    <glyph glyph-name="uni044D" unicode="&#x44d;" horiz-adv-x="1081" 
d="M469 1010q242 0 381 -141t139 -375q0 -109 -31 -199.5t-92.5 -160t-163.5 -108t-235 -38.5q-116 0 -225 35.5t-170 91.5l86 125q135 -106 325 -103q147 2 234 78.5t104 220.5h-551v135h551q-19 136 -112.5 210.5t-243.5 76.5q-141 3 -295 -74l-64 136q59 35 158 62.5
t205 27.5z" />
    <glyph glyph-name="uni044E" unicode="&#x44e;" horiz-adv-x="1619" 
d="M1032 1010q217 0 357.5 -143t140.5 -369t-140.5 -368t-357.5 -142q-201 0 -332.5 118.5t-156.5 309.5h-226v-416h-165v997h165v-438h222q21 199 154.5 325t338.5 126zM1032 139q140 0 235 100.5t95 258.5t-95 259t-235 101q-148 0 -239 -102.5t-91 -257.5t91.5 -257
t238.5 -102z" />
    <glyph glyph-name="uni044F" unicode="&#x44f;" horiz-adv-x="1099" 
d="M504 997h440v-997h-166v358h-254l-258 -358h-188l272 375q-114 29 -174.5 106t-60.5 189q0 153 98.5 240t290.5 87zM778 502v352h-276q-219 0 -219 -184q0 -79 51.5 -123.5t159.5 -44.5h284z" />
    <glyph glyph-name="uni0450" unicode="&#x450;" horiz-adv-x="1128" 
d="M721 1143h-168l-248 282l189 -2zM1042 516q0 -15 -2 -39t-2 -28h-778q17 -141 109.5 -225.5t232.5 -84.5q182 0 289 133l117 -98q-144 -186 -412 -186q-222 0 -363 141t-141 369q0 225 138.5 368.5t353.5 143.5q203 0 330.5 -139.5t127.5 -354.5zM582 858
q-121 0 -208 -74t-110 -200h613q-19 125 -96.5 199.5t-198.5 74.5z" />
    <glyph glyph-name="uni0451" unicode="&#x451;" horiz-adv-x="1130" 
d="M401 1182q-51 0 -84.5 34t-33.5 84q0 48 34 81.5t84 33.5q49 0 84 -34.5t35 -82.5q0 -47 -35 -81.5t-84 -34.5zM772 1182q-50 0 -84.5 34.5t-34.5 83.5q0 47 35 81t84 34t84 -34.5t35 -82.5q0 -47 -35 -81.5t-84 -34.5zM1042 516q0 -15 -2 -39t-2 -28h-778
q17 -141 109.5 -225.5t232.5 -84.5q182 0 289 133l117 -98q-144 -186 -412 -186q-222 0 -363 141t-141 369q0 225 138.5 368.5t353.5 143.5q203 0 330.5 -139.5t127.5 -354.5zM582 858q-121 0 -208 -74t-110 -200h613q-19 125 -96.5 199.5t-198.5 74.5z" />
    <glyph glyph-name="uni0452" unicode="&#x452;" horiz-adv-x="1171" 
d="M1047 -43q2 -189 -80 -282t-252 -93q-74 0 -148 29l13 135q59 -22 114 -22q101 0 144 49.5t43 169.5l2 534q0 160 -63 232.5t-171 72.5q-154 0 -242 -94t-88 -262v-426h-165v1139h-144v139h144v229h165v-229h394v-139h-394v-389h3q61 89 156.5 136.5t217.5 47.5
q161 0 256 -103t95 -309v-565z" />
    <glyph glyph-name="uni0453" unicode="&#x453;" horiz-adv-x="894" 
d="M324 1141l241 289l187 2l-254 -291h-174zM156 0v997h684v-147h-518v-850h-166z" />
    <glyph glyph-name="uni0454" unicode="&#x454;" horiz-adv-x="1081" 
d="M911 244l105 -109q-57 -68 -163 -107.5t-232 -39.5q-134 0 -237 39.5t-166 109.5t-94.5 161.5t-31.5 201.5q0 226 138.5 368t377.5 142q235 0 375 -129l-102 -109q-105 86 -267 86q-145 0 -238.5 -75.5t-113.5 -211.5h549v-135h-549q19 -140 113.5 -219.5t251.5 -79.5
q183 0 284 107z" />
    <glyph glyph-name="uni0455" unicode="&#x455;" horiz-adv-x="894" 
d="M457 -12q-228 0 -389 141l84 127q62 -60 133.5 -90.5t171.5 -30.5q88 0 139 38t51 97q0 24 -10 43t-24 32.5t-44 28t-53.5 23.5t-69.5 26q-8 3 -12.5 4.5t-11 4t-12.5 4.5q-71 25 -117 47t-91.5 57.5t-68 85t-22.5 115.5q0 116 93 192.5t234 76.5q192 0 344 -123
l-86 -131q-114 106 -264 106q-62 0 -107.5 -33t-45.5 -88q0 -54 46.5 -87.5t141.5 -67.5q16 -6 47 -18q40 -15 59.5 -23t52.5 -22t49 -23.5t40.5 -24.5t36 -28.5t26.5 -33t21.5 -40t11 -46t4.5 -55.5q0 -123 -92.5 -203.5t-265.5 -80.5z" />
    <glyph glyph-name="uni0456" unicode="&#x456;" horiz-adv-x="501" 
d="M252 1180q-51 0 -86 34t-35 84t35 84.5t86 34.5t86 -34.5t35 -84.5t-35 -84t-86 -34zM168 0v997h166v-997h-166z" />
    <glyph glyph-name="uni0457" unicode="&#x457;" horiz-adv-x="501" 
d="M66 1182q-51 0 -85 34t-34 84q0 48 34 81.5t85 33.5q49 0 83.5 -34.5t34.5 -82.5t-34.5 -82t-83.5 -34zM436 1182q-50 0 -84.5 34.5t-34.5 83.5q0 47 35 81t84 34t84 -34.5t35 -82.5q0 -47 -35 -81.5t-84 -34.5zM168 0v997h166v-997h-166z" />
    <glyph glyph-name="uni0458" unicode="&#x458;" horiz-adv-x="458" 
d="M233 1180q-51 0 -85.5 34t-34.5 84t34.5 84.5t85.5 34.5t86 -34.5t35 -84.5t-35 -84t-86 -34zM66 -418q-95 0 -172 33l26 147q49 -30 113 -30q119 0 119 164v1101h165v-1101q0 -147 -66.5 -230.5t-184.5 -83.5z" />
    <glyph glyph-name="uni0459" unicode="&#x459;" horiz-adv-x="1662" 
d="M1225 664q383 0 383 -332q0 -157 -96.5 -244.5t-301.5 -87.5h-393v850h-346q-15 -314 -33 -459q-28 -203 -105 -301t-208 -98q-53 0 -88 14l12 144q30 -5 47 -5q156 0 191 299q17 164 26 553h670v-333h242zM1212 143q226 0 226 187q0 194 -219 194h-236v-381h229z" />
    <glyph glyph-name="uni045A" unicode="&#x45a;" horiz-adv-x="1718" 
d="M1305 625q358 0 358 -314q0 -146 -90.5 -228.5t-282.5 -82.5h-450v457h-523v-457h-165v997h165v-397h523v397h166v-372h299zM1284 143q209 0 209 166q0 174 -201 174h-286v-340h278z" />
    <glyph glyph-name="uni045B" unicode="&#x45b;" horiz-adv-x="1171" 
d="M696 934q161 0 256 -103t95 -309v-522h-166v477q0 160 -62.5 232.5t-169.5 72.5q-154 0 -242 -94t-88 -262v-426h-165v1139h-144v139h144v229h165v-229h394v-139h-394v-389h3q61 89 156.5 136.5t217.5 47.5z" />
    <glyph glyph-name="uni045C" unicode="&#x45c;" horiz-adv-x="1099" 
d="M383 1141l242 289l186 2l-254 -291h-174zM156 0v997h166v-544h4l501 544h205l-399 -430l422 -567h-197l-344 467l-192 -205v-262h-166z" />
    <glyph glyph-name="uni045D" unicode="&#x45d;" horiz-adv-x="1202" 
d="M602 1143l-248 282l189 -2l227 -280h-168zM156 0v997h166v-757h4l563 757h158v-997h-166v741h-4l-562 -741h-159z" />
    <glyph glyph-name="uni045E" unicode="&#x45e;" horiz-adv-x="1075" 
d="M541 1135q-127 0 -215.5 65.5t-110.5 206.5l147 27q7 -78 51.5 -134.5t127.5 -56.5q84 0 128.5 56.5t49.5 134.5l147 -27q-22 -141 -110 -206.5t-215 -65.5zM291 -406l178 445l-424 958h180l324 -757h4l301 757h174l-565 -1403h-172z" />
    <glyph glyph-name="uni045F" unicode="&#x45f;" horiz-adv-x="1140" 
d="M985 997v-997h-338l-4 -274h-139l-6 274h-342v997h166v-850h497v850h166z" />
    <glyph glyph-name="uni0462" unicode="&#x462;" horiz-adv-x="1470" 
d="M877 870q258 0 381.5 -111.5t123.5 -312.5q0 -446 -505 -446h-512v1114h-347v152h347v188h180v-188h506v-152h-506v-244h332zM877 162q164 0 242.5 71.5t78.5 202.5q0 132 -81 202.5t-240 70.5h-332v-547h332z" />
    <glyph glyph-name="uni0463" unicode="&#x463;" horiz-adv-x="1157" 
d="M723 637q364 0 364 -318q0 -150 -91.5 -234.5t-288.5 -84.5h-422v852h-283v145h283v510h164v-510h358v-145h-358v-215h274zM709 143q211 0 211 174q0 181 -203 181h-268v-355h260z" />
    <glyph glyph-name="uni0472" unicode="&#x472;" horiz-adv-x="1689" 
d="M846 1468q153 0 286.5 -54t231 -149.5t153.5 -235t56 -302.5t-56 -301.5t-153.5 -234t-231 -149.5t-286.5 -54q-213 0 -380 97t-258 265t-91 377t91 377.5t258 266t380 97.5zM846 1307q-221 0 -371.5 -143t-175.5 -361h1090q-25 224 -177 364t-366 140zM846 147
q213 0 365 139.5t178 364.5h-1090q25 -218 175.5 -361t371.5 -143z" />
    <glyph glyph-name="uni0473" unicode="&#x473;" 
d="M608 1010q225 0 369.5 -142t144.5 -370q0 -227 -144.5 -368.5t-369.5 -141.5q-230 0 -373 144.5t-143 365.5q0 220 143 366t373 146zM608 860q-143 0 -236.5 -80t-113.5 -215h700q-22 135 -118.5 215t-231.5 80zM608 137q136 0 233 82t117 217h-700q19 -134 113 -216.5
t237 -82.5z" />
    <glyph glyph-name="uni0474" unicode="&#x474;" horiz-adv-x="1486" 
d="M610 0l-549 1454h191l440 -1204h2l297 913q54 169 123.5 236t192.5 67q66 0 120.5 -16.5t81.5 -40.5l-39 -143q-67 43 -141 43q-68 0 -104.5 -47t-71.5 -152l-383 -1110h-160z" />
    <glyph glyph-name="uni0475" unicode="&#x475;" horiz-adv-x="1114" 
d="M455 0l-408 997h178l307 -786h3l196 567q41 126 88 178t139 52q91 0 156 -39l-35 -133q-42 22 -80 22q-42 0 -66 -31.5t-54 -113.5l-269 -713h-155z" />
    <glyph glyph-name="uni048A" unicode="&#x48a;" horiz-adv-x="1538" 
d="M758 1587q-127 0 -215.5 64.5t-110.5 201.5l148 17q7 -68 52 -121t126 -53q83 0 128 53.5t50 120.5l147 -17q-22 -137 -110 -201.5t-215 -64.5zM1323 162h170v-66l-154 -383h-131l88 287h-151v1147h-4l-801 -1147h-160v1454h178v-1157h4l805 1157h156v-1292z" />
    <glyph glyph-name="uni048B" unicode="&#x48b;" horiz-adv-x="1247" 
d="M612 1135q-127 0 -215 65.5t-110 206.5l147 27q7 -79 51.5 -135t126.5 -56q84 0 129 56.5t50 134.5l147 -27q-22 -141 -110.5 -206.5t-215.5 -65.5zM1047 147h155v-38l-149 -383h-117l84 274h-139v741h-4l-562 -741h-159v997h166v-757h4l563 757h158v-850z" />
    <glyph glyph-name="uni048C" unicode="&#x48c;" horiz-adv-x="1325" 
d="M731 870q257 0 381.5 -111.5t124.5 -312.5q0 -446 -508 -446h-510v1128h-205v144h205v182h178v-182h316v-144h-316v-258h334zM729 162q165 0 244.5 71.5t79.5 202.5q0 132 -81.5 202.5t-240.5 70.5h-334v-547h332z" />
    <glyph glyph-name="uni048D" unicode="&#x48d;" horiz-adv-x="1032" 
d="M598 637q365 0 365 -318q0 -150 -91.5 -234.5t-287.5 -84.5h-424v825h-144v117h144v109h166v-109h358v-117h-358v-188h272zM584 143q211 0 211 174q0 181 -203 181h-266v-355h258z" />
    <glyph glyph-name="uni048E" unicode="&#x48e;" horiz-adv-x="1259" 
d="M1176 1004q0 -298 -250 -404l147 -274l-131 -68l-164 305q-49 -8 -114 -8h-306v-555h-178v1454h514q124 0 218 -33.5t151 -95t85 -142t28 -179.5zM645 717q39 0 55 2l-135 250l123 59l152 -280q151 62 151 260q0 138 -83.5 211t-231.5 73h-318v-575h287z" />
    <glyph glyph-name="uni048F" unicode="&#x48f;" horiz-adv-x="1257" 
d="M1163 492q0 -140 -57 -251t-156 -175l129 -230l-110 -61l-138 235q-74 -22 -153 -22q-117 0 -207 48t-147 136h-2v-578h-166v1403h166v-176h2q57 90 149 139.5t205 49.5q211 0 348 -147.5t137 -370.5zM655 139q55 0 101 15l-142 239l107 58l141 -244q63 46 98 120.5
t35 164.5q0 162 -99 264t-243 102q-150 0 -245 -105t-95 -261t98.5 -254.5t243.5 -98.5z" />
    <glyph glyph-name="uni0490" unicode="&#x490;" horiz-adv-x="1134" 
d="M924 1741h149v-449h-715v-1292h-178v1454h735z" />
    <glyph glyph-name="uni0491" unicode="&#x491;" horiz-adv-x="894" 
d="M700 1272h140v-422h-518v-850h-166v997h534z" />
    <glyph glyph-name="uni0492" unicode="&#x492;" horiz-adv-x="1185" 
d="M1124 1292h-714v-518h393v-141h-393v-633h-179v633h-208v141h208v680h893v-162z" />
    <glyph glyph-name="uni0493" unicode="&#x493;" horiz-adv-x="894" 
d="M840 850h-518v-336h378v-119h-378v-395h-166v395h-146v119h146v483h684v-147z" />
    <glyph glyph-name="uni0494" unicode="&#x494;" horiz-adv-x="1329" 
d="M680 809q253 0 401 -153.5t148 -438.5q0 -157 -40.5 -278.5t-114.5 -198t-173 -115.5t-219 -39q-92 0 -176 19l14 151q74 -14 152 -14q170 0 271 118.5t101 336.5q0 114 -30 201t-84 140t-125.5 79t-159.5 26q-147 0 -287 -53v-590h-178v1454h893v-162h-715v-542
q160 59 322 59z" />
    <glyph glyph-name="uni0495" unicode="&#x495;" horiz-adv-x="1067" 
d="M1032 78q3 -243 -124.5 -369.5t-340.5 -126.5q-80 0 -151 19l12 137q70 -12 123 -12q146 0 229.5 93.5t83.5 246.5q0 156 -83 237.5t-232 81.5q-126 0 -227 -37v-348h-166v997h684v-147h-518v-365q126 47 256 47q98 0 180.5 -29.5t143 -85.5t95 -143t35.5 -196z" />
    <glyph glyph-name="uni0496" unicode="&#x496;" horiz-adv-x="2023" 
d="M1948 162v-449h-150l-8 287h-123l-432 670l-191 -246v-424h-172v428l-188 246l-424 -674h-207l502 795l-500 659h217l598 -799h2v799h172v-809l5 -2l585 811h215l-481 -661l404 -631h176z" />
    <glyph glyph-name="uni0497" unicode="&#x497;" horiz-adv-x="1640" 
d="M1583 147v-421h-139l-10 274h-84l-322 465l-156 -176v-289h-159v291l-162 174l-320 -465h-186l389 553l-383 444h201l457 -530h4v530h159v-536h2l451 536h195l-373 -442l291 -408h145z" />
    <glyph glyph-name="uni0498" unicode="&#x498;" horiz-adv-x="1243" 
d="M1143 414q0 -178 -125 -294.5t-350 -129.5l-15 -60q67 -16 107.5 -52t40.5 -91q0 -78 -53.5 -122t-151.5 -44q-68 -3 -137 14v105q55 -19 108 -19q52 0 80.5 18.5t28.5 53.5q0 65 -146 78l25 119q-146 9 -268.5 66t-208.5 157l115 137q147 -196 425 -196q156 0 247 68.5
t91 191.5q0 124 -90.5 193t-265.5 69h-233v155h221q133 0 217 63.5t84 182.5q0 107 -75 165t-214 58q-208 0 -367 -126l-98 137q73 69 209.5 113t276.5 44q209 0 329.5 -97t120.5 -263q0 -114 -59.5 -205.5t-175.5 -130.5v-2q140 -30 223.5 -118t83.5 -238z" />
    <glyph glyph-name="uni0499" unicode="&#x499;" horiz-adv-x="1003" 
d="M915 276q0 -119 -92 -195t-260 -91l-16 -60q66 -16 106.5 -52t40.5 -91q0 -78 -53.5 -122t-151.5 -44q-68 -3 -137 14v105q55 -19 109 -19q51 0 79.5 18.5t28.5 53.5q0 65 -145 78l25 117q-219 10 -367 104l51 150q149 -107 356 -107q120 0 188 42.5t68 119.5
q0 71 -57 107t-162 36h-225v133h199q98 0 148 36.5t50 105.5q0 145 -213 145q-170 0 -305 -76l-63 136q63 36 158.5 63t207.5 27q176 0 278.5 -67.5t102.5 -186.5q0 -79 -44.5 -141t-123.5 -89v-2q94 -22 156.5 -85.5t62.5 -162.5z" />
    <glyph glyph-name="uni049A" unicode="&#x49a;" horiz-adv-x="1417" 
d="M1335 162v-449h-149l-8 287h-136l-473 651l-211 -248v-403h-178v1454h178v-797h4l660 797h229l-563 -663l461 -631v2h186z" />
    <glyph glyph-name="uni049B" unicode="&#x49b;" horiz-adv-x="1153" 
d="M1094 147v-421h-140l-10 274h-86l-344 467l-192 -205v-262h-166v997h166v-544h4l501 544h205l-399 -430l311 -420h150z" />
    <glyph glyph-name="uni049C" unicode="&#x49c;" horiz-adv-x="1460" 
d="M1190 0l-434 637l-76 2v-395h-148v397l-174 2v-643h-178v1454h178v-661l174 4v399h148v-397l65 2l433 653h208l-481 -713l498 -741h-213z" />
    <glyph glyph-name="uni049D" unicode="&#x49d;" horiz-adv-x="1181" 
d="M946 0l-280 424l-66 2v-264h-117v266l-161 2v-430h-166v997h166v-448l161 4v268h117v-266l53 2l277 440h180l-311 -487l338 -510h-191z" />
    <glyph glyph-name="uni049E" unicode="&#x49e;" horiz-adv-x="1341" 
d="M711 786l573 -786h-219l-471 647l-217 -258v-389h-178v1139h-189v141h189v174h178v-174h264v-141h-264v-496h4l666 811h223z" />
    <glyph glyph-name="uni049F" unicode="&#x49f;" horiz-adv-x="1099" 
d="M633 567l422 -567h-197l-344 467l-192 -205v-262h-166v1178h-146v118h146v211h166v-211h366v-118h-366v-725h4l501 544h205z" />
    <glyph glyph-name="uni04A0" unicode="&#x4a0;" horiz-adv-x="1525" 
d="M891 791l577 -791h-221l-475 651l-211 -248v-403h-178v1292h-369v162h547v-797h4l662 797h227z" />
    <glyph glyph-name="uni04A1" unicode="&#x4a1;" horiz-adv-x="1271" 
d="M805 567l422 -567h-199l-342 467l-194 -205v-262h-166v850h-312v147h478v-544h4l501 544h207z" />
    <glyph glyph-name="uni04A2" unicode="&#x4a2;" horiz-adv-x="1576" 
d="M1497 162v-449h-149l-9 287h-221v610h-760v-610h-178v1454h178v-682h760v682h178v-1292h201z" />
    <glyph glyph-name="uni04A3" unicode="&#x4a3;" horiz-adv-x="1265" 
d="M1208 147v-421h-139l-10 274h-199v416h-538v-416h-166v997h166v-438h538v438h166v-850h182z" />
    <glyph glyph-name="uni04A4" unicode="&#x4a4;" horiz-adv-x="1763" 
d="M1702 1454v-162h-420v-1292h-178v610h-746v-610h-178v1454h178v-682h746v682h598z" />
    <glyph glyph-name="uni04A5" unicode="&#x4a5;" horiz-adv-x="1368" 
d="M1317 997v-147h-309v-850h-166v416h-520v-416h-166v997h166v-438h520v438h475z" />
    <glyph glyph-name="uni04A6" unicode="&#x4a6;" horiz-adv-x="2191" 
d="M1542 809q253 0 401 -153.5t148 -438.5q0 -157 -40.5 -278.5t-114.5 -198t-173 -115.5t-219 -39q-92 0 -176 19l14 151q74 -14 152 -14q170 0 271.5 118.5t101.5 336.5q0 114 -30 201t-84.5 140t-126 79t-159.5 26q-146 0 -286 -53v-590h-179v1292h-684v-1292h-178v1454
h1041v-704q160 59 321 59z" />
    <glyph glyph-name="uni04A7" unicode="&#x4a7;" horiz-adv-x="1734" 
d="M1702 78q1 -244 -126 -370t-341 -126q-79 0 -150 19l13 137q68 -12 123 -12q145 0 228 93.5t83 246.5q0 156 -82.5 237.5t-232.5 81.5q-122 0 -228 -37v-348h-166v850h-501v-850h-166v997h833v-512q126 47 256 47q133 0 234.5 -50.5t161.5 -154.5t61 -249z" />
    <glyph glyph-name="uni04A8" unicode="&#x4a8;" horiz-adv-x="1734" 
d="M1741 39q-61 -53 -215 -53q-185 0 -312 75q-141 -75 -321 -75q-185 0 -334 59t-244.5 162.5t-146.5 241t-51 296.5q0 203 91 368t255.5 260t370.5 95q122 0 210 -30l-69 -156q-61 18 -137 18q-234 0 -384.5 -160.5t-152.5 -408.5q-1 -120 38.5 -226.5t113.5 -187
t188.5 -127.5t255.5 -47q95 0 168 25l2 4q-114 112 -180 260.5t-66 315.5q0 231 113 378.5t299 147.5q181 0 290 -148t109 -385q0 -169 -79.5 -331.5t-211.5 -253.5l2 -4q61 -19 144 -19q136 0 225 64zM1006 735q0 -146 53 -275t151 -224h4q109 79 171.5 209.5t62.5 283.5
q0 169 -59.5 274t-159.5 105t-162 -104t-61 -269z" />
    <glyph glyph-name="uni04A9" unicode="&#x4a9;" horiz-adv-x="1280" 
d="M1245 2q-50 -16 -141 -16q-66 0 -132.5 18t-109.5 51q-107 -69 -268 -69q-238 0 -380 144t-142 370q0 224 135 367t340 143q51 0 106 -11l-59 -145q-36 4 -45 4q-138 -4 -223.5 -106t-85.5 -254q0 -165 105 -269t280 -104q53 0 102 12l2 6q-81 67 -125.5 168.5
t-44.5 218.5q0 107 33.5 196t107 147.5t174.5 58.5q147 0 227.5 -110.5t80.5 -293.5q0 -124 -55 -227.5t-138 -165.5v-4q48 -10 90 -10q85 0 144 26zM879 780q-66 0 -107 -74.5t-41 -160.5q0 -113 37.5 -204.5t101.5 -143.5q140 124 140 348q0 88 -37.5 161.5t-93.5 73.5z
" />
    <glyph glyph-name="uni04AA" unicode="&#x4aa;" horiz-adv-x="1482" 
d="M1409 264q-216 -266 -551 -274l-14 -60q66 -16 106.5 -52t40.5 -91q0 -78 -53.5 -122t-151.5 -44q-68 -3 -137 14v105q55 -19 109 -19q51 0 79.5 18.5t28.5 53.5q0 65 -145 78l24 125q-132 14 -245 68.5t-199 144.5t-135 222.5t-49 291.5q0 155 48.5 290t138 236.5
t228 160t308.5 58.5q161 0 307.5 -70t259.5 -208l-133 -111q-177 219 -434 219q-244 0 -390.5 -160.5t-146.5 -414.5q0 -256 152 -410.5t387 -154.5q261 0 434 219z" />
    <glyph glyph-name="uni04AB" unicode="&#x4ab;" horiz-adv-x="1067" 
d="M1001 162q-134 -158 -366 -172l-14 -60q66 -16 106.5 -52t40.5 -91q0 -78 -53.5 -122t-151.5 -44q-68 -3 -137 14v105q55 -19 109 -19q51 0 79.5 18.5t28.5 53.5q0 65 -145 78l24 121q-192 22 -311 160t-119 346q0 226 140.5 369t363.5 143q115 0 222 -46.5t179 -132.5
l-112 -100q-49 58 -122 92.5t-159 34.5q-153 0 -247.5 -100.5t-94.5 -259.5q0 -160 94 -259.5t246 -99.5q88 0 163 34.5t122 92.5z" />
    <glyph glyph-name="uni04AC" unicode="&#x4ac;" horiz-adv-x="1173" 
d="M1114 1292h-440v-1130h200v-449h-149l-8 287h-221v1292h-435v162h1053v-162z" />
    <glyph glyph-name="uni04AD" unicode="&#x4ad;" horiz-adv-x="937" 
d="M887 850h-334v-703h174v-421h-139l-10 274h-191v850h-334v147h834v-147z" />
    <glyph glyph-name="uni04AE" unicode="&#x4ae;" horiz-adv-x="1230" 
d="M524 0v649l-493 805h205l376 -625h4l375 625h209l-498 -805v-649h-178z" />
    <glyph glyph-name="uni04AF" unicode="&#x4af;" horiz-adv-x="1064" 
d="M1018 997l-400 -1022v-381h-165v377l-406 1026h178l307 -819h3l305 819h178z" />
    <glyph glyph-name="uni04B0" unicode="&#x4b0;" horiz-adv-x="1230" 
d="M1200 1454l-469 -758h291v-137h-320v-559h-178v559h-325v137h297l-465 758h205l376 -625h4l375 625h209z" />
    <glyph glyph-name="uni04B1" unicode="&#x4b1;" horiz-adv-x="1064" 
d="M1018 997l-354 -878h229v-119h-275v-406h-165v402l-2 4h-279v119h231l-356 878h178l307 -819h3l305 819h178z" />
    <glyph glyph-name="uni04B2" unicode="&#x4b2;" horiz-adv-x="1452" 
d="M1356 162v-449h-150l-8 287h-117l-401 586h-4l-402 -586h-206l493 727l-487 727h207l399 -588h2l397 588h207l-489 -727l385 -565h174z" />
    <glyph glyph-name="uni04B3" unicode="&#x4b3;" horiz-adv-x="1089" 
d="M1030 147v-421h-139l-10 274h-90l-271 362h-2l-272 -362h-187l363 506l-363 491h197l258 -364h4l262 364h195l-361 -493l258 -357h158z" />
    <glyph glyph-name="uni04B4" unicode="&#x4b4;" horiz-adv-x="1794" 
d="M1714 162v-449h-149l-9 287h-1087v1298h-438v154h438v2h178v-2h387v-154h-387v-1136h688v1292h178v-1292h201z" />
    <glyph glyph-name="uni04B5" unicode="&#x4b5;" horiz-adv-x="1431" 
d="M1374 147v-421h-139l-10 274h-852v850h-334v147h805v-147h-305v-703h489v850h166v-850h180z" />
    <glyph glyph-name="uni04B6" unicode="&#x4b6;" horiz-adv-x="1425" 
d="M1346 162v-449h-150l-8 287h-221v602q-77 -41 -194.5 -67.5t-217.5 -26.5q-218 0 -318 118t-100 357v471h178v-444q0 -129 32 -203.5t92.5 -103.5t162.5 -29q92 0 193 22t172 64v694h178v-1292h201z" />
    <glyph glyph-name="uni04B7" unicode="&#x4b7;" horiz-adv-x="1173" 
d="M1116 147v-421h-139l-10 274h-199v393q-64 -31 -151.5 -50t-161.5 -19q-187 0 -274 88.5t-87 281.5v303h166v-266q0 -80 15.5 -132t48 -79.5t73.5 -38t101 -10.5q139 0 270 59v467h166v-850h182z" />
    <glyph glyph-name="uni04B8" unicode="&#x4b8;" horiz-adv-x="1341" 
d="M983 1454h178v-1454h-178v602q-98 -52 -250 -78v-305h-135v291q-14 -2 -43 -2q-218 0 -318 118t-100 357v471h178v-444q0 -128 31.5 -202t91 -103.5t160.5 -30.5v319h135v-311q150 17 250 74v698z" />
    <glyph glyph-name="uni04B9" unicode="&#x4b9;" horiz-adv-x="1103" 
d="M782 997h166v-997h-166v393q-66 -30 -178 -51v-213h-119v199h-30q-187 0 -274 87.5t-87 278.5v303h166v-266q0 -77 14.5 -129t45.5 -80t70 -39t95 -12v277h119v-269q103 13 178 47v471z" />
    <glyph glyph-name="uni04BA" unicode="&#x4ba;" horiz-adv-x="1331" 
d="M776 963q217 0 317.5 -118.5t100.5 -357.5v-487h-178v481q0 174 -72.5 245t-220.5 71q-84 0 -187 -25t-178 -63v-709h-178v1454h178v-592q87 43 202.5 72t215.5 29z" />
    <glyph glyph-name="uni04BB" unicode="&#x4bb;" horiz-adv-x="1189" 
d="M156 0v1507h166v-684h2q59 90 154 138.5t214 48.5q168 0 265.5 -103t97.5 -309v-598h-166v551q0 307 -246 307q-150 0 -235.5 -94t-85.5 -262v-502h-166z" />
    <glyph glyph-name="uni04BC" unicode="&#x4bc;" horiz-adv-x="1814" 
d="M1718 780q0 -22 -4 -84h-1190q12 -249 152.5 -393.5t382.5 -144.5q155 0 279 55.5t194 153.5l133 -113q-90 -120 -247.5 -192t-356.5 -72q-163 0 -297 51.5t-225.5 144t-143.5 223t-57 287.5q-348 3 -348 256q0 79 33 174l153 -22q-24 -74 -24 -125q0 -72 48 -100.5
t144 -28.5h2q35 277 225.5 447.5t470.5 170.5q139 0 262 -47.5t215 -134t145.5 -217.5t53.5 -289zM1049 1300q-211 0 -348.5 -122t-170.5 -326h1000q-15 202 -146 325t-335 123z" />
    <glyph glyph-name="uni04BD" unicode="&#x4bd;" horiz-adv-x="1314" 
d="M1227 516q0 -39 -4 -67h-777q17 -141 109.5 -225.5t232.5 -84.5q180 0 287 133l117 -98q-141 -186 -412 -186q-207 0 -344.5 125.5t-154.5 332.5q-293 6 -293 226q0 72 28 149l131 -18q-22 -68 -22 -111q0 -61 39.5 -84.5t120.5 -25.5q26 193 159 310.5t326 117.5
q203 0 330 -139.5t127 -354.5zM768 858q-121 0 -207.5 -74.5t-109.5 -201.5h612q-21 128 -97 202t-198 74z" />
    <glyph glyph-name="uni04BE" unicode="&#x4be;" horiz-adv-x="1814" 
d="M1718 780q0 -22 -4 -84h-1190q12 -249 152.5 -393.5t382.5 -144.5q155 0 279 55.5t194 153.5l133 -113q-81 -109 -220.5 -179.5t-316.5 -82.5l-6 -279h-147l-6 281q-191 18 -331.5 111.5t-216.5 244.5t-83 346q-348 3 -348 256q0 79 33 174l153 -22q-24 -74 -24 -125
q0 -72 48 -100.5t144 -28.5h2q35 277 225.5 447.5t470.5 170.5q139 0 262 -47.5t215 -134t145.5 -217.5t53.5 -289zM1049 1300q-211 0 -348.5 -122t-170.5 -326h1000q-15 202 -146 325t-335 123z" />
    <glyph glyph-name="uni04BF" unicode="&#x4bf;" horiz-adv-x="1314" 
d="M1227 516q0 -39 -4 -67h-777q17 -141 109.5 -225.5t232.5 -84.5q180 0 287 133l117 -98q-124 -160 -340 -182l-4 -266h-139l-7 266q-178 23 -292 145t-129 309q-293 6 -293 226q0 72 28 149l131 -18q-22 -68 -22 -111q0 -61 39.5 -84.5t120.5 -25.5q26 193 159 310.5
t326 117.5q203 0 330 -139.5t127 -354.5zM768 858q-121 0 -207.5 -74.5t-109.5 -201.5h612q-21 128 -97 202t-198 74z" />
    <glyph glyph-name="uni04C0" unicode="&#x4c0;" horiz-adv-x="559" 
d="M190 0v1454h179v-1454h-179z" />
    <glyph glyph-name="uni04C1" unicode="&#x4c1;" horiz-adv-x="1929" 
d="M958 1587q-127 0 -215 64.5t-110 201.5l147 17q7 -68 52 -121t126 -53q83 0 128.5 53.5t50.5 120.5l147 -17q-22 -137 -110.5 -201.5t-215.5 -64.5zM53 0l502 795l-500 659h217l598 -799h2v799h172v-809l5 -2l585 811h215l-481 -661l508 -793h-209l-432 670l-191 -246
v-424h-172v428l-188 246l-424 -674h-207z" />
    <glyph glyph-name="uni04C2" unicode="&#x4c2;" horiz-adv-x="1587" 
d="M797 1135q-127 0 -215.5 65.5t-110.5 206.5l147 27q7 -78 51.5 -134.5t127.5 -56.5q84 0 128.5 56.5t49.5 134.5l147 -27q-22 -141 -110 -206.5t-215 -65.5zM45 0l389 553l-383 444h201l457 -530h4v530h159v-536h2l451 536h195l-373 -442l395 -555h-192l-322 465
l-156 -176v-289h-159v291l-162 174l-320 -465h-186z" />
    <glyph glyph-name="uni04C3" unicode="&#x4c3;" horiz-adv-x="1366" 
d="M690 795q244 -3 395.5 -156t151.5 -422q0 -157 -40.5 -278.5t-114.5 -198t-173 -115.5t-219 -39q-92 0 -176 19l14 151q74 -14 150 -14q171 0 273 118.5t102 336.5q0 114 -32 200.5t-89.5 139t-132.5 78.5t-166 26q-22 0 -76 -4l-199 -234v-403h-178v1454h178v-797h4
l660 797h229z" />
    <glyph glyph-name="uni04C4" unicode="&#x4c4;" horiz-adv-x="1091" 
d="M1032 78q1 -244 -125.5 -370t-339.5 -126q-80 0 -151 19l12 137q70 -12 123 -12q145 0 228 93.5t83 246.5q0 152 -85 235.5t-228 83.5q-84 0 -168 -23l-59 -45v-317h-166v997h166v-544h4l501 544h205l-430 -465q187 -8 307 -127t123 -327z" />
    <glyph glyph-name="uni04C5" unicode="&#x4c5;" horiz-adv-x="1513" 
d="M1298 162h170v-66l-153 -383h-131l88 287h-152v1292h-516q-20 -397 -51 -688q-35 -319 -123 -464.5t-266 -145.5q-67 0 -125 16l14 150q24 -6 72 -6q49 0 87 22t64.5 61t47 105t34.5 141.5t27 182.5q32 276 47 788h866v-1292z" />
    <glyph glyph-name="uni04C6" unicode="&#x4c6;" horiz-adv-x="1198" 
d="M997 147h156v-38l-149 -383h-117l84 274h-140v850h-352q-15 -314 -33 -459q-28 -204 -105.5 -301.5t-211.5 -97.5q-53 0 -88 14l12 144q30 -5 47 -5q156 0 191 299q17 164 26 553h680v-850z" />
    <glyph glyph-name="uni04C7" unicode="&#x4c7;" horiz-adv-x="1476" 
d="M1118 1454h178v-1477q0 -395 -368 -395q-84 0 -170 29l14 149q53 -26 127 -26q219 0 219 237v639h-760v-610h-178v1454h178v-682h760v682z" />
    <glyph glyph-name="uni04C8" unicode="&#x4c8;" horiz-adv-x="1181" 
d="M860 997h166v-1040q0 -190 -81 -282.5t-251 -92.5q-73 0 -147 29l12 135q59 -22 115 -22q101 0 143.5 49.5t42.5 169.5v473h-538v-416h-166v997h166v-438h538v438z" />
    <glyph glyph-name="uni04C9" unicode="&#x4c9;" horiz-adv-x="1511" 
d="M1296 162h170v-66l-153 -383h-131l88 287h-152v610h-760v-610h-178v1454h178v-682h760v682h178v-1292z" />
    <glyph glyph-name="uni04CA" unicode="&#x4ca;" horiz-adv-x="1226" 
d="M1026 147h156v-38l-150 -383h-117l84 274h-139v416h-538v-416h-166v997h166v-438h538v438h166v-850z" />
    <glyph glyph-name="uni04CB" unicode="&#x4cb;" horiz-adv-x="1325" 
d="M967 1454h178v-1454h-219l-11 -287h-149v449h201v440q-77 -41 -194.5 -67.5t-217.5 -26.5q-218 0 -318 118t-100 357v471h178v-444q0 -129 32 -203.5t92.5 -103.5t162.5 -29q92 0 193 22t172 64v694z" />
    <glyph glyph-name="uni04CC" unicode="&#x4cc;" horiz-adv-x="1089" 
d="M768 997h166v-997h-191l-10 -274h-139v395h174v272q-64 -31 -151.5 -50t-161.5 -19q-187 0 -274 88.5t-87 281.5v303h166v-266q0 -80 15.5 -132t48 -79.5t73.5 -38t101 -10.5q139 0 270 59v467z" />
    <glyph glyph-name="uni04CD" unicode="&#x4cd;" horiz-adv-x="1826" 
d="M1612 162h170v-66l-154 -383h-131l88 287h-151v1108h-4l-474 -815h-120l-474 815h-2v-1108h-180v1454h180l535 -940h4l535 940h178v-1292z" />
    <glyph glyph-name="uni04CE" unicode="&#x4ce;" horiz-adv-x="1433" 
d="M1233 147h156v-38l-150 -383h-117l84 274h-133v717h-4l-319 -543h-113l-318 541h-4v-715h-159v997h161l375 -639h4l377 639h160v-850z" />
    <glyph glyph-name="uni04CF" unicode="&#x4cf;" horiz-adv-x="501" 
d="M168 0v1507h166v-1507h-166z" />
    <glyph glyph-name="uni04D0" unicode="&#x4d0;" horiz-adv-x="1384" 
d="M692 1587q-127 0 -215 64.5t-110 201.5l147 17q7 -68 52 -121t126 -53q83 0 128 53.5t50 120.5l148 -17q-22 -137 -110.5 -201.5t-215.5 -64.5zM51 0l551 1454h178l553 -1454h-186l-131 354h-649l-129 -354h-187zM424 510h537l-269 729h-4z" />
    <glyph glyph-name="uni04D1" unicode="&#x4d1;" horiz-adv-x="1236" 
d="M612 1135q-127 0 -215 65.5t-110 206.5l147 27q7 -79 51.5 -135t126.5 -56q84 0 129 56.5t50 134.5l147 -27q-22 -141 -110.5 -206.5t-215.5 -65.5zM575 -12q-209 0 -347 140t-138 364q0 223 137 370.5t348 147.5q111 0 203 -50.5t146 -140.5l4 2v176h166v-997h-160v180
h-2q-55 -91 -146.5 -141.5t-210.5 -50.5zM600 139q141 0 237.5 99t96.5 254q0 156 -94 261t-240 105q-144 0 -243 -102t-99 -264q0 -153 95 -253t247 -100z" />
    <glyph glyph-name="uni04D2" unicode="&#x4d2;" horiz-adv-x="1384" 
d="M506 1661q-51 0 -85 34.5t-34 84.5q0 48 34 81t85 33q49 0 84 -34.5t35 -81.5q0 -48 -35 -82.5t-84 -34.5zM877 1661q-49 0 -84 34.5t-35 84.5q0 47 35 80.5t84 33.5t83.5 -34t34.5 -82t-34.5 -82.5t-83.5 -34.5zM51 0l551 1454h178l553 -1454h-186l-131 354h-649
l-129 -354h-187zM424 510h537l-269 729h-4z" />
    <glyph glyph-name="uni04D3" unicode="&#x4d3;" horiz-adv-x="1236" 
d="M426 1182q-51 0 -85 34t-34 84q0 48 34 81.5t85 33.5q49 0 84 -34.5t35 -82.5q0 -47 -35 -81.5t-84 -34.5zM797 1182q-50 0 -84.5 34.5t-34.5 83.5q0 47 35 81t84 34t83.5 -34.5t34.5 -82.5t-34.5 -82t-83.5 -34zM575 -12q-209 0 -347 140t-138 364q0 223 137 370.5
t348 147.5q111 0 203 -50.5t146 -140.5l4 2v176h166v-997h-160v180h-2q-55 -91 -146.5 -141.5t-210.5 -50.5zM600 139q141 0 237.5 99t96.5 254q0 156 -94 261t-240 105q-144 0 -243 -102t-99 -264q0 -153 95 -253t247 -100z" />
    <glyph glyph-name="uni04D4" unicode="&#x4d4;" horiz-adv-x="1900" 
d="M18 0l766 1454h996v-162h-715v-487h594v-162h-594v-481h756v-162h-932v354h-498l-188 -354h-185zM469 510h420v786h-4z" />
    <glyph glyph-name="uni04D5" unicode="&#x4d5;" horiz-adv-x="1613" 
d="M1546 516q0 -56 -2 -70h-696q15 -142 96 -224.5t209 -82.5q90 0 145 33t105 100l115 -98q-71 -94 -154 -140t-223 -46q-123 0 -212.5 55t-144.5 147h-4q-43 -90 -139.5 -146t-226.5 -56q-169 0 -257.5 86.5t-88.5 216.5q0 138 97 217.5t284 79.5h237v24
q0 137 -46.5 192.5t-152.5 55.5q-146 0 -284 -76l-64 136q60 34 159.5 62t199.5 28q117 0 189 -46.5t110 -146.5h4q56 91 145.5 142t190.5 51q182 0 295.5 -139.5t113.5 -354.5zM852 584h528q-11 123 -75 198.5t-175 75.5q-108 0 -182.5 -75.5t-95.5 -198.5zM428 127
q108 0 184 66.5t76 179.5v80h-225q-109 0 -170.5 -40t-61.5 -120q0 -72 51 -119t146 -47z" />
    <glyph glyph-name="uni04D6" unicode="&#x4d6;" 
d="M631 1587q-127 0 -215.5 64.5t-110.5 201.5l148 17q7 -68 52 -121t126 -53q83 0 128 53.5t50 120.5l147 -17q-22 -137 -110 -201.5t-215 -64.5zM180 0v1454h891v-162h-713v-487h584v-162h-584v-481h756v-162h-934z" />
    <glyph glyph-name="uni04D7" unicode="&#x4d7;" horiz-adv-x="1130" 
d="M588 1135q-127 0 -215.5 65.5t-110.5 206.5l148 27q7 -79 51.5 -135t126.5 -56q84 0 128.5 56.5t49.5 134.5l147 -27q-22 -141 -110 -206.5t-215 -65.5zM1042 516q0 -15 -2 -39t-2 -28h-778q17 -141 109.5 -225.5t232.5 -84.5q182 0 289 133l117 -98q-144 -186 -412 -186
q-222 0 -363 141t-141 369q0 225 138.5 368.5t353.5 143.5q203 0 330.5 -139.5t127.5 -354.5zM582 858q-121 0 -208 -74t-110 -200h613q-19 125 -96.5 199.5t-198.5 74.5z" />
    <glyph glyph-name="uni04D8" unicode="&#x4d8;" horiz-adv-x="1587" 
d="M752 1468q172 0 310 -57.5t226.5 -157.5t135 -233.5t46.5 -288.5q0 -168 -53 -308.5t-146.5 -235t-222 -147t-278.5 -52.5q-200 0 -352.5 79.5t-239 234.5t-86.5 366q0 36 4 90h1192q-9 247 -154 393.5t-399 146.5q-246 3 -450 -145l-103 135q238 183 570 180zM766 156
q199 0 338 116.5t174 325.5h-1006q9 -203 144 -322.5t350 -119.5z" />
    <glyph glyph-name="uni04D9" unicode="&#x4d9;" horiz-adv-x="1132" 
d="M530 1010q144 0 258.5 -59.5t183 -178t68.5 -278.5q0 -226 -127.5 -366t-353.5 -140q-218 0 -343.5 137.5t-125.5 349.5q0 32 6 74h778q-17 146 -114 228.5t-240 82.5q-148 0 -293 -80l-65 135q168 95 368 95zM559 137q131 0 210.5 74t100.5 203h-612
q12 -128 91.5 -202.5t209.5 -74.5z" />
    <glyph glyph-name="uni04DA" unicode="&#x4da;" horiz-adv-x="1587" 
d="M600 1661q-51 0 -85 34.5t-34 84.5q0 48 34 81t85 33q49 0 84 -34.5t35 -81.5q0 -48 -35 -82.5t-84 -34.5zM971 1661q-49 0 -84 34.5t-35 84.5q0 47 35 80.5t84 33.5t84 -34.5t35 -81.5q0 -48 -35 -82.5t-84 -34.5zM752 1468q172 0 310 -57.5t226.5 -157.5t135 -233.5
t46.5 -288.5q0 -168 -53 -308.5t-146.5 -235t-222 -147t-278.5 -52.5q-200 0 -352.5 79.5t-239 234.5t-86.5 366q0 36 4 90h1192q-9 247 -154 393.5t-399 146.5q-246 3 -450 -145l-103 135q238 183 570 180zM766 156q199 0 338 116.5t174 325.5h-1006q9 -203 144 -322.5
t350 -119.5z" />
    <glyph glyph-name="uni04DB" unicode="&#x4db;" horiz-adv-x="1132" 
d="M401 1182q-51 0 -84.5 34t-33.5 84q0 48 34 81.5t84 33.5q49 0 84 -34.5t35 -82.5q0 -47 -35 -81.5t-84 -34.5zM772 1182q-50 0 -84.5 34.5t-34.5 83.5q0 47 35 81t84 34t84 -34.5t35 -82.5q0 -47 -35 -81.5t-84 -34.5zM530 1010q144 0 258.5 -59.5t183 -178t68.5 -278.5
q0 -226 -127.5 -366t-353.5 -140q-218 0 -343.5 137.5t-125.5 349.5q0 32 6 74h778q-17 146 -114 228.5t-240 82.5q-148 0 -293 -80l-65 135q168 95 368 95zM559 137q131 0 210.5 74t100.5 203h-612q12 -128 91.5 -202.5t209.5 -74.5z" />
    <glyph glyph-name="uni04DC" unicode="&#x4dc;" horiz-adv-x="1929" 
d="M772 1661q-51 0 -85 34.5t-34 84.5q0 48 34 81t85 33q49 0 84 -34.5t35 -81.5q0 -48 -35 -82.5t-84 -34.5zM1143 1661q-49 0 -84 34.5t-35 84.5q0 47 35 80.5t84 33.5t84 -34.5t35 -81.5q0 -48 -35 -82.5t-84 -34.5zM53 0l502 795l-500 659h217l598 -799h2v799h172v-809
l5 -2l585 811h215l-481 -661l508 -793h-209l-432 670l-191 -246v-424h-172v428l-188 246l-424 -674h-207z" />
    <glyph glyph-name="uni04DD" unicode="&#x4dd;" horiz-adv-x="1587" 
d="M610 1182q-51 0 -84.5 34t-33.5 84q0 48 34 81.5t84 33.5q49 0 84 -34.5t35 -82.5q0 -47 -35 -81.5t-84 -34.5zM981 1182q-50 0 -84.5 34.5t-34.5 83.5q0 47 35 81t84 34t84 -34.5t35 -82.5q0 -47 -35 -81.5t-84 -34.5zM45 0l389 553l-383 444h201l457 -530h4v530h159
v-536h2l451 536h195l-373 -442l395 -555h-192l-322 465l-156 -176v-289h-159v291l-162 174l-320 -465h-186z" />
    <glyph glyph-name="uni04DE" unicode="&#x4de;" horiz-adv-x="1243" 
d="M422 1661q-51 0 -85 34.5t-34 84.5q0 48 34 81t85 33q49 0 84 -34.5t35 -81.5q0 -48 -35 -82.5t-84 -34.5zM793 1661q-49 0 -84 34.5t-35 84.5q0 47 35 80.5t84 33.5t83.5 -34t34.5 -82t-34.5 -82.5t-83.5 -34.5zM614 -12q-166 0 -303.5 57.5t-232.5 167.5l115 137
q147 -196 425 -196q156 0 247 68.5t91 191.5q0 124 -90.5 193t-265.5 69h-233v155h221q133 0 217 63.5t84 182.5q0 107 -75 165t-214 58q-208 0 -367 -126l-98 137q73 69 209.5 113t276.5 44q209 0 329.5 -97t120.5 -263q0 -114 -59.5 -205.5t-175.5 -130.5v-2
q140 -30 223.5 -118t83.5 -238q0 -190 -140 -308t-389 -118z" />
    <glyph glyph-name="uni04DF" unicode="&#x4df;" horiz-adv-x="1003" 
d="M334 1182q-51 0 -85 34t-34 84q0 48 34 81.5t85 33.5q49 0 84 -34.5t35 -82.5q0 -47 -35 -81.5t-84 -34.5zM705 1182q-50 0 -84.5 34.5t-34.5 83.5q0 47 35 81t84 34t83.5 -34.5t34.5 -82.5t-34.5 -82t-83.5 -34zM489 -12q-244 0 -407 104l51 150q149 -107 356 -107
q120 0 188 42.5t68 119.5q0 71 -57 107t-162 36h-225v133h199q98 0 148 36.5t50 105.5q0 145 -213 145q-170 0 -305 -76l-63 136q63 36 158.5 63t207.5 27q176 0 278.5 -67.5t102.5 -186.5q0 -79 -44.5 -141t-123.5 -89v-2q94 -22 156.5 -85.5t62.5 -162.5
q0 -131 -112 -209.5t-314 -78.5z" />
    <glyph glyph-name="uni04E0" unicode="&#x4e0;" horiz-adv-x="1220" 
d="M618 852q231 -2 374.5 -118.5t144.5 -307.5q0 -202 -140.5 -320t-382.5 -118q-170 0 -308.5 57.5t-233.5 167.5l116 137q68 -93 184.5 -145.5t245.5 -52.5q145 0 238.5 71t93.5 203q0 141 -106.5 210t-347.5 69h-138l-2 88l490 497l-2 2h-707v162h946v-127z" />
    <glyph glyph-name="uni04E1" unicode="&#x4e1;" horiz-adv-x="960" 
d="M418 -418q-215 0 -389 107l39 151q174 -106 340 -106q150 0 233.5 76.5t83.5 205.5q0 145 -114 221t-316 76h-78l-2 82l397 453l-2 6h-540v143h770v-84l-406 -469v-2q95 -13 175.5 -44t146 -81.5t102.5 -128.5t37 -176q0 -203 -129.5 -316.5t-347.5 -113.5z" />
    <glyph glyph-name="uni04E2" unicode="&#x4e2;" horiz-adv-x="1503" 
d="M463 1657v137h590v-137h-590zM180 0v1454h178v-1157h4l805 1157h156v-1454h-178v1147h-4l-801 -1147h-160z" />
    <glyph glyph-name="uni04E3" unicode="&#x4e3;" horiz-adv-x="1202" 
d="M317 1221v141h590v-141h-590zM156 0v997h166v-757h4l563 757h158v-997h-166v741h-4l-562 -741h-159z" />
    <glyph glyph-name="uni04E4" unicode="&#x4e4;" horiz-adv-x="1503" 
d="M571 1661q-51 0 -84.5 34.5t-33.5 84.5q0 48 33.5 81t84.5 33q49 0 84 -34.5t35 -81.5q0 -48 -35 -82.5t-84 -34.5zM942 1661q-50 0 -84.5 34.5t-34.5 84.5q0 47 35 80.5t84 33.5t84 -34.5t35 -81.5q0 -48 -35 -82.5t-84 -34.5zM180 0v1454h178v-1157h4l805 1157h156
v-1454h-178v1147h-4l-801 -1147h-160z" />
    <glyph glyph-name="uni04E5" unicode="&#x4e5;" horiz-adv-x="1202" 
d="M426 1182q-51 0 -85 34t-34 84q0 48 34 81.5t85 33.5q49 0 84 -34.5t35 -82.5q0 -47 -35 -81.5t-84 -34.5zM797 1182q-50 0 -84.5 34.5t-34.5 83.5q0 47 35 81t84 34t83.5 -34.5t34.5 -82.5t-34.5 -82t-83.5 -34zM156 0v997h166v-757h4l563 757h158v-997h-166v741h-4
l-562 -741h-159z" />
    <glyph glyph-name="uni04E6" unicode="&#x4e6;" horiz-adv-x="1689" 
d="M662 1661q-51 0 -85 34.5t-34 84.5q0 48 34 81t85 33q49 0 83.5 -34t34.5 -82t-34.5 -82.5t-83.5 -34.5zM1032 1661q-50 0 -84.5 34.5t-34.5 84.5q0 47 35 80.5t84 33.5t84 -34.5t35 -81.5q0 -48 -35 -82.5t-84 -34.5zM848 -12q-210 0 -376.5 94t-260.5 263t-94 382
t94 382.5t261 264t376 94.5q152 0 285.5 -54t230.5 -149.5t153 -235t56 -302.5t-56 -301.5t-153 -234t-230.5 -149.5t-285.5 -54zM848 156q112 0 211 42.5t171 116.5t114 181t42 231t-42 231.5t-114 182t-171 117t-211 42.5q-236 0 -390.5 -162.5t-154.5 -410.5
q0 -246 154.5 -408.5t390.5 -162.5z" />
    <glyph glyph-name="uni04E7" unicode="&#x4e7;" 
d="M422 1182q-51 0 -85 34t-34 84q0 48 34 81.5t85 33.5q49 0 84 -34.5t35 -82.5q0 -47 -35 -81.5t-84 -34.5zM793 1182q-50 0 -84.5 34.5t-34.5 83.5q0 47 35 81t84 34t83.5 -34.5t34.5 -82.5t-34.5 -82t-83.5 -34zM608 -12q-151 0 -269.5 67.5t-182.5 183.5t-64 259
q0 219 144 365.5t372 146.5q223 0 368.5 -143t145.5 -369q0 -225 -145.5 -367.5t-368.5 -142.5zM608 139q145 0 244.5 101t99.5 258q0 158 -98.5 259t-245.5 101q-154 0 -250 -103.5t-96 -256.5q0 -152 96.5 -255.5t249.5 -103.5z" />
    <glyph glyph-name="uni04E8" unicode="&#x4e8;" horiz-adv-x="1689" 
d="M846 1468q153 0 286.5 -54t231 -149.5t153.5 -235t56 -302.5t-56 -301.5t-153.5 -234t-231 -149.5t-286.5 -54q-213 0 -380 97t-258 265t-91 377t91 377.5t258 266t380 97.5zM846 1307q-221 0 -371.5 -143t-175.5 -361h1090q-25 224 -177 364t-366 140zM846 147
q213 0 365 139.5t178 364.5h-1090q25 -218 175.5 -361t371.5 -143z" />
    <glyph glyph-name="uni04E9" unicode="&#x4e9;" 
d="M608 1010q225 0 369.5 -142t144.5 -370q0 -227 -144.5 -368.5t-369.5 -141.5q-230 0 -373 144.5t-143 365.5q0 220 143 366t373 146zM608 860q-143 0 -236.5 -80t-113.5 -215h700q-22 135 -118.5 215t-231.5 80zM608 137q136 0 233 82t117 217h-700q19 -134 113 -216.5
t237 -82.5z" />
    <glyph glyph-name="uni04EA" unicode="&#x4ea;" horiz-adv-x="1689" 
d="M664 1661q-51 0 -85 34.5t-34 84.5q0 48 34 81t85 33q49 0 83.5 -34t34.5 -82t-34.5 -82.5t-83.5 -34.5zM1034 1661q-50 0 -84.5 34.5t-34.5 84.5q0 47 35 80.5t84 33.5t84 -34.5t35 -81.5q0 -48 -35 -82.5t-84 -34.5zM846 1468q153 0 286.5 -54t231 -149.5t153.5 -235
t56 -302.5t-56 -301.5t-153.5 -234t-231 -149.5t-286.5 -54q-213 0 -380 97t-258 265t-91 377t91 377.5t258 266t380 97.5zM846 1307q-221 0 -371.5 -143t-175.5 -361h1090q-25 224 -177 364t-366 140zM846 147q213 0 365 139.5t178 364.5h-1090q25 -218 175.5 -361
t371.5 -143z" />
    <glyph glyph-name="uni04EB" unicode="&#x4eb;" 
d="M422 1182q-51 0 -85 34t-34 84q0 48 34 81.5t85 33.5q49 0 84 -34.5t35 -82.5q0 -47 -35 -81.5t-84 -34.5zM793 1182q-50 0 -84.5 34.5t-34.5 83.5q0 47 35 81t84 34t83.5 -34.5t34.5 -82.5t-34.5 -82t-83.5 -34zM608 1010q225 0 369.5 -142t144.5 -370
q0 -227 -144.5 -368.5t-369.5 -141.5q-230 0 -373 144.5t-143 365.5q0 220 143 366t373 146zM608 860q-143 0 -236.5 -80t-113.5 -215h700q-22 135 -118.5 215t-231.5 80zM608 137q136 0 233 82t117 217h-700q19 -134 113 -216.5t237 -82.5z" />
    <glyph glyph-name="uni04EC" unicode="&#x4ec;" horiz-adv-x="1482" 
d="M506 1661q-51 0 -85 34.5t-34 84.5q0 48 34 81t85 33q49 0 84 -34.5t35 -81.5q0 -48 -35 -82.5t-84 -34.5zM877 1661q-49 0 -84 34.5t-35 84.5q0 47 35 80.5t84 33.5t83.5 -34t34.5 -82t-34.5 -82.5t-83.5 -34.5zM649 1468q225 0 388.5 -96t246 -263.5t82.5 -385.5
q0 -176 -55.5 -317.5t-153 -231t-225.5 -137t-277 -47.5q-171 0 -321 60t-250 169l106 139q77 -87 203.5 -143.5t265.5 -56.5q221 0 363.5 133.5t159.5 359.5h-776l2 160h774q-17 223 -161.5 356t-373.5 133q-244 0 -424 -151l-102 137q104 86 241.5 134t286.5 48z" />
    <glyph glyph-name="uni04ED" unicode="&#x4ed;" horiz-adv-x="1081" 
d="M336 1182q-51 0 -85 34t-34 84q0 48 34 81.5t85 33.5q49 0 84 -34.5t35 -82.5q0 -47 -35 -81.5t-84 -34.5zM707 1182q-50 0 -84.5 34.5t-34.5 83.5q0 47 35 81t84 34t83.5 -34.5t34.5 -82.5t-34.5 -82t-83.5 -34zM469 1010q242 0 381 -141t139 -375q0 -109 -31 -199.5
t-92.5 -160t-163.5 -108t-235 -38.5q-116 0 -225 35.5t-170 91.5l86 125q135 -106 325 -103q147 2 234 78.5t104 220.5h-551v135h551q-19 136 -112.5 210.5t-243.5 76.5q-141 3 -295 -74l-64 136q59 35 158 62.5t205 27.5z" />
    <glyph glyph-name="uni04EE" unicode="&#x4ee;" horiz-adv-x="1316" 
d="M961 1794v-137h-590v137h590zM1087 1454h191l-483 -1083q-73 -163 -104 -215q-76 -124 -184 -156q-46 -14 -101 -14q-57 0 -127 20.5t-107 54.5l61 154q79 -57 170 -57q81 0 132.5 56.5t91.5 176.5l-588 1063h201l465 -858h6z" />
    <glyph glyph-name="uni04EF" unicode="&#x4ef;" horiz-adv-x="1075" 
d="M246 1221v141h590v-141h-590zM291 -406l178 445l-424 958h180l324 -757h4l301 757h174l-565 -1403h-172z" />
    </font>
</defs>
</svg>
